<?xml version="1.0" encoding="utf-8"?>
<!-- Generator: Adobe Illustrator 19.0.0, SVG Export Plug-In . SVG Version: 6.00 Build 0)  -->
<svg version="1.1" id="Layer_1" xmlns="http://www.w3.org/2000/svg" xmlns:xlink="http://www.w3.org/1999/xlink" x="0px" y="0px"
	 viewBox="0 0 1000 1000" style="enable-background:new 0 0 1000 1000;" xml:space="preserve">
<style type="text/css">
	.st0{fill:#515451;}
</style>
<path id="Arm_Left_Thumb_Down_1_" class="st0" d="M581.3,240.3c9.9,3.7,6.2,3.3,36.3,17.8c8.3,4,20.5,9.8,35.5,16.5
	c11.8,9.2,22.4,13.4,30,15.5c18.5,5.1,33.2,1.6,40.4,11.9c3.9,5.5,4.9,11.6,4.9,11.6c1.8,3.2,3.7,7.7,4.7,13.4
	c0.9,5.3,0.4,8.9,1.3,9.1c1.1,0.2,3.7-4.2,3.9-9.1c0.2-5.5-2.7-8.8-1.3-10.3c1.3-1.3,3.7,1,6.5,0.1c5.7-1.8,6.1-14.6,6.2-16.1
	c0.1-4.7,0.3-10.6-3.3-14c-4.4-4.1-10.6-1-20-0.7c-9.4,0.4-20.9-4.8-43.8-15c-10.4-4.6-15.5-6.9-22.5-11
	c-13.4-7.8-23.2-16.1-29.5-22c-26.2-19-35.6-24.7-38.3-25.4c-0.4-0.1-3.1-0.8-6.5-2.3c-0.9-0.4-2-0.9-3.2-1.6
	c-11.7,3-19,6.2-23.5,9.2c-3.9,2.7-6.8,5.7-6.5,8.7C553.1,232.2,564.5,233.9,581.3,240.3z"/>
</svg>
