<?xml version="1.0" encoding="utf-8"?>
<!-- Generator: Adobe Illustrator 19.2.1, SVG Export Plug-In . SVG Version: 6.00 Build 0)  -->
<svg version="1.1"
	 id="svg4356" inkscape:version="0.92.0 r15299" sodipodi:docname="fc vector edit.svg" xmlns:cc="http://creativecommons.org/ns#" xmlns:dc="http://purl.org/dc/elements/1.1/" xmlns:inkscape="http://www.inkscape.org/namespaces/inkscape" xmlns:rdf="http://www.w3.org/1999/02/22-rdf-syntax-ns#" xmlns:sodipodi="http://sodipodi.sourceforge.net/DTD/sodipodi-0.dtd" xmlns:svg="http://www.w3.org/2000/svg"
	 xmlns="http://www.w3.org/2000/svg" xmlns:xlink="http://www.w3.org/1999/xlink" x="0px" y="0px" viewBox="0 0 1000 1000"
	 style="enable-background:new 0 0 1000 1000;" xml:space="preserve">
<style type="text/css">
	.st0{opacity:0.24;fill:#BF2126;enable-background:new    ;}
	.st1{fill:#070505;}
	.st2{fill:#BF2126;}
</style>
<g id="collar_2">
	<path d="M488.2,163.9l53.1,1.1c0,0-9.1,17.6-35.3,19C498.3,184.4,488.2,163.9,488.2,163.9z"/>
</g>
<g id="Gag">
	<path id="XMLID_867_" inkscape:connector-curvature="0" class="st0" d="M498,167.3c2.6,3.9,7.6,0.9,14,5.1c7.8,5,8.1,14,13.2,14
		c1.7,0,3.5-1,4.3-2.4c4.5-7.7-18.1-34.7-27.5-31.1C497.6,154.6,495.3,163.1,498,167.3z"/>
	<polygon id="XMLID_892_" class="st1" points="541.3,165 489,163.9 486.4,157.1 545.1,157.1 	"/>
	<ellipse id="XMLID_893_" class="st2" cx="502.8" cy="161.1" rx="7.6" ry="8.7"/>
</g>
</svg>
