<?xml version="1.0" encoding="utf-8"?>
<!-- Generator: Adobe Illustrator 19.0.0, SVG Export Plug-In . SVG Version: 6.00 Build 0)  -->
<svg version="1.1" id="Layer_1" xmlns="http://www.w3.org/2000/svg" xmlns:xlink="http://www.w3.org/1999/xlink" x="0px" y="0px"
	 viewBox="0 0 1000 1000" style="enable-background:new 0 0 1000 1000;" xml:space="preserve">
<style type="text/css">
	.st0{fill:#515451;}
</style>
<g id="Boob_7_1_">
	<g>
		<path id="XMLID_7_" class="st0" d="M508.3,214.2c-61.3-0.3-170.5,106.2-204.5,134.6c-58.6,49.2-75.7,114.7-32.2,167.5
			c27.1,33.2,140.5,25.7,169.6-36.8c35.9,110.2,161.6,98.6,212.4,32.2c36.8-48.3-2-104.3-13-164.8
			C628.4,280.9,568,214.5,508.3,214.2"/>
	</g>
	<g>
		<path id="XMLID_6_" class="st0" d="M508.3,214.2c-61.3-0.3-170.5,106.2-204.5,134.6c-58.6,49.2-75.7,114.7-32.2,167.5
			c27.1,33.2,140.5,25.7,169.6-36.8c35.9,110.2,161.6,98.6,212.4,32.2c36.8-48.3-2-104.3-13-164.8
			C628.4,280.9,568,214.5,508.3,214.2"/>
	</g>
</g>
</svg>
