<?xml version="1.0" encoding="utf-8"?>
<!-- Generator: Adobe Illustrator 19.0.0, SVG Export Plug-In . SVG Version: 6.00 Build 0)  -->
<svg version="1.1" id="Layer_1" xmlns="http://www.w3.org/2000/svg" xmlns:xlink="http://www.w3.org/1999/xlink" x="0px" y="0px"
	 viewBox="0 0 1000 1000" style="enable-background:new 0 0 1000 1000;" xml:space="preserve">
<style type="text/css">
	.st0{fill:#515451;}
</style>
<g id="Boob_6_2_">
	<g>
		<path id="XMLID_7_" class="st0" d="M507.1,214.2c-50.3-0.2-140,87.2-168,110.5c-48.1,40.4-62.2,94.2-26.5,137.5
			C335,489.5,428.1,483.3,452,432c29.5,90.5,132.7,81,174.4,26.5c30.2-39.7-1.6-85.7-10.7-135.3C605.8,269,556.2,214.4,507.1,214.2"
			/>
	</g>
	<g>
		<path id="XMLID_6_" class="st0" d="M507.1,214.2c-50.3-0.2-140,87.2-168,110.5c-48.1,40.4-62.2,94.2-26.5,137.5
			C335,489.5,428.1,483.3,452,432c29.5,90.5,132.7,81,174.4,26.5c30.2-39.7-1.6-85.7-10.7-135.3C605.8,269,556.2,214.4,507.1,214.2"
			/>
	</g>
</g>
</svg>
