<?xml version="1.0" encoding="utf-8"?>
<!-- Generator: Adobe Illustrator 19.0.0, SVG Export Plug-In . SVG Version: 6.00 Build 0)  -->
<svg version="1.1" id="Layer_1" xmlns="http://www.w3.org/2000/svg" xmlns:xlink="http://www.w3.org/1999/xlink" x="0px" y="0px"
	 viewBox="0 0 1000 1000" style="enable-background:new 0 0 1000 1000;" xml:space="preserve">
<style type="text/css">
	.st0{fill:#515251;}
</style>
<g id="Boot_Latex">
	<path id="XMLID_314_" class="st0" d="M535.9,889.4c-1.9,7,1.7,8.6,3.5,23.1c1.2,9.2,2.2,17.5,1.3,22.5c-0.1,0.4,0,2.8,0.3,6
		c0.4,5.2,0.7,7.8,2,10c2.3,3.6,6.4,4.8,9.6,5.5c4.8,1.1,9.9,2.2,13.2-0.9c2.9-2.7,3-7.2,3.1-12.3c0.1-8.9-2.1-12.2-4.2-23.3
		c-1.1-6-1.3-10.4-1.9-18.7c-0.5-8.4-0.5-15.3-0.4-19.2c0-1.6,0.1-2.8,0.1-3.1c0.8-25.5-5.1-66.8,1-107.3c0,0,4.6-31,4.6-66.5
		c0-2.1-0.7-7.6-1.6-10.3c-8.5,0-18.3,6.9-36.7,6.9c-1.2,3.7-2.3,10.8-2.3,13.7c0.8,53.8,3.1,67.5,3.1,67.5
		c4.1,23.8,5.9,48,10.3,71.7c0,0,2.3,12.7-0.6,24.1c-0.5,2-1,3.1-1,3.1C538.2,884.6,536.8,885.7,535.9,889.4z"/>
	<path id="XMLID_313_" class="st0" d="M469.2,698.7c7.9-1.2,22.7,5.2,38.3,4.4c5.2,41.8-7.7,77.2-8.9,88c-1.2,10.8-3.7,28.4-9.4,65
		c0,0-0.5,5.5,1.4,10c0.8,2,1.4,2.1,2.5,3.8c2.8,4.5,3.8,11.4,3.3,16.5c-0.4,4.2-1.6,4.2-3.1,9.3c-1.6,5.6-1.9,13.8-2.4,30.1
		c0,1.5-0.4,5-0.4,6.5c-0.4,0.3-2,0.3-2.6,0c0.1-1.2,0.1-3.5,0.1-4.9c-0.2-8.4,1.2-25.3-0.3-26.2c-1-0.6-3.7,5.1-5.8,10.9
		c-4.2,12.2-2.3,16.9-5.6,21.3c-2.8,3.8-7.2,3.4-15.9,2.7c-9.2-0.8-10.9-3.8-11.5-4.8c-2.1-4-2.4-10.8-0.5-13.1
		c0.7-0.9,1.2-0.5,3-1.1c3.3-1,5.7-3.4,6.5-4.3c2.8-3.2,3.4-8.4,3.7-11.5c1.7-13.2,3-15.7,4-20.9c0,0,0.7-3.9,1-8.3
		c0.4-4.9,5-101.2,3.6-160.4C470.2,709.7,469.5,704.6,469.2,698.7z"/>
</g>
</svg>
