<?xml version="1.0" encoding="utf-8"?>
<!-- Generator: Adobe Illustrator 19.0.0, SVG Export Plug-In . SVG Version: 6.00 Build 0)  -->
<svg version="1.1" id="Layer_1" xmlns="http://www.w3.org/2000/svg" xmlns:xlink="http://www.w3.org/1999/xlink" x="0px" y="0px"
	 viewBox="0 0 1000 1000" style="enable-background:new 0 0 1000 1000;" xml:space="preserve">
<style type="text/css">
	.st0{fill:#8F8F8E;}
</style>
<g id="Boot_Wide">
	<path id="XMLID_300_" class="st0" d="M526.2,889.4c-2.5,7,2.2,8.6,4.5,23.1c1.5,9.2,2.8,17.5,1.8,22.5c-0.1,0.4,0,2.8,0.4,6
		c0.6,5.2,0.9,7.8,2.6,10c2.9,3.6,8.3,4.8,12.4,5.5c6.2,1.1,12.7,2.2,17.1-0.9c3.7-2.7,3.9-7.2,4-12.3c0.2-8.9-2.8-12.2-5.4-23.3
		c-1.4-6-1.8-10.4-2.4-18.7c-0.7-8.4-0.6-15.3-0.5-19.2c0-1.6,0.1-2.8,0.1-3.1c1.1-25.5-1.1-66.3,3.8-107.1
		c1.4-11.6,3.4-31.1,3.4-66.6c0-2.1-0.9-7.6-2-10.3c-11,0-23.6,6.9-47.5,6.9c-1.5,3.7-3,10.8-2.9,13.7c1,53.8,4,67.5,4,67.5
		c5.2,23.8,7.6,48,13.2,71.7c0,0,3,12.7-0.8,24.1c-0.6,2-1.2,3.1-1.2,3.1C529.2,884.6,527.4,885.7,526.2,889.4z"/>
	<path id="XMLID_299_" class="st0" d="M460.7,698.7c10.3-1.2,29.8,5.2,50,4.4c6.8,41.8-10,77.2-11.6,88c-1.5,10.8-4.9,28.4-12.3,65
		c0,0-0.6,5.5,1.9,10c1.1,2,1.9,2.1,3.3,3.8c3.7,4.5,5.1,11.4,4.4,16.5c-0.6,4.2-2.1,4.2-4.1,9.3c-2.1,5.6-2.5,13.8-3.1,30.1
		c-0.1,1.5-0.4,5-0.6,6.5c-0.6,0.3-2.7,0.3-3.4,0c0.1-1.2,0.1-3.5,0.1-4.9c-0.3-8.4,1.6-25.3-0.4-26.2c-1.2-0.6-4.9,5.1-7.5,10.9
		c-5.4,12.2-2.9,16.9-7.3,21.3c-3.6,3.8-9.4,3.4-20.9,2.7c-12-0.8-14.4-3.8-15-4.8c-2.8-4-3.1-10.8-0.7-13.1c0.9-0.9,1.6-0.5,4-1.1
		c4.4-1,7.5-3.4,8.4-4.3c3.6-3.2,4.4-8.4,4.9-11.5c2.2-13.2,3.9-15.7,5.2-20.9c0,0,0.9-3.9,1.3-8.3c0.4-4.9,6.5-101.2,4.7-160.4
		C462,709.7,461.1,704.6,460.7,698.7z"/>
</g>
</svg>
