<?xml version="1.0" encoding="utf-8"?>
<!-- Generator: Adobe Illustrator 19.0.0, SVG Export Plug-In . SVG Version: 6.00 Build 0)  -->
<svg version="1.1" id="Layer_1" xmlns="http://www.w3.org/2000/svg" xmlns:xlink="http://www.w3.org/1999/xlink" x="0px" y="0px"
	 viewBox="0 0 1000 1000" style="enable-background:new 0 0 1000 1000;" xml:space="preserve">
<style type="text/css">
	.st0{fill:#515451;}
</style>
<path id="Butt_1_2_" class="st0" d="M547.3,389.8c1.7-0.5,6.3,2.7,15.5,9c4.2,2.9,9.2,7.9,21.1,16.9c8.7,6.6,15.4,11.6,20.6,19.1
	c0,0,13.7,19.8,6.6,48.5c-0.6,2.7-1.5,5.2-1.5,5.2c-1.2,3.6-2.9,6.4-5.9,12.7c-4.4,9.3-4.7,11.3-6.4,14.7
	c-4.4,8.9-8.5,11.2-15.6,19.8c-4.1,5-6.9,9.3-9,12.9c-5.5,9.6-6,11.3-7,11.4C555.8,560.8,529.1,394.7,547.3,389.8z"/>
</svg>
