<?xml version="1.0" encoding="utf-8"?>
<!-- Generator: Adobe Illustrator 19.0.0, SVG Export Plug-In . SVG Version: 6.00 Build 0)  -->
<svg version="1.1" id="Layer_1" xmlns="http://www.w3.org/2000/svg" xmlns:xlink="http://www.w3.org/1999/xlink" x="0px" y="0px"
	 viewBox="0 0 1000 1000" style="enable-background:new 0 0 1000 1000;" xml:space="preserve">
<style type="text/css">
	.st0{fill:#515351;}
</style>
<path id="Butt_2_1_" class="st0" d="M548,389.8c1.9-0.5,7,2.9,17.2,9.8c4.7,3.1,10.2,8.6,23.4,18.3c9.7,7.1,17,12.5,22.9,20.7
	c0,0,15.2,21.5,7.3,52.6c-0.7,2.9-1.7,5.7-1.7,5.7c-1.4,3.9-3.3,6.9-6.5,13.8c-4.8,10.1-5.2,12.2-7.1,15.9
	c-4.9,9.6-9.5,12.1-17.3,21.5c-4.6,5.4-7.7,10.1-9.9,14c-6.1,10.4-6.6,12.3-7.8,12.4C557.4,575.3,527.8,395.1,548,389.8z"/>
</svg>
