<?xml version="1.0" encoding="utf-8"?>
<!-- Generator: Adobe Illustrator 19.2.1, SVG Export Plug-In . SVG Version: 6.00 Build 0)  -->
<svg version="1.1" id="Chastity_male_fore" xmlns="http://www.w3.org/2000/svg" xmlns:xlink="http://www.w3.org/1999/xlink" x="0px"
	 y="0px" viewBox="0 0 1000 1000" style="enable-background:new 0 0 1000 1000;" xml:space="preserve">
<style type="text/css">
	.st0{fill:#BABABA;}
</style>
<g id="chastity_male_3">
	<g id="chastity_male_5_2_">
		<g>
			<ellipse transform="matrix(1 -9.029423e-03 9.029423e-03 1 -4.3743 4.1632)" cx="458.9" cy="486.5" rx="7.2" ry="1.3"/>
			
				<ellipse transform="matrix(1 -9.029423e-03 9.029423e-03 1 -4.3767 4.1608)" class="st0" cx="458.6" cy="486.8" rx="7.1" ry="1.2"/>
		</g>
		<g>
			<g>
				<ellipse transform="matrix(0.9512 -0.3087 0.3087 0.9512 -110.5409 168.4236)" cx="477" cy="433.6" rx="1.1" ry="9.3"/>
				
					<ellipse transform="matrix(0.9512 -0.3087 0.3087 0.9512 -110.4769 168.3101)" class="st0" cx="476.7" cy="433.3" rx="1" ry="9.3"/>
			</g>
			<g>
				<ellipse transform="matrix(0.8911 -0.4539 0.4539 0.8911 -146.4997 261.4242)" cx="471.4" cy="435.9" rx="1.3" ry="10.7"/>
				
					<ellipse transform="matrix(0.8911 -0.4539 0.4539 0.8911 -146.4395 261.2099)" class="st0" cx="471" cy="435.7" rx="1.2" ry="10.6"/>
			</g>
			<g>
				<ellipse transform="matrix(0.5844 -0.8114 0.8114 0.5844 -169.265 559.971)" cx="462.1" cy="445.2" rx="1.3" ry="11.2"/>
				
					<ellipse transform="matrix(0.5844 -0.8114 0.8114 0.5844 -169.4474 559.5605)" class="st0" cx="461.6" cy="445.2" rx="1.2" ry="11.1"/>
			</g>
			<g>
				<ellipse transform="matrix(0.1595 -0.9872 0.9872 0.1595 -68.3341 838.4819)" cx="458.3" cy="459.4" rx="1.3" ry="10.7"/>
				
					<ellipse transform="matrix(0.1595 -0.9872 0.9872 0.1595 -68.8968 838.2177)" class="st0" cx="457.8" cy="459.6" rx="1.2" ry="10.6"/>
			</g>
			<g>
				<ellipse transform="matrix(1 -7.680404e-03 7.680404e-03 1 -3.6574 3.5345)" cx="458.4" cy="478" rx="1.3" ry="9.8"/>
				
					<ellipse transform="matrix(1 -7.680404e-03 7.680404e-03 1 -3.6546 3.5324)" class="st0" cx="458.1" cy="477.6" rx="1.2" ry="9.7"/>
			</g>
			<g>
				<g>
					<path d="M469.4,477.7c-0.5,5.4-3.2,9.5-3.8,9.3c-0.6-0.1,1-4.3,1.4-9.6c0.5-5.3-0.4-9.5,0.4-9.4
						C468,468,469.9,472.3,469.4,477.7z"/>
					<path class="st0" d="M469.1,477.3c-0.4,5.4-3,9.4-3.5,9.3c-0.6-0.1,1-4.2,1.3-9.5c0.4-5.3-0.5-9.4,0.2-9.3
						C467.6,467.7,469.5,472,469.1,477.3z"/>
				</g>
			</g>
			<g>
				<g>
					<path d="M450.2,477.9c0.4,5.1,1.9,9,1.3,9.6c-0.5,0.6-3.4-3.1-3.9-9.4c-0.5-6.2,1.8-11.2,2.4-10.7
						C450.6,467.9,449.7,472.8,450.2,477.9z"/>
					<path class="st0" d="M450.5,477.9c0.4,5,1.8,8.7,1.3,9.3c-0.5,0.6-3.2-3.1-3.7-9c-0.5-6,1.7-10.8,2.2-10.3
						C450.9,468.2,450,472.9,450.5,477.9z"/>
				</g>
			</g>
			<g>
				<ellipse transform="matrix(0.9751 -0.2217 0.2217 0.9751 -83.6923 117.7559)" cx="482.6" cy="431.6" rx="0.9" ry="8.6"/>
				
					<ellipse transform="matrix(0.9751 -0.2217 0.2217 0.9751 -83.6391 117.6932)" class="st0" cx="482.4" cy="431.4" rx="0.8" ry="8.5"/>
			</g>
			<g>
				<ellipse transform="matrix(1 -9.029380e-03 9.029380e-03 1 -4.29 4.1563)" cx="458.2" cy="477.2" rx="9.6" ry="1.3"/>
				
					<ellipse transform="matrix(1 -9.029380e-03 9.029380e-03 1 -4.2924 4.1531)" class="st0" cx="457.8" cy="477.4" rx="9.5" ry="1.2"/>
			</g>
			<path d="M475.7,454.4"/>
			<g>
				<ellipse transform="matrix(0.7542 -0.6566 0.6566 0.7542 -174.1549 414.5935)" cx="466.7" cy="439.9" rx="1.3" ry="11.1"/>
				
					<ellipse transform="matrix(0.7542 -0.6566 0.6566 0.7542 -174.1813 414.2514)" class="st0" cx="466.2" cy="439.8" rx="1.2" ry="11"/>
			</g>
			<g>
				<ellipse transform="matrix(0.3711 -0.9286 0.9286 0.3711 -130.3141 711.3275)" cx="460" cy="451.9" rx="1.3" ry="11.2"/>
				
					<ellipse transform="matrix(0.3711 -0.9286 0.9286 0.3711 -130.7043 710.9363)" class="st0" cx="459.5" cy="452" rx="1.2" ry="11.1"/>
			</g>
			<path d="M486.4,430.5c0.1,0.2-5.9,1.6-13,6.3c-2.5,1.7-5.3,3.5-8,6.9c-3.5,4.4-4.8,8.6-5.2,9.7c-0.9,2.9-1.2,5.9-1.4,8
				c-0.2,2.3-0.4,5.8-0.5,5.8c0,0,0,0,0-0.1l0,0c0,0,0.3,0.1,0.3,0.1c0,0.1-0.4,0.2-0.6,0.1c-0.4-0.2-0.4-0.8-0.5-1
				c-0.3-3-0.2-4.1-0.2-4.1c-0.3-1.7,0-3.2,0.6-6.3c0.3-1.5,0.8-4.2,2.2-7.4c0.8-1.9,2.1-4.4,4.3-7.1c2-1.8,5.2-4.3,9.3-6.5
				C480.4,431.5,486.3,430.3,486.4,430.5z"/>
			<path class="st0" d="M486.5,430.5c0.1,0.2-4,1.1-9.4,3.8c-0.7,0.3-1.4,0.7-2.3,1.2c-2.4,1.3-7.8,4.4-11.5,10.5
				c-0.2,0.2-0.7,1.1-1.3,2.3c-5.1,10.3-3,20.6-3.9,20.7c-0.3,0-0.6-0.9-0.7-1.5c-0.4-1.6-1.7-6.6,1.5-16c0.6-1.7,1.5-4,2.9-6.6
				c1.6-2.3,3.1-4.1,4.3-5.2c0.1-0.1,0.1-0.1,0.2-0.2c6-5.9,16-8.3,16-8.3C484.5,430.6,486.5,430.3,486.5,430.5z"/>
			<path class="st0" d="M456.7,434.8"/>
			<path d="M447.5,436.9"/>
			<path class="st0" d="M455.6,434.9"/>
			<path d="M449.2,431.5"/>
			<g>
				
					<ellipse transform="matrix(3.821885e-02 -0.9993 0.9993 3.821885e-02 -26.5543 908.4625)" cx="458.7" cy="468" rx="1.3" ry="10.1"/>
				
					<ellipse transform="matrix(3.821885e-02 -0.9993 0.9993 3.821885e-02 -27.1749 908.3197)" class="st0" cx="458.3" cy="468.3" rx="1.2" ry="10"/>
			</g>
			<g>
				
					<ellipse transform="matrix(0.9995 -3.300942e-02 3.300942e-02 0.9995 -13.9396 16.324)" cx="487.4" cy="430.3" rx="0.9" ry="8"/>
				
					<ellipse transform="matrix(0.9995 -3.300942e-02 3.300942e-02 0.9995 -13.9302 16.3173)" class="st0" cx="487.2" cy="430" rx="0.8" ry="7.9"/>
			</g>
		</g>
	</g>
</g>
</svg>
