<?xml version="1.0" encoding="utf-8"?>
<!-- Generator: Adobe Illustrator 19.2.1, SVG Export Plug-In . SVG Version: 6.00 Build 0)  -->
<svg version="1.1" id="Layer_1" xmlns="http://www.w3.org/2000/svg" xmlns:xlink="http://www.w3.org/1999/xlink" x="0px" y="0px"
	 viewBox="0 0 1000 1000" style="enable-background:new 0 0 1000 1000;" xml:space="preserve">
<style type="text/css">
	.st0{fill:#BABABA;}
</style>
<g id="chastity_male_3">
	<g id="chastity_male_5_2_">
		<g>
			<ellipse transform="matrix(1 -9.029055e-03 9.029055e-03 1 -4.5007 4.0808)" cx="449.7" cy="500.5" rx="8.8" ry="1.6"/>
			
				<ellipse transform="matrix(1 -9.029055e-03 9.029055e-03 1 -4.504 4.0775)" class="st0" cx="449.3" cy="500.9" rx="8.7" ry="1.5"/>
		</g>
		<g>
			<g>
				<ellipse transform="matrix(0.9512 -0.3087 0.3087 0.9512 -111.5603 166.926)" cx="471.8" cy="436" rx="1.3" ry="11.3"/>
				
					<ellipse transform="matrix(0.9512 -0.3087 0.3087 0.9512 -111.4638 166.7897)" class="st0" cx="471.4" cy="435.7" rx="1.2" ry="11.3"/>
			</g>
			<g>
				<ellipse transform="matrix(0.8911 -0.4539 0.4539 0.8911 -148.5177 258.8278)" cx="464.9" cy="438.8" rx="1.6" ry="13"/>
				
					<ellipse transform="matrix(0.8911 -0.4539 0.4539 0.8911 -148.4524 258.5858)" class="st0" cx="464.5" cy="438.6" rx="1.5" ry="12.9"/>
			</g>
			<g>
				<ellipse transform="matrix(0.5844 -0.8114 0.8114 0.5844 -176.8199 555.0465)" cx="453.5" cy="450.2" rx="1.6" ry="13.6"/>
				
					<ellipse transform="matrix(0.5844 -0.8114 0.8114 0.5844 -177.0554 554.5748)" class="st0" cx="452.9" cy="450.1" rx="1.5" ry="13.5"/>
			</g>
			<g>
				<ellipse transform="matrix(0.1595 -0.9872 0.9872 0.1595 -84.0521 836.002)" cx="448.9" cy="467.4" rx="1.6" ry="13"/>
				
					<ellipse transform="matrix(0.1595 -0.9872 0.9872 0.1595 -84.8221 835.7343)" class="st0" cx="448.4" cy="467.7" rx="1.5" ry="12.9"/>
			</g>
			<g>
				<ellipse transform="matrix(1 -7.680178e-03 7.680178e-03 1 -3.7511 3.4635)" cx="449.1" cy="490.1" rx="1.6" ry="11.9"/>
				
					<ellipse transform="matrix(1 -7.680178e-03 7.680178e-03 1 -3.7473 3.4607)" class="st0" cx="448.7" cy="489.6" rx="1.5" ry="11.8"/>
			</g>
			<g>
				<g>
					<path d="M462.5,489.8c-0.6,6.6-3.9,11.6-4.6,11.3c-0.7-0.1,1.2-5.2,1.7-11.7c0.6-6.5-0.5-11.6,0.5-11.5
						C460.8,477.9,463.1,483.2,462.5,489.8z"/>
					<path class="st0" d="M462.1,489.3c-0.5,6.6-3.7,11.5-4.3,11.3c-0.7-0.1,1.2-5.1,1.6-11.6c0.5-6.5-0.6-11.5,0.2-11.3
						C460.3,477.6,462.6,482.8,462.1,489.3z"/>
				</g>
			</g>
			<g>
				<g>
					<path d="M439.1,490c0.5,6.2,2.3,11,1.6,11.7c-0.6,0.7-4.1-3.8-4.8-11.5c-0.6-7.6,2.2-13.6,2.9-13
						C439.6,477.8,438.5,483.8,439.1,490z"/>
					<path class="st0" d="M439.4,490c0.5,6.1,2.2,10.6,1.6,11.3c-0.6,0.7-3.9-3.8-4.5-11c-0.6-7.3,2.1-13.2,2.7-12.5
						C439.9,478.2,438.8,483.9,439.4,490z"/>
				</g>
			</g>
			<g>
				<ellipse transform="matrix(0.9751 -0.2217 0.2217 0.9751 -84.2233 116.8819)" cx="478.5" cy="433.6" rx="1.1" ry="10.5"/>
				
					<ellipse transform="matrix(0.9751 -0.2217 0.2217 0.9751 -84.1713 116.8251)" class="st0" cx="478.3" cy="433.3" rx="1" ry="10.4"/>
			</g>
			<g>
				<ellipse transform="matrix(1 -9.029012e-03 9.029012e-03 1 -4.3984 4.0726)" cx="448.9" cy="489.2" rx="11.7" ry="1.6"/>
				
					<ellipse transform="matrix(1 -9.029012e-03 9.029012e-03 1 -4.4006 4.0682)" class="st0" cx="448.4" cy="489.4" rx="11.6" ry="1.5"/>
			</g>
			<g>
				<ellipse transform="matrix(0.7542 -0.6566 0.6566 0.7542 -178.5176 410.5447)" cx="459.1" cy="443.7" rx="1.6" ry="13.5"/>
				
					<ellipse transform="matrix(0.7542 -0.6566 0.6566 0.7542 -178.5867 410.1426)" class="st0" cx="458.6" cy="443.6" rx="1.5" ry="13.4"/>
			</g>
			<g>
				<ellipse transform="matrix(0.3711 -0.9286 0.9286 0.3711 -141.8914 707.0615)" cx="451.1" cy="458.3" rx="1.6" ry="13.6"/>
				
					<ellipse transform="matrix(0.3711 -0.9286 0.9286 0.3711 -142.386 706.5995)" class="st0" cx="450.5" cy="458.4" rx="1.5" ry="13.5"/>
			</g>
			<path d="M483.2,432.2c0.1,0.2-7.2,1.9-15.8,7.7c-3,2.1-6.5,4.3-9.7,8.4c-4.3,5.4-5.8,10.5-6.3,11.8c-1.1,3.5-1.5,7.2-1.7,9.7
				c-0.2,2.8-0.5,7.1-0.6,7.1c0,0,0,0,0-0.1l0,0l0.4,0.1c0,0.1-0.5,0.2-0.7,0.1c-0.5-0.2-0.5-1-0.6-1.2c-0.4-3.7-0.2-5-0.2-5
				c-0.4-2.1,0-3.9,0.7-7.7c0.4-1.8,1-5.1,2.7-9c1-2.3,2.6-5.4,5.2-8.7c2.4-2.2,6.3-5.2,11.3-7.9C475.9,433.5,483.1,432,483.2,432.2
				z"/>
			<path class="st0" d="M483.3,432.2c0.1,0.2-4.9,1.3-11.5,4.6c-0.9,0.4-1.7,0.9-2.8,1.5c-2.9,1.6-9.5,5.4-14,12.8
				c-0.2,0.2-0.9,1.3-1.6,2.8c-6.2,12.5-3.7,25.1-4.8,25.2c-0.4,0-0.7-1.1-0.9-1.8c-0.5-1.9-2.1-8,1.8-19.5c0.7-2.1,1.8-4.9,3.5-8
				c1.9-2.8,3.8-5,5.2-6.3c0.1-0.1,0.1-0.1,0.2-0.2c7.3-7.2,19.5-10.1,19.5-10.1C480.9,432.4,483.3,432,483.3,432.2z"/>
			<g>
				
					<ellipse transform="matrix(3.821768e-02 -0.9993 0.9993 3.821768e-02 -45.3476 908.6811)" cx="449.4" cy="477.9" rx="1.6" ry="12.3"/>
				
					<ellipse transform="matrix(3.821768e-02 -0.9993 0.9993 3.821768e-02 -46.0682 908.5864)" class="st0" cx="449" cy="478.2" rx="1.5" ry="12.2"/>
			</g>
			<g>
				
					<ellipse transform="matrix(0.9995 -3.300794e-02 3.300794e-02 0.9995 -13.9963 16.2254)" cx="484.4" cy="432" rx="1.1" ry="9.7"/>
				
					<ellipse transform="matrix(0.9995 -3.300794e-02 3.300794e-02 0.9995 -13.9844 16.2172)" class="st0" cx="484.2" cy="431.7" rx="1" ry="9.6"/>
			</g>
		</g>
	</g>
</g>
</svg>
