<?xml version="1.0" encoding="utf-8"?>
<!-- Generator: Adobe Illustrator 19.2.1, SVG Export Plug-In . SVG Version: 6.00 Build 0)  -->
<svg version="1.1" id="Layer_3" xmlns="http://www.w3.org/2000/svg" xmlns:xlink="http://www.w3.org/1999/xlink" x="0px" y="0px"
	 viewBox="0 0 1000 1000" style="enable-background:new 0 0 1000 1000;" xml:space="preserve">
<style type="text/css">
	.st0{fill:#BABABA;}
</style>
<path d="M453.7,401.7c8.8,3.6,21.3,7.4,36.6,8.6c23,1.7,41.4-3.5,52-7.4c-7.9,5.3-20.7,15.5-31.1,32.6c-7.9,13-11.5,25.2-13.2,33.6
	c-1.4,8.4-3,10-4.1,10.1c-2.1,0.2-3.9-5.4-7-14.5c-2.9-8.3-6.1-16.5-8.7-24.9C475.4,430.3,469.1,417.2,453.7,401.7z"/>
<path class="st0" d="M452.2,399.9c8.9,3.6,21.7,7.5,37.3,8.7c23.4,1.7,42.1-3.5,53-7.5c-8,5.4-21.1,15.7-31.7,32.8
	c-8,13.1-11.7,25.4-13.5,33.8c-1.2,5.8-2.3,10-4.2,10.2c-3.6,0.3-5.9-15.7-17.4-40.4c-1.4-3-3.2-6.8-5.8-11.6
	C463.6,414.4,457,405.7,452.2,399.9z"/>
</svg>
