<?xml version="1.0" encoding="utf-8"?>
<!-- Generator: Adobe Illustrator 19.2.1, SVG Export Plug-In . SVG Version: 6.00 Build 0)  -->
<svg version="1.1" id="Chastity_male_fore" xmlns="http://www.w3.org/2000/svg" xmlns:xlink="http://www.w3.org/1999/xlink" x="0px"
	 y="0px" viewBox="0 0 1000 1000" style="enable-background:new 0 0 1000 1000;" xml:space="preserve">
<style type="text/css">
	.st0{fill:#BABABA;}
</style>
<g id="chastity_male_2">
	<g id="chastity_male_5_3_">
		<g>
			<ellipse transform="matrix(1 -9.029423e-03 9.029423e-03 1 -4.2053 4.2375)" cx="467.2" cy="467.8" rx="4.6" ry="0.8"/>
			<ellipse transform="matrix(1 -9.029423e-03 9.029423e-03 1 -4.2069 4.2359)" class="st0" cx="467" cy="468" rx="4.6" ry="0.8"/>
		</g>
		<g>
			<g>
				<ellipse transform="matrix(0.9512 -0.3087 0.3087 0.9512 -110.4285 169.0153)" cx="479" cy="433.5" rx="0.7" ry="6.1"/>
				
					<ellipse transform="matrix(0.9512 -0.3087 0.3087 0.9512 -110.3869 168.9417)" class="st0" cx="478.7" cy="433.3" rx="0.7" ry="6"/>
			</g>
			<g>
				<ellipse transform="matrix(0.8911 -0.4539 0.4539 0.8911 -145.6728 263.1042)" cx="475.3" cy="435" rx="0.8" ry="6.9"/>
				
					<ellipse transform="matrix(0.8911 -0.4539 0.4539 0.8911 -145.6338 262.9652)" class="st0" cx="475" cy="434.9" rx="0.8" ry="6.8"/>
			</g>
			<g>
				<ellipse transform="matrix(0.5844 -0.8114 0.8114 0.5844 -162.9033 564.0713)" cx="469.3" cy="441.1" rx="0.8" ry="7.2"/>
				
					<ellipse transform="matrix(0.5844 -0.8114 0.8114 0.5844 -163.0215 563.8052)" class="st0" cx="468.9" cy="441.1" rx="0.8" ry="7.2"/>
			</g>
			<g>
				<ellipse transform="matrix(0.1595 -0.9872 0.9872 0.1595 -52.1584 839.2234)" cx="466.8" cy="450.2" rx="0.8" ry="7"/>
				
					<ellipse transform="matrix(0.1595 -0.9872 0.9872 0.1595 -52.5232 839.0521)" class="st0" cx="466.5" cy="450.4" rx="0.8" ry="6.9"/>
			</g>
			<g>
				<ellipse transform="matrix(1 -7.680404e-03 7.680404e-03 1 -3.5368 3.5993)" cx="466.9" cy="462.3" rx="0.8" ry="6.4"/>
				
					<ellipse transform="matrix(1 -7.680404e-03 7.680404e-03 1 -3.535 3.5979)" class="st0" cx="466.7" cy="462.1" rx="0.8" ry="6.3"/>
			</g>
			<g>
				<g>
					<path d="M474,462.1c-0.3,3.5-2.1,6.1-2.5,6.1c-0.4-0.1,0.6-2.8,0.9-6.2c0.3-3.5-0.2-6.2,0.2-6.1
						C473.1,455.9,474.3,458.6,474,462.1z"/>
					<path class="st0" d="M473.8,461.9c-0.3,3.5-1.9,6.1-2.3,6c-0.4-0.1,0.6-2.7,0.8-6.2c0.3-3.4-0.3-6.1,0.1-6.1
						C472.8,455.7,474.1,458.4,473.8,461.9z"/>
				</g>
			</g>
			<g>
				<g>
					<path d="M461.5,462.3c0.3,3.3,1.2,5.8,0.8,6.2c-0.4,0.4-2.2-2-2.5-6.1c-0.3-4,1.1-7.2,1.6-6.9
						C461.8,455.8,461.2,458.9,461.5,462.3z"/>
					<path class="st0" d="M461.8,462.2c0.3,3.2,1.2,5.7,0.8,6c-0.3,0.4-2.1-2-2.4-5.9c-0.3-3.9,1.1-7,1.5-6.7
						C462,456,461.4,459,461.8,462.2z"/>
				</g>
			</g>
			<g>
				<ellipse transform="matrix(0.9751 -0.2217 0.2217 0.9751 -83.8322 117.7637)" cx="482.6" cy="432.3" rx="0.6" ry="5.5"/>
				
					<ellipse transform="matrix(0.9751 -0.2217 0.2217 0.9751 -83.7977 117.723)" class="st0" cx="482.4" cy="432.1" rx="0.5" ry="5.5"/>
			</g>
			<g>
				<ellipse transform="matrix(1 -9.029380e-03 9.029380e-03 1 -4.1506 4.233)" cx="466.7" cy="461.8" rx="6.2" ry="0.8"/>
				
					<ellipse transform="matrix(1 -9.029380e-03 9.029380e-03 1 -4.1522 4.2309)" class="st0" cx="466.5" cy="462" rx="6.2" ry="0.8"/>
			</g>
			<g>
				<ellipse transform="matrix(0.7542 -0.6566 0.6566 0.7542 -171.2854 417.6797)" cx="472.3" cy="437.6" rx="0.8" ry="7.2"/>
				
					<ellipse transform="matrix(0.7542 -0.6566 0.6566 0.7542 -171.3025 417.4578)" class="st0" cx="472" cy="437.5" rx="0.8" ry="7.1"/>
			</g>
			<g>
				<ellipse transform="matrix(0.3711 -0.9286 0.9286 0.3711 -119.3037 714.6041)" cx="467.9" cy="445.4" rx="0.8" ry="7.2"/>
				
					<ellipse transform="matrix(0.3711 -0.9286 0.9286 0.3711 -119.5567 714.3504)" class="st0" cx="467.6" cy="445.4" rx="0.8" ry="7.2"/>
			</g>
			<path d="M485,431.6c0.1,0.2-3.8,1.1-8.4,4.1c-1.6,1.1-3.4,2.3-5.2,4.5c-2.3,2.8-3.1,5.6-3.4,6.3c-0.6,1.9-0.8,3.8-0.9,5.2
				c-0.2,1.5-0.3,3.7-0.3,3.7c0,0,0,0,0,0h0c0,0,0.2,0,0.2,0.1c0,0-0.2,0.1-0.4,0c-0.2-0.1-0.3-0.5-0.3-0.7c-0.2-2-0.1-2.6-0.1-2.6
				c-0.2-1.1,0-2.1,0.4-4.1c0.2-1,0.5-2.7,1.4-4.8c0.5-1.2,1.4-2.9,2.8-4.6c1.3-1.2,3.3-2.8,6.1-4.2
				C481.1,432.1,485,431.4,485,431.6z"/>
			<path class="st0" d="M485.1,431.5c0,0.1-2.6,0.7-6.1,2.5c-0.4,0.2-0.9,0.4-1.5,0.8c-1.5,0.9-5,2.9-7.5,6.8
				c-0.1,0.2-0.4,0.7-0.8,1.5c-3.3,6.7-2,13.4-2.6,13.4c-0.2,0-0.4-0.6-0.5-1c-0.3-1-1.1-4.3,0.9-10.4c0.4-1.1,1-2.6,1.9-4.3
				c1-1.5,2-2.6,2.8-3.4c0,0,0.1-0.1,0.1-0.1c3.9-3.8,10.4-5.4,10.4-5.4C483.8,431.6,485.1,431.4,485.1,431.5z"/>
			<g>
				
					<ellipse transform="matrix(3.821885e-02 -0.9993 0.9993 3.821885e-02 -6.3255 905.137)" cx="467" cy="455.9" rx="0.8" ry="6.5"/>
				
					<ellipse transform="matrix(3.821885e-02 -0.9993 0.9993 3.821885e-02 -6.7279 905.0443)" class="st0" cx="466.8" cy="456" rx="0.8" ry="6.5"/>
			</g>
			<g>
				
					<ellipse transform="matrix(0.9995 -3.300942e-02 3.300942e-02 0.9995 -13.9762 16.2676)" cx="485.7" cy="431.4" rx="0.6" ry="5.2"/>
				
					<ellipse transform="matrix(0.9995 -3.300942e-02 3.300942e-02 0.9995 -13.9701 16.2633)" class="st0" cx="485.6" cy="431.2" rx="0.5" ry="5.1"/>
			</g>
		</g>
	</g>
</g>
</svg>
