<?xml version="1.0" encoding="utf-8"?>
<!-- Generator: Adobe Illustrator 19.2.1, SVG Export Plug-In . SVG Version: 6.00 Build 0)  -->
<svg version="1.1" id="Chastity_male_fore" xmlns="http://www.w3.org/2000/svg" xmlns:xlink="http://www.w3.org/1999/xlink" x="0px"
	 y="0px" viewBox="0 0 1000 1000" style="enable-background:new 0 0 1000 1000;" xml:space="preserve">
<style type="text/css">
	.st0{fill:#BABABA;}
</style>
<g id="flaccid_male_0">
	<g id="chastity_male_5_5_">
		<g>
			<ellipse transform="matrix(1 -9.029423e-03 9.029423e-03 1 -4.0013 4.3553)" cx="480.3" cy="445.3" rx="1.8" ry="0.3"/>
			
				<ellipse transform="matrix(1 -9.029423e-03 9.029423e-03 1 -4.0019 4.3547)" class="st0" cx="480.3" cy="445.4" rx="1.8" ry="0.3"/>
		</g>
		<g>
			<g>
				<ellipse transform="matrix(0.9512 -0.3087 0.3087 0.9512 -109.747 170.7623)" cx="484.8" cy="432.2" rx="0.3" ry="2.3"/>
				
					<ellipse transform="matrix(0.9512 -0.3087 0.3087 0.9512 -109.7311 170.7343)" class="st0" cx="484.7" cy="432.2" rx="0.3" ry="2.3"/>
			</g>
			<g>
				<ellipse transform="matrix(0.8911 -0.4539 0.4539 0.8911 -143.7794 266.5528)" cx="483.4" cy="432.8" rx="0.3" ry="2.6"/>
				
					<ellipse transform="matrix(0.8911 -0.4539 0.4539 0.8911 -143.7645 266.4998)" class="st0" cx="483.3" cy="432.8" rx="0.3" ry="2.6"/>
			</g>
			<g>
				<ellipse transform="matrix(0.5844 -0.8114 0.8114 0.5844 -153.1334 571.2214)" cx="481.1" cy="435.1" rx="0.3" ry="2.8"/>
				
					<ellipse transform="matrix(0.5844 -0.8114 0.8114 0.5844 -153.1785 571.1201)" class="st0" cx="481" cy="435.1" rx="0.3" ry="2.7"/>
			</g>
			<g>
				<ellipse transform="matrix(0.1595 -0.9872 0.9872 0.1595 -29.4134 842.6671)" cx="480.2" cy="438.6" rx="0.3" ry="2.7"/>
				
					<ellipse transform="matrix(0.1595 -0.9872 0.9872 0.1595 -29.5523 842.6018)" class="st0" cx="480.1" cy="438.7" rx="0.3" ry="2.6"/>
			</g>
			<g>
				<ellipse transform="matrix(1 -7.680404e-03 7.680404e-03 1 -3.3898 3.7013)" cx="480.2" cy="443.2" rx="0.3" ry="2.4"/>
				
					<ellipse transform="matrix(1 -7.680404e-03 7.680404e-03 1 -3.3891 3.7008)" class="st0" cx="480.1" cy="443.1" rx="0.3" ry="2.4"/>
			</g>
			<g>
				<g>
					<path d="M482.9,443.1c-0.1,1.3-0.8,2.3-0.9,2.3c-0.2,0,0.2-1.1,0.3-2.4c0.1-1.3-0.1-2.3,0.1-2.3
						C482.6,440.7,483.1,441.8,482.9,443.1z"/>
					<path class="st0" d="M482.9,443c-0.1,1.3-0.7,2.3-0.9,2.3c-0.1,0,0.2-1,0.3-2.4c0.1-1.3-0.1-2.3,0-2.3
						C482.5,440.7,483,441.7,482.9,443z"/>
				</g>
			</g>
			<g>
				<g>
					<path d="M478.2,443.2c0.1,1.3,0.5,2.2,0.3,2.4c-0.1,0.1-0.8-0.8-1-2.3c-0.1-1.5,0.4-2.8,0.6-2.6
						C478.3,440.7,478.1,441.9,478.2,443.2z"/>
					<path class="st0" d="M478.3,443.2c0.1,1.2,0.5,2.2,0.3,2.3c-0.1,0.1-0.8-0.8-0.9-2.2c-0.1-1.5,0.4-2.7,0.6-2.5
						C478.4,440.8,478.1,442,478.3,443.2z"/>
				</g>
			</g>
			<g>
				<ellipse transform="matrix(0.9751 -0.2217 0.2217 0.9751 -83.6319 118.5546)" cx="486.2" cy="431.8" rx="0.2" ry="2.1"/>
				
					<ellipse transform="matrix(0.9751 -0.2217 0.2217 0.9751 -83.6187 118.5391)" class="st0" cx="486.1" cy="431.7" rx="0.2" ry="2.1"/>
			</g>
			<g>
				<ellipse transform="matrix(1 -9.029380e-03 9.029380e-03 1 -3.9805 4.3536)" cx="480.2" cy="443" rx="2.4" ry="0.3"/>
				
					<ellipse transform="matrix(1 -9.029380e-03 9.029380e-03 1 -3.9811 4.3528)" class="st0" cx="480.1" cy="443.1" rx="2.3" ry="0.3"/>
			</g>
			<path d="M484.5,437.4"/>
			<g>
				<ellipse transform="matrix(0.7542 -0.6566 0.6566 0.7542 -166.3126 423.3106)" cx="482.3" cy="433.8" rx="0.3" ry="2.7"/>
				
					<ellipse transform="matrix(0.7542 -0.6566 0.6566 0.7542 -166.3191 423.2261)" class="st0" cx="482.2" cy="433.8" rx="0.3" ry="2.7"/>
			</g>
			<g>
				<ellipse transform="matrix(0.3711 -0.9286 0.9286 0.3711 -103.3024 720.9841)" cx="480.6" cy="436.8" rx="0.3" ry="2.8"/>
				
					<ellipse transform="matrix(0.3711 -0.9286 0.9286 0.3711 -103.3987 720.8875)" class="st0" cx="480.5" cy="436.8" rx="0.3" ry="2.7"/>
			</g>
			<path d="M487.1,431.5c0,0.1-1.5,0.4-3.2,1.6c-0.6,0.4-1.3,0.9-2,1.7c-0.9,1.1-1.2,2.1-1.3,2.4c-0.2,0.7-0.3,1.4-0.3,2
				c-0.1,0.6-0.1,1.4-0.1,1.4c0,0,0,0,0,0l0,0c0,0,0.1,0,0.1,0c0,0-0.1,0-0.2,0c-0.1,0-0.1-0.2-0.1-0.3c-0.1-0.8,0-1,0-1
				c-0.1-0.4,0-0.8,0.2-1.5c0.1-0.4,0.2-1,0.5-1.8c0.2-0.5,0.5-1.1,1.1-1.8c0.5-0.5,1.3-1.1,2.3-1.6
				C485.7,431.7,487.1,431.4,487.1,431.5z"/>
			<path class="st0" d="M487.2,431.5c0,0.1-1,0.3-2.3,0.9c-0.2,0.1-0.3,0.2-0.6,0.3c-0.6,0.3-1.9,1.1-2.9,2.6c0,0.1-0.2,0.3-0.3,0.6
				c-1.3,2.5-0.7,5.1-1,5.1c-0.1,0-0.1-0.2-0.2-0.4c-0.1-0.4-0.4-1.6,0.4-4c0.1-0.4,0.4-1,0.7-1.6c0.4-0.6,0.8-1,1.1-1.3
				c0,0,0,0,0.1-0.1c1.5-1.4,4-2.1,4-2.1C486.7,431.5,487.1,431.4,487.2,431.5z"/>
			<path class="st0" d="M479.8,432.5"/>
			<path d="M477.5,433.1"/>
			<path class="st0" d="M479.5,432.6"/>
			<path d="M478,431.7"/>
			<g>
				
					<ellipse transform="matrix(3.821885e-02 -0.9993 0.9993 3.821885e-02 21.5063 903.8339)" cx="480.3" cy="440.7" rx="0.3" ry="2.5"/>
				
					<ellipse transform="matrix(3.821885e-02 -0.9993 0.9993 3.821885e-02 21.3531 903.7986)" class="st0" cx="480.2" cy="440.8" rx="0.3" ry="2.5"/>
			</g>
			<g>
				
					<ellipse transform="matrix(0.9995 -3.300942e-02 3.300942e-02 0.9995 -13.9759 16.3235)" cx="487.4" cy="431.4" rx="0.2" ry="2"/>
				
					<ellipse transform="matrix(0.9995 -3.300942e-02 3.300942e-02 0.9995 -13.9736 16.3218)" class="st0" cx="487.3" cy="431.4" rx="0.2" ry="2"/>
			</g>
		</g>
	</g>
</g>
</svg>
