<?xml version="1.0" encoding="utf-8"?>
<!-- Generator: Adobe Illustrator 19.2.1, SVG Export Plug-In . SVG Version: 6.00 Build 0)  -->
<svg version="1.1" id="Layer_3" xmlns="http://www.w3.org/2000/svg" xmlns:xlink="http://www.w3.org/1999/xlink" x="0px" y="0px"
	 viewBox="0 0 1000 1000" style="enable-background:new 0 0 1000 1000;" xml:space="preserve">
<style type="text/css">
	.st0{fill:#BABABA;}
</style>
<path d="M466,405.8c6.6,2.1,15.9,4.3,27.1,4.5c15,0.3,26.9-3.1,34.4-5.9c-2.3,2-5.9,5.1-10.3,8.7c-6.6,5.4-9.3,7.2-13.9,11.2
	c-4.4,3.8-8.4,7.6-12.1,11.3c-0.1,0.2-1.9,3-5.3,2.9c-2.9,0-4.6-2.2-4.8-2.4c-1.5-3.4-3.1-6.9-4.8-10.4
	C473,418.7,469.5,412,466,405.8z"/>
<path class="st0" d="M464.1,404c7.2,2.2,16.9,4.3,28.3,4.6c15.1,0.5,27.6-2.1,36-4.6c-8,5.3-16.6,11.6-25.3,19
	c-4.6,3.9-8.8,7.7-12.7,11.5c-0.1,0.2-2,3-5.5,3c-3,0-4.8-2.2-5-2.5c-1.6-3.5-3.2-7.1-5-10.7C471.4,417.1,467.7,410.3,464.1,404z"/>
</svg>
