<?xml version="1.0" encoding="utf-8"?>
<!-- Generator: Adobe Illustrator 19.2.1, SVG Export Plug-In . SVG Version: 6.00 Build 0)  -->
<svg version="1.1" id="Layer_1" xmlns="http://www.w3.org/2000/svg" xmlns:xlink="http://www.w3.org/1999/xlink" x="0px" y="0px"
	 viewBox="0 0 1000 1000" style="enable-background:new 0 0 1000 1000;" xml:space="preserve">
<style type="text/css">
	.st0{fill:#BABABA;}
</style>
<g id="chastity_male_3">
	<g id="chastity_male_5_2_">
		<g>
			<ellipse transform="matrix(1 -9.029055e-03 9.029055e-03 1 -4.8533 3.8645)" cx="425.6" cy="539.4" rx="14" ry="2.5"/>
			<ellipse transform="matrix(1 -9.029055e-03 9.029055e-03 1 -4.8586 3.8592)" class="st0" cx="425" cy="540" rx="13.8" ry="2.3"/>
		</g>
		<g>
			<g>
				<ellipse transform="matrix(0.9512 -0.3087 0.3087 0.9512 -112.1837 163.5743)" cx="460.9" cy="436.3" rx="2.1" ry="18.1"/>
				
					<ellipse transform="matrix(0.9512 -0.3087 0.3087 0.9512 -112.0293 163.3563)" class="st0" cx="460.3" cy="435.7" rx="1.9" ry="18.1"/>
			</g>
			<g>
				<ellipse transform="matrix(0.8911 -0.4539 0.4539 0.8911 -151.0392 252.23)" cx="449.9" cy="440.8" rx="2.5" ry="20.9"/>
				
					<ellipse transform="matrix(0.8911 -0.4539 0.4539 0.8911 -150.9347 251.8429)" class="st0" cx="449.2" cy="440.4" rx="2.3" ry="20.7"/>
			</g>
			<g>
				<ellipse transform="matrix(0.5844 -0.8114 0.8114 0.5844 -193.0136 540.9384)" cx="431.6" cy="458.9" rx="2.5" ry="21.8"/>
				
					<ellipse transform="matrix(0.5844 -0.8114 0.8114 0.5844 -193.3904 540.184)" class="st0" cx="430.7" cy="458.9" rx="2.3" ry="21.6"/>
			</g>
			<g>
				<ellipse transform="matrix(0.1595 -0.9872 0.9872 0.1595 -123.5585 827.7478)" cx="424.3" cy="486.4" rx="2.5" ry="20.9"/>
				
					<ellipse transform="matrix(0.1595 -0.9872 0.9872 0.1595 -124.7902 827.3197)" class="st0" cx="423.5" cy="486.9" rx="2.3" ry="20.7"/>
			</g>
			<g>
				<ellipse transform="matrix(1 -7.680178e-03 7.680178e-03 1 -4.0032 3.2763)" cx="424.6" cy="522.9" rx="2.5" ry="19.1"/>
				
					<ellipse transform="matrix(1 -7.680178e-03 7.680178e-03 1 -3.9972 3.2718)" class="st0" cx="424" cy="522.1" rx="2.3" ry="18.9"/>
			</g>
			<g>
				<g>
					<path d="M446,522.3c-1,10.5-6.2,18.5-7.4,18.1c-1.2-0.2,1.9-8.4,2.7-18.7c1-10.3-0.8-18.5,0.8-18.3
						C443.3,503.3,447,511.7,446,522.3z"/>
					<path class="st0" d="M445.4,521.5c-0.8,10.5-5.8,18.3-6.8,18.1c-1.2-0.2,1.9-8.2,2.5-18.5c0.8-10.3-1-18.3,0.4-18.1
						C442.5,502.8,446.2,511.1,445.4,521.5z"/>
				</g>
			</g>
			<g>
				<g>
					<path d="M408.6,522.6c0.8,9.9,3.7,17.5,2.5,18.7c-1,1.2-6.6-6-7.6-18.3c-1-12.1,3.5-21.8,4.7-20.9
						C409.4,503.2,407.6,512.7,408.6,522.6z"/>
					<path class="st0" d="M409.2,522.6c0.8,9.7,3.5,17,2.5,18.1c-1,1.2-6.2-6-7.2-17.5c-1-11.7,3.3-21,4.3-20.1
						C409.9,503.7,408.2,512.9,409.2,522.6z"/>
				</g>
			</g>
			<g>
				<ellipse transform="matrix(0.9751 -0.2217 0.2217 0.9751 -84.1357 115.333)" cx="471.7" cy="432.4" rx="1.8" ry="16.8"/>
				
					<ellipse transform="matrix(0.9751 -0.2217 0.2217 0.9751 -84.0525 115.2422)" class="st0" cx="471.3" cy="432" rx="1.6" ry="16.6"/>
			</g>
			<g>
				<ellipse transform="matrix(1 -9.029012e-03 9.029012e-03 1 -4.6897 3.8514)" cx="424.2" cy="521.3" rx="18.7" ry="2.5"/>
				
					<ellipse transform="matrix(1 -9.029012e-03 9.029012e-03 1 -4.6932 3.8443)" class="st0" cx="423.4" cy="521.7" rx="18.5" ry="2.3"/>
			</g>
			<g>
				<ellipse transform="matrix(0.7542 -0.6566 0.6566 0.7542 -186.2816 399.6193)" cx="440.7" cy="448.6" rx="2.5" ry="21.6"/>
				
					<ellipse transform="matrix(0.7542 -0.6566 0.6566 0.7542 -186.3922 398.9762)" class="st0" cx="439.8" cy="448.5" rx="2.3" ry="21.4"/>
			</g>
			<g>
				<ellipse transform="matrix(0.3711 -0.9286 0.9286 0.3711 -169.2202 693.9716)" cx="427.7" cy="471.9" rx="2.5" ry="21.8"/>
				
					<ellipse transform="matrix(0.3711 -0.9286 0.9286 0.3711 -170.0115 693.2327)" class="st0" cx="426.8" cy="472.1" rx="2.3" ry="21.6"/>
			</g>
			<path d="M479.1,430.3c0.2,0.4-11.5,3.1-25.3,12.3c-4.9,3.3-10.3,6.8-15.6,13.4c-6.8,8.6-9.4,16.8-10.1,18.9
				c-1.8,5.7-2.3,11.5-2.7,15.6c-0.4,4.5-0.8,11.3-1,11.3c0,0,0,0,0-0.2l0,0l0.6,0.2c0,0.2-0.8,0.4-1.2,0.2c-0.8-0.4-0.8-1.6-1-1.9
				c-0.6-5.8-0.4-8-0.4-8c-0.6-3.3,0-6.2,1.2-12.3c0.6-2.9,1.6-8.2,4.3-14.4c1.6-3.7,4.1-8.6,8.4-13.8c3.9-3.5,10.1-8.4,18.1-12.7
				C467.4,432.2,478.9,429.9,479.1,430.3z"/>
			<path class="st0" d="M479.3,430.3c0.2,0.4-7.8,2.1-18.3,7.4c-1.4,0.6-2.7,1.4-4.5,2.3c-4.7,2.5-15.2,8.6-22.4,20.5
				c-0.4,0.4-1.4,2.1-2.5,4.5c-9.9,20.1-5.8,40.1-7.6,40.3c-0.6,0-1.2-1.8-1.4-2.9c-0.8-3.1-3.3-12.9,2.9-31.2
				c1.2-3.3,2.9-7.8,5.7-12.9c3.1-4.5,6-8,8.4-10.1c0.2-0.2,0.2-0.2,0.4-0.4c11.7-11.5,31.2-16.2,31.2-16.2
				C475.4,430.5,479.3,429.9,479.3,430.3z"/>
			<g>
				
					<ellipse transform="matrix(3.821768e-02 -0.9993 0.9993 3.821768e-02 -94.1239 908.785)" cx="425" cy="503.3" rx="2.5" ry="19.7"/>
				
					<ellipse transform="matrix(3.821768e-02 -0.9993 0.9993 3.821768e-02 -95.2766 908.6335)" class="st0" cx="424.4" cy="503.8" rx="2.3" ry="19.5"/>
			</g>
			<g>
				
					<ellipse transform="matrix(0.9995 -3.300794e-02 3.300794e-02 0.9995 -13.9284 16.1148)" cx="481.1" cy="429.9" rx="1.8" ry="15.6"/>
				
					<ellipse transform="matrix(0.9995 -3.300794e-02 3.300794e-02 0.9995 -13.9093 16.1016)" class="st0" cx="480.7" cy="429.3" rx="1.6" ry="15.4"/>
			</g>
		</g>
	</g>
</g>
</svg>
