<?xml version="1.0" encoding="utf-8"?>
<!-- Generator: Adobe Illustrator 19.2.1, SVG Export Plug-In . SVG Version: 6.00 Build 0)  -->
<svg version="1.1" id="Chastity_base" xmlns="http://www.w3.org/2000/svg" xmlns:xlink="http://www.w3.org/1999/xlink" x="0px"
	 y="0px" viewBox="0 0 1000 1000" style="enable-background:new 0 0 1000 1000;" xml:space="preserve">
<style type="text/css">
	.st0{fill:#BABABA;}
</style>
<path d="M456.4,400.6c6.8,4,16.8,8.7,29.3,10.4c10.8,1.4,18.7-0.1,30.7-2.5c24-4.8,46-14.3,46-14.3c0,0,2.9-0.9,4.1,4.2
	c1.2,5.1-3.4,4.8-3.4,4.8c-8.7,3.4-16.6,6-23.8,8.1c-4.5,1.3-10.6,3.1-18.9,4.8c-8.7,1.8-16.1,3.3-26,3.2c-3.2,0-7.7,0-13.2-0.9
	c-6.1-1-15.8-3.3-26.9-10.1c-2.5-0.2-4.1-3-4-5.4c0.1-1.2,0.7-3.4,2.5-3.8C454.1,398.9,455.4,399.5,456.4,400.6z"/>
<path class="st0" d="M455,399.2c2.9,1.9,6.9,4.2,11.9,6.2c0,0,7.7,3.2,16.8,4.7c11.3,1.9,40.9-2.4,77.3-17.3c0,0,2.9-0.9,4.1,4.2
	c1.2,5.1-3.4,4.8-3.4,4.8c-8.7,3.4-16.6,6-23.8,8.1c-5.5,1.6-11.5,3.3-18.9,4.8c-11,2.1-23.2,4.5-37.7,2.3c-6.6-1-16.8-3.4-28.3-10
	c-2.5-0.2-4.1-3-4-5.4c0.1-1.2,0.7-3.4,2.5-3.8C452.7,397.6,454,398.1,455,399.2z"/>
<rect x="479.7" y="401.4" transform="matrix(0.9999 1.673618e-02 -1.673618e-02 0.9999 6.9535 -8.0547)" width="10.1" height="20"/>
<rect x="479.7" y="401.4" transform="matrix(0.9999 1.673618e-02 -1.673618e-02 0.9999 6.9481 -8.0467)" class="st0" width="9.1" height="19.4"/>
<ellipse transform="matrix(1.673618e-02 -0.9999 0.9999 1.673618e-02 68.5893 885.0651)" cx="484.3" cy="407.7" rx="2.9" ry="2.9"/>
<rect x="483.6" y="406.8" transform="matrix(0.9999 1.673618e-02 -1.673618e-02 0.9999 6.9585 -8.0465)" width="1.4" height="9.8"/>
</svg>
