<?xml version="1.0" encoding="utf-8"?>
<!-- Generator: Adobe Illustrator 19.2.1, SVG Export Plug-In . SVG Version: 6.00 Build 0)  -->
<svg version="1.1" id="Chastity_male_fore" xmlns="http://www.w3.org/2000/svg" xmlns:xlink="http://www.w3.org/1999/xlink" x="0px"
	 y="0px" viewBox="0 0 1000 1000" style="enable-background:new 0 0 1000 1000;" xml:space="preserve">
<style type="text/css">
	.st0{fill:#BABABA;}
</style>
<g id="flaccid_male_1">
	<g id="chastity_male_5_4_">
		<g>
			<ellipse transform="matrix(1 -9.029423e-03 9.029423e-03 1 -4.1116 4.312)" cx="475.5" cy="457.5" rx="3.3" ry="0.6"/>
			
				<ellipse transform="matrix(1 -9.029423e-03 9.029423e-03 1 -4.1127 4.3109)" class="st0" cx="475.4" cy="457.6" rx="3.2" ry="0.5"/>
		</g>
		<g>
			<g>
				<ellipse transform="matrix(0.9512 -0.3087 0.3087 0.9512 -110.1412 170.4926)" cx="483.8" cy="433.3" rx="0.5" ry="4.3"/>
				
					<ellipse transform="matrix(0.9512 -0.3087 0.3087 0.9512 -110.1119 170.4408)" class="st0" cx="483.6" cy="433.2" rx="0.5" ry="4.2"/>
			</g>
			<g>
				<ellipse transform="matrix(0.8911 -0.4539 0.4539 0.8911 -144.7493 265.7138)" cx="481.2" cy="434.4" rx="0.6" ry="4.9"/>
				
					<ellipse transform="matrix(0.8911 -0.4539 0.4539 0.8911 -144.7218 265.6161)" class="st0" cx="481" cy="434.3" rx="0.5" ry="4.8"/>
			</g>
			<g>
				<ellipse transform="matrix(0.5844 -0.8114 0.8114 0.5844 -157.7537 569.306)" cx="476.9" cy="438.7" rx="0.6" ry="5.1"/>
				
					<ellipse transform="matrix(0.5844 -0.8114 0.8114 0.5844 -157.8369 569.1187)" class="st0" cx="476.7" cy="438.7" rx="0.5" ry="5.1"/>
			</g>
			<g>
				<ellipse transform="matrix(0.1595 -0.9872 0.9872 0.1595 -40.0248 843.2256)" cx="475.2" cy="445.1" rx="0.6" ry="4.9"/>
				
					<ellipse transform="matrix(0.1595 -0.9872 0.9872 0.1595 -40.2815 843.1051)" class="st0" cx="475" cy="445.2" rx="0.5" ry="4.9"/>
			</g>
			<g>
				<ellipse transform="matrix(1 -7.680404e-03 7.680404e-03 1 -3.4698 3.6635)" cx="475.3" cy="453.6" rx="0.6" ry="4.5"/>
				
					<ellipse transform="matrix(1 -7.680404e-03 7.680404e-03 1 -3.4685 3.6626)" class="st0" cx="475.1" cy="453.4" rx="0.5" ry="4.4"/>
			</g>
			<g>
				<g>
					<path d="M480.3,453.5c-0.2,2.5-1.5,4.3-1.7,4.3c-0.3,0,0.4-1.9,0.6-4.4c0.2-2.4-0.2-4.3,0.2-4.3
						C479.6,449.1,480.5,451,480.3,453.5z"/>
					<path class="st0" d="M480.1,453.3c-0.2,2.5-1.4,4.3-1.6,4.2c-0.3,0,0.4-1.9,0.6-4.3c0.2-2.4-0.2-4.3,0.1-4.3
						C479.5,448.9,480.3,450.9,480.1,453.3z"/>
				</g>
			</g>
			<g>
				<g>
					<path d="M471.5,453.6c0.2,2.3,0.9,4.1,0.6,4.4c-0.2,0.3-1.6-1.4-1.8-4.3c-0.2-2.8,0.8-5.1,1.1-4.9
						C471.7,449,471.3,451.2,471.5,453.6z"/>
					<path class="st0" d="M471.7,453.6c0.2,2.3,0.8,4,0.6,4.2c-0.2,0.3-1.5-1.4-1.7-4.1c-0.2-2.7,0.8-4.9,1-4.7
						C471.9,449.1,471.4,451.3,471.7,453.6z"/>
				</g>
			</g>
			<g>
				<ellipse transform="matrix(0.9751 -0.2217 0.2217 0.9751 -83.7847 118.5983)" cx="486.3" cy="432.5" rx="0.4" ry="3.9"/>
				
					<ellipse transform="matrix(0.9751 -0.2217 0.2217 0.9751 -83.7604 118.5697)" class="st0" cx="486.2" cy="432.3" rx="0.4" ry="3.9"/>
			</g>
			<g>
				<ellipse transform="matrix(1 -9.029380e-03 9.029380e-03 1 -4.0731 4.3089)" cx="475.2" cy="453.2" rx="4.4" ry="0.6"/>
				
					<ellipse transform="matrix(1 -9.029380e-03 9.029380e-03 1 -4.0743 4.3074)" class="st0" cx="475" cy="453.4" rx="4.3" ry="0.5"/>
			</g>
			<g>
				<ellipse transform="matrix(0.7542 -0.6566 0.6566 0.7542 -168.7034 421.8014)" cx="479.1" cy="436.2" rx="0.6" ry="5"/>
				
					<ellipse transform="matrix(0.7542 -0.6566 0.6566 0.7542 -168.7155 421.6453)" class="st0" cx="478.8" cy="436.2" rx="0.5" ry="5"/>
			</g>
			<g>
				<ellipse transform="matrix(0.3711 -0.9286 0.9286 0.3711 -110.7958 719.8)" cx="476" cy="441.7" rx="0.6" ry="5.1"/>
				
					<ellipse transform="matrix(0.3711 -0.9286 0.9286 0.3711 -110.9738 719.6215)" class="st0" cx="475.8" cy="441.7" rx="0.5" ry="5.1"/>
			</g>
			<path d="M488.1,432c0,0.1-2.7,0.7-5.9,2.9c-1.2,0.8-2.4,1.6-3.6,3.1c-1.6,2-2.2,3.9-2.4,4.4c-0.4,1.3-0.5,2.7-0.6,3.6
				c-0.1,1.1-0.2,2.6-0.2,2.6c0,0,0,0,0,0l0,0c0,0,0.1,0,0.1,0.1c0,0-0.2,0.1-0.3,0c-0.2-0.1-0.2-0.3-0.2-0.5
				c-0.2-1.4-0.1-1.9-0.1-1.9c-0.1-0.8,0-1.5,0.3-2.9c0.1-0.7,0.4-1.9,1-3.4c0.4-0.9,1-2,1.9-3.2c0.9-0.8,2.4-2,4.3-3
				C485.3,432.4,488,431.9,488.1,432z"/>
			<path class="st0" d="M488.1,431.9c0,0.1-1.8,0.5-4.3,1.7c-0.3,0.2-0.6,0.3-1.1,0.5c-1.1,0.6-3.5,2-5.3,4.8
				c-0.1,0.1-0.3,0.5-0.6,1.1c-2.3,4.7-1.4,9.4-1.8,9.4c-0.1,0-0.3-0.4-0.3-0.7c-0.2-0.7-0.8-3,0.7-7.3c0.3-0.8,0.7-1.8,1.3-3
				c0.7-1.1,1.4-1.9,1.9-2.4c0,0,0.1-0.1,0.1-0.1c2.7-2.7,7.3-3.8,7.3-3.8C487.2,432,488.1,431.9,488.1,431.9z"/>
			<g>
				
					<ellipse transform="matrix(3.821885e-02 -0.9993 0.9993 3.821885e-02 8.4805 906.9459)" cx="475.4" cy="449.1" rx="0.6" ry="4.6"/>
				
					<ellipse transform="matrix(3.821885e-02 -0.9993 0.9993 3.821885e-02 8.1973 906.8807)" class="st0" cx="475.2" cy="449.2" rx="0.5" ry="4.6"/>
			</g>
			<g>
				
					<ellipse transform="matrix(0.9995 -3.300942e-02 3.300942e-02 0.9995 -13.9896 16.3609)" cx="488.5" cy="431.9" rx="0.4" ry="3.6"/>
				
					<ellipse transform="matrix(0.9995 -3.300942e-02 3.300942e-02 0.9995 -13.9853 16.3578)" class="st0" cx="488.4" cy="431.7" rx="0.4" ry="3.6"/>
			</g>
		</g>
	</g>
</g>
</svg>
