<?xml version="1.0" encoding="utf-8"?>
<!-- Generator: Adobe Illustrator 19.2.1, SVG Export Plug-In . SVG Version: 6.00 Build 0)  -->
<svg version="1.1" id="Layer_1" xmlns="http://www.w3.org/2000/svg" xmlns:xlink="http://www.w3.org/1999/xlink" x="0px" y="0px"
	 viewBox="0 0 1000 1000" style="enable-background:new 0 0 1000 1000;" xml:space="preserve">
<style type="text/css">
	.st0{fill:#BABABA;}
</style>
<g id="chastity_male_3">
	<g id="chastity_male_5_2_">
		<g>
			<ellipse transform="matrix(1 -9.029055e-03 9.029055e-03 1 -4.6774 3.9848)" cx="439" cy="520" rx="11.4" ry="2.1"/>
			
				<ellipse transform="matrix(1 -9.029055e-03 9.029055e-03 1 -4.6817 3.9806)" class="st0" cx="438.5" cy="520.5" rx="11.2" ry="1.9"/>
		</g>
		<g>
			<g>
				<ellipse transform="matrix(0.9512 -0.3087 0.3087 0.9512 -111.8841 165.6582)" cx="467.6" cy="436.4" rx="1.7" ry="14.7"/>
				
					<ellipse transform="matrix(0.9512 -0.3087 0.3087 0.9512 -111.759 165.4814)" class="st0" cx="467.1" cy="435.9" rx="1.6" ry="14.7"/>
			</g>
			<g>
				<ellipse transform="matrix(0.8911 -0.4539 0.4539 0.8911 -149.7426 256.1461)" cx="458.7" cy="440" rx="2.1" ry="16.9"/>
				
					<ellipse transform="matrix(0.8911 -0.4539 0.4539 0.8911 -149.6579 255.8323)" class="st0" cx="458.1" cy="439.7" rx="1.9" ry="16.7"/>
			</g>
			<g>
				<ellipse transform="matrix(0.5844 -0.8114 0.8114 0.5844 -184.5233 549.1611)" cx="443.9" cy="454.7" rx="2.1" ry="17.7"/>
				
					<ellipse transform="matrix(0.5844 -0.8114 0.8114 0.5844 -184.8288 548.5495)" class="st0" cx="443.1" cy="454.7" rx="1.9" ry="17.5"/>
			</g>
			<g>
				<ellipse transform="matrix(0.1595 -0.9872 0.9872 0.1595 -102.8167 833.3342)" cx="438" cy="477" rx="2.1" ry="16.9"/>
				
					<ellipse transform="matrix(0.1595 -0.9872 0.9872 0.1595 -103.8153 832.9871)" class="st0" cx="437.3" cy="477.5" rx="1.9" ry="16.7"/>
			</g>
			<g>
				<ellipse transform="matrix(1 -7.680178e-03 7.680178e-03 1 -3.8777 3.3803)" cx="438.2" cy="506.6" rx="2.1" ry="15.5"/>
				
					<ellipse transform="matrix(1 -7.680178e-03 7.680178e-03 1 -3.8729 3.3766)" class="st0" cx="437.7" cy="505.9" rx="1.9" ry="15.3"/>
			</g>
			<g>
				<g>
					<path d="M455.5,506.1c-0.8,8.5-5.1,15-6,14.7c-0.9-0.2,1.6-6.8,2.2-15.2c0.8-8.4-0.6-15,0.6-14.9
						C453.3,490.8,456.3,497.6,455.5,506.1z"/>
					<path class="st0" d="M455.1,505.5c-0.6,8.5-4.7,14.9-5.5,14.7c-0.9-0.2,1.6-6.6,2.1-15c0.6-8.4-0.8-14.9,0.3-14.7
						C452.7,490.3,455.7,497.1,455.1,505.5z"/>
				</g>
			</g>
			<g>
				<g>
					<path d="M425.2,506.4c0.6,8.1,3,14.2,2.1,15.2c-0.8,0.9-5.4-4.9-6.2-14.9c-0.8-9.8,2.8-17.7,3.8-16.9
						C425.8,490.6,424.4,498.3,425.2,506.4z"/>
					<path class="st0" d="M425.7,506.4c0.6,7.9,2.8,13.7,2.1,14.7s-5.1-4.9-5.8-14.2c-0.8-9.5,2.7-17.1,3.5-16.3
						C426.3,491.1,424.9,498.5,425.7,506.4z"/>
				</g>
			</g>
			<g>
				<ellipse transform="matrix(0.9751 -0.2217 0.2217 0.9751 -84.2034 116.3937)" cx="476.4" cy="433.3" rx="1.4" ry="13.6"/>
				
					<ellipse transform="matrix(0.9751 -0.2217 0.2217 0.9751 -84.1359 116.3201)" class="st0" cx="476.1" cy="432.9" rx="1.3" ry="13.4"/>
			</g>
			<g>
				<ellipse transform="matrix(1 -9.029012e-03 9.029012e-03 1 -4.5447 3.9742)" cx="437.9" cy="505.3" rx="15.2" ry="2.1"/>
				
					<ellipse transform="matrix(1 -9.029012e-03 9.029012e-03 1 -4.5476 3.9685)" class="st0" cx="437.2" cy="505.6" rx="15" ry="1.9"/>
			</g>
			<g>
				<ellipse transform="matrix(0.7542 -0.6566 0.6566 0.7542 -182.219 406.0033)" cx="451.2" cy="446.4" rx="2.1" ry="17.5"/>
				
					<ellipse transform="matrix(0.7542 -0.6566 0.6566 0.7542 -182.3086 405.4819)" class="st0" cx="450.5" cy="446.3" rx="1.9" ry="17.4"/>
			</g>
			<g>
				<ellipse transform="matrix(0.3711 -0.9286 0.9286 0.3711 -154.8735 701.8762)" cx="440.7" cy="465.3" rx="2.1" ry="17.7"/>
				
					<ellipse transform="matrix(0.3711 -0.9286 0.9286 0.3711 -155.5149 701.2772)" class="st0" cx="440" cy="465.4" rx="1.9" ry="17.5"/>
			</g>
			<path d="M482.4,431.5c0.2,0.3-9.3,2.5-20.5,10c-3.9,2.7-8.4,5.5-12.6,10.9c-5.5,7-7.6,13.6-8.2,15.3c-1.4,4.6-1.9,9.3-2.2,12.6
				c-0.3,3.6-0.6,9.2-0.8,9.2c0,0,0,0,0-0.2l0,0l0.5,0.2c0,0.2-0.6,0.3-0.9,0.2c-0.6-0.3-0.6-1.3-0.8-1.6c-0.5-4.7-0.3-6.5-0.3-6.5
				c-0.5-2.7,0-5.1,0.9-10c0.5-2.4,1.3-6.6,3.5-11.7c1.3-3,3.3-7,6.8-11.2c3.2-2.8,8.2-6.8,14.7-10.3
				C472.9,433.1,482.2,431.2,482.4,431.5z"/>
			<path class="st0" d="M482.6,431.5c0.2,0.3-6.3,1.7-14.9,6c-1.1,0.5-2.2,1.1-3.6,1.9c-3.8,2.1-12.3,7-18.2,16.6
				c-0.3,0.3-1.1,1.7-2.1,3.6c-8.1,16.3-4.7,32.5-6.2,32.7c-0.5,0-0.9-1.4-1.1-2.4c-0.6-2.5-2.7-10.4,2.4-25.3
				c0.9-2.7,2.4-6.3,4.6-10.4c2.5-3.6,4.9-6.5,6.8-8.2c0.2-0.2,0.2-0.2,0.3-0.3c9.5-9.3,25.3-13.1,25.3-13.1
				C479.4,431.7,482.6,431.2,482.6,431.5z"/>
			<g>
				
					<ellipse transform="matrix(3.821768e-02 -0.9993 0.9993 3.821768e-02 -68.5551 910.1953)" cx="438.6" cy="490.7" rx="2.1" ry="16"/>
				
					<ellipse transform="matrix(3.821768e-02 -0.9993 0.9993 3.821768e-02 -69.4896 910.0724)" class="st0" cx="438" cy="491.1" rx="1.9" ry="15.8"/>
			</g>
			<g>
				
					<ellipse transform="matrix(0.9995 -3.300794e-02 3.300794e-02 0.9995 -13.9701 16.2114)" cx="484" cy="431.2" rx="1.4" ry="12.6"/>
				
					<ellipse transform="matrix(0.9995 -3.300794e-02 3.300794e-02 0.9995 -13.9546 16.2007)" class="st0" cx="483.7" cy="430.8" rx="1.3" ry="12.5"/>
			</g>
		</g>
	</g>
</g>
</svg>
