<?xml version="1.0" encoding="utf-8"?>
<!-- Generator: Adobe Illustrator 19.2.1, SVG Export Plug-In . SVG Version: 6.00 Build 0)  -->
<svg version="1.1"
	 id="svg4356" inkscape:version="0.92.0 r15299" sodipodi:docname="fc vector edit.svg" xmlns:cc="http://creativecommons.org/ns#" xmlns:dc="http://purl.org/dc/elements/1.1/" xmlns:inkscape="http://www.inkscape.org/namespaces/inkscape" xmlns:rdf="http://www.w3.org/1999/02/22-rdf-syntax-ns#" xmlns:sodipodi="http://sodipodi.sourceforge.net/DTD/sodipodi-0.dtd" xmlns:svg="http://www.w3.org/2000/svg"
	 xmlns="http://www.w3.org/2000/svg" xmlns:xlink="http://www.w3.org/1999/xlink" x="0px" y="0px" viewBox="0 0 1000 1000"
	 style="enable-background:new 0 0 1000 1000;" xml:space="preserve">
<style type="text/css">
	.st0{fill:#BABABA;}
	.st1{fill:#FF0000;}
	.st2{font-family:'Radioland';}
	.st3{font-size:1.9615px;}
</style>
<g id="Collar">
	<g id="Cruel_Counter">
		<g>
			<g>
				<path d="M533.9,191.1c-0.2,0.2-0.4,0.3-0.7,0.4c-6,2.3-10.6,2.9-14,2.8c-5.9-0.2-7.5-2.3-7.7-2.5c-0.7-0.8-0.4-2.1,0.8-2.6
					c1.3-0.5,2.5-0.5,3.2,0.3c0.2,0.2,3.4,3.4,15.5-1.1c1.2-0.5,2.7-0.1,3.3,0.7C534.8,189.7,534.6,190.5,533.9,191.1"/>
				<path class="st0" d="M519.8,194.3c-6,0-7.8-2-8-2.1c-0.8-0.8-0.7-2,0.5-2.5c1.2-0.6,2.4-0.6,3.2,0.2c0.2,0.2,3.8,3.2,15.4-1.6
					c1.2-0.5,2.7-0.2,3.4,0.6s0.3,1.9-0.9,2.3C527.6,193.5,523.1,194.3,519.8,194.3z"/>
			</g>
		</g>
		<g>
			<polygon points="523.1,193.8 516.9,193.8 516.4,190.9 523.6,190.9 			"/>
			<path class="st0" d="M523.1,191.4v2.4H517v-2.4H523.1 M523.6,190.9l-7.3-0.1l0.2,3h7.1V190.9L523.6,190.9z"/>
		</g>
		<text transform="matrix(1 0 0 1 517.1331 193.5328)" class="st1 st2 st3">8888</text>
	</g>
</g>
</svg>
