<?xml version="1.0" encoding="utf-8"?>
<!-- Generator: Adobe Illustrator 19.0.0, SVG Export Plug-In . SVG Version: 6.00 Build 0)  -->
<svg version="1.1" id="Layer_1" xmlns="http://www.w3.org/2000/svg" xmlns:xlink="http://www.w3.org/1999/xlink" x="0px" y="0px"
	 viewBox="0 0 1000 1000" style="enable-background:new 0 0 1000 1000;" xml:space="preserve">
<style type="text/css">
	.st0{fill:#4F6AB2;}
</style>
<g id="Wide_Exterme_Heel">
	<path id="XMLID_292_" class="st0" d="M468.2,917.5c-1.2-9.6-9.4-40,1.5-55.6c5.2-5.3-2.7-109.7-2.7-109.7l41.3,2
		c0,0-18.7,98.1-17.9,106.5c2.8,0.4,10.7,8.4,11.9,15.9c-2.8,15.5-3.1,61.9-3.9,72h-0.8c-0.6-11.2,1.1-43.9-1.2-56.5
		c-3.4,16.4-2.8,51.3-8.4,57.1c-2.5,0.4-3.2,1.6-5.4,0.5C474.6,933.8,468.2,917.5,468.2,917.5z"/>
	<path id="XMLID_291_" class="st0" d="M535.5,865.2c0.5-6.7-14.2-109.1-13.6-109.7L565,756l-8,104.1c4.7,13.7,8.6,42.3,9.2,52.3
		c2.2,6.8-2.8,24.1-9.2,47c-2.4,3-12,1.9-15.2-0.1c-6.8-19-10.7-40.8-8.1-47.6C532.9,897.6,533.8,885.5,535.5,865.2z"/>
</g>
</svg>
