<?xml version="1.0" encoding="utf-8"?>
<!-- Generator: Adobe Illustrator 19.0.0, SVG Export Plug-In . SVG Version: 6.00 Build 0)  -->
<svg version="1.1" id="Layer_1" xmlns="http://www.w3.org/2000/svg" xmlns:xlink="http://www.w3.org/1999/xlink" x="0px" y="0px"
	 viewBox="0 0 1000 1000" style="enable-background:new 0 0 1000 1000;" xml:space="preserve">
<style type="text/css">
	.st0{fill:#515351;}
</style>
<g id="Flat_Latex">
	<path id="XMLID_285_" class="st0" d="M486.5,836c3.5,2.8-2.3,9.7,0.8,19.5c2.4,7.6,5.2,6.8,6.1,10.7c2.8,10.5-8,25-20.6,31.3
		c-10.4,5.2-23.4,5.6-24.7,2.3c-0.7-1.7,2.1-3.4,6.1-8.5c1.7-2.2,9.3-12.9,10.8-23.4c1.9-13.2,7.6-22.4,8.2-30.7
		C473.9,829.7,480.9,831.4,486.5,836z"/>
	<path id="XMLID_284_" class="st0" d="M491.2,895.3c6.5-2.7,9.7-4,11-6.6c2.2-4.4,0.1-9.5-1.5-13.4c-1.6-3.9-4.7-9-6.6-8.5
		c-1,0.3-0.9,2-2,4.4c-1.4,3.6-3.8,5.6-6.4,7.9c-14.5,12.9-17.5,20.3-25.1,20c-4.2-0.1-5.3-2.4-11.3-2.1c-0.8,0-4.9,0.3-9.7,2.5
		c-2,1-9.2,4.4-8.8,7.3c0.6,4.1,15.6,4.8,17.4,4.9c6.4,0.3,12.4,0.6,18.5-2.8c5.1-2.8,4.1-4.9,10-8.3
		C481.5,898,482.8,898.7,491.2,895.3z"/>
	<path id="XMLID_283_" class="st0" d="M540.7,872.8c-3.4,4.4-1.1,6.9-4.1,23.2c-1.2,6.3-1.8,12.7-3.3,18.9c-0.5,2.1-1.3,5.2-0.5,8.8
		c0.3,1,1.3,5.1,4.4,7.3c3.2,2.2,2.6,3.5,10.8,3.2c8.3-0.3,9-1.3,11-3c5-4,3.5-16.6,2.8-21.3c-0.7-5.5-1.6-6-2.1-12.4
		c-0.6-7.3,0.5-8.3-0.2-13.3c-0.4-3.6-1.7-13.1-7.6-15.9C547.4,866,544.2,868.3,540.7,872.8z"/>
	<path id="XMLID_282_" class="st0" d="M541.9,846.6c-1.1,1.1-1.6,2.6-2.5,5.7c-1.1,3.3-2.5,8.1-2.4,14.4c0.1,5.1,1.2,4.6,1.6,10.6
		c0.4,5.5-0.1,9.9-1,17.2c-1.2,9.8-2.1,11.4-0.9,13.8c2.4,4.4,8.8,4.4,12.1,4.4c5.6,0,10.6-2,11.7-6.8c0.3-1.1,0-2-0.2-3.1
		c-1.7-8.2,0-9.3-1.3-18.1c-1.3-9-2-8.5-1.9-14.6c0.1-5.1,2.9-7.9,0-17.7c-1.4-3.2-2.1-4.6-2.8-5.2
		C551.1,843.8,545.1,843.3,541.9,846.6z"/>
</g>
</svg>
