<?xml version="1.0" encoding="utf-8"?>
<!-- Generator: Adobe Illustrator 19.2.1, SVG Export Plug-In . SVG Version: 6.00 Build 0)  -->
<svg version="1.1"
	 id="svg4356" inkscape:version="0.92.0 r15299" sodipodi:docname="fc vector edit.svg" xmlns:cc="http://creativecommons.org/ns#" xmlns:dc="http://purl.org/dc/elements/1.1/" xmlns:inkscape="http://www.inkscape.org/namespaces/inkscape" xmlns:rdf="http://www.w3.org/1999/02/22-rdf-syntax-ns#" xmlns:sodipodi="http://sodipodi.sourceforge.net/DTD/sodipodi-0.dtd" xmlns:svg="http://www.w3.org/2000/svg"
	 xmlns="http://www.w3.org/2000/svg" xmlns:xlink="http://www.w3.org/1999/xlink" x="0px" y="0px" viewBox="0 0 1000 1000"
	 style="enable-background:new 0 0 1000 1000;" xml:space="preserve">
<style type="text/css">
	.st0{fill:#F2F24C;}
	.st1{fill:#F7D548;}
	.st2{fill:#FEFFF2;}
</style>
<g id="Collar">
	<g id="heavy_Gold">
		<path class="st0" d="M534.5,190.8c-0.2,0.4-0.5,0.7-0.7,1c-6.2,5.7-10.9,7.3-14.3,7c-6.1-0.5-7.7-5.8-7.9-6.3
			c-0.7-2.1-0.5-5.2,0.8-6.4c1.3-1.4,2.5-1.4,3.3,0.7c0.2,0.5,3.5,8.6,15.9-2.8c1.3-1.2,2.8-0.4,3.4,1.8
			C535.4,187.5,535.2,189.5,534.5,190.8"/>
		<path class="st1" d="M519.8,198.4c-6,0-7.8-4.9-8-5.3c-0.8-1.9-0.7-4.8,0.5-6.1c1.2-1.4,2.4-1.5,3.2,0.4c0.2,0.5,3.8,7.8,15.4-3.8
			c1.2-1.2,2.7-0.5,3.4,1.4c0.7,2,0.3,4.5-0.9,5.7C527.6,196.5,523.1,198.4,519.8,198.4z"/>
		<path class="st2" d="M519.6,201c-0.7,0-1.4-0.2-2-0.5c-1.3-0.7-2-2.1-2-3.5c0-0.7,0.2-1.4,0.5-2c0.4-0.7,1-1.3,1.7-1.6
			c0.2-0.1,0.5,0,0.7,0.2c0.1,0.2,0,0.5-0.2,0.7c-0.5,0.3-1,0.7-1.3,1.2c-0.3,0.5-0.4,1-0.4,1.5c0,1.1,0.6,2.1,1.5,2.7
			c0.5,0.3,1,0.4,1.5,0.4c1.1,0,2.1-0.6,2.7-1.5c0.3-0.5,0.4-1,0.4-1.5c0-1.1-0.6-2.1-1.5-2.7c-0.2-0.1-0.3-0.4-0.2-0.7
			c0.1-0.2,0.4-0.3,0.7-0.2c1.3,0.7,2,2.1,2,3.5c0,0.7-0.2,1.4-0.5,2C522.4,200.2,521.1,201,519.6,201z"/>
	</g>
</g>
</svg>
