<?xml version="1.0" encoding="utf-8"?>
<!-- Generator: Adobe Illustrator 19.0.0, SVG Export Plug-In . SVG Version: 6.00 Build 0)  -->
<svg version="1.1" id="Layer_1" xmlns="http://www.w3.org/2000/svg" xmlns:xlink="http://www.w3.org/1999/xlink" x="0px" y="0px"
	 viewBox="0 0 1000 1000" style="enable-background:new 0 0 1000 1000;" xml:space="preserve">
<style type="text/css">
	.st0{fill:#515351;}
</style>
<g id="Heel_Latex">
	<path id="XMLID_290_" class="st0" d="M544.8,866c-5.3-0.9-12.7,7.6-13,14.8c-0.2,3.8,1.7,5.5,4,10.2c6.9,14.2,6,31.8,5.8,38.1
		c-0.3,4.5-0.8,9.3,2,14.1c2.1,3.6,5.2,5.5,6.9,6.7c6.6,4.2,13,3.8,19,3.5c5-0.3,6.7-1.2,7.8-2.3c2.2-2.2,2.3-5.3,2.3-6.7
		c0.1-4.4-1.9-7.7-3.2-9.8c-5.3-8.7-8.1-13.1-10.1-15.3C551.5,902.7,555.1,867.7,544.8,866z"/>
	<path id="XMLID_289_" class="st0" d="M564.2,933.9c1-0.5,3.7-1.9,4.8-4.8c0.8-2.3,0-4-1.3-8.6c0,0-1.6-5.7-2.7-11.8
		c-0.8-4.7-0.4-6.1-0.8-11.3c-1.3-17.9-7.3-18.2-6.9-33.1c0-0.7-0.9-11-0.7-16.4c-3-0.8-16.3-0.3-16.4,0.3c-1.6,6.9,1.5,17.4,1,18.4
		c-2.5,4.8-1.3,10-0.5,13.4c3.4,14.3,5.1,19.2,6.2,24.3c3.9,17.5-0.7,25.9,5.2,29.4C555.3,935.9,560.5,935.8,564.2,933.9z"/>
	<path id="XMLID_288_" class="st0" d="M485.9,927.8c-0.1,0.4-1.2,0.9-1.2-0.3c-0.2-2.4-0.1-3.6-0.1-4.4c0-1.8,1.2-11.3,1.1-17.5
		c-0.2-13.1-0.7-15.2,0.5-18c1.7-4,5.1-7.6,6.3-7.1c0.5,0.3,2.4,0.2,0.3,8.1c-2.4,8.8-2.8,10.8-3.7,16.8
		c-1.6,10.1-1.8,15.2-2.1,18.1C486.6,924.8,486.5,925.7,485.9,927.8z"/>
	<path id="XMLID_287_" class="st0" d="M472.7,884.3c-8.4,16.1-6.2,25.8-14.7,30.5c-1.9,1.1-4.4,3-6.3,3.9c-6.1,2.8-9.3,4-9.9,6.8
		c-0.4,1.8,0.5,3.5,0.8,4c1.2,2,4.3,4.3,8.5,5.4c6.1,1.6,7.7,2.5,14.8,0.6c2.9-0.8,6.2-1.7,9.1-4.4c6.6-6.1,2-13.6,6-25.3
		c4.7-14,15.2-15.4,14.7-25.3c-0.4-5.7-4.2-11.8-8.4-12.3C481.5,867.5,475.9,878.2,472.7,884.3z"/>
	<path id="XMLID_286_" class="st0" d="M457.3,918.1c0.2,2,3.9,4.4,6.5,3.8c4.1-0.9,3.5-8.4,8.2-22.9c3.5-10.8,5.7-16.6,10.8-22.9
		c1.7-2.1,4-7.1,4-7.1s1.4-14.4-1.4-20c-0.1-0.2-9.5-3.1-9.7-3.1c-0.9-0.3-2.8,18.7-3.6,20.2c-9.6,17.6-9.6,20.8-9.6,20.8
		c-2.1,5.8-2.5,7.3-2.7,8.4c-0.5,2.8-1.6,8.4-0.7,14.3c0.2,1.5,0.6,3.5-0.3,5.7C458.1,916.6,457.2,917,457.3,918.1z"/>
</g>
</svg>
