<?xml version="1.0" encoding="utf-8"?>
<!-- Generator: Adobe Illustrator 19.2.1, SVG Export Plug-In . SVG Version: 6.00 Build 0)  -->
<svg version="1.1"
	 id="svg4356" inkscape:version="0.92.0 r15299" sodipodi:docname="fc vector edit.svg" xmlns:cc="http://creativecommons.org/ns#" xmlns:dc="http://purl.org/dc/elements/1.1/" xmlns:inkscape="http://www.inkscape.org/namespaces/inkscape" xmlns:rdf="http://www.w3.org/1999/02/22-rdf-syntax-ns#" xmlns:sodipodi="http://sodipodi.sourceforge.net/DTD/sodipodi-0.dtd" xmlns:svg="http://www.w3.org/2000/svg"
	 xmlns="http://www.w3.org/2000/svg" xmlns:xlink="http://www.w3.org/1999/xlink" x="0px" y="0px" viewBox="0 0 1000 1000"
	 style="enable-background:new 0 0 1000 1000;" xml:space="preserve">
<style type="text/css">
	.st0{fill:#BABABA;}
	.st1{fill:none;stroke:#000000;stroke-width:3;stroke-miterlimit:10;}
</style>
<g id="Collar">
	<g id="Cowbell">
		<g>
			<path d="M513.8,189c1.8,1,8.4,3.6,18-1.9c0.3-0.2,0.6,0,0.7,0.3l0.7,3.5c0,0.2-0.1,0.4-0.2,0.5c-5.6,3.3-9.7,4.3-13,4.3
				c-5.2,0-7.1-1.8-7.6-2.5c-0.1-0.1-0.1-0.3-0.1-0.4l0.9-3.4C513.2,189,513.5,188.9,513.8,189z"/>
		</g>
		<g id="Layer_13">
			<polygon points="530.4,221.7 507.9,220.9 504.2,215.8 514.5,198 524.6,199 			"/>
			<path d="M522.8,204.6L516,204l1.1-11.5l6.8,0.7L522.8,204.6z M517.2,202.8l4.5,0.4l0.9-9l-4.5-0.4L517.2,202.8z"/>
			<path class="st0" d="M522.3,203.5l-7-0.7l1-10.7l7,0.7L522.3,203.5z M516.6,201.8l4.6,0.4l0.8-8.3l-4.6-0.4L516.6,201.8z"/>
			<polygon class="st0" points="528.1,216.8 504.2,215.8 514.4,198 524,198.9 			"/>
			<line class="st1" x1="520.1" y1="191.4" x2="519.8" y2="194.8"/>
		</g>
	</g>
</g>
</svg>
