<?xml version="1.0" encoding="utf-8"?>
<!-- Generator: Adobe Illustrator 19.0.0, SVG Export Plug-In . SVG Version: 6.00 Build 0)  -->
<svg version="1.1" id="Layer_1" xmlns="http://www.w3.org/2000/svg" xmlns:xlink="http://www.w3.org/1999/xlink" x="0px" y="0px"
	 viewBox="0 0 1000 1000" style="enable-background:new 0 0 1000 1000;" xml:space="preserve">
<style type="text/css">
	.st0{fill:#515351;}
	.st1{fill:#010101;}
</style>
<g id="Leg_Wide_Latex">
	<path id="XMLID_318_" class="st0" d="M445.8,413.1c0,0-26.1,35.9-27.6,60.3c-3.8,60.3,16.8,135.5,38.9,191.5
		c7.5,61.7,14.8,123,17.3,185.1l11.5-0.3c2.3-52.9,39.2-99.2,20.2-160.8c13.6-57.7,6.2-71.9,1-161c-5.4,94.3,4.4,110.4,14.2,154.8
		c-15.6,58,17.8,109.6,18.6,167.8h16.3c0.2-58.5,16.4-95.2,8.5-169.5c23.8-69.9,46.5-155.6,41.7-219c-2-25.9-36-50.6-36-50.6
		L445.8,413.1"/>
	<path id="XMLID_317_" class="st1" d="M509.6,630.9c-9.8-40.3-20.8-100.9-16.8-147.1C492,528.5,500.4,590.2,509.6,630.9z"/>
</g>
</svg>
