<?xml version="1.0" encoding="utf-8"?>
<!-- Generator: Adobe Illustrator 19.0.0, SVG Export Plug-In . SVG Version: 6.00 Build 0)  -->
<svg version="1.1" id="Layer_1" xmlns="http://www.w3.org/2000/svg" xmlns:xlink="http://www.w3.org/1999/xlink" x="0px" y="0px"
	 viewBox="0 0 1000 1000" style="enable-background:new 0 0 1000 1000;" xml:space="preserve">
<style type="text/css">
	.st0{fill:#515351;}
	.st1{fill:#010101;}
</style>
<g id="Leg_Narrow_Latex">
	<path id="XMLID_322_" class="st0" d="M445.9,413.1c0,0-10.3,43.4-10.6,67.8c-0.5,43.2,14.3,129.1,30.4,183.7
		c7.5,61.7,6.2,123.3,8.8,185.4l11.5-0.3c2.2-51.3,34-103.9,16.3-161.5c2.3-46.1,10-72.4,5-160.3c-5.4,94.3,16.6,109.2,26.4,153.6
		c-15.6,58,5.7,110.8,6.5,168.9h16.3c0.2-58.5,15.6-94.6,7.7-168.9c12.4-64.5,12.4-139.3,11.6-205.6c-0.3-26-5.4-64.7-5.4-64.7
		L445.9,413.1"/>
	<path id="XMLID_321_" class="st1" d="M508,588.6c-9.8-40.3-16.6-61.7-12.6-107.8C494.7,525.3,498.9,547.9,508,588.6z"/>
</g>
</svg>
