<?xml version="1.0" encoding="utf-8"?>
<!-- Generator: Adobe Illustrator 19.2.1, SVG Export Plug-In . SVG Version: 6.00 Build 0)  -->
<svg version="1.1"
	 id="svg4356" inkscape:version="0.92.0 r15299" sodipodi:docname="fc vector edit.svg" xmlns:cc="http://creativecommons.org/ns#" xmlns:dc="http://purl.org/dc/elements/1.1/" xmlns:inkscape="http://www.inkscape.org/namespaces/inkscape" xmlns:rdf="http://www.w3.org/1999/02/22-rdf-syntax-ns#" xmlns:sodipodi="http://sodipodi.sourceforge.net/DTD/sodipodi-0.dtd" xmlns:svg="http://www.w3.org/2000/svg"
	 xmlns="http://www.w3.org/2000/svg" xmlns:xlink="http://www.w3.org/1999/xlink" x="0px" y="0px" viewBox="0 0 1000 1000"
	 style="enable-background:new 0 0 1000 1000;" xml:space="preserve">
<style type="text/css">
	.st0{fill:#FEFFF2;}
</style>
<g id="Collar">
	<g id="Leather_Corset">
		<path id="Body_Normal_9_" inkscape:connector-curvature="0" d="M562.9,208.1c-29.1-3.8-34.5-14.5-29.8-48.6
			c0.1-0.4-0.3-0.8-0.7-0.8l-20.6,0.9c-0.4,0-0.7,0.4-0.7,0.9c8.1,42.8-6.4,40.7-21,48.6c-0.5,0.3-0.5,1,0,1.2l9.5,6
			c1.1,0.6,1.9,1.6,2.3,2.8l4.8,12.7c0.2,0.4,0.7,0.6,1,0.4l23.3-12.9c1.4-0.8,2.9-1.4,4.4-1.8l27.7-8
			C563.8,209.3,563.7,208.2,562.9,208.1z"/>
		<path class="st0" d="M519.2,199.9c-0.7,0-1.4-0.2-2-0.5c-1.3-0.7-2-2.1-2-3.5c0-0.7,0.2-1.4,0.5-2c0.4-0.7,1-1.3,1.7-1.6
			c0.2-0.1,0.5,0,0.7,0.2c0.1,0.2,0,0.5-0.2,0.7c-0.5,0.3-1,0.7-1.3,1.2c-0.3,0.5-0.4,1-0.4,1.5c0,1.1,0.6,2.1,1.5,2.7
			c0.5,0.3,1,0.4,1.5,0.4c1.1,0,2.1-0.6,2.7-1.5c0.3-0.5,0.4-1,0.4-1.5c0-1.1-0.6-2.1-1.5-2.7c-0.2-0.1-0.3-0.4-0.2-0.7
			c0.1-0.2,0.4-0.3,0.7-0.2c1.3,0.7,2,2.1,2,3.5c0,0.7-0.2,1.4-0.5,2C522,199.1,520.6,199.9,519.2,199.9z"/>
	</g>
</g>
</svg>
