<?xml version="1.0" encoding="utf-8"?>
<!-- Generator: Adobe Illustrator 19.2.1, SVG Export Plug-In . SVG Version: 6.00 Build 0)  -->
<svg version="1.1"
	 id="svg4356" inkscape:version="0.92.0 r15299" sodipodi:docname="fc vector edit.svg" xmlns:cc="http://creativecommons.org/ns#" xmlns:dc="http://purl.org/dc/elements/1.1/" xmlns:inkscape="http://www.inkscape.org/namespaces/inkscape" xmlns:rdf="http://www.w3.org/1999/02/22-rdf-syntax-ns#" xmlns:sodipodi="http://sodipodi.sourceforge.net/DTD/sodipodi-0.dtd" xmlns:svg="http://www.w3.org/2000/svg"
	 xmlns="http://www.w3.org/2000/svg" xmlns:xlink="http://www.w3.org/1999/xlink" x="0px" y="0px" viewBox="0 0 1000 1000"
	 style="enable-background:new 0 0 1000 1000;" xml:space="preserve">
<style type="text/css">
	.st0{fill:#BABABA;}
	.st1{fill:#FF0000;}
	.st2{font-family:'Radioland';}
	.st3{font-size:1.9615px;}
</style>
<g id="Collar">
	<g id="Nice_counter">
		<path d="M510.3,199.4c0,0-0.1,0-0.1,0c-0.3-0.2-0.7-1.3-0.7-1.7c-0.1-0.3-0.4-1.5-0.2-1.8l0-0.1l0.1-0.1c0.1,0,0.1,0,0.2,0
			c0.3,0.2,0.7,1.3,0.7,1.7l0,0c0.1,0.3,0.4,1.5,0.2,1.8l0,0.1L510.3,199.4C510.3,199.4,510.3,199.4,510.3,199.4z M509.6,196.6
			c0,0.3,0.1,0.6,0.2,1c0.1,0.4,0.2,0.8,0.3,1c0-0.3-0.1-0.6-0.2-1l0,0C509.8,197.1,509.7,196.8,509.6,196.6z"/>
		<path d="M511.1,202.8c-0.6,0-1.2-0.7-1.5-1.8c-0.4-1.2-0.2-2.4,0.5-2.7c0.7-0.3,1.5,0.5,1.8,1.7l0,0c0.4,1.2,0.2,2.4-0.5,2.7
			C511.3,202.7,511.2,202.8,511.1,202.8z M510.3,198.6c-0.1,0-0.1,0-0.2,0c-0.5,0.2-0.6,1.2-0.3,2.2c0.3,1,1,1.7,1.4,1.5
			c0.5-0.2,0.6-1.2,0.3-2.2l0,0C511.3,199.2,510.7,198.6,510.3,198.6z"/>
		<path d="M512.5,206.3c-0.2,0-0.4-0.2-0.9-2.1c-0.6-2.2-0.4-2.2-0.3-2.3c0.2-0.1,0.3,0.2,0.5,0.7c0.1,0.4,0.3,0.9,0.4,1.4
			C512.9,206.2,512.7,206.2,512.5,206.3C512.5,206.3,512.5,206.3,512.5,206.3z"/>
		<path d="M513.7,209.7c-0.6,0-1.4-0.7-1.8-1.8c-0.2-0.6-0.3-1.2-0.3-1.6c0.1-0.5,0.3-0.9,0.6-1c0.4-0.1,0.8,0,1.2,0.3
			c0.4,0.3,0.7,0.8,0.9,1.4c0.5,1.2,0.3,2.4-0.4,2.7C513.9,209.7,513.8,209.7,513.7,209.7z M512.6,205.6c-0.1,0-0.1,0-0.1,0
			c-0.2,0.1-0.3,0.3-0.4,0.7c0,0.4,0,0.9,0.2,1.5c0.4,1.1,1.2,1.7,1.6,1.5c0.4-0.2,0.6-1.1,0.2-2.2c-0.2-0.5-0.5-1-0.8-1.2
			C513,205.7,512.8,205.6,512.6,205.6z"/>
		<path d="M522.9,211c-0.3,0-0.5-0.1-0.7-0.2c-0.6-0.5-0.4-1.7,0.5-2.7c0.9-1,2-1.4,2.6-0.9c0.6,0.5,0.4,1.7-0.5,2.7
			C524.2,210.6,523.5,211,522.9,211z M524.6,207.4c-0.5,0-1.1,0.4-1.6,1c-0.7,0.8-0.9,1.8-0.5,2.1c0.4,0.4,1.3,0,2-0.8
			c0.7-0.8,0.9-1.8,0.5-2.1C524.9,207.4,524.8,207.4,524.6,207.4z"/>
		<path d="M527,205.2c-0.2,0-0.3,0-0.4-0.1c-0.6-0.4-0.5-1.5,0.2-2.6s1.7-1.7,2.3-1.3c0.3,0.2,0.4,0.6,0.4,1.1
			c-0.1,0.5-0.3,1-0.6,1.5c-0.3,0.5-0.7,0.9-1.1,1.2C527.5,205.1,527.2,205.2,527,205.2z M528.6,201.5c-0.4,0-1,0.4-1.5,1.2
			c-0.6,1-0.7,1.9-0.3,2.1c0.2,0.1,0.4,0.1,0.7-0.1c0.4-0.2,0.7-0.6,1-1c0.3-0.5,0.5-0.9,0.5-1.3c0-0.4,0-0.6-0.2-0.7
			C528.8,201.5,528.7,201.5,528.6,201.5z"/>
		<path d="M524.6,208L524.6,208c-0.2-0.1-0.5-0.3,0.9-2.2c0.3-0.5,0.7-0.9,1-1.2c0.4-0.4,0.6-0.5,0.8-0.4l0.1,0l0,0.1
			c0.1,0.4-0.8,1.6-1.1,1.9C526,206.8,525,207.9,524.6,208L524.6,208z M526.6,205.2c-0.2,0.2-0.5,0.5-0.7,0.9
			c-0.3,0.4-0.5,0.7-0.7,1c0.2-0.2,0.5-0.5,0.7-0.9C526.2,205.8,526.4,205.5,526.6,205.2z"/>
		<path d="M531.5,199.1c-0.2,0-0.3,0-0.5-0.1c-0.3-0.2-0.5-0.6-0.5-1.1c0-0.5,0.1-1,0.4-1.4c0.6-1,1.6-1.6,2.2-1.2
			c0.3,0.2,0.5,0.6,0.5,1.1c0,0.5-0.1,1-0.4,1.4l0,0c-0.3,0.5-0.6,0.9-1,1.1C532,199,531.7,199.1,531.5,199.1z M532.7,195.5
			c-0.4,0-1,0.4-1.4,1.1c-0.2,0.4-0.4,0.9-0.4,1.2c0,0.3,0.1,0.6,0.3,0.7c0.2,0.1,0.5,0.1,0.8-0.1c0.3-0.2,0.7-0.5,0.9-0.9
			c0.2-0.4,0.4-0.9,0.4-1.2c0-0.3-0.1-0.6-0.3-0.7C532.9,195.6,532.8,195.5,532.7,195.5z"/>
		<path d="M529,201.7l-0.1-0.1l0-0.1c0-0.2,0.4-0.8,1.2-1.9c0.6-0.7,1.3-1.6,1.5-1.7l0.1,0l0.1,0.1l0,0.1c0,0.2-0.4,0.8-1.2,1.9l0,0
			C530.1,200.8,529.3,201.6,529,201.7L529,201.7z"/>
		<path d="M520.8,213.1l-0.1-0.1l0-0.1c0-0.1-0.1-0.3,0.9-1.7l0,0c1.1-1.7,1.2-1.6,1.4-1.5c0.2,0.1,0.3,0.2-0.8,1.9
			C521.1,213,520.9,213.1,520.8,213.1L520.8,213.1z"/>
		<path d="M514.7,212.8L514.7,212.8c-0.2-0.1-0.5-0.8-0.8-2c-0.5-2.1-0.4-2.2-0.2-2.2l0,0c0.2,0,0.3-0.1,0.9,2
			c0.3,1.2,0.4,1.9,0.3,2.1l0,0.1L514.7,212.8z"/>
		<path d="M534.8,192.7c0.1,0.3-0.5,1.4-0.6,1.7l0,0c-0.2,0.3-0.8,1.4-1.1,1.5l-0.1,0l-0.1,0c0,0,0,0-0.1,0c0,0-0.1-0.1-0.1-0.1
			c-0.1-0.3,0.5-1.4,0.6-1.7c0.2-0.3,0.8-1.4,1.1-1.5"/>
		<path d="M534.3,193.3c-0.2,0.2-0.3,0.5-0.6,0.9c-0.2,0.4-0.4,0.7-0.5,0.9c0.2-0.2,0.3-0.5,0.6-0.9l0,0
			C534,193.9,534.2,193.5,534.3,193.3z"/>
		<g>
			<polygon points="521,216.1 513.7,215.7 513.9,212.1 521.2,212.6 			"/>
			<path d="M514.4,212.7l6.3,0.4l-0.1,2.5l-6.3-0.4L514.4,212.7 M513.9,212.1l-0.2,3.6l7.3,0.4l0.2-3.6L513.9,212.1L513.9,212.1z"/>
		</g>
		<g>
			
				<rect x="513.8" y="212.2" transform="matrix(0.9983 5.764509e-02 -5.764509e-02 0.9983 13.1916 -29.4672)" width="7.1" height="3.4"/>
			<path class="st0" d="M514.4,212.6l6.1,0.4l-0.1,2.4l-6.1-0.4L514.4,212.6 M513.9,212l-0.2,3.4l7.1,0.4l0.2-3.4L513.9,212
				L513.9,212z"/>
		</g>
		<text transform="matrix(0.9983 5.764509e-02 -5.764509e-02 0.9983 514.455 214.7099)" class="st1 st2 st3">8888</text>
	</g>
</g>
</svg>
