<?xml version="1.0" encoding="utf-8"?>
<!-- Generator: Adobe Illustrator 19.2.1, SVG Export Plug-In . SVG Version: 6.00 Build 0)  -->
<svg version="1.1"
	 id="svg4356" inkscape:version="0.92.0 r15299" sodipodi:docname="fc vector edit.svg" xmlns:cc="http://creativecommons.org/ns#" xmlns:dc="http://purl.org/dc/elements/1.1/" xmlns:inkscape="http://www.inkscape.org/namespaces/inkscape" xmlns:rdf="http://www.w3.org/1999/02/22-rdf-syntax-ns#" xmlns:sodipodi="http://sodipodi.sourceforge.net/DTD/sodipodi-0.dtd" xmlns:svg="http://www.w3.org/2000/svg"
	 xmlns="http://www.w3.org/2000/svg" xmlns:xlink="http://www.w3.org/1999/xlink" x="0px" y="0px" viewBox="0 0 1000 1000"
	 style="enable-background:new 0 0 1000 1000;" xml:space="preserve">
<style type="text/css">
	.st0{fill:none;stroke:#000000;stroke-width:0.5;stroke-miterlimit:10;}
	.st1{fill:#BABABA;}
	.st2{display:none;}
</style>
<g id="Collar">
	<g id="pretty_jewelry">
		<path d="M510.4,199.2c0,0-0.1,0-0.1,0c-0.3-0.2-0.7-1.3-0.7-1.7c-0.1-0.3-0.4-1.5-0.2-1.8l0-0.1l0.1-0.1c0.1,0,0.1,0,0.2,0
			c0.3,0.2,0.7,1.3,0.7,1.7l0,0c0.1,0.3,0.4,1.5,0.2,1.8l0,0.1L510.4,199.2C510.4,199.2,510.4,199.2,510.4,199.2z M509.7,196.4
			c0,0.3,0.1,0.6,0.2,1c0.1,0.4,0.2,0.8,0.3,1c0-0.3-0.1-0.6-0.2-1l0,0C509.9,196.9,509.8,196.6,509.7,196.4z"/>
		<path d="M511.2,202.6c-0.6,0-1.2-0.7-1.5-1.8c-0.4-1.2-0.2-2.4,0.5-2.7c0.7-0.3,1.5,0.5,1.8,1.7l0,0c0.4,1.2,0.2,2.4-0.5,2.7
			C511.4,202.5,511.3,202.6,511.2,202.6z M510.4,198.4c-0.1,0-0.1,0-0.2,0c-0.5,0.2-0.6,1.2-0.3,2.2c0.3,1,1,1.7,1.4,1.5
			c0.5-0.2,0.6-1.2,0.3-2.2l0,0C511.4,199,510.8,198.4,510.4,198.4z"/>
		<path d="M512.6,206.1c-0.2,0-0.4-0.2-0.9-2.1c-0.6-2.2-0.4-2.2-0.3-2.3c0.2-0.1,0.3,0.2,0.5,0.7c0.1,0.4,0.3,0.9,0.4,1.4
			C513,206,512.8,206,512.6,206.1C512.6,206.1,512.6,206.1,512.6,206.1z"/>
		<path d="M513.8,209.5c-0.6,0-1.4-0.7-1.8-1.8c-0.2-0.6-0.3-1.2-0.3-1.6c0.1-0.5,0.3-0.9,0.6-1c0.4-0.1,0.8,0,1.2,0.3
			c0.4,0.3,0.7,0.8,0.9,1.4c0.5,1.2,0.3,2.4-0.4,2.7C514,209.5,513.9,209.5,513.8,209.5z M512.7,205.4c-0.1,0-0.1,0-0.1,0
			c-0.2,0.1-0.3,0.3-0.4,0.7c0,0.4,0,0.9,0.2,1.5c0.4,1.1,1.2,1.7,1.6,1.5c0.4-0.2,0.6-1.1,0.2-2.2c-0.2-0.5-0.5-1-0.8-1.2
			C513.1,205.5,512.9,205.4,512.7,205.4z"/>
		<path d="M523,210.8c-0.3,0-0.5-0.1-0.7-0.2c-0.6-0.5-0.4-1.7,0.5-2.7c0.9-1,2-1.4,2.6-0.9c0.6,0.5,0.4,1.7-0.5,2.7
			C524.3,210.4,523.6,210.8,523,210.8z M524.7,207.2c-0.5,0-1.1,0.4-1.6,1c-0.7,0.8-0.9,1.8-0.5,2.1c0.4,0.4,1.3,0,2-0.8
			c0.7-0.8,0.9-1.8,0.5-2.1C525,207.2,524.9,207.2,524.7,207.2z"/>
		<path d="M527.1,205c-0.2,0-0.3,0-0.4-0.1c-0.6-0.4-0.5-1.5,0.2-2.6s1.7-1.7,2.3-1.3c0.3,0.2,0.4,0.6,0.4,1.1
			c-0.1,0.5-0.3,1-0.6,1.5c-0.3,0.5-0.7,0.9-1.1,1.2C527.6,204.9,527.3,205,527.1,205z M528.7,201.3c-0.4,0-1,0.4-1.5,1.2
			c-0.6,1-0.7,1.9-0.3,2.1c0.2,0.1,0.4,0.1,0.7-0.1c0.4-0.2,0.7-0.6,1-1c0.3-0.5,0.5-0.9,0.5-1.3c0-0.4,0-0.6-0.2-0.7
			C528.9,201.3,528.8,201.3,528.7,201.3z"/>
		<path d="M524.7,207.8L524.7,207.8c-0.2-0.1-0.5-0.3,0.9-2.2c0.3-0.5,0.7-0.9,1-1.2c0.4-0.4,0.6-0.5,0.8-0.4l0.1,0l0,0.1
			c0.1,0.4-0.8,1.6-1.1,1.9C526.1,206.6,525.1,207.8,524.7,207.8L524.7,207.8z M526.7,205c-0.2,0.2-0.5,0.5-0.7,0.9
			c-0.3,0.4-0.5,0.7-0.7,1c0.2-0.2,0.5-0.5,0.7-0.9C526.3,205.6,526.5,205.3,526.7,205z"/>
		<path d="M531.6,198.9c-0.2,0-0.3,0-0.5-0.1c-0.3-0.2-0.5-0.6-0.5-1.1c0-0.5,0.1-1,0.4-1.4c0.6-1,1.6-1.6,2.2-1.2
			c0.3,0.2,0.5,0.6,0.5,1.1c0,0.5-0.1,1-0.4,1.4l0,0c-0.3,0.5-0.6,0.9-1,1.1C532.1,198.8,531.8,198.9,531.6,198.9z M532.8,195.3
			c-0.4,0-1,0.4-1.4,1.1c-0.2,0.4-0.4,0.9-0.4,1.2c0,0.3,0.1,0.6,0.3,0.7c0.2,0.1,0.5,0.1,0.8-0.1c0.3-0.2,0.7-0.5,0.9-0.9
			c0.2-0.4,0.4-0.9,0.4-1.2c0-0.3-0.1-0.6-0.3-0.7C533,195.4,532.9,195.3,532.8,195.3z"/>
		<path d="M529.1,201.5l-0.1-0.1l0-0.1c0-0.2,0.4-0.8,1.2-1.9c0.6-0.7,1.3-1.6,1.5-1.7l0.1,0l0.1,0.1l0,0.1c0,0.2-0.4,0.8-1.2,1.9
			l0,0C530.2,200.6,529.5,201.4,529.1,201.5L529.1,201.5z"/>
		<path class="st0" d="M486.6,192"/>
		<path d="M520.9,212.9l-0.1-0.1l0-0.1c0-0.1-0.1-0.3,0.9-1.7l0,0c1.1-1.7,1.2-1.6,1.4-1.5c0.2,0.1,0.3,0.2-0.8,1.9
			C521.2,212.8,521,212.9,520.9,212.9L520.9,212.9z"/>
		<path d="M514.8,212.7L514.8,212.7c-0.2-0.1-0.5-0.8-0.8-2c-0.5-2.1-0.4-2.2-0.2-2.2l0,0c0.2,0,0.3-0.1,0.9,2
			c0.3,1.2,0.4,1.9,0.3,2.1l0,0.1L514.8,212.7z"/>
		<g>
			<path d="M522.2,215.3c-0.5,2.1-2.9,4.3-5.7,5.9c-1.7-2-3.1-5.4-2.8-7.8c0.3-2,2.7-3.6,4.3,1.1C521,210,522.7,213.4,522.2,215.3z"
				/>
			<path class="st1" d="M521.6,215c-0.5,2-2.8,4.1-5.4,5.6c-1.6-1.9-2.9-5.1-2.6-7.3c0.2-1.9,2.5-3.4,4,1
				C520.4,210,522,213.2,521.6,215z"/>
			<path class="st2" d="M516.1,220.8c-0.1,0-0.1,0-0.2-0.1c-1.6-1.9-3-5.2-2.7-7.5c0.1-1.1,0.9-2,1.7-2.1c0.6-0.1,1.7,0.2,2.6,2.6
				c1.4-1.9,2.4-2,3.1-1.8c1,0.4,1.4,1.9,1.1,3l0,0c-0.5,1.9-2.6,4.1-5.5,5.7C516.2,220.8,516.2,220.8,516.1,220.8z M515.1,211.6
				C515.1,211.6,515.1,211.6,515.1,211.6c-0.7,0.1-1.3,0.8-1.4,1.7c-0.3,2.2,1,5.3,2.5,7.1c2.7-1.5,4.7-3.6,5.2-5.4l0,0
				c0.2-0.9-0.1-2.2-0.9-2.6c-0.7-0.3-1.7,0.4-2.8,2c0,0.1-0.1,0.1-0.2,0.1c-0.1,0-0.1-0.1-0.2-0.1
				C516.7,212.6,515.9,211.6,515.1,211.6z"/>
		</g>
		<rect x="516.6" y="216.1" transform="matrix(0.9828 0.1848 -0.1848 0.9828 48.9951 -91.7556)" width="0.4" height="1.8"/>
		<ellipse transform="matrix(0.1093 -0.994 0.994 0.1093 246.0256 706.1319)" cx="517" cy="215.8" rx="0.8" ry="0.8"/>
		<path d="M532.9,195.6c0,0-0.1-0.1-0.1-0.1c-0.1-0.3,0.5-1.4,0.6-1.7c0.2-0.3,0.8-1.4,1.1-1.5l0.1,0l0.1,0c0.1,0,0.1,0.1,0.1,0.2
			c0.1,0.3-0.5,1.4-0.6,1.7l0,0c-0.2,0.3-0.8,1.4-1.1,1.5l-0.1,0L532.9,195.6C532.9,195.7,532.9,195.6,532.9,195.6z M534.4,193.1
			c-0.2,0.2-0.3,0.5-0.6,0.9c-0.2,0.4-0.4,0.7-0.5,0.9c0.2-0.2,0.3-0.5,0.6-0.9l0,0C534.1,193.7,534.3,193.3,534.4,193.1z"/>
	</g>
</g>
</svg>
