<?xml version="1.0" encoding="utf-8"?>
<!-- Generator: Adobe Illustrator 19.2.1, SVG Export Plug-In . SVG Version: 6.00 Build 0)  -->
<svg version="1.1"
	 id="svg4356" inkscape:version="0.92.0 r15299" sodipodi:docname="fc vector edit.svg" xmlns:cc="http://creativecommons.org/ns#" xmlns:dc="http://purl.org/dc/elements/1.1/" xmlns:inkscape="http://www.inkscape.org/namespaces/inkscape" xmlns:rdf="http://www.w3.org/1999/02/22-rdf-syntax-ns#" xmlns:sodipodi="http://sodipodi.sourceforge.net/DTD/sodipodi-0.dtd" xmlns:svg="http://www.w3.org/2000/svg"
	 xmlns="http://www.w3.org/2000/svg" xmlns:xlink="http://www.w3.org/1999/xlink" x="0px" y="0px" viewBox="0 0 1000 1000"
	 style="enable-background:new 0 0 1000 1000;" xml:space="preserve">
<style type="text/css">
	.st0{fill:#BABABA;}
</style>
<g id="Collar">
	<g id="Satin_Choker">
		<g>
			<path d="M513.7,188.8c1.8,1,8.4,3.6,18-1.9c0.3-0.2,0.6,0,0.7,0.3l0.7,3.5c0,0.2-0.1,0.4-0.2,0.5c-5.6,3.3-9.7,4.3-13,4.3
				c-5.2,0-7.1-1.8-7.6-2.5c-0.1-0.1-0.1-0.3-0.1-0.4l0.9-3.4C513.1,188.8,513.4,188.6,513.7,188.8z"/>
		</g>
		<g>
			<path class="st0" d="M512.8,190.1c0,0.1,5.6,6.5,19.9-1.6l0.1,0.8c-5.5,3.1-9.9,4-13,4c-5,0-7.5-2.3-7.3-2.3"/>
		</g>
	</g>
</g>
</svg>
