<?xml version="1.0" encoding="utf-8"?>
<!-- Generator: Adobe Illustrator 19.2.1, SVG Export Plug-In . SVG Version: 6.00 Build 0)  -->
<svg version="1.1"
	 id="svg4356" inkscape:version="0.92.0 r15299" sodipodi:docname="fc vector edit.svg" xmlns:cc="http://creativecommons.org/ns#" xmlns:dc="http://purl.org/dc/elements/1.1/" xmlns:inkscape="http://www.inkscape.org/namespaces/inkscape" xmlns:rdf="http://www.w3.org/1999/02/22-rdf-syntax-ns#" xmlns:sodipodi="http://sodipodi.sourceforge.net/DTD/sodipodi-0.dtd" xmlns:svg="http://www.w3.org/2000/svg"
	 xmlns="http://www.w3.org/2000/svg" xmlns:xlink="http://www.w3.org/1999/xlink" x="0px" y="0px" viewBox="0 0 1000 1000"
	 style="enable-background:new 0 0 1000 1000;" xml:space="preserve">
<style type="text/css">
	.st0{fill:#030303;}
	.st1{fill:#BABABA;}
	.st2{fill:#CE5B5B;}
	.st3{fill:#D13737;}
</style>
<g id="Collar">
	<g id="Shock">
		<g>
			<path d="M519.9,194.4c-5.4,0-7.7-3.1-7.8-3.3c-0.5-0.7-0.3-1.6,0.4-2.1c0.7-0.5,1.6-0.3,2.1,0.4c0.2,0.3,4.4,5.6,16.9-2
				c0.7-0.4,1.6-0.2,2.1,0.5c0.4,0.7,0.2,1.6-0.5,2.1C527.4,193.4,523.1,194.4,519.9,194.4z"/>
		</g>
		
			<rect x="515.8" y="187.9" transform="matrix(0.9976 6.930247e-02 -6.930247e-02 0.9976 14.6313 -35.5031)" class="st0" width="6.3" height="10.5"/>
		
			<rect x="515.8" y="187.9" transform="matrix(0.9976 6.930247e-02 -6.930247e-02 0.9976 14.6186 -35.4925)" class="st1" width="6" height="10.1"/>
		<circle class="st2" cx="518.7" cy="192.8" r="1.3"/>
		<circle class="st3" cx="518.7" cy="192.7" r="1.2"/>
	</g>
</g>
</svg>
