<?xml version="1.0" encoding="utf-8"?>
<!-- Generator: Adobe Illustrator 19.2.1, SVG Export Plug-In . SVG Version: 6.00 Build 0)  -->
<svg version="1.1"
	 id="svg4356" inkscape:version="0.92.0 r15299" sodipodi:docname="fc vector edit.svg" xmlns:cc="http://creativecommons.org/ns#" xmlns:dc="http://purl.org/dc/elements/1.1/" xmlns:inkscape="http://www.inkscape.org/namespaces/inkscape" xmlns:rdf="http://www.w3.org/1999/02/22-rdf-syntax-ns#" xmlns:sodipodi="http://sodipodi.sourceforge.net/DTD/sodipodi-0.dtd" xmlns:svg="http://www.w3.org/2000/svg"
	 xmlns="http://www.w3.org/2000/svg" xmlns:xlink="http://www.w3.org/1999/xlink" x="0px" y="0px" viewBox="0 0 1000 1000"
	 style="enable-background:new 0 0 1000 1000;" xml:space="preserve">
<style type="text/css">
	.st0{fill:#FFFFFF;}
</style>
<g id="Collar">
	<g id="Stylish_leather">
		<g>
			<path d="M513.7,188.8c1.8,1,8.4,3.6,18-1.9c0.3-0.2,0.6,0,0.7,0.3l0.7,3.5c0,0.2-0.1,0.4-0.2,0.5c-5.6,3.3-9.7,4.3-13,4.3
				c-5.2,0-7.1-1.8-7.6-2.5c-0.1-0.1-0.1-0.3-0.1-0.4l0.9-3.4C513.1,188.8,513.4,188.6,513.7,188.8z"/>
		</g>
		<polygon class="st0" points="522.9,196.2 517.5,196.2 517.5,189.2 522.9,189.2 522.9,190.5 521.9,190.6 521.9,190.1 518.5,190.1 
			518.5,195.3 521.9,195.3 521.9,194.7 522.9,194.7 		"/>
		
			<rect x="517.4" y="191.4" transform="matrix(3.349746e-02 -0.9994 0.9994 3.349746e-02 307.9673 703.8356)" class="st0" width="1" height="2.5"/>
	</g>
</g>
</svg>
