<?xml version="1.0" encoding="utf-8"?>
<!-- Generator: Adobe Illustrator 19.0.0, SVG Export Plug-In . SVG Version: 6.00 Build 0)  -->
<svg version="1.1" id="Layer_1" xmlns="http://www.w3.org/2000/svg" xmlns:xlink="http://www.w3.org/1999/xlink" x="0px" y="0px"
	 viewBox="0 0 1000 1000" style="enable-background:new 0 0 1000 1000;" xml:space="preserve">
<style type="text/css">
	.st0{fill:#010101;}
	.st1{fill:#515351;}
</style>
<g id="Torso_Unnatural_2_">
	<path id="Body_Shadow_4_" class="st0" d="M445.8,413.2c17.2,4.6,17.2,30.6,43.5,50.1c1.2,0.9-21.9-11.3-4.5-34.1
		c20,8.2,11.2,37.3,11.4,36.9c7.4-15.9,19.8-23,32-32.9c12.4-10,20-18,41.9-21.9L445.8,413.2z"/>
	<path id="Body_Normal_5_" class="st1" d="M493,208.3c0,0-14,4.3-24.7,28.3s-10.5,59.4-4.4,81c2.2,23,7.6,30.9,5.5,51
		c-1.1,10.1-15.7,24.1-23.4,44.6c16.5,5.3,30.7,47.1,47.7,53.7c0.7,0.3-25.7-15.9-8.8-37.6c19.9,9,11.3,37.4,11.5,36.9
		c9.4-18.2,33.9-44.3,73.9-55c-9.1-20.7-34-29.7-35.4-42.7c-1.6-15.9,25.4-34.2,40.3-52.9c8.9-21.9,18.3-62.5,10.5-86
		c-11.7-22-21.9-21.1-21.9-21.1c-32.7-3.3-35-14-30.7-50l-22.3,1C519.3,203.2,508.1,199.6,493,208.3"/>
</g>
</svg>
