<?xml version="1.0" encoding="utf-8"?>
<!-- Generator: Adobe Illustrator 19.2.1, SVG Export Plug-In . SVG Version: 6.00 Build 0)  -->
<svg version="1.1"
	 id="svg4356" inkscape:version="0.92.0 r15299" sodipodi:docname="fc vector edit.svg" xmlns:cc="http://creativecommons.org/ns#" xmlns:dc="http://purl.org/dc/elements/1.1/" xmlns:inkscape="http://www.inkscape.org/namespaces/inkscape" xmlns:rdf="http://www.w3.org/1999/02/22-rdf-syntax-ns#" xmlns:sodipodi="http://sodipodi.sourceforge.net/DTD/sodipodi-0.dtd" xmlns:svg="http://www.w3.org/2000/svg"
	 xmlns="http://www.w3.org/2000/svg" xmlns:xlink="http://www.w3.org/1999/xlink" x="0px" y="0px" viewBox="0 0 1000 1000"
	 style="enable-background:new 0 0 1000 1000;" xml:space="preserve">
<style type="text/css">
	.st0{fill:#FEFFF2;}
</style>
<g id="Collar">
	<g id="Uncomfortable_leather">
		<g>
			<path d="M519.9,194.2c-5.4,0-7.7-3.1-7.8-3.3c-0.5-0.7-0.3-1.6,0.4-2.1c0.7-0.5,1.6-0.3,2.1,0.4c0.2,0.3,4.4,5.6,16.9-2
				c0.7-0.4,1.6-0.2,2.1,0.5c0.4,0.7,0.2,1.6-0.5,2.1C527.4,193.1,523.1,194.2,519.9,194.2z"/>
		</g>
		<path class="st0" d="M519.2,199.9c-0.7,0-1.4-0.2-2-0.5c-1.3-0.7-2-2.1-2-3.5c0-0.7,0.2-1.4,0.5-2c0.4-0.7,1-1.3,1.7-1.6
			c0.2-0.1,0.5,0,0.7,0.2c0.1,0.2,0,0.5-0.2,0.7c-0.5,0.3-1,0.7-1.3,1.2c-0.3,0.5-0.4,1-0.4,1.5c0,1.1,0.6,2.1,1.5,2.7
			c0.5,0.3,1,0.4,1.5,0.4c1.1,0,2.1-0.6,2.7-1.5c0.3-0.5,0.4-1,0.4-1.5c0-1.1-0.6-2.1-1.5-2.7c-0.2-0.1-0.3-0.4-0.2-0.7
			c0.1-0.2,0.4-0.3,0.7-0.2c1.3,0.7,2,2.1,2,3.5c0,0.7-0.2,1.4-0.5,2C522,199.1,520.6,199.9,519.2,199.9z"/>
	</g>
</g>
</svg>
