<?xml version="1.0" encoding="utf-8"?>
<!-- Generator: Adobe Illustrator 19.0.0, SVG Export Plug-In . SVG Version: 6.00 Build 0)  -->
<svg version="1.1" id="Layer_1" xmlns="http://www.w3.org/2000/svg" xmlns:xlink="http://www.w3.org/1999/xlink" x="0px" y="0px"
	 viewBox="0 0 1000 1000" style="enable-background:new 0 0 1000 1000;" xml:space="preserve">
<style type="text/css">
	.st0{fill:#010101;}
	.st1{fill:#763818;}
	.st2{fill:#46210D;}
</style>
<g id="Preg_Belly">
	<path id="XMLID_252_" class="st0" d="M494.8,433.8c20.7-1.5,47.7-4.5,61.9-42.4c13.1-44.3-27.8-99.6-59.9-101.5
		c-40.1,6.2-61.8,42.8-63.9,96.9C435.1,417.8,466,435.8,494.8,433.8z"/>
	<path id="XMLID_251_" class="st1" d="M494.8,433.8c20.8,0.1,49.4-13,61.9-42.4s-18.5-83.4-46-101.7c-6.5-4.3-38.7-8.2-40.4,0
		c-2.6,11.6-44.9,33.3-41.4,96.8C430.7,421.3,474,433.7,494.8,433.8z"/>
	
		<ellipse id="XMLID_250_" transform="matrix(-0.9799 0.1994 -0.1994 -0.9799 1003.825 691.4847)" class="st2" cx="467.1" cy="396.3" rx="2.8" ry="3.1"/>
</g>
</svg>
