<svg xmlns="http://www.w3.org/2000/svg" id="Layer_1" viewBox="0 0 1000 1000"><defs id="defs10"><clipPath id="clipPath4493"><path d="M413.14 13.77l202.33-1.06L600.64 214l-57.2 277.55-203.4 3.17z" id="path4495" fill="#595f6d" stroke-width=".1" stroke-linecap="round"/></clipPath></defs><style id="style2">.st0{fill:#010101;} .st1{fill:#F6E0E8;}</style><style id="style4546">.st0{fill:#F6E0E8;}</style><g id="g4566"><g id="g4512" stroke-width=".51"><path id="path4543" d="M506.48 64.14c-2.08.02-4.06.23-5.66.64-3.32.85-10.72 4.56-13.47 6.76-.84.67-3 2.28-4.77 3.57-10.6 7.7-16.22 23.9-14.3 41 .83 7.5.84 6.3-.02 16.9-1.22 15.1.25 23.4 6.12 34.5 7.73 14.7 8.24 15.9 8.74 21 .7 7.1.23 10.1-2.37 14.9-1.65 3-4.36 9.3-4.76 10.9h-.1l-3.6 7-2.4 4c-.1.1-.2.2-.2.3-.3.4-.5 1-.5 1.3 0 .3.2.2.5-.2.2-.3.4-.7.4-1l1.2-2 3.3-6 1.8-2.7c.5-.3 1.6-2 2.6-4.2 1.1-2.4 2.7-5.1 3.5-6 2.9-3.4 6.7-8.9 7.8-11.4.9-2.1 1.1-3.3 1.1-7.8-.1-5.7-.7-8.9-4.4-21.7-1.1-4-2-7.4-1.8-7.5.1-.1 1.1 1.1 2.3 2.7 2.2 3.2 6.2 7.4 6.5 7 .1-.1-1.1-2.7-2.8-5.7-3.3-6.1-6.3-13.8-7.6-19.1-.8-3.6-.7-8.4.8-25 .9-9.9 4.8-19.9 10.1-25.6 1.4-1.4 3.6-1.5 8.7-.1l3.7 1 3-1.2c1.6-.7 3.5-1.2 4.2-1.2 2.3 0 4.7 1.5 7.4 4.6 1.4 1.6 2.9 2.8 3.2 2.7.8-.3 2.4 3.3 3.5 7.7 1.5 5.9 1.9 11 2.3 27 .2 8.9.6 16.5.8 16.9.6 1 1.3-.2 1.3-2.1 0-2.7 1-1.3 1.3 1.9.4 3.6.3 4.5-1 11-.7 3.4-.8 5.7-.6 10 .3 5.6.3 5.8-1.5 10.3-2.6 6.7-3.4 10.8-3.4 16.4 0 5.2 1.4 12.9 2.8 15.8 2.9 6.1 3.4 6.4 3.4 2.7 0-1.3.3-3.9.7-5.7 1.1-4.7 3.9-13.2 4.4-13.2.7 0 .4 1.5-.6 3.7-.6 1.2-1.4 3.7-1.8 5.6-.8 3.9-.4 8.1 1.3 12.9.7 2 .9 3.5.7 6-.3 4.4.5 6.7 3.4 9.8 2 2.2 2.5 3.1 3 5.6.5 2.6 1 3.5 3 5.5 2.3 2.3 2.4 2.6 2.7 5.9.4 4.9 2 8.8 4.7 11.6l2.3 2.3v4.2c0 5.4.9 8 3.8 11l2.3 2.3-1.1 4.3c-1.6 5.7-1.6 11.1-.1 13.9l1.1 2c-.1 0-.1.1-.1.1l-2.8 3.4c-4 5-9.5 13.5-12.1 18.5-4.9 9.8-5.1 13.7-.8 22.6 1.5 3.1 3.5 6.4 4.5 7.4 1.6 1.6 2.1 1.9 3.7 1.7l1.9-.2-.7-2.9c-1.1-4.7-1-5.9.9-7.6.9-.8 4.6-3 8.2-5 11-6 16.1-10.4 17.6-15.2 1.3-4.1-.4-10.3-5-18.5l-2.1-3.8 2.5-2.2c3.1-2.8 4.6-5.8 4.6-9.2 0-2.6-1.6-7.1-3.4-9.7-1.5-2-1.4-3 .3-5.6 2.9-4.3 2.4-8.5-1.6-12.3l-1.9-1.8.3-3.8c.3-3.5.2-4.1-1-6.5-.8-1.4-2.1-3.4-2.9-4.4-1.5-1.6-1.6-2-1.3-4.1.5-3.4-1.8-7.8-6.1-11.7-3-2.7-3.3-3.1-3.5-5.6-.2-1.5-.9-4-1.7-5.7-1.3-2.9-1.4-3.1-.7-6.3.5-2.8.5-3.6-.2-5.7-.5-1.3-1.5-3.3-2.2-4.3-1-1.5-1.2-2.1-.7-3.2.7-1.8.7-5.5 0-7.2-.4-1-.3-1.9.2-3.5.4-1.1.9-4.3 1-7s.5-6 .8-7.4c.5-2.2.4-2.7-1.4-6.7-1.1-2.5-2-5.5-2.2-7.1l-.2-2.8 4.4-6.6c7.6-11.3 8.4-13.6 9.5-27.2 1-13.7 1.1-13.3-5.1-32.8-2-6.2-3.48-8.5-9.1-14-4.5-4.3-5.9-5.3-10.5-7.5-2.9-1.4-6.7-3-8.6-3.4-4.4-1.2-11.6-1.3-15-.1-2.5.8-2.6.8-5.8-.2-2.8-1-6.6-1.5-10-1.4zm-31.78 81c.04-.02.08 0 .13.05.9.9 4.15 11.8 5.65 18.9.85 4 1.45 7.4 1.33 7.5-.8.8-5.6-10.1-6.6-15.1-.8-4.3-1-11.4-.5-11.6zm61 11.14c.06 0 .1 0 .15.04.22.13.68 1.82 1.02 3.74.6 3.35.57 3.64-.73 6.9-2.05 5.12-2.44 4.85-2.12-1.5.26-5.2 1-9.1 1.7-9.18zm-50.3 12.06c.3.04 1.1 2.26 2.55 7.08.92 3.08 1.3 5.64 1.36 8.9.1 2.7-.1 5-.5 5.6-.5.94-.6.9-.9-.52-.2-.83-.6-2.9-1-4.57-.7-2.9-1.8-16.05-1.4-16.47 0-.02.1-.02.1-.02zm53.32 9.86c.2.04.22.7.23 2.3.02 3.48-1.08 9.3-3.06 16.28-.9 2.94-1.8 6.7-2.1 8.33-.3 1.7-.6 3.1-.7 3.3-.5.5-1-5.7-.7-10.9.2-5.9 1.5-10.6 3.7-13.9.6-1 1.2-2.2 1.2-2.8s.3-1.4.7-2c.2-.3.4-.5.5-.5z" fill="#e1e0e2"/><path d="M506.48 64.14c-2.08.02-4.06.23-5.66.64-3.32.85-10.72 4.56-13.47 6.76-.84.67-3 2.28-4.77 3.57-10.6 7.7-16.22 23.9-14.3 41 .83 7.5.84 6.3-.02 16.9-1.22 15.1.25 23.4 6.12 34.5 7.73 14.7 8.24 15.9 8.74 21 .7 7.1.23 10.1-2.37 14.9-1.65 3-4.36 9.3-4.76 10.9h-.1l-3.6 7-2.4 4c-.1.1-.2.2-.2.3-.3.4-.5 1-.5 1.3 0 .3.2.2.5-.2.2-.3.4-.7.4-1l1.2-2 3.3-6 1.8-2.7c.5-.3 1.6-2 2.6-4.2 1.1-2.4 2.7-5.1 3.5-6 2.9-3.4 6.7-8.9 7.8-11.4.9-2.1 1.1-3.3 1.1-7.8-.1-5.7-.7-8.9-4.4-21.7-1.1-4-2-7.4-1.8-7.5.1-.1 1.1 1.1 2.3 2.7 2.2 3.2 6.2 7.4 6.5 7 .1-.1-1.1-2.7-2.8-5.7-3.3-6.1-6.3-13.8-7.6-19.1-.8-3.6-.7-8.4.8-25 .9-9.9 4.8-19.9 10.1-25.6 1.4-1.4 3.6-1.5 8.7-.1l3.7 1 3-1.2c1.6-.7 3.5-1.2 4.2-1.2 2.3 0 4.7 1.5 7.4 4.6 1.4 1.6 2.9 2.8 3.2 2.7.8-.3 2.4 3.3 3.5 7.7 1.5 5.9 1.9 11 2.3 27 .2 8.9.6 16.5.8 16.9.6 1 1.3-.2 1.3-2.1 0-2.7 1-1.3 1.3 1.9.4 3.6.3 4.5-1 11-.7 3.4-.8 5.7-.6 10 .3 5.6.3 5.8-1.5 10.3-2.6 6.7-3.4 10.8-3.4 16.4 0 5.2 1.4 12.9 2.8 15.8 2.9 6.1 3.4 6.4 3.4 2.7 0-1.3.3-3.9.7-5.7 1.1-4.7 3.9-13.2 4.4-13.2.7 0 .4 1.5-.6 3.7-.6 1.2-1.4 3.7-1.8 5.6-.8 3.9-.4 8.1 1.3 12.9.7 2 .9 3.5.7 6-.3 4.4.5 6.7 3.4 9.8 2 2.1 2.5 3 3 5.6.5 2.6 1 3.4 3 5.4 2.3 2.3 2.4 2.6 2.7 5.8.4 4.9 2 8.8 4.7 11.6l2.3 2.4v4.2c0 5.4.9 8 3.8 11l2.3 2.3-1.1 4.3c-1.6 5.7-1.6 11.2-.1 14l1.1 2c-.1 0-.1.1-.1.1l-2.8 3.4c-4 5-9.5 13.5-12.1 18.6-4.9 9.9-5.1 13.8-.8 22.7 1.5 3.1 3.5 6.4 4.5 7.4 1.6 1.6 2.1 1.9 3.7 1.7l1.9-.2-.7-2.9c-1.1-4.6-1-5.9.9-7.5.9-.8 4.6-3.1 8.2-5 11-6.1 16.1-10.4 17.6-15.2 1.3-4.1-.4-10.4-5-18.6l-2.1-3.7 2.5-2.2c3.1-2.8 4.6-5.8 4.6-9.2 0-2.6-1.6-7.1-3.4-9.7-1.5-2-1.4-3 .3-5.6 2.9-4.3 2.4-8.5-1.6-12.3l-1.8-1.8.3-3.9c.3-3.5.2-4.1-1-6.5-.8-1.5-2.1-3.5-2.9-4.4-1.5-1.7-1.6-2-1.3-4.2.5-3.4-1.8-7.8-6.1-11.7-3-2.7-3.2-3.1-3.5-5.6-.2-1.5-.9-4-1.7-5.7-1.3-2.9-1.3-3.1-.7-6.2.5-2.8.5-3.6-.2-5.7-.5-1.4-1.4-3.3-2.1-4.3-1.1-1.6-1.2-2.1-.7-3.3.7-1.8.7-5.4 0-7.2-.4-1-.3-1.9.2-3.5.4-1.1.9-4.3 1-7 .1-2.7.5-6 .8-7.4.5-2.2.4-2.7-1.4-6.7-1.1-2.5-2-5.5-2.2-7.1l-.2-2.8 4.4-6.6c7.6-11.2 8.4-13.5 9.5-27.2 1-13.7 1.1-13.3-5.1-32.8-2-6.2-3.5-8.5-9.1-13.9-4.5-4.2-5.9-5.3-10.5-7.5-2.9-1.4-6.8-3-8.6-3.4-4.4-1.2-11.7-1.2-15 0-2.5.85-2.7.85-5.9-.2-2.8-.96-6.6-1.44-10.1-1.4zm51.24 28.4c.25 0 .58.5.74 1.12.4 1.5.04 1.75-.64.48-.67-1.25-.7-1.6-.1-1.6zm-2.97 1.57c.3 0 .63.3 1 1 .3.6.5 1.5.4 2.1-.14.9-.24 1-1.23.3-.77-.5-1-1.1-.83-2 .1-.8.3-1.2.6-1.2zm-80.05 51.1c.04 0 .08 0 .13.1.9 1 4.15 11.9 5.65 19 .85 4 1.45 7.4 1.33 7.6-.8.9-5.6-10.1-6.6-15-.8-4.3-1-11.3-.5-11.5zm61 11.2c.06 0 .1 0 .15.1.22.2.68 1.8 1.02 3.8.6 3.4.57 3.7-.73 6.9-2.05 5.1-2.44 4.9-2.12-1.5.26-5.2 1-9.1 1.7-9.2zm-50.3 12.1c.3.1 1.1 2.3 2.55 7.1.92 3.1 1.3 5.7 1.36 8.9.1 2.7-.1 5-.5 5.6-.5 1-.6.9-.9-.5-.2-.8-.6-2.9-1-4.5-.7-2.9-1.8-16-1.4-16.4h.1zm52.9 7.2c.1 0 .13.2.14.7 0 .6-.32 1.5-.73 2.1-1 1.4-1 0 0-1.8.4-.6.5-.9.6-.9zm.42 2.7c.2.1.22.7.23 2.3.02 3.5-1.08 9.3-3.06 16.3-.9 3-1.8 6.7-2.1 8.4-.3 1.7-.6 3.1-.7 3.2-.5.5-1-5.7-.7-10.9.2-5.9 1.5-10.6 3.7-13.9.6-1 1.2-2.2 1.2-2.8s.3-1.4.7-2c.2-.3.4-.5.5-.5zm-3.4 3.1l.04 1c0 .6-.2 1.4-.47 1.8-.5.7-.5.7-.5 0 0-.4.2-1.2.4-1.7l.4-1z" id="path4534" fill="#b4b3b7"/><path d="M506.44 65.08l-1.68.1c-5.88.48-17.37 6.87-18.72 10.42-.27.7-.7 1.08-1.03.9-1.1-.75-7.8 7.83-10.6 13.7-1.5 3.25-1.9 3.8-2.1 2.8-.3-2.24-2.4 4.24-3 9.6-.4 3.77-.4 6.3 0 10.78.4 3.22.7 7.3.7 9.06.1 1.76.4 3.6.7 4.07.5.7.6 3.3.4 10.8-.2 7-.1 11 .4 13.5.4 2 .7 5 .8 6.7.1 2.5.6 4.1 2.2 7.4 2.6 5.3 6.9 12.1 7.1 11.2.1-.3-1.3-3.7-3.1-7.5-4.1-8.6-4.9-12.3-4.9-21.6.1-3.7.3-7.2.5-7.8.4-.9.5-.9 1.1.5.4.9 1.4 3.2 2.3 5.2.9 2 1.8 4.7 2 5.9.2 1.3 1 5.2 1.8 8.9.9 3.7 1.8 8 2.2 9.7l.7 3.1.2-3.9c.1-2.1.3-3.9.6-3.9s1.2 2.1 2.1 4.7c1 2.6 2 5.4 2.4 6.2.7 1.5.7 1.5.5-.7-.1-1.2-1.5-6.7-3.1-12.2-1.5-5.4-2.7-10.2-2.7-10.6.1-.4 1.4 1.1 2.9 3.4 4.1 6.2 5.4 7 2.7 1.7-1.9-3.9-5.5-14.5-5.9-17.6-.4-3.2.6-20.9 1.6-27.3.9-5.9 3.5-13 6.3-17.3 4.1-6.3 4.9-6.7 10.1-6 3.3.5 5 .5 12.4-.3 3.2-.3 3.5-.2 5.6 1.2 1.2.9 2.6 2 3.2 2.6.5.6 1.3 1.1 1.8 1.1 1.5 0 2.9 2.4 4.5 7.3 2.3 7.2 3.1 12.4 3.6 23.9.4 8.6.6 10.7 1.3 11.4.5.5.9 1.5.9 2.3 0 .8.4 4.3.8 7.8.7 5.3 1.3 8.6 3.2 17 .2.6-.7 3.4-2 6.4-3.1 7.2-5.3 13.1-6.2 16.5-.9 3.5-1 10.8-.1 14.5l.6 2.7.4-3c.2-1.7.3-4.7.4-6.8 0-4.3 1.9-10.4 4.9-16.4 2.2-4.5 2-4.3 3-3.5 1 .8 1 8.4 0 14-.9 5.2-.9 5.3.2 5 1.7-.5 1.6 3-.1 7.4-1.3 3.2-1.6 4.5-1.5 7.9 0 2.2.4 5.3.9 6.9.4 1.5 1 4.7 1.2 7.1.5 5.2 2.1 9.3 4.3 11.5 1.2 1.1 2 2.7 2.8 5.5 1 3.3 1.5 4.1 3.2 5.5 1.8 1.5 2.1 1.9 2.1 3.8 0 2.4.9 5.3 1.6 5.3.3 0 .5-1 .5-2.2 0-4.3 2.3-6.3 4-3.5.5.9 1.2 1.6 1.5 1.6 1.5 0 1.5 2.9.1 5.6-1 2-1.2 2.1-2.8 1.8-2.9-.5-2.7 1.1.6 5 1.5 1.8 1.7 2.4 1.7 5 0 3.8 2.5 10.3 4.6 12.2 1.8 1.7 1.9 2.6.5 6.5-1.6 4.6-1.7 7.5-.5 10.8 1.7 4.3 1.5 5.4-1.7 9.4-3.8 4.7-9.6 13.4-11.5 17.2-2.5 4.9-4 10.3-3.7 12.7.9 6.6 2.8 12 5.4 15.7 1.2 1.8 2.4 1.9 2.4.1 0-.7.3-1.9.7-2.7.4-.7 1-1.9 1.3-2.6 1.8-3.8 2.6-4.8 4.9-6.2 1.4-.8 3.1-1.4 3.9-1.4 1.5 0 6.4-2.3 10-4.7 3.4-2.2 6.1-4.9 7.2-7.2 1.4-2.5 1.8-7.2 1-9.7-1.1-3.7-6.7-14.5-7.6-15.1-1.1-.7-1.2-1.9-.2-4.7.4-1.2.8-3.1.8-4.3 0-1.8-.1-2.1-.7-1.6-1.3 1.1-1.5-2.5-.3-6.1.6-1.8 1.2-3.3 1.3-3.3.1 0 1 .3 2 .7 2.1.9 2.4.5 1-1.8l-.3-.7v-.4c0-.5.1-1.1.1-1.8l1.3-3.3 1.9-4.7-.8-2.2c-.5-1.2-1.7-2.8-2.83-3.7l-2-1.6.1-1.5.2-2.6c.4-4.7-.4-7.2-3.5-11-1.7-2-1.8-2.4-1.6-4.5.4-3.5-1.5-7.1-5.8-11.3-3-2.9-3.6-3.6-3.6-5.1 0-2.3-.7-3.2-2.4-3.3-2.9-.2-5.2-.8-5.7-1.3-.2-.3-.55-1.4-.7-2.5-.4-2.4.1-2.7 3.25-1.7l2.36.7.7-4.3c.8-4.9.4-6.5-2.1-10.1-1.3-1.9-1.5-2.3-1-4.1.2-1.1.5-6 .5-11 0-7.4.2-9.2.9-10.3 1.4-2.1.8-7.1-1.3-10.1-1.5-2.3-1.6-2.8-1.6-6.6 0-2.8.3-4.4.8-5.1.4-.6.8-1.4.8-2 0-.6.9-2.8 2-5s2.1-4.5 2.1-5.1c0-.6.6-2.2 1.4-3.7.8-1.4 1.6-3.2 1.7-3.9.2-.8.8-1.9 1.4-2.6l1.04-1.2-.3 3.2c-.2 1.8-.4 3.6-.6 4.1-.2.6-.18.7.2.4 1.4-1.3 2.8-7.4 3.3-14.8.9-12.5.8-15.5-1.1-20.8-.9-2.5-2-6.3-2.6-8.4-2.7-11-9.8-19.9-19.7-24.7-2.6-1.3-5.6-2.4-6.6-2.5l-2.5-.2c-.3 0-.5-.3-.4-.5.1-.2 0-.6-.3-.8-1-.5-11.2-.3-13.6.3h-5l-1-.2c-2.27-.5-4.76-.7-6.36-.5-2.3.3-2.6.2-2.6-.6 0-.6-.2-.8-1.5-.7zm-4.65 2.05c2.2.02 2.2.05 1 .7-.7.36-2.2.8-3.3.96-1.9.3-2 .2-1.1-.7.6-.8 1.5-1 3.2-1zm50.6 12.73c.4-.16 1.6.67 3.6 2.55 5.5 5.2 10.6 18.4 8.4 21.8-.4.6-.6.5-1.1-.4-.8-1.3-1.4-1.4-1.8 0-.2.6-.8 1-1.3 1-.7 0-1.1.5-1.3 1.3-.2.7-.5 1.3-.7 1.3-.2 0-1.3-.9-2.5-2.1-1.5-1.4-2.2-1.9-2.4-1.4-.9 2.8-.8 2.8-2.3 1.3-1.7-1.6-1.9-1.7-2.3-.2-.3 1.1-.3 1.1-1.4-.3-.6-.7-1.3-1.2-1.5-1.1-.3.2-.9.1-1.4-.2-.8-.4-1.2-.3-1.9.5-.9.9-1 1-2.1.3-.7-.4-1.4-.7-1.7-.7s-.6 1.1-.7 2.4l-.2 2.4-1.2-3c-3-7.6-5.6-12.3-8.6-15.7-1.7-1.9-3-3.6-2.9-3.7.5-.4 2.7 1.2 5.7 4.1 1.7 1.7 3.3 2.9 3.7 2.7.3-.2 1.3 0 2.3.3 1.3.5 1.9.5 2.3.1.4-.4.9-.4 1.5-.1 1.1.6 1.2.1.2-2.4-.4-1-.8-2.1-.8-2.4 0-.9 4.2-2 5.5-1.3 1.7.9 2.6.7 2.6-.7 0-1.1.1-1.2.9-.7 1.5.8 1.6.7 1.2-1.7-.3-1.9-.2-2.3.5-2.3.4 0 .8-.2.8-.5s.1-.4.2-.5zm-60.8 3.7c.2 0 .4.08.4.26.1.32.6.58 1 .6.4 0-.5.74-2.2 1.64-2.1 1.13-3.4 2.3-4.3 3.76-.8 1.16-1.9 3-2.5 4.07-.9 1.4-1.1 1.6-.9.6.5-2.3 2-5.3 3.7-7.5 1.4-1.9 3.6-3.6 4.6-3.6zm74.3 29.3c.2.02.6.85.9 1.86.4 1.43.3 2.18-.3 3.3-.9 1.7-1 1.76-1.5.64-.1-.12-.1-.3-.1-.5v-2.05c.1-1.5.5-3.2.8-3.2zm-30.2 6.6c0-.02 0 0 .1.04.2.43.6 2.78.8 5.22 0 .6 0 1.05.1 1.55v2.14c-.1 1.2-.3 1.3-.7-.3-.6-2.4-.8-8.4-.5-8.5zm30.5 1.8v1.62c0 .88-.1 1.97-.3 2.4-.2.45-.5.82-.8.82-.7 0-.5-1.54.3-3.3l.7-1.53zm-27.8 22.64c.5 0 .8 1.5.9 5.1.1 4.6-.5 6.82-1.3 4.7-.6-1.25-.6-9.16-.1-9.66.1-.15.3-.23.4-.2zm5.1 6.5c.1 0 .2.5.4 1.3.5 2.56-.2 8.06-1.5 11.3-.9 2.17-.9 2.6-.3 3.8.5 1 .5 1.73.2 2.7-.8 1.94-.6 4.87.2 6.55.9 1.85.9 2.42-.1 4.62-.5 1-1.1 1.8-1.3 1.8-.4 0-.7-5.96-.6-9.1 0-.7-.3-1.85-.8-2.58-.7-1.3-.7-1.6.1-3.4 1.2-2.9 2.3-6.8 2.3-8.8 0-1.8-.4-2.1-1.4-1.1-.5.5-.6 0-.6-2 0-3 .3-3.6 1.3-2.4.6.8.7.7 1.2-.6.3-.8.5-1.9.6-2.3v-.2zm1.8 32.5c.1 0 .2 0 .3.02.5.48-.5 3.02-1.6 4.24-1.4 1.5-2.2 1.03-2.2-1.17 0-1 .4-1.7 1.6-2.5.7-.5 1.3-.7 1.7-.7zm2.6 1.2c.2 0 .3 0 .5.1.1.2-.1.7-.6 1.2-.8.8-.9.8-.9.02 0-.7.5-1.3.9-1.35zm-4.7 13.63c1.6 0 3.8 2.1 3.5 3.36-.4 1.2-1.1 2.1-3.4 4.1-2.3 2-3.3 2-4 .3-1-2.7 1.5-7.8 3.9-7.8zm12.4 7.1c.6 0 1 .35 1 .77s-.5.77-1 .77c-.6 0-1-.34-1-.76s.4-.7 1-.7zm-10.6 11.2c1.4 0 1.7 1.2 1 4.32-.8 3.46-1.7 4.25-3.1 2.82-2.2-2.2-.8-7.17 2-7.17zm4.1 12.74c.5.05 1.2.5 2 1.3 1.5 1.44 1.7 2.7 1.1 5.72-.4 2.1-2.3 2.1-3.8 0-.8-1.2-1-2.1-.9-4.2.1-2 .6-3 1.4-2.9zm12.2.5c3 0 9.1 6.2 8 8.16-.8 1.54-2.3 1.15-4.5-1.15-1.8-1.84-2.2-2.04-2.9-1.47-1.1.9-2.4-.1-2.4-1.7s.9-3.7 1.6-3.7zm6.6 15.76c1.1.1 4.3 2 6 3.72 2.6 2.64 2.8 4.62.4 5.1-2.3.45-2.4.42-3.3-.97-.5-.7-1.4-1.56-2.2-1.9-1.5-.7-2.3-2.28-1-1.76 1 .4 1 .3 0-2-.5-1-.7-1.97-.6-2.1.1-.08.2-.1.4-.1zm6 16.76c.8-.2 2.8.8 4.3 2.1 2.3 2 2.9 3.2 2.5 4.9-.2 1-.8 1.5-2.1 1.9-1.8.5-1.8.5-3-1.3-1.1-1.8-2.6-7.1-2.1-7.6.1-.1.2-.2.3-.2zm-11.4 2.3c.5 0 .8.4 1.2 1.3.3.8.4 2.2.3 3.2-.2 1-.5 1.9-.8 2-.9.5-2.6-2.4-2.6-4.3 0-1.6.2-2 1.2-2.2.2-.1.4-.1.6-.1zm3.3 1.7c.2 0 .4.5.4 1.1 0 .6-.2 1.4-.5 1.8-.4.6-.5.5-.8-.3-.4-1.2 0-2.7.7-2.7zm7 .5c.4.1 1.5 1.6 1.5 2.1 0 .2-.3.4-.6.4-.6 0-1.5-2.1-1.2-2.6 0-.1.1-.1.1 0zm8.5 16.8c-.1 0-.1 2 0 4.6.1 4 0 4.9-1.2 7.4-.7 1.5-1.3 2.9-1.3 3.1 0 .7 1.4-.4 2.4-1.9 2.3-3.5 2.8-8 1.1-11.3l-1.1-2zm-15.6.7c.2-.1.3.4.5 1.6.2 1.1.1 3-.2 4.2-.3 1.2-.8 2.1-1 2.1-.6 0-.5-6.1.2-7.3.2-.4.4-.7.5-.7zm6.3 26.8c.1-.1.9.4 1.8 1.2 1.5 1.2 1.7 1.3 2.2.5.8-1.2 1.5-.7 2.7 1.8.9 1.6 1.2 1.9 1.8 1.4 1.3-1.1 1 5.6-.3 8.1-2 4-7.1 7.7-11.9 8.4-1.6.2-1.7.2-1.4-.8.4-1.5-.7-1.4-3.5.3-3.8 2.4-3.7 2.3-3.3 1.5.2-.4 1.1-1.6 1.9-2.6 2.4-3 .8-3.9-2.8-1.6-1.2.7-2.2 1.2-2.3 1-.7-.7.8-3.3 3.3-5.9 1.6-1.6 3.3-3.6 3.8-4.3 1.2-1.7 1.4-1.5.9.9-1 4.1 1.9.6 4.8-5.8 1-2.4 2-4.4 2.1-4.6z" id="path4528" fill="#9497a2"/><path d="M512.05 67.55c-4.18.04-7.67.76-7.67 1.57 0 .22-.92.52-2.05.67-1.13.1-2.4.5-2.84.9-.7.5-.6.7 1 1.6 2 1 2.4 1.9.8 1.9-1.2 0-1.3.6-.3 1.5 1.1.9.4 1.5-1.5 1.5-2.4 0-3.3.4-3.3 1.5 0 .5-.4 1.1-.9 1.4-.7.3-.2.6 1.9 1.1 1.5.3 4 1.3 5.6 2.1 3.6 1.8 5.7 1.9 6.1.3.1-.7.9-1.6 1.8-2.1 1.4-.9 1.5-.9 1.8.1.2.5.5 1 .7 1l5.2.1c4.5.1 5.1.2 8.4 2 1.9 1 3.9 1.8 4.4 1.9.5 0 1.7-.8 2.7-1.9 1.5-1.6 1.7-2.2 1.4-3.6-.4-1.8-.2-1.9 2.8-1.7 1.8.1 2.8-1.2 2-2.8-.6-1.2-.5-1.3 1.4-1.3 2.2 0 2.8-.6 2-2-.9-1.6-3.4-3.1-7.3-4.5-3.2-1.2-4.8-1.4-12.1-1.5-4.6-.2-10.3-.3-12.7-.2zm39.72 8.3c-.38.02.6 1.27 2.93 3.64 2.36 2.4 4.4 4.2 4.5 4.1.46-.5-2.12-3.9-4.13-5.6-1.9-1.6-3-2.3-3.3-2.3zm-64.46 8.4l-1.1.6c-2.8 1.48-5 5.93-6.9 13.86-1.8 7.7-2.1 10.7-1.7 20.8.5 11.9 3.2 34.3 4.6 38 .5 1.2 1.2 1.5 1.7.7.2-.2-.5-4.3-1.5-9-2-9.7-2.6-16.6-2.8-32-.1-8.6 0-11.6.8-15.7 1.6-8.3 1.9-9.1 6.2-15.7l1-1.5zm28.2.68c-1.2.04-2.7.28-3.7.7-2.8 1.2-2.1 1.82 1.8 1.68 3.4-.1 3.6 0 7.1 2.3 2 1.4 3.8 2.5 4.1 2.5 1.2 0 3.2 3.2 4.4 7 2.3 6.8 3.4 12.8 4.1 21.5.4 4.7 1.1 9.6 1.5 11 1 3.2 1 3.4.1-9.9-.3-6-.6-11-.5-11.1.4-.4 1.4 2.8 2.3 7.3.6 3 1 6.7 1 10.7 0 7 .7 11.6 1.9 13.4l.9 1.3 1-1.6c1-1.5 1-1.8.2-9.6-.4-4.4-1.1-9.9-1.5-12.2-1.2-6.9-5.1-17.2-7.1-18.9-.4-.4-1.5-1.8-2.3-3.3-2.6-4.6-6-8.3-8.8-9.9-1.4-.8-2.9-1.7-3.3-2-.4-.4-1.5-.5-2.8-.5zm-15.6 1.93c-1.1-.02-2.2.06-2.4.25-.2.2.9.4 2.4.4s2.6-.1 2.5-.2c-.2-.2-1.3-.3-2.4-.3zm-5.4 1.18c-.1-.1-1 .3-2 .9-2.5 1.56-6.7 6.4-8.2 9.44-1.6 3.45-2.7 10-2 12.58.4 1.45.4 2.2-.1 2.83-1.6 2.2-1.7 3.5-1.4 11.5.3 7.5 1.5 17 2.9 22.2.3 1.2 1.3 3.3 2.1 4.8.8 1.4 1.6 2.6 1.7 2.6.1 0-1-3.5-2.4-7.8l-2.5-7.8.6-12.2c.3-6.7.9-14.3 1.3-16.8 1-6.2 3.8-13.2 7.5-18.2 1.6-2.3 2.8-4.2 2.7-4.3zm-18.4 11.62c-.2 0-.4 1.9-.4 4.2 0 2.8.1 3.68.3 2.66.6-2.04.6-6.87.2-6.86zm-3.7 3.16c-.3-.1-.7.7-1.3 2.2-1.2 2.8-1.2 3.36-.8 7.35.3 2.37.5 5.46.6 6.86l.2 3.24c.1.42.5.6 1 .44 1.2-.3 1.6 1.6 1.6 7 0 2.8.3 4.3 1.3 6.3.7 1.6 1.4 2.7 1.6 2.6.2-.2-.2-3.5-1.7-15.6-.2-2.1-.8-3.9-1.1-4.1-.5-.3-.6-2-.5-7.5.1-5.8.1-8.4-.4-8.5zm72.6 7.08c-.2.03-.4.32-.9.9-.6.87-1.2 1.1-2 .83-1-.32-1.1-.16-1.1 1.6 0 1.06.4 3.88.8 6.26 1.4 7.9 3.1 26.6 3.1 33.3 0 5.6-.1 7-1.1 9.8-1 2.7-1.1 3.4-.6 4.4.4.6.5 1.8.3 2.7-.3 1.8.2 1.9 1.5.5 1.2-1.4 2.8-1.3 5.1.1 2.5 1.5 2.5 3.5 0 4.9-1.5.8-3 .7-4.5-.3-1.7-1.1-2.1-.6-1.4 1.6.2.6.3 1.1.3 1.5 0 .4 0 .8-.2 1.1-.9 1.6-.5 2 1.1 1.2 2.1-1.1 4.4-.2 5.4 2.2.4.9.7 1.8.7 1.9 0 .1-1 1.3-2.3 2.7-1.7 1.8-2.6 2.4-3.3 2.2-.6-.2-1.1 0-1.6.7-.3.5-1 1-1.5 1-.7 0-.9.4-.9 2.5v2.5l1.4-.7c1.4-.8 4.2-.4 5.6.8.9.7.8 3.7-.2 5.5-1.8 3.5-6.4 7.3-8.5 6.9-.3-.1-.6.5-.7 1.4-.2 1.7 1.4 7.9 2 7.9.2 0 .7-.8 1-1.7.8-2.4 2-3.5 3.9-3.5 2.7 0 2.9 1.1 1.4 7.6-1.5 6.4-2.1 6.9-4.7 4l-1.5-1.6.4 1.5c.7 2.9 2.3 6.2 3.8 7.6l1.5 1.4V230c0-4.9 1.5-6.47 4.8-4.96 2 1 3.4 7.6 2.6 12.9-.4 2.7-.9 2.8-3.5 1.1-1.4-1-1.8-1.1-1.8-.5 0 1.2 1.3 3.4 3 4.9.9.8 1.6 1.7 1.6 2.1 0 .36.4-.2.9-1.2 2.2-4.6 8.2-.3 8.2 5.87 0 1-.2 3-.6 4.4-.6 2.5-.5 2.6.7 3.7.8.6 1.6 1.6 1.9 2.3.3.6.8 1.1 1 1.1 1.1-.2 1.6.2 2.1 1.7 1.2 3.5.4 7.6-2.1 10.4-1 1.1-1 1.1.1 3.1 1.1 2.2 1.5 2.5 2.4 1.5.4-.3 1-.4 1.4-.2 1.1.5 1 3.6-.2 7.1-.7 1.9-1 4.2-1 6.7 0 3-.2 4.1-1 5-.5.7-1.1 1.9-1.3 2.7-.2.8-2.4 4.2-4.9 7.5-9 11.9-10.8 15.5-12.1 23.8-1 6.2.6 14.2 3.4 17 .9.9 1 .9 1.7-.9.4-1 .9-1.8 1.2-1.8.2 0 .9-1 1.4-2.3.6-1.3 1.6-3 2.4-3.9.7-.8 1.2-1.6 1.1-1.8-.6-.6-3.7 1.9-4.9 4.1-.7 1.3-1.4 2.4-1.7 2.4-.5 0 0-6.8.5-8.4.7-1.7-1-.5-2 1.4-1 2.1-1.8 2.1-1.8 0 0-2.4 3-7.2 6.9-10.6 3.1-2.8 8.3-9.4 8.3-10.6 0-.2.9-2 1.9-4.1 1.2-2.3 2.2-3.7 2.7-3.7s1.2-.5 1.5-1c.6-.9 1-1 2.6-.7 1 .2 2.5.7 3.3 1.1.8.4 1.6.6 1.8.5.4-.4-.2-2.4-1.4-4.3-.9-1.4-1.3-1.6-3.1-1.6-1.9 0-2.1-.1-1.7-1.1.2-.6.4-2.5.6-4.3.2-2.7.1-3.2-.6-3.2-.5 0-.8-.3-.8-.6 0-1.4 1.5-10 2.2-12.3.7-2.5.7-2.5 2.7-2.4 1.9.1 2.1 0 2.6-1.8.7-2.2.5-2.6-1.7-2.6-1 0-2.5-.5-3.7-1.3-2.4-1.6-3.2-3.9-3-8.8l.1-3.2 3 .3 3 .3-.1-2.1-.2-2.2-2.1.1c-1.7.1-2.3-.1-3.3-1.1-.7-.7-1.7-1.3-2.4-1.3-1.2 0-3.7-2.6-3.8-4-.3-3.4-.1-7.7.5-7.7.36 0 1.9.6 3.5 1.5 3.2 1.6 3.7 1.6 2.9 0-.3-.5-.6-1.5-.6-2.2 0-1-.2-1.2-2-1.2-2.3 0-7.8-2.6-10.3-4.9-1.4-1.3-1.5-1.6-1.3-4.6l.1-3.2 2.68.1 2.7.1-.3-1.6c-.5-2.2-.6-2.3-3.7-2.6-3.2-.3-4.2-.7-5.9-2.8-1.5-1.7-1.9-5.5-.6-6.5.7-.5 3.2-.2 5.5.7 1.2.5 2-1.6 2.1-5.5 0-2.2-.2-3.4-.8-4.3l-.9-1.3v2.6c0 1.9-.3 2.8-1.1 3.5-1 .9-1.1.9-2.9-.1-1.1-.6-2.37-1.9-2.9-2.9l-1-1.9 1-1c.63-.6 1.2-1.3 1.2-1.5 0-.2.7-.6 1.6-.9 2.2-.6 2.4-2.1.7-4.9-1.7-2.8-1.7-4.8-.1-5.4 1.8-.7 2.1-3.4.5-5.2-1.7-1.8-1.6-5.2.2-5.4.6-.1 1.1-.4 1.1-.8 0-.3.4-1.7 1-3 .9-2.1 1-2.72.5-5.4-.5-2.82-2.2-6-3.2-6s-1.7-2.1-1.1-3.24c.3-.6.6-2.4.7-4.1.13-2.3.9-4.7 3.05-9.8 1.6-3.7 2.9-6.8 2.9-7 0-.1.6-1.1 1.3-2.3 1.6-2.5 2.7-9.3 1.9-12.1-.3-1-.8-4.2-1.1-7.2-.9-9-1.5-9.2-3.1-.7-.6 3.3-1.5 6.7-1.9 7.8l-.7 1.84.2-1.8c.2-1 .4-4.2.6-7.16l.4-5.4-1.6-1.75c-.9-.9-1.8-1.6-2-1.4-.2.2-.5 1.6-.6 3-.15 1.4-.4 2.7-.66 2.8-.2.2-.8-.9-1.27-2.3-1-3.1-1.6-3.5-2-1.5-.4 2-1 1.9-1.8-.3-.3-1-.8-1.8-1.1-1.8-.3 0-1-.4-1.5-.9-.5-.4-.76-.6-1-.6zm23.2 10.35l-.4 3.42c-.2 1.88-.2 3.7 0 4.04.8 1.2 1.3-2 .9-4.7l-.4-2.7zm-32.6 17.85c0-.05-.1.47-.1 1.47 0 1.4.1 3.75.3 5.22.2 1.4.5 2.6.8 2.6.5 0 .5-1-.3-6.1-.4-2.2-.6-3.2-.7-3.3zm2.2 31.2c-.4-.14-1.1.78-1.9 2.4-1.2 2.5-3.6 8.7-3.6 9.25.1.9 5.6-10.2 5.6-11.18 0-.3 0-.44-.1-.48zm17.5 1.6c.5-.06 1.2.45 1.3 1.35.1.72-.1 1.14-.5 1.14-.9 0-1.4-.5-1.4-1.7 0-.5.3-.8.6-.9zm2.7 87.98c-.2.04-.3.3-.3.8 0 .47.5 1.38 1.1 2.03 1.5 1.6 2 1.5 2-.3 0-1.2-.3-1.6-1.3-2-.8-.3-1.3-.5-1.5-.4zm25.2 59.24c-.2-.13-.4.65-.6 2.23-.2 1.54-.5 3.25-.7 3.8-.4 1-.3 1 .4.07 1-1.16 1.6-5.06 1-6 0-.05 0-.1-.1-.1zm-1.7 7.82c-.1 0-.8.86-1.6 1.9-1.1 1.57-1.2 1.73-.2.9 1.1-.96 2.4-2.8 1.9-2.8z" id="path4520" fill="#525767"/><path d="M513.03 67.8c-.94 0-1.83.06-2.42.17l-2.1.4 1.4 1.92c.8 1 1.2 2 1.1 2.2-.2.2-1.6-.1-3.1-.6-2.8-1-3.9-.8-2.9.4.6.6.9 3.1.7 5.3 0 .9-.3 1.1-1.5 1.1-1 0-1.7.4-2.3 1.2-.8 1.2-.8 1.3 1.4 2.5 3.5 2 4.4 2.1 5 .6.6-1.5 3.3-3.3 5-3.4.9 0 1.2.3 1.2 1.2 0 1.2.2 1.2 4.7 1.4 3.4.1 5.4.5 7 1.3 3 1.3 3 1.3 5.1-.4 1-.9 2.2-1.5 2.7-1.5 1.2 0 1.2-.4-.4-2.4-.7-.9-1.3-1.8-1.3-1.9 0-.1 1-.6 2.3-1.1 2.3-.9 2.8-1.6 1.7-2.7-.4-.4-.4-.8.1-1.4.5-.7 1.2-.8 3-.5l2.3.3-1.6-.9c-3.6-2.2-6.8-2.9-13.9-2.9-3.8 0-8.3-.2-9.9-.4-.9-.1-1.9-.2-2.8-.2zm5.88 19.24c-.1 0-.3 0-.4.03-.3.1.6 1.04 2 2.06s3 1.86 3.5 1.87c.9 0 .9-.08-.2-1.23-1.1-1.26-3.6-2.6-4.8-2.73zm-27.7 4.33s-.1.04-.1.1c-1.5 1.22-5.5 7.32-6.5 9.85-.5 1.5-.8 2.95-.6 3.76.3 1.16.5.86 1.7-2.43 1.6-4.4 2.7-6.5 4.8-9.6.8-1.1 1.1-1.8.8-1.68zm40.4 13.05c0 .06-.1.23-.1.53 0 .54.1.84.3.67.2-.17.2-.6.1-.98-.1-.2-.1-.27-.2-.22zm.5 2.04c0 .05-.1.23-.1.52 0 .54.1.84.3.67.2-.17.2-.6.1-.97-.1-.2-.1-.28-.2-.22zm-60.6 1.33c-.8 0-1 2.2-.7 5.8l.4 3.5.4-2.3c.6-3.3.5-7.1 0-7.1zm64.3 1.6c-.1 0 .3 2.5.9 5.5.6 2.9 1.2 9.4 1.4 14.3.3 5.8.7 9.3 1.1 9.8 1.3 1.5 1.7.1 1.3-5.3-.5-7.8-2.1-18.2-3.4-21.6-.6-1.6-1.1-2.9-1.2-2.8zm21 7.5c-.4-.2-1.1.9-1.5 2.5-.7 3-1.7 3.1-2.4.3-.3-1.3-.7-2.4-.9-2.4-.1 0-.5 1.2-.7 2.6-.5 2.9-1.5 3.7-2.1 1.6-.3-1.4-2.9-4.3-3.8-4.3-.2 0-.8.6-1.3 1.3-.8 1.2-.8 1.9-.2 9l1.4 15.6c1 9.2.7 14.7-.8 19.2-.8 2.4-1 3.4-.5 3.8.3.3.6 1 .6 1.4 0 .7.5.9 2.4.9 4.8 0 5.9.2 6.4 1.4.8 1.9-.8 5.4-2.9 6.1-2.1.7-4 .7-4.8 0-.5-.5-.6-.2-.6 1.3 0 1.8 0 1.9 1.6 1.8 2.6-.3 4.2.4 5.2 2.3.8 1.4.9 2 .4 3.4-.5 1.6-5.5 6.5-6.6 6.5-.3 0-.7.4-1 1-.3.5-.9 1-1.3 1s-.7.3-.7.8c0 .6.3.7.9.4 1.4-.6 5.9-.2 6.7.5 2.8 2.7-2.3 12.1-7.9 14.5-1.5.7-2.2 1.3-2.2 2 0 1.5 1.1 5.5 1.4 5.5.2 0 .9-1.2 1.6-2.7 1.6-3.4 2.5-3.9 4.8-2.8 2.1 1 2.3 2 1 7.6-.9 3.8-.7 4.4 1.6 4.5 2.6 0 3.2.5 4 3.7.5 1.7.9 5.4 1 8.1l.1 5 2.7.9c1.6.5 3.1 1.4 3.7 2.2.5.7 1.1 1.3 1.4 1.3.9 0 1-1.1.2-2.1-1-1.5-1-2 .3-2 1.6 0 1-1.1-1.2-2.3-1-.6-2.8-2-3.9-3.2-1.9-2.1-2-2.4-2-5.6v-3l2.7.1c1.8.1 2.5.1 2.7-.3.2-.1.2-.3.2-.6v-.5c0-.6-.5-.8-1.9-.8-2.6 0-6.3-1.8-7.6-3.5-1.2-1.8-1.8-5.8-1.1-7.2.4-.8 1.1-1.1 2.6-1.1 2.8 0 2.7-1.1-.3-2.6-1-.4-2-1.7-2.7-3.2l-1.1-2.4 1.6-2c.9-1.1 2.1-2 2.6-2 1.5 0 1.6-1.2.2-3.8-1.8-3.4-1.7-5.6.2-6.6 1.8-.9 1.8-.9.6-3-1.3-2.1-1.9-6.1-1-7.1.4-.4 1.1-.7 1.6-.7.6 0 1.3-.8 2-2.3 1.4-3.1 1.4-3.3-.7-2.9-1.7.3-1.7.3-2.4-1.8-.6-1.8-.6-2.2.1-2.9.6-.6 1-.6 1.9-.2.9.5 1.1.5 1.1-.3 0-.9-.9-2-2.8-3.6-1.1-1-1.6-3.1-.9-4.4.3-.6.6-2.3.7-3.7.1-1.4.8-4.1 1.5-5.9 1.2-2.8 3-11.4 4.1-18.8.3-1.9-.4-3.1-1-1.5-.2.5-1.2 3.3-2.3 6.3-1.1 2.9-2.5 7.6-3.2 10.4-.7 2.8-1.2 4.6-1.2 4.1 0-1.5 1.9-14.6 3.3-21.7 1-5.5 1.5-10.6 1.3-13.1 0-.4-.1-.6-.3-.6zm-74.3.4c-.3 0-.5 3.5-.6 8.1 0 4.9.1 7.5.4 6.6.7-2.1.9-14.9.3-14.8zm78.4 5.4c0-.1-.1.2-.3.8-.2.7-.4 1.8-.4 2.5 0 1 .1 1.1.5.5.3-.4.5-1.6.5-2.6l-.1-1.3zm-86 9.6c-.1-.1-.2.2-.2.8 0 .7.1 1 .3.6s.2-.9 0-1.3c0-.1 0-.2-.1-.2zm88.6 1.4s-.1 0-.2.1c-.3.3-.7 1.3-.9 2.3-.2 1.2-.2 1.6.2 1.2.3-.3.7-1.3.9-2.3.2-.9.2-1.4.1-1.4zm-79 13.3h-.1c-.1.1.1 1.1.4 2.1s.7 1.7.9 1.6c.2-.2 0-1.1-.3-2.1-.3-.9-.6-1.6-.8-1.6zm-3.1.9v.1c-.2 1 .8 6.8 1.3 7.6.8 1.2.7-1-.2-4.7-.4-1.9-.8-3.2-1-3.1zm70.7 8c.1-.1.1 0 .2.2.2.5.1 1.2 0 1.5-.1.3-.2-.1-.2-.9 0-.6.1-.9.1-.9zm7.5 52.4c-.3 0-.5.3-.5.8 0 .4-.5 1.4-1.1 2.2-.6.8-1 1.9-.8 2.3.2.5.7.8 1.2.8h.1c.4 0 .6-.1.8-.4.6-1 .9-5.7.4-5.7zM543 227.2c-.34-.03-.3.25-.1 1 .2.7.96 2.03 1.7 3l1.34 1.8.3-1.8c.4-2-.2-3.55-1.2-3.55-.4 0-1.1-.17-1.57-.35-.2-.1-.34-.1-.44-.1zm7.03 14.03l1.5 1.6c1.8 2 2.3 2 2.3.4 0-.7-.27-1.2-.6-1.2s-1.2-.1-1.9-.3l-1.3-.3zm18.4.7c-1.1 0-1.1.1.2 1 1.12.9 2.5 1.4 2.5.8 0-.6-1.75-1.8-2.7-1.8zm-4.7 8.6c-.48.1-.7 1.2-.7 3.3 0 1.7.3 2.8 1 3.7.55.8 1 1.6 1 2 0 .4.46.8 1 1 .5.2 1.3 1 1.8 1.8 1.1 2.3 1.9 1.9 1.6-.82l-.3-2.3 2.6.3c1.45.2 3 .4 3.5.7.74.3.9.1.9-1 0-1.3-.1-1.4-2-1.1-1.7.2-2.13.1-2.8-1-.5-.7-1.3-1.2-2-1.2-1.2 0-3.04-1.7-4.65-4.2-.44-.7-.8-1-1.07-.9zm-4.26 9.8c-.2 0-.3 0-.4.1-.2.1-.18.5 0 .8.4.7 1.3.7 1.3.1 0-.47-.56-.94-1-1zm9.5 5c-.2 0-.4 1.4-.5 3.2-.13 1.8-.7 4.3-1.4 5.8s-1.04 3-.84 3.5c.3.8.43.8 1.5-.2 1.44-1.4 2.2-1.4 2.86-.1.8 1.6.6 4.5-.8 8.5-1.1 3-1.3 4.5-1.1 6.6.1 1.5.4 3 .6 3.3.7 1.15 1.2-.4 2-6.12 1-7.3 2.3-13.1 3.1-13.8.9-.7 0-2.3-1.6-3-.9-.3-1.5-1.3-2.4-4-.7-2-1.4-3.6-1.6-3.6zm8.3 9.7c-1.74 0-2.05.7-.68 1.5 1.1.63 1.8.4 2-.67.1-.64-.2-.85-1.4-.85zm-5.4 21.1c-.2 0-.48.25-.94.7-.6.53-1.65 1.05-2.35 1.15-.94.14-1.6.86-2.63 2.9-.73 1.53-3.63 5.76-6.4 9.43-6.6 8.7-8.4 12.1-9.7 18.1-.6 2.7-1.1 5.4-1.1 6 0 .7.17 1.1.4 1 .2-.1 1.75-2.9 3.43-6.2 2.34-4.6 3.92-7 7.03-10.4 4.2-4.5 5.9-6.9 5.9-8.1 0-.3.9-2.1 1.9-3.9 1.6-2.9 1.9-3.2 2.5-2.4.9 1.2 1.9.4 1.6-1.3-.1-.7.1-2.3.5-3.5.4-1.2.6-2.5.4-2.9-.2-.3-.3-.5-.5-.4zm3.84 6.85c-.7 0-.6 1.4.1 1.7.4.12.8.15.9.06.4-.3-.4-1.75-.9-1.75zm-25.8 38.37s-.1 0-.1.04c-.4.2 0 1.8.8 3.9.7 1.5 1.2.9.8-.8-.5-2.2-.9-3.2-1.3-3.2z" id="path4516" fill="#474e62"/></g></g></svg>