<?xml version="1.0" encoding="UTF-8" standalone="no"?>
<!-- Generator: Adobe Illustrator 19.0.0, SVG Export Plug-In . SVG Version: 6.00 Build 0)  -->

<svg
   xmlns:dc="http://purl.org/dc/elements/1.1/"
   xmlns:cc="http://creativecommons.org/ns#"
   xmlns:rdf="http://www.w3.org/1999/02/22-rdf-syntax-ns#"
   xmlns:svg="http://www.w3.org/2000/svg"
   xmlns="http://www.w3.org/2000/svg"
   xmlns:sodipodi="http://sodipodi.sourceforge.net/DTD/sodipodi-0.dtd"
   xmlns:inkscape="http://www.inkscape.org/namespaces/inkscape"
   version="1.1"
   id="Layer_1"
   x="0px"
   y="0px"
   viewBox="0 0 1000 1000"
   style="enable-background:new 0 0 1000 1000;"
   xml:space="preserve"
   sodipodi:docname="trimmed front.svg"
   inkscape:version="0.92.2 (5c3e80d, 2017-08-06)"><metadata
     id="metadata10"><rdf:RDF><cc:Work
         rdf:about=""><dc:format>image/svg+xml</dc:format><dc:type
           rdf:resource="http://purl.org/dc/dcmitype/StillImage" /><dc:title /></cc:Work></rdf:RDF></metadata><defs
     id="defs8" /><sodipodi:namedview
     pagecolor="#ffffff"
     bordercolor="#666666"
     borderopacity="1"
     objecttolerance="10"
     gridtolerance="10"
     guidetolerance="10"
     inkscape:pageopacity="0"
     inkscape:pageshadow="2"
     inkscape:window-width="1691"
     inkscape:window-height="1100"
     id="namedview6"
     showgrid="false"
     inkscape:zoom="3.776"
     inkscape:cx="493.13268"
     inkscape:cy="878.68152"
     inkscape:window-x="51"
     inkscape:window-y="112"
     inkscape:window-maximized="0"
     inkscape:current-layer="NewBody" /><style
     type="text/css"
     id="style2">
	.st0{fill:#5FBA46;}
</style><g
     transform="matrix(0.11855749,0,0,0.11836127,42.924405,-240.28811)"
     style="clip-rule:evenodd;fill-rule:evenodd;image-rendering:optimizeQuality;shape-rendering:geometricPrecision;text-rendering:geometricPrecision"
     id="NewBody"><metadata
       id="CorelCorpID_0Corel-Layer" /><g
       id="HairShort"
       style="fill:#b4b3b7;fill-opacity:1"
       transform="matrix(0.96090345,0,0,0.81429225,136.51865,590.3991)"><path
         inkscape:connector-curvature="0"
         id="Hair"
         class="fil0"
         d="m 3731,2912.312 c 0,0 23,27.2601 105,27.2601 82,0 254,-16.7078 317,22.8633 44.974,42.9769 56.3376,16.5435 88.3376,6.2128 37.974,24.5105 60.2595,50.9564 66.6362,93.1656 10.026,75.1822 -4.4674,121.6816 12.5326,149.8211 17,28.1394 24.1169,-144.4482 24.4936,-209.6284 7,-92.4366 12.974,-142.125 -9.026,-236.2162 -41.2553,-191.0494 -221.327,-266.7287 -405.974,-188.5134 -97.974,34.6239 -159.052,114.6455 -194,188.1824 -10.3767,81.7803 -18,136.3004 -5,146.8527 z"
         style="fill:#b4b3b7;fill-opacity:1;stroke-width:0.93774056"
         sodipodi:nodetypes="csccccccccc" /></g></g></svg>