<?xml version="1.0" encoding="UTF-8" standalone="no"?>
<!-- Generator: Adobe Illustrator 19.0.0, SVG Export Plug-In . SVG Version: 6.00 Build 0)  -->

<svg
   xmlns:dc="http://purl.org/dc/elements/1.1/"
   xmlns:cc="http://creativecommons.org/ns#"
   xmlns:rdf="http://www.w3.org/1999/02/22-rdf-syntax-ns#"
   xmlns:svg="http://www.w3.org/2000/svg"
   xmlns="http://www.w3.org/2000/svg"
   xmlns:sodipodi="http://sodipodi.sourceforge.net/DTD/sodipodi-0.dtd"
   xmlns:inkscape="http://www.inkscape.org/namespaces/inkscape"
   version="1.1"
   id="Layer_1"
   x="0px"
   y="0px"
   viewBox="0 0 1000 1000"
   style="enable-background:new 0 0 1000 1000;"
   xml:space="preserve"
   sodipodi:docname="dreadlocks front 2.svg"
   inkscape:version="0.92.2 (5c3e80d, 2017-08-06)"><metadata
     id="metadata10"><rdf:RDF><cc:Work
         rdf:about=""><dc:format>image/svg+xml</dc:format><dc:type
           rdf:resource="http://purl.org/dc/dcmitype/StillImage" /><dc:title></dc:title></cc:Work></rdf:RDF></metadata><defs
     id="defs8" /><sodipodi:namedview
     pagecolor="#ffffff"
     bordercolor="#666666"
     borderopacity="1"
     objecttolerance="10"
     gridtolerance="10"
     guidetolerance="10"
     inkscape:pageopacity="0"
     inkscape:pageshadow="2"
     inkscape:window-width="1536"
     inkscape:window-height="1346"
     id="namedview6"
     showgrid="false"
     inkscape:zoom="1.888"
     inkscape:cx="440.71189"
     inkscape:cy="806.31677"
     inkscape:window-x="0"
     inkscape:window-y="0"
     inkscape:window-maximized="0"
     inkscape:current-layer="Layer_1" /><style
     type="text/css"
     id="style2">
	.st0{fill:#5FBA46;}
</style><g
     id="g1315"><path
       style="fill:#4b3d2b;stroke-width:0.254439"
       inkscape:connector-curvature="0"
       id="path55"
       d="m 574.55415,53.223854 c -0.22899,-0.12722 -0.43254,-0.228996 -0.66154,-0.356215 0.30533,-0.05088 0.58521,-0.07633 0.89054,-0.12722 0.15266,0.305327 0.30533,0.58521 0.48343,0.865093 -0.25443,-0.127219 -0.48343,-0.254439 -0.71243,-0.381658 z" /><path
       style="fill:#4b3d2b;stroke-width:0.254439"
       inkscape:connector-curvature="0"
       id="path57"
       d="m 639.15622,217.46423 c 0.25444,1.37398 0.40711,2.56984 0.38166,3.51126 -0.0509,2.01008 -0.27988,3.18049 -0.66154,3.94381 0.1781,-2.51895 0.25443,-4.98701 0.27988,-7.45507 z" /><path
       style="fill:#b4b3b7;stroke-width:0.254439;fill-opacity:1"
       inkscape:connector-curvature="0"
       id="path59"
       d="m 509.16332,64.953492 c 0.81422,-0.305327 1.62842,-0.58521 2.44262,-0.839649 1.65386,-0.534322 3.33315,-0.992312 5.01245,-1.424858 0.45799,0.178107 0.94142,0.279883 1.50119,0.254439 3.68937,-0.07633 7.50596,-0.814205 10.22845,-3.409483 0.6361,-0.610654 0.96686,-1.399414 1.01776,-2.21362 0.48343,-0.02545 0.9923,-0.02545 1.47574,0 1.09409,0.02545 2.16273,0.101779 3.25682,0.203552 0.0764,0.02545 0.96686,0.127219 1.06864,0.127219 0.50888,0.07633 1.01777,0.152664 1.55208,0.228996 1.06865,0.152663 2.11184,0.33077 3.18049,0.483433 5.34322,2.391727 10.91543,4.452683 16.6912,5.597659 4.1728,0.814204 6.53909,-4.579903 2.79883,-6.742634 -0.17811,-0.101779 -0.38166,-0.203551 -0.55977,-0.305327 0,0 0.0255,-0.02545 0.0255,-0.02545 0.78876,-0.483434 1.75562,-1.475746 2.84972,-2.671609 0.30533,0.101779 0.63609,0.178107 0.94142,0.254439 1.22131,1.170419 2.62072,2.111843 4.12191,2.951492 -1.32308,1.679297 -1.27219,4.50357 0.99232,5.572214 3.38403,1.577523 7.09884,3.00238 10.91543,2.518947 0.0764,0 0.15266,-0.02545 0.25443,-0.02545 0.10175,0.71243 0.45799,1.399415 1.17043,1.984625 2.01006,1.679298 3.91836,3.485814 5.87753,5.215999 0.96687,0.865094 1.95918,1.704742 2.97695,2.493503 0.66154,0.534322 1.34852,1.017756 2.0355,1.526634 0.33078,0.228995 0.66155,0.483434 0.99232,0.712429 0.38166,0.279883 0.45799,0.305327 0.22899,0.12722 3.9947,2.976935 7.68406,6.284644 11.24621,9.745006 4.37634,4.24914 8.57459,8.650933 13.02728,12.823732 1.06864,2.92605 2.28994,5.77576 3.56214,8.57459 2.92605,6.41187 6.36097,12.62018 10.05034,18.67583 3.9947,10.63554 7.45506,21.65275 13.48527,31.37232 -0.27988,0.35622 -0.6361,0.687 -1.06865,1.04321 -2.84971,2.16273 -5.75032,1.34853 -6.20831,4.987 -0.30533,2.46806 3.25683,7.45507 4.22369,9.49059 1.52663,3.18047 2.79883,6.58996 4.60535,9.61778 2.31539,3.89292 3.48581,5.54678 1.8574,9.94857 -3.00238,-2.31541 -6.36098,-4.22368 -9.74502,-5.87755 -1.73017,1.52664 -2.36628,4.09648 -2.36628,7.17519 -0.8142,-0.38167 -1.78107,-0.48344 -2.6716,-0.229 -2.03552,0.5852 -3.05327,2.62073 -2.54439,4.55445 0.30532,1.17043 0.55976,2.34084 0.78875,3.51126 0.10175,0.53432 0.20355,1.04321 0.27988,1.57752 0.0255,0.12722 0.10175,0.66154 0.10175,0.68699 0.0255,0.25444 0.0764,0.48343 0.10175,0.73787 0.30533,2.46806 0.48343,4.93612 0.55976,7.42962 0.15267,4.987 -0.0764,9.99945 -0.45799,14.96102 -0.68698,8.54915 -1.8574,17.04741 -2.51894,25.57111 -0.25445,1.2722 -0.27988,2.59529 -0.25445,3.89292 0,0.48344 0.12723,0.96687 0.30533,1.37397 -0.10175,0.229 -0.1781,0.45799 -0.27988,0.71243 -1.60297,-3.40948 -2.95149,-7.86217 -3.66392,-9.41424 -2.84972,2.31539 -2.9515,8.72726 -3.00238,13.53615 -0.33077,-0.229 -0.71243,-0.38166 -1.06865,-0.48343 -2.18817,-0.53432 -3.84202,0.78876 -4.57989,2.62072 -2.67162,6.53908 -5.36867,13.10361 -8.29472,19.64269 -0.43255,-2.95148 -0.86509,-5.90298 -0.91597,-8.93079 -0.0764,-4.4527 0.20354,-8.29472 -1.85742,-12.08587 -4.65622,13.23082 -4.57989,28.11552 -7.50594,41.77889 -1.47575,6.79351 -2.90061,6.97163 -9.66868,6.76808 -1.29765,-8.39649 6.41185,-14.29948 1.24674,-22.3143 -2.6716,-4.17281 -7.4805,-8.54916 -9.05803,-12.51841 -0.76331,6.69175 -2.49349,13.43439 -3.9438,20.12613 -0.68698,-0.55976 -1.55207,-0.89054 -2.4935,-0.89054 -2.06095,0.0255 -3.74026,1.73019 -3.71481,3.71481 l 0.0255,0.8651 c 0.0254,1.98462 1.78107,3.63847 3.81658,3.61303 0.33077,0 0.66154,-0.0509 0.99231,-0.15266 -0.20355,1.34853 -0.38166,2.84972 -0.55976,4.37635 -0.0764,-0.0255 -0.15267,-0.0509 -0.25444,-0.0764 -2.06096,-0.50887 -3.96925,0.73787 -4.57991,2.62072 -0.20355,0.61066 -0.4071,1.22131 -0.61065,1.80652 -0.12722,0.35621 -0.25444,0.68699 -0.38165,1.01775 -0.0255,0.0764 -0.0509,0.15267 -0.0764,0.20356 -0.30532,0.68699 -0.61065,1.34853 -0.96686,1.98462 1.32308,-7.27696 1.8574,-14.63023 0.50887,-22.03441 -0.12722,-0.6361 -0.45799,-1.17043 -0.91598,-1.57752 0.10175,-4.55447 -0.229,-9.10893 -1.11953,-13.66338 -0.17811,-0.96687 -0.89054,-1.70474 -1.75563,-2.16273 -0.0764,-0.94142 -0.15267,-1.90829 -0.25444,-2.84972 -0.22899,0.83965 -0.45799,1.6793 -0.68698,2.49351 -0.66154,-0.15267 -1.34853,-0.17812 -1.98463,0 -2.11184,0.61065 -2.95149,2.59527 -2.54439,4.55445 0.30532,1.60297 0.43255,2.36628 0.61065,4.02014 0.12723,1.37397 0.229,2.74794 0.27989,4.12191 -0.81421,2.87516 -1.62842,5.77577 -2.34084,8.62548 -1.39941,-2.39172 -4.27458,-3.20593 -6.71719,-2.41717 -0.35622,-6.46274 3.86747,-14.22314 4.52901,-20.96578 0.50888,-5.31777 -0.0509,-12.31484 1.55208,-17.32729 -0.91598,1.17042 -5.36866,7.76039 -6.61541,7.86217 -0.30533,0.0254 -0.61066,-0.0509 -0.89054,-0.20356 2.82427,-2.46806 4.987,-5.97932 6.64086,-8.9817 0.96687,-1.75562 0.38166,-3.99468 -1.42486,-4.987 -0.58521,-0.30533 -1.22131,-0.45799 -1.8574,-0.45799 0.83965,-2.9006 1.50119,-5.8521 2.06095,-8.80359 1.19586,-2.21362 2.28996,-4.47812 3.15504,-6.81896 2.62073,-7.14974 1.57753,-14.98646 -0.35621,-22.3143 -7.81128,-29.48948 5.34321,-60.32749 -4.24913,-89.58798 -4.02014,-12.2894 -7.73495,-28.166394 -18.54861,-36.384771 -4.30001,-3.256825 -9.77045,-4.172798 -13.9687,-7.276958 -4.60535,-3.384034 -5.13966,-9.083468 -8.29471,-12.543839 l -3.15504,-1.704741 c -0.0764,-0.407103 0.0764,-0.890537 0.33076,-1.37397 z" /><path
       style="fill:#474e62;stroke-width:0.254439;fill-opacity:1"
       inkscape:connector-curvature="0"
       id="path61"
       d="m 534.35279,300.51313 c 0.78876,-3.23138 2.06095,-6.31009 3.1296,-9.46514 1.11953,-3.3077 2.28996,-6.61541 3.35859,-9.94856 2.0864,-6.46275 3.96925,-12.97638 5.75032,-19.51547 3.5876,-13.07816 6.4882,-26.38533 8.8036,-39.74337 2.28994,-13.35806 4.32546,-26.86876 5.64854,-40.43036 0.0509,-1.65386 0.10175,-3.30771 0.12722,-4.96157 0.25444,-12.87461 0.53433,-25.80011 -0.12722,-38.67472 -0.99231,-19.71903 -4.45268,-39.539827 -13.79059,-57.248778 -0.55977,-1.043202 -0.43255,-2.289954 0.63609,-2.976939 0.94143,-0.58521 2.51896,-0.407102 3.05327,0.636097 5.39411,10.075781 8.95626,20.73678 11.29709,31.67766 -0.55976,-5.69944 -1.2213,-11.398872 -2.01007,-17.098307 -0.12721,-0.915983 0.48344,-1.781071 1.2722,-2.213615 -5.67399,-9.083476 -12.82372,-17.632625 -21.60187,-24.019044 -1.80652,-1.323083 0.33077,-4.325463 2.23906,-3.155044 7.02252,4.249132 12.95095,9.84679 18.06518,16.10599 -0.45799,-0.966869 -0.96687,-1.88285 -1.57753,-2.747942 -1.37397,-2.010069 1.73019,-3.943804 3.18049,-2.060956 0.91598,1.195863 1.6793,2.468059 2.34084,3.816585 0.58521,-0.305327 1.34853,-0.33077 1.98462,-0.101779 -1.2722,-2.747942 -2.64616,-5.444996 -4.09647,-8.116605 -1.32308,-1.424858 -2.77338,-2.697053 -4.40179,-3.816585 -1.01775,-0.686985 -0.91598,-2.315395 -0.15266,-3.1296 0.89053,-0.966868 2.21361,-0.839649 3.20593,-0.152663 0.94143,0.661541 1.83196,1.37397 2.67161,2.137287 0.12722,0.07633 0.25444,0.203552 0.35621,0.330771 2.13729,1.984625 3.94381,4.249131 5.52133,6.691746 3.74025,2.391726 6.64085,5.928429 9.13436,9.490575 2.9515,4.249139 5.29233,8.829033 7.65862,13.3835 2.79882,5.419546 5.59765,10.839096 8.06571,16.436756 2.7225,6.13198 5.24144,12.36574 7.58229,18.65038 0.53431,1.42486 1.0432,2.82427 1.55207,4.24913 -1.11953,-8.19293 -2.64617,-16.33499 -4.70712,-24.37525 -3.00238,-11.704202 -7.25151,-23.153957 -13.30716,-33.713179 -0.20356,-0.356214 -0.27989,-0.686985 -0.30532,-1.017756 0,0 -0.0255,-0.02545 -0.0255,-0.02545 -1.93374,-1.653853 0.71242,-4.503571 2.64617,-2.875161 4.55445,3.816586 8.65092,8.167487 12.13673,12.925502 3.61304,4.936116 6.41187,10.355661 8.93081,15.876994 5.64855,12.41663 10.30479,25.26579 13.99415,38.3694 3.81658,13.51072 6.53908,27.3013 8.72726,41.11735 2.21362,14.07048 3.48581,28.31906 3.48581,42.56764 0,8.90537 -0.63609,17.81073 -1.60297,26.66521 -0.78876,7.14973 -2.0864,14.45214 -4.55446,21.24566 -1.2213,3.33315 -2.77338,6.74263 -5.41954,9.26157 -0.55977,0.53433 -1.14498,1.01777 -1.80652,1.42486 -0.8142,0.53433 -1.11953,0.68699 -2.06096,0.99232 -1.50119,0.50887 -2.9006,0.38166 -4.42723,0.17811 -1.52664,-0.20355 -1.06865,-2.51895 0.45798,-2.28996 0.99231,0.12723 2.16274,-0.33076 2.79883,-0.71242 0.50888,-0.30533 0.30533,-0.17811 0.71244,-0.48344 0.0764,-0.0509 0.15265,-0.12722 0.22898,-0.1781 0,0 0.20356,-0.17811 0.229,-0.20356 0.48344,-0.45798 0.89053,-0.94142 1.29764,-1.47574 -0.0764,0.0764 0.33078,-0.50888 0.40711,-0.6361 0.1781,-0.30532 0.35621,-0.58521 0.53431,-0.89053 0.40711,-0.68699 0.76332,-1.42486 1.06865,-2.13729 0.33077,-0.71243 0.6361,-1.45031 0.91598,-2.18818 0.0509,-0.15267 0.10175,-0.27988 0.17811,-0.43255 -0.0255,0.0255 0.12722,-0.35621 0.15267,-0.38166 0.1781,-0.45799 0.33076,-0.94142 0.48342,-1.39941 2.23907,-6.92074 3.1296,-14.17225 3.91837,-21.34743 0.0764,-0.71243 0.15266,-1.39941 0.22899,-2.11185 0.0254,-0.15266 0.0254,-0.30533 0.0509,-0.48343 0.0255,-0.35621 0.0764,-0.68698 0.10175,-1.0432 0.0764,-0.96686 0.1781,-1.95918 0.25443,-2.92605 0.58521,-6.76808 0.8651,-13.5616 0.8142,-20.38056 -0.0764,-14.24859 -1.60296,-28.47173 -3.74025,-42.54221 -4.14735,-27.09775 -11.09353,-53.76295 -22.61963,-78.8252 -2.23906,-4.859791 -4.96155,-9.465132 -8.16748,-13.714261 8.26926,18.955701 12.03496,39.641591 14.01958,60.098491 0.27989,2.82427 0.50889,5.64854 0.71243,8.47282 1.37397,4.5799 2.67161,9.18525 3.89292,13.79059 3.66392,13.76515 5.72487,27.88652 5.69944,42.10966 -0.0255,11.14443 -1.67931,22.03441 -4.02015,32.92441 -1.32308,6.13198 -2.79882,12.21307 -4.55445,18.24327 -2.01007,6.81897 -4.24913,13.7906 -7.9385,19.94803 -0.83965,1.39941 -1.83196,2.84971 -2.97694,4.12191 -0.0255,0.10175 -0.0764,0.20355 -0.10174,0.33076 -1.34853,4.12192 -2.92605,8.42194 -5.64854,11.88231 -1.0941,1.39941 -2.41718,2.59528 -4.02014,3.3586 -1.52664,0.71242 -2.90061,0.66154 -4.5799,0.33076 -1.52664,-0.30533 -1.06865,-2.59527 0.45799,-2.28995 0.10175,0.0255 0.48343,0 0.68698,0 0.4071,-0.0255 0.30532,-0.0255 0.61065,-0.10174 0.12723,-0.0254 0.229,-0.0764 0.33078,-0.10175 -0.20355,0.0764 0.35621,-0.15267 0.30532,-0.12723 0.30533,-0.15266 0.58521,-0.35621 0.86509,-0.55976 -0.10175,0.0764 0.6361,-0.58521 0.48344,-0.40711 0.229,-0.22899 0.45799,-0.45799 0.66154,-0.68698 0.58521,-0.66154 0.78876,-0.99231 1.19586,-1.60296 1.34853,-2.1373 2.3154,-4.30003 3.15505,-6.56454 -0.96687,0.15267 -1.98463,0.12723 -3.05327,-0.12721 -1.11953,-0.27988 -0.78876,-1.98462 0.33077,-1.70474 1.37397,0.33077 2.64617,-0.17811 3.66392,-0.96687 0.0255,-0.10175 0.0509,-0.20355 0.10175,-0.27988 1.98462,-6.43731 3.07871,-13.05273 4.32546,-19.6427 1.19586,-6.20831 2.59527,-12.36573 3.58759,-18.62493 1.09409,-7.07341 1.9083,-14.17226 2.4935,-21.29655 1.14498,-13.94325 1.14498,-27.88651 0.81421,-41.85522 -0.25445,-9.94856 -0.58521,-19.97346 -1.29765,-29.94747 -3.00238,-10.48288 -6.33552,-20.864 -10.25389,-31.06699 -3.81658,-9.94858 -8.67637,-19.4137 -13.7397,-28.827947 -1.57752,-2.92605 -3.23138,-5.826662 -5.08878,-8.600038 0.66154,1.60296 1.29763,3.180483 1.95918,4.732558 5.31778,12.620187 10.203,25.418467 13.61249,38.674737 7.0734,27.37764 7.02251,56.07835 2.74794,83.83766 -1.70474,11.0172 -4.30002,21.77997 -7.25151,32.51729 -1.11953,4.02015 -2.44261,8.14206 -4.93612,11.60242 -0.55977,0.76332 -1.55207,1.9083 -2.67161,2.67162 -0.10174,0.4071 -0.17811,0.78876 -0.27989,1.19586 -1.2213,5.06334 -2.6716,10.05034 -3.91835,15.11368 -1.17043,4.78345 -2.46806,9.51602 -4.24914,14.12136 -1.62841,4.1728 -3.71481,8.67637 -7.17518,11.7042 -1.01775,0.89053 -2.11184,1.70474 -3.33314,2.34083 -1.73019,0.91598 -3.20593,-1.2213 -1.70474,-2.44261 3.23136,-2.62072 5.31777,-6.76808 6.8444,-10.48289 1.83197,-4.37634 2.9515,-9.08347 4.04558,-13.66337 1.52664,-6.41187 3.15505,-12.82373 4.65624,-19.23559 -0.0255,-0.0255 -0.0255,-0.0509 -0.0509,-0.0764 -1.24676,3.68936 -3.00238,7.25151 -6.00476,9.77045 -0.53432,0.458 -1.39942,0.17812 -1.78107,-0.33076 -0.53433,-0.71244 -0.78877,-1.45031 -0.81422,-2.34084 -0.0254,-0.91599 1.17043,-1.32309 1.67931,-0.66154 1.90829,-3.66392 2.97693,-7.68407 3.7148,-11.72965 0.73788,-4.07102 1.19587,-8.16749 1.73019,-12.26396 -0.91597,1.73019 -1.95918,3.40949 -3.15505,5.01245 -0.86508,1.17043 -2.56982,0.25444 -2.64616,-0.94142 -0.22899,0.0509 -0.48343,0.0509 -0.71243,0 -1.0432,-0.22899 -1.50119,-1.14498 -1.39941,-2.11184 0,-0.12722 0.0255,-0.229 0.0255,-0.35622 -0.81421,4.60534 -1.78108,9.1598 -2.97695,13.66337 -1.98462,7.5314 -4.47812,14.85925 -7.65861,21.98354 -0.71243,1.57751 -3.48582,0.66154 -2.95149,-0.99231 6.38642,-19.61725 9.97401,-39.84516 11.7042,-60.27661 -0.78877,6.00477 -1.73019,12.00953 -2.82427,17.98884 -2.08641,11.39886 -4.68169,22.87407 -8.34561,33.89128 -1.73019,5.21599 -3.86747,10.55922 -5.69943,15.54622 -1.34853,3.71481 -2.79883,7.65861 -6.81897,9.26158 -1.06864,2.36628 -2.23906,4.70713 -3.66392,6.81896 -0.45799,0.76332 -1.98462,0.45799 -1.70474,-0.63609 z m 70.40327,-33.10252 c -0.4071,1.73019 -0.78876,3.48582 -1.17042,5.216 1.85741,-4.93612 3.25683,-10.05034 4.55446,-15.16456 1.34853,-5.41956 2.46806,-10.91543 3.53671,-16.41132 2.44261,-12.54384 3.46037,-25.18946 2.82427,-37.93686 -0.43255,-8.49825 -1.60296,-16.84386 -3.28227,-25.13857 0.0764,2.01007 0.15267,4.02013 0.20355,6.00476 0.45799,13.91782 0.61066,27.83563 -0.38165,41.728 -0.99231,14.07047 -3.12961,27.96285 -6.28465,41.70255 z m -17.7344,-41.499 c 2.87517,-13.71426 4.65624,-27.63207 5.16511,-41.60078 0.50889,-14.01958 -0.12721,-28.06462 -2.44261,-41.93155 -1.4503,-8.57459 -3.68937,-16.99652 -6.36097,-25.29124 1.52664,6.7172 2.74794,13.48527 3.66392,20.27879 1.8574,13.63793 2.18818,27.3522 1.39941,41.0919 -0.25443,4.55447 -0.63609,9.10892 -1.11953,13.63793 -0.0254,2.26451 -0.0509,4.52902 -0.0764,6.79353 -0.229,13.81604 -1.34853,27.58119 -3.46037,41.24457 1.11953,-4.70714 2.23907,-9.43969 3.23137,-14.22315 z m -17.86161,-2.92604 c 1.42486,-6.79353 2.62072,-13.6125 3.58759,-20.48235 1.34852,-9.41424 2.11184,-18.90482 2.74793,-28.39539 -0.0509,-1.22131 -0.12721,-2.44262 -0.20354,-3.68937 -0.83966,-14.19769 -2.18818,-28.39539 -4.22369,-42.46587 -0.99231,-6.8444 -2.16274,-13.66337 -3.66393,-20.43145 -0.20355,-0.94142 -0.43254,-1.88285 -0.63609,-2.82427 2.62072,24.37525 3.05327,48.92862 3.02783,73.4311 0,13.15449 -0.30533,26.28355 -1.37398,39.38716 -0.45799,5.67398 -1.01776,11.37342 -1.80651,17.02196 0.83965,-3.86747 1.75563,-7.7095 2.54439,-11.55152 z" /><g
       style="fill:#474e62;fill-opacity:1"
       transform="matrix(-0.25443901,0,0,0.25443901,659.58767,-58.144102)"
       id="g77"><path
         style="fill:#474e62;fill-opacity:1"
         inkscape:connector-curvature="0"
         id="path73"
         d="m 511.2,508.1 c -0.3,-0.3 -1.9,-2.4 -1,-0.9 -1.4,-2.3 -3.9,-4.3 -6.8,-4.3 -2,0 -3.9,0.2 -5.8,0.4 -0.4,-0.1 -0.8,-0.2 -1.3,-0.2 -4.9,0 -9.3,1.2 -13.3,3.6 -1,-21.8 -22.7,-39.5 -40.1,-50.3 -19.6,-12.2 -41.5,-20.1 -61.9,-30.7 -3.5,-1.8 -7.8,-1.5 -10.2,2 -2.1,3 -1.5,8.1 2.1,10 19.4,10.2 39.9,18.1 58.7,29.4 9,5.4 17.4,11.6 24.6,19.3 7.6,8.2 12.4,18.1 19.3,26.8 0.1,0.1 0.2,0.2 0.3,0.4 -1.3,1.7 -2.5,3.6 -3.7,5.4 -1.8,2.2 -3.5,4.5 -5.1,6.9 -7.9,11.9 -13.5,25.2 -18.4,38.6 -3.1,7.7 -5.9,15.4 -8.5,23.3 -11.5,31 -23.7,61.8 -32.6,93.8 -6.8,24.5 -12.2,49.4 -16.4,74.5 -3.3,19.5 -4.9,39.4 -5.9,59.2 -3.5,34.2 -4.8,68.6 -4.6,102.8 0.3,46.4 6.7,92.6 24.3,135.9 1.8,4.5 9.5,2 8.3,-2.7 -6.2,-23.9 -9.1,-48.6 -10.8,-73.1 -1.8,-25.2 -2.2,-50.6 -2,-75.9 0.5,-52.4 4.3,-104.7 14.5,-156.2 8,-40.4 20.6,-79.5 32.5,-118.8 1.7,-4.4 3.4,-8.7 5.3,-13.1 5.2,-12.4 10,-24.8 14.7,-37.4 2.6,-6.9 5.3,-13.8 8.3,-20.5 0.3,-0.6 0.5,-1.2 0.8,-1.8 0.1,-0.2 0.7,-1.5 0.8,-1.7 0.8,-1.7 1.6,-3.4 2.5,-5.1 1.7,-3.3 3.4,-6.5 5.4,-9.6 1.8,-2.9 3.9,-5.6 5.9,-8.4 0.3,-0.5 2.1,-2.6 2.3,-2.9 0.8,-0.9 1.7,-1.8 2.7,-2.6 1.1,-1 2.2,-1.8 3.4,-2.7 0.5,-0.4 1,-0.8 1.6,-1.2 0.1,0 0.2,-0.1 0.3,-0.2 0.9,-0.5 1.8,-1 2.8,-1.4 0.2,-0.1 2.9,-1.1 2.7,-0.9 1.3,-0.7 2.2,-1.6 2.9,-2.7 0.3,-0.3 0.7,-0.6 1,-0.8 1.9,-1.5 1.8,-4.4 0.4,-6.2 z" /><path
         style="fill:#474e62;fill-opacity:1"
         inkscape:connector-curvature="0"
         id="path75"
         d="m 506.8,517.8 c 0,0 -0.1,0 -0.1,0.1 0,0 0.1,-0.1 0.1,-0.1 z" /></g><path
       style="fill:#474e62;stroke-width:0.254439;fill-opacity:1"
       inkscape:connector-curvature="0"
       id="path79"
       d="m 543.00371,74.164184 c 0.40711,-0.763317 1.52664,-1.221308 2.34084,-0.737873 5.11423,3.078711 8.62549,7.836723 11.34799,12.925503 3.1296,5.826651 5.62309,12.009515 7.8876,18.192386 4.68169,12.79829 8.06572,26.02911 10.30479,39.43805 2.18817,13.00183 3.28226,26.35988 2.54439,39.53982 -0.73788,13.23083 -2.67162,26.86876 -7.83673,39.1836 -0.71242,1.70475 -1.47574,3.38405 -2.28995,5.0379 -0.76332,1.57752 -3.43492,0.71243 -3.00238,-1.01775 0.83965,-3.20593 1.42486,-6.4882 2.26451,-9.71957 0.83964,-3.20594 1.55208,-6.43731 2.18817,-9.69413 1.22131,-6.38642 2.23907,-12.77284 2.74795,-19.26104 1.01775,-13.17994 0.63609,-26.43621 -1.0432,-39.53981 -1.70475,-13.25628 -4.70712,-26.35989 -8.82903,-39.10728 -2.08641,-6.43731 -4.47814,-12.798284 -7.27696,-18.955711 -2.34084,-5.165112 -5.34323,-10.279334 -10.10123,-13.688817 -0.15266,-0.12722 -0.33078,-0.228995 -0.48344,-0.33077 -0.78876,-0.508878 -1.2213,-1.373972 -0.76332,-2.264508 z" /><path
       style="fill:#474e62;stroke-width:0.254439;fill-opacity:1"
       inkscape:connector-curvature="0"
       id="path81"
       d="m 578.06541,70.576594 c 19.18471,9.795902 26.61433,31.067006 33.22974,49.768276 1.95918,5.49587 4.07102,10.94088 5.90298,16.48765 2.13729,6.51364 3.94381,13.15449 5.34322,19.87168 2.44261,11.75508 3.58759,23.89182 2.34084,35.82502 0.73788,-2.82428 1.39942,-5.64855 1.90829,-8.54916 1.19586,-6.76808 1.62841,-13.66338 1.75564,-20.50778 0.12721,-7.09885 -0.20356,-14.17226 -0.96687,-21.24567 -0.0509,-0.50887 -0.10175,-0.9923 -0.15267,-1.50118 -0.71243,-1.19586 -1.62841,-2.21362 -2.97694,-2.74794 -0.86509,-0.35622 -1.17042,-1.5012 -0.76331,-2.2645 0.45798,-0.89055 1.4503,-1.06865 2.34083,-0.73789 0.25445,0.0764 0.48344,0.20356 0.73787,0.30533 -1.01775,-7.50594 -2.49349,-14.96101 -4.91066,-22.13619 -3.05327,-9.00714 -7.98939,-17.963393 -16.2841,-23.332054 -0.73788,-0.483438 -1.17042,-1.297642 -0.73788,-2.16273 0.38166,-0.712435 1.47575,-1.195863 2.21363,-0.712435 8.72725,5.546772 14.17225,14.299469 17.68351,23.637379 3.51126,9.33792 5.16511,19.26104 6.46274,29.08239 0.0255,0.12721 0.0255,0.27988 0.0509,0.40709 0.0764,0.12723 0.15266,0.27989 0.22899,0.40711 1.4503,2.7225 2.62073,5.57222 3.58759,8.49826 2.01007,6.10654 3.18049,12.46752 4.09647,18.82849 1.93373,13.45982 3.1296,27.1232 2.87516,40.71024 -0.10174,5.59766 -0.55977,11.19531 -1.22131,16.74208 -0.35621,3.07872 -0.66154,6.15743 -1.22131,9.2107 -0.63609,3.51125 -1.67929,7.09885 -3.48581,10.22845 -0.89053,1.55208 -2.06096,2.9006 -3.43492,4.07102 -1.06865,0.91598 -2.79884,1.34853 -4.17281,1.52664 -1.2213,0.17811 -1.37396,-1.45031 -0.43254,-1.9083 1.37397,-0.66154 2.46805,-2.13728 3.23137,-3.3077 1.0432,-1.65385 1.6793,-3.38404 2.21362,-5.13967 1.19586,-3.9438 1.83196,-8.09116 2.39172,-12.18763 0.71244,-5.34322 1.37398,-10.68644 1.67931,-16.0551 0.4071,-7.07341 0.35621,-14.1977 -0.0764,-21.2711 -0.61065,-9.64324 -1.6284,-19.36281 -3.38404,-28.85339 -0.43254,-2.39172 -0.96686,-4.758 -1.60296,-7.09884 0.43255,9.10891 0.15267,18.29416 -1.09409,27.3013 -1.78107,12.95094 -6.08109,25.69834 -11.93318,37.42798 -0.58521,1.19586 -1.24676,2.36629 -1.88285,3.5367 -0.58521,1.09409 -1.78108,1.01775 -2.44263,0.38166 -0.68697,0.55976 -1.47574,1.01775 -2.36627,1.34853 -0.83966,0.30533 -1.55208,-0.91598 -0.73788,-1.39941 4.04558,-2.3154 4.65624,-7.96395 5.49589,-12.00953 1.29763,-6.38642 2.54439,-12.72195 2.9006,-19.21014 0.76332,-13.63793 -0.58521,-27.27587 -3.63848,-40.60847 -2.69706,-11.78052 -6.84441,-23.17939 -10.81365,-34.60371 -3.33316,-9.61779 -6.99708,-19.261025 -12.59474,-27.88651 -4.19824,-6.437307 -9.66868,-12.034966 -16.56398,-15.775219 -1.52663,-0.814205 -0.35621,-3.180488 1.22131,-2.391727 z" /><path
       sodipodi:nodetypes="ccccccccccccccccccccccccccccccccccccccccccccccccccccccccccccccccccccccccccccscccccccccccccccccccccccccccccccccccccccccccccccccccccccccccccccccccccccccccccccccccccccccccccccccccccccccccccccccccccccccccccccccccccccccccccccccccccccccccccccccccccccccccccccccccccccccccccccccccccccccccccccccccccccsscccccccccccccccccccccccccccccccccccccccccccccccccccccccccccccccccccccccscccccccccccccccccccccccccccccccccccccccccccccccccccccccccccccccccccccccccccccccccccccccccccccccccccccccccccccccccccccccccccccccccccccccccccccccccccccccccccccccccccccccccccccccccccccccccccccccccccccccccccccccccccccccccccscccccccccccccccccccccccccccccccccccccccccccccccccccccccccccccccccccccccccccccccccccccccccccccccccccccccccccccccccccccccccccccccccccsccccccccccccsccccccccccccc"
       inkscape:connector-curvature="0"
       d="m 511.62914,44.26198 c -0.87593,-0.08731 -1.55348,0.909014 -1.04143,1.710493 1.01776,1.577523 2.06228,3.129821 3.05459,4.707343 1.29764,2.060956 2.79773,3.968362 3.9427,6.131094 0.89054,1.679298 1.80586,3.792468 2.13662,5.573541 -0.10174,0.101779 -0.20291,0.202884 -0.30466,0.304663 -1.32309,-2.569834 -2.8486,-5.013553 -4.62968,-7.278061 -2.97693,-3.816585 -6.89641,-7.8615 -12.08696,-8.31949 -1.17042,-0.10178 -1.78063,1.399635 -0.6611,1.959401 4.14735,2.060956 7.7345,4.91045 10.50789,8.574372 1.9083,2.518946 3.53648,5.216442 4.91045,8.040714 -0.68698,0.12722 -1.34765,0.228331 -2.00919,0.304663 -3.38401,-3.231376 -6.84419,-6.437306 -10.86431,-8.930808 -2.3154,-1.450303 -4.85978,-2.672051 -7.55684,-3.231818 -2.59528,-0.534321 -5.14056,-0.100005 -7.37962,1.248522 -0.83965,0.483433 -0.30467,1.754965 0.61132,1.678633 6.79352,-0.534323 12.44141,2.570054 17.47929,6.539303 -2.13729,-1.017756 -4.42746,-1.731291 -6.7683,-2.011175 -4.40179,-0.534321 -9.46468,0.661541 -12.11084,4.350908 -0.0763,0.101779 -0.12794,0.204874 -0.15333,0.306654 -0.89054,0.407102 -1.72975,0.966646 -2.49307,1.704519 -0.91598,0.865093 0.43255,1.958958 1.37398,1.475525 2.01006,-1.017756 4.63189,-0.942532 6.82007,-0.637204 0.9923,0.127219 1.95784,0.35732 2.89927,0.637204 -0.76332,0.356214 -1.49985,0.763096 -2.21229,1.24653 -0.61064,-0.152667 -1.22217,-0.279441 -1.88373,-0.203109 -2.18816,0.228996 -4.27457,2.468058 -5.49588,4.121912 -0.0254,0.05088 -0.0761,0.100454 -0.10155,0.151335 -3.02782,1.882849 -5.9032,4.096479 -8.37126,6.640852 -2.34084,2.417164 -4.4779,5.013121 -5.59743,8.168156 -0.25445,0.763319 0.55977,1.755186 1.37397,1.119093 1.78107,-1.424859 3.35926,-3.026717 4.96222,-4.629687 -2.01007,4.300023 -3.25792,8.802933 -2.46916,13.586385 0.0255,0.152664 0.0503,0.305777 0.0756,0.483877 -0.61066,3.00238 -1.01709,6.25963 -0.30467,9.18568 0.17811,0.68702 1.22086,0.50907 1.34808,-0.10154 0.0764,-0.45799 0.12836,-0.89209 0.17921,-1.35008 0.0764,0.48344 0.20292,0.94188 0.30467,1.39986 -0.0764,0.10175 -0.12635,0.20441 -0.17723,0.28077 -0.61064,0.94142 -1.75648,1.90851 -1.65473,3.10437 0.0255,0.229 0.1281,0.45711 0.28077,0.63522 -2.01008,3.66392 -1.73174,7.71039 -0.89209,11.73052 0.55976,2.69706 1.37463,5.31778 1.98529,8.01483 0.73787,3.30771 1.27264,6.6913 1.62885,10.0499 0.35622,3.43492 0.58493,6.86985 0.55955,10.30477 -0.0255,3.25683 -0.38144,6.46253 -0.55955,9.71935 -0.33076,5.59765 -0.40754,11.19576 -1.17086,16.74253 -0.76332,5.52132 -2.51872,10.76143 -5.59744,15.494 -0.30532,0.45803 0.45888,0.91753 0.73876,0.4341 2.72249,-3.43492 3.96793,-7.35372 5.18923,-11.47564 1.60297,-5.41955 2.34172,-11.01743 3.02871,-16.61509 0.76331,-6.18286 1.60366,-12.34117 1.52729,-18.60037 l -0.0259,-0.8901 c -0.0509,-2.51894 -0.22944,-5.03788 -0.48388,-7.55684 l -0.17722,-1.75628 c -0.0764,-0.63611 -0.15314,-1.24565 -0.25489,-1.88174 l -0.48387,-2.90128 -0.71287,-3.43492 c -0.10174,-0.40711 -0.20291,-0.83944 -0.30466,-1.24653 -0.0509,-0.229 -0.12834,-0.45799 -0.17921,-0.68698 l -0.27878,-1.1191 c -0.25443,-0.89053 -0.50976,-1.75584 -0.73876,-2.64638 l -0.35642,-1.5532 c -0.15266,-0.68697 -0.30447,-1.37442 -0.40622,-2.08683 -0.0764,-0.61068 -0.17852,-1.22131 -0.25488,-1.83197 l -0.17652,-1.93176 c -0.0509,-1.39942 0.075,-2.77492 0.60933,-4.09801 0.0509,-0.15266 0.0518,-0.27944 0.0518,-0.43211 0.12723,-0.10174 0.22881,-0.22922 0.33055,-0.35643 0.43255,1.0432 1.01706,1.57961 1.62772,2.34293 0.74815,0.45918 1.6797,0.34941 2.82673,-0.23204 1.75563,-1.29765 1.70585,-3.66414 1.55318,-5.62332 -0.0255,-0.30533 -0.12807,-0.55911 -0.28077,-0.76266 0.10175,-0.71243 0.17745,-1.42619 0.30467,-2.13862 0.40711,0.50888 1.3233,0.28122 1.5014,-0.38032 0.20356,-0.73788 0.50999,-1.42508 0.63721,-2.1884 0.10185,-0.61066 0.12744,-1.2213 0.12744,-1.83196 0,-0.0764 -0.0259,-0.15223 -0.0259,-0.20311 0.0254,-0.0255 0.0761,-0.0522 0.10155,-0.0777 0.10175,0.0764 0.12707,0.0773 0.10154,0.0518 0.25444,0.15272 0.56087,0.20295 0.8662,0.0756 1.93374,-0.78875 1.19585,-2.797717 1.14498,-4.400687 0,-0.636093 -0.38234,-1.044953 -0.84031,-1.248522 0.10175,-0.534303 0.25444,-0.966857 0.45799,-1.373964 0.12721,0.228996 0.254,0.457981 0.4321,0.686977 0.48343,0.636102 1.42529,0.381904 1.62885,-0.330551 0.4071,-1.373964 -0.1531,-2.823383 -0.71287,-4.070131 -0.0255,-0.05087 -0.0502,-0.102452 -0.0757,-0.153326 0.0254,-0.228996 0.0761,-0.45843 0.10154,-0.712873 0.30533,0.610655 0.68721,1.119521 1.27242,1.60296 0.63609,0.534323 1.62752,0.205322 1.78019,-0.583434 0.25443,-1.297643 -0.17767,-2.494168 -0.89009,-3.588252 0.1781,-0.101749 0.33076,-0.203335 0.45799,-0.330551 0.25443,-0.27988 0.43276,-0.586319 0.58542,-0.866199 0.10175,0.127216 0.20292,0.254687 0.30467,0.356436 1.01775,1.094084 3.00261,0.0259 2.87539,-1.348088 -0.0254,-0.101749 -0.0263,-0.202917 -0.0518,-0.304665 0.15267,0.07626 0.3321,0.127073 0.53565,0.101544 1.37398,-0.101748 0.78855,-1.857617 0.33055,-3.104374 0.33078,-0.07636 0.66089,-0.152236 0.99166,-0.20311 0.0509,0.55976 0.12724,1.117991 0.22899,1.626867 0.35621,1.653855 2.62031,1.552963 2.72205,-0.177224 0.0509,-0.686977 -0.17811,-1.323314 -0.45799,-1.959406 0.12722,-0.02539 0.28099,-0.07606 0.40821,-0.101545 0.40711,-0.127217 0.81354,-0.228292 1.22065,-0.304655 0.0254,0.152664 0.0761,0.279432 0.10154,0.432096 0.12722,0.585208 -0.10134,1.196087 0.25488,1.73041 0.20356,0.305287 0.7131,0.483215 1.06931,0.330551 1.01777,-0.457991 0.96686,-1.654293 0.68698,-2.773829 0.58521,-0.02545 1.14477,-6.67e-4 1.70453,0.07567 0.10174,0.457997 0.22939,0.89208 0.25488,1.350072 0.0254,0.330764 -0.0518,0.686324 0.17722,0.991652 0.17811,0.254432 0.48364,0.431708 0.81442,0.40622 1.09408,-0.07636 1.04276,-1.245433 0.8901,-2.2123 0.27988,0.101748 0.50932,0.177051 0.71287,0.278779 0.0764,0.534344 0.12655,1.145203 0.30466,1.730411 0.25445,0.788756 1.37487,0.967091 1.88374,0.356436 0.38166,-0.457991 0.56043,-0.991438 0.61131,-1.551198 h 0.10154 c 0.229,-0.02539 0.43211,-0.05067 0.66111,-0.101545 0,0.127216 -0.0259,0.278993 -0.0259,0.40622 -0.0255,0.483428 -0.0766,0.941868 0.10154,1.39986 0.10175,0.27987 0.5341,0.457991 0.78855,0.228995 0.71242,-0.610655 0.86597,-1.603642 1.19675,-2.443283 0.0255,-0.02539 0.0259,-0.02426 0.0259,-0.04975 0.27988,-0.05087 0.58432,-0.103543 0.8642,-0.103543 -0.0255,0.203558 -0.0502,0.407769 -0.0756,0.611318 -0.0509,0.585218 -0.17893,1.119307 -0.0518,1.704525 0.0509,0.17806 0.28033,0.355774 0.48388,0.20311 0.66155,-0.534344 1.01688,-1.448767 1.3222,-2.313855 0.33077,0.07636 0.61066,0.203334 0.91598,0.330551 -0.38165,0.55977 -0.88988,1.271532 -0.76265,1.907634 0.10175,0.458033 0.5352,0.686539 0.96775,0.432096 0.55976,-0.330765 0.73655,-1.092534 1.06731,-1.626858 0.2799,0.178112 0.56044,0.381446 0.84032,0.559547 l -0.15597,0.153398 c -1.0432,0.865098 -0.27833,2.51984 1.12108,2.112733 0.6361,-0.178101 1.24521,-0.381884 1.85586,-0.585432 0.55977,0.228995 1.12019,0.407514 1.75628,0.483877 0.73787,0.101748 1.32308,0.152633 1.83197,0.228995 -0.58522,0.636093 -0.73788,1.526628 -0.229,2.289947 0.55976,0.788757 1.80673,1.11843 2.64638,0.507775 0.35623,-0.254433 0.73699,-0.534547 1.09321,-0.814428 0.12722,0.152664 0.30533,0.332101 0.45799,0.535649 0.0509,0.05087 0.10246,0.12635 0.15333,0.177224 -0.12723,1.170426 0.84008,2.443936 2.31583,1.909613 0.10175,-0.05087 0.2288,-0.07657 0.33055,-0.127441 h 0.0498 c 1.62841,0.279881 1.52729,-0.534537 2.90126,0.788542 0.35621,0.330775 0.6611,0.737872 0.8901,1.144979 -0.10175,0.02549 -0.20292,0.05016 -0.30467,0.07565 -0.91598,0.178101 -1.34919,1.347864 -1.06931,2.13662 0.20355,0.585208 0.84032,1.144979 1.5273,1.144979 -0.25444,0.915983 0.28033,2.06244 1.39986,2.037053 0.10175,0.432544 0.22766,0.838999 0.38033,1.220648 0.66154,1.73018 1.60319,2.23994 2.64639,2.7997 -0.33074,0.58521 -0.30409,1.34787 0.0777,1.90764 0.45799,0.66155 1.37374,0.99275 2.16251,0.71287 0.1781,-0.0509 0.32966,-0.10245 0.50777,-0.15333 0.0255,-0.0255 0.0522,-0.0259 0.0777,-0.0259 0.0509,0.0764 0.0761,0.12675 0.10154,0.20311 -0.58521,0.20355 -1.09542,0.71354 -1.22263,1.32419 -0.10175,0.45799 -0.025,0.94099 0.25488,1.34809 0.17811,0.25444 0.40711,0.43277 0.68699,0.58543 0.12722,0.10175 0.28099,0.17852 0.4082,0.25488 0.0764,0.0509 0.17654,0.10043 0.2529,0.15133 -0.68698,0 -1.29676,0.68744 -1.09321,1.39986 -0.66154,0.10175 -1.3233,0.8651 -0.81443,1.60297 1.0432,1.47574 1.40053,3.15548 1.78219,4.83478 -0.9331,4.68377 -0.41268,3.60968 -0.458,6.18287 -0.41961,2.98083 -0.38089,3.62378 -0.71287,6.1072 -0.12723,0.53432 -0.2288,1.04229 -0.33055,1.55119 l -0.77731,2.53264 c -0.23022,1.65513 -0.74155,3.11213 -0.6743,4.69368 -2.35813,6.47019 0.85101,-2.38095 -1.24653,3.48669 l -1.09321,5.87621 c -0.0255,0.83964 -0.38122,1.83195 -0.4321,2.74794 l -0.20512,7.27807 c 0,0.10175 -0.0239,0.20291 -0.0239,0.30466 -0.58521,5.72487 -0.76332,11.45021 -0.45799,17.20053 0.27988,5.5722 1.22041,11.01587 2.69616,16.40998 0.20355,0.73787 1.17045,0.71287 1.60296,0.25488 0.0255,3.00238 0.10114,6.00565 0.30467,8.98258 -0.229,0.76332 -0.45799,1.55097 -0.68699,2.33973 -1.95916,6.71719 -3.84092,13.43593 -5.77466,20.12767 -1.93374,6.7172 -3.8929,13.40761 -5.95386,20.07391 -2.0864,6.76807 -4.1728,13.56182 -6.41186,20.279 -0.55977,1.62841 2.1884,2.51984 2.87538,0.96776 2.97694,-6.6663 5.54523,-13.41004 7.80972,-20.33077 3.46037,-10.48289 6.43863,-21.09278 9.46646,-31.70289 0.50887,3.30771 1.1182,6.59042 1.7543,9.87268 -0.81421,3.12961 -1.57753,6.25811 -2.28995,9.43858 -1.98463,8.8036 -4.37458,17.5313 -6.30832,26.36032 -0.33077,1.39941 1.90741,2.21428 2.46717,0.84033 3.56215,-8.7527 5.08812,-18.19306 6.94552,-27.40375 0.15267,-0.8142 0.35755,-1.62708 0.53565,-2.44128 1.17043,5.69942 2.46829,11.37187 4.02036,16.96953 0.40711,1.3994 2.06051,1.42597 2.95105,0.6372 -2.92605,9.97401 -6.23397,19.84601 -9.74523,29.64192 -0.66154,1.80651 1.93262,3.20591 2.79772,1.37396 4.09647,-8.82904 7.60772,-17.8625 10.53377,-27.07319 0.0509,-0.0509 0.10206,-0.10042 0.12744,-0.15134 1.19587,7.58229 2.44284,15.1639 3.56237,22.74618 -1.65385,4.83434 -3.56259,9.59258 -5.52176,14.32514 -2.79884,6.79353 -5.572,13.56225 -7.88739,20.53388 -0.53432,1.57753 2.11228,2.41563 2.77382,0.93988 3.89292,-8.70181 8.42172,-17.12308 12.0093,-25.95211 0.10175,0.83965 0.22881,1.67929 0.33056,2.51894 -2.23907,4.83434 -4.68124,9.59146 -7.07297,14.37492 -0.48343,0.99227 1.01709,2.01074 1.67863,1.06931 2.06096,-2.87516 3.91903,-5.8262 5.64922,-8.90492 0.15266,-0.27988 0.30532,-0.53454 0.45799,-0.81442 0.73787,6.2592 1.40007,12.5184 1.98528,18.77759 0.38166,3.96925 0.71132,7.96438 0.96577,11.93362 0.12721,2.06096 0.2288,4.1478 0.33055,6.20876 0.0509,0.96687 0.077,1.93197 0.15332,2.8734 0.0764,0.89053 0.48432,1.83305 0.73876,2.69815 0.33077,1.19586 2.08574,0.88943 2.36562,-0.17921 0.22899,-0.89054 0.38213,-1.72908 0.48388,-2.56873 0.68698,0.25445 1.55162,-0.0254 1.80607,-0.91598 1.01775,-3.58759 1.98529,-7.17563 2.90127,-10.78865 0.58521,3.20593 1.34764,6.3873 2.46717,9.44057 0.38166,0.99232 2.11118,0.66044 1.90763,-0.40821 -1.11953,-5.6231 -1.9833,-11.19399 -2.44129,-16.86798 1.50119,-6.41186 2.87406,-12.85008 4.1717,-19.28735 0.30532,4.60533 0.58609,9.21047 0.73876,13.84125 0.20355,5.75032 0.25509,11.52697 1.06929,17.2264 0.78877,5.54678 2.28909,11.22054 5.90211,15.67323 0.78877,0.96686 2.67206,0.20333 2.08684,-1.04343 -3.84202,-8.16748 -4.40199,-17.09763 -4.47835,-25.95211 -0.0255,-2.79882 0.0516,-5.62421 -0.0756,-8.42304 -0.12721,-3.18049 -0.38321,-6.36119 -0.66309,-9.51623 -0.48343,-5.67399 -1.06797,-11.32143 -1.67863,-16.99542 l 1.60297,-9.08414 c 0.94143,-5.31777 1.83218,-10.66054 2.64639,-16.00376 -0.20356,14.07048 -0.22921,28.11594 0.33055,42.16098 0.50888,13.05271 1.85828,26.41076 6.69262,38.70017 0.35622,0.86509 1.65386,0.38122 1.37398,-0.48388 -2.26451,-7.32784 -3.38557,-14.93579 -3.86903,-22.56896 -0.48341,-7.9385 -0.60932,-15.90333 -0.60932,-23.86726 4.19824,-11.11899 7.98894,-22.41452 10.96588,-33.91516 0.17811,9.61779 0.0509,19.23514 -0.458,28.82749 -0.20354,3.91835 -0.45887,7.83605 -0.73875,11.75441 -2.36629,5.95388 -4.83435,11.85664 -7.32785,17.73417 -0.55977,1.3231 1.32419,2.2145 2.01118,0.96776 1.57752,-2.79884 3.07783,-5.6231 4.52812,-8.47281 -0.27988,3.43492 -0.45799,6.89573 -0.68698,10.33066 -0.12723,2.01006 -0.30557,4.01947 -0.35644,6.02954 -0.0509,1.70474 0.28007,3.4347 0.35644,5.13945 0.0509,1.29763 2.0614,1.37418 2.31584,0.12744 0.30533,-1.50119 0.94143,-3.02739 1.14498,-4.55402 0.20356,-1.57752 0.35555,-3.12982 0.53365,-4.70735 0.33077,-3.1296 0.66243,-6.28507 0.96775,-9.41468 0.45799,-4.758 0.76266,-9.51534 0.99166,-14.27336 5.19055,-11.93318 9.38924,-24.27326 12.8496,-36.74077 2.39173,-8.60003 4.32591,-17.35361 5.75077,-26.15721 0.2799,5.01245 0.40582,10.02401 0.38033,15.06191 -0.0509,14.07047 -0.9921,28.16793 -3.0785,42.11119 -0.45799,2.97693 -1.04296,5.90211 -1.47552,8.87904 -0.30532,2.06095 -0.55866,4.1478 -0.96576,6.20875 -0.38166,1.98463 -0.86666,4.09648 -1.57906,5.95388 0.53431,-0.1781 1.04473,-0.356 1.57906,-0.55955 1.01776,-0.38166 2.13618,-0.12678 3.02672,0.48388 0.0764,-0.229 0.12674,-0.4341 0.20311,-0.66309 1.27219,-4.14735 1.70651,-8.44716 2.3935,-12.69629 1.14497,-6.99708 1.98351,-14.01958 2.56872,-21.06754 1.17042,-14.07048 1.45141,-28.2164 0.63721,-42.31232 -0.25444,-4.45268 -0.61088,-8.88036 -1.04343,-13.3076 1.17043,-3.40948 1.98308,-6.94575 2.54284,-10.50789 0.53433,0.20355 1.17109,0.0762 1.5273,-0.58543 1.55208,-2.90061 2.87449,-5.9282 3.96859,-9.03236 0.4071,1.88285 0.76356,3.76481 1.04341,5.6731 0.5089,3.74027 0.86642,7.5825 0.99364,11.3482 0.12722,3.46037 -0.25598,6.99773 -1.57906,10.22911 -0.27989,0.68699 0.56153,1.65408 1.24852,1.04342 3.02785,-2.64616 3.30639,-6.6924 3.12827,-10.4581 -0.20355,-3.96925 -0.73743,-7.98938 -1.34808,-11.90775 -0.53433,-3.38404 -1.29786,-6.71785 -2.18841,-10.00011 0.78877,-2.77338 1.45009,-5.57133 1.93352,-8.42105 0.68698,2.41718 1.29764,4.85934 1.83196,7.30196 0.89054,4.04558 2.13774,8.01594 3.00283,12.08696 0.45799,2.18818 0.83961,4.42569 0.91597,6.66475 0.0509,1.39941 -0.15355,2.77427 -0.28076,4.17368 -0.68699,-0.50887 -1.62797,0.3051 -1.11909,1.01753 0.45798,0.61069 0.86487,1.32221 1.47552,1.7802 0.63609,0.45799 1.37375,0.40887 1.93352,-0.12546 1.70476,-1.62841 1.83265,-4.27545 1.75629,-6.46363 -0.10175,-2.54439 -0.53343,-5.06333 -1.0932,-7.55684 -0.96687,-4.24912 -2.1884,-8.47215 -3.33337,-12.6704 -1.19586,-4.32546 -2.46783,-8.65246 -4.22347,-12.79982 0.43253,-4.47812 0.5341,-8.95603 0.33055,-13.38328 0.0764,0.229 0.15264,0.48389 0.229,0.71288 1.37396,4.30002 2.51784,8.67726 3.25571,13.10449 0.38166,2.28996 0.8412,4.55402 1.12108,6.84397 0.27988,2.28995 1.01688,4.55512 1.55119,6.79418 0.20356,0.8651 1.52597,0.63588 1.67863,-0.12744 0.48344,-2.4935 0.94275,-5.06422 0.76465,-7.60861 -0.17812,-2.34084 -0.40732,-4.70778 -0.81442,-7.02318 -0.81421,-4.60534 -1.9083,-9.23503 -3.43493,-13.56049 -1.55208,-4.45268 -3.40949,-8.82948 -5.49588,-13.07861 -0.20355,-0.48343 -0.458,-0.94186 -0.68699,-1.39985 -1.29764,-6.84441 -3.23093,-13.58661 -5.69899,-20.12568 0.30533,0.38166 0.5843,0.7892 0.86421,1.17086 0.68697,1.32308 1.3222,2.64551 2.00918,3.96859 1.39941,2.7225 3.1046,5.29365 4.3768,8.09248 0.25444,0.50888 0.48387,1.04276 0.71287,1.57708 0.33077,1.09408 0.63631,2.18795 0.81442,3.30748 0.10175,0.73787 0.20332,1.47597 0.33055,2.18841 0,0.33076 -0.0259,0.73656 -0.0259,0.83831 -0.0509,0.53432 0.1779,0.96819 0.55955,1.22264 0.0764,0.20355 0.15313,0.40578 0.25488,0.60933 0.35621,0.71245 1.29745,0.76455 1.70452,0.0777 0.40711,-0.68698 0.66131,-1.42552 0.78854,-2.21428 0.89053,-1.88284 0.10244,-4.55446 -0.76265,-6.64086 -0.12722,-0.45799 -0.25355,-0.89119 -0.40622,-1.2983 -1.17041,-3.43492 -2.87604,-6.68998 -4.86067,-9.74325 -0.76331,-1.14497 -1.55185,-2.29149 -2.3915,-3.41102 -2.41717,-4.70712 -5.114,-9.61712 -9.49036,-12.4414 -3.51126,-6.94618 -7.6075,-13.63793 -12.23829,-19.922572 -3.40949,-4.656236 -7.02385,-9.185683 -10.84043,-13.536592 -3.84203,-4.401803 -7.96239,-8.598933 -12.61862,-12.186523 -4.78346,-3.663922 -10.07755,-6.84463 -15.90421,-8.600259 -6.46274,-1.933737 -13.27994,-1.984845 -19.81902,-3.562367 -2.72249,-0.661542 -3.58804,3.358153 -0.94187,4.096025 0.10175,0.02545 0.20291,0.05022 0.30466,0.07567 -4.42724,0.305327 -8.52304,2.011839 -12.21241,4.454452 -0.45799,0.305328 -0.91597,0.609105 -1.37396,0.939876 -1.47575,-1.475747 -3.10548,-2.798832 -4.88656,-3.892916 -2.23906,-1.399416 -4.78279,-2.339955 -7.40351,-2.696169 0.30533,-0.356214 0.61065,-0.686764 0.91598,-1.017535 3.86747,-4.096468 8.37059,-7.455503 13.25583,-10.330664 1.47574,-0.890536 -0.0241,-2.976715 -1.52531,-2.16251 -5.34321,2.900604 -10.50943,6.412083 -14.60591,10.890209 -0.73787,0.788762 -1.45007,1.62841 -2.1625,2.518946 -0.30533,0.02544 -0.63654,0.07656 -0.94187,0.127441 0.4071,-0.865093 0.81443,-1.731512 1.27242,-2.596605 1.83195,-3.46037 3.89313,-6.767413 6.5393,-9.693462 0.89053,-0.992311 -0.63566,-2.212734 -1.57708,-1.322197 -2.95149,2.798829 -5.34343,5.977545 -7.22628,9.514248 -0.81421,1.552078 -1.65364,3.104376 -2.39152,4.707342 -0.48342,-1.602966 -1.17129,-3.180487 -1.88372,-4.579901 -2.11184,-4.198244 -4.96046,-8.828148 -9.43859,-10.939991 -0.1304,-0.06043 -0.25917,-0.09505 -0.38431,-0.107529 z m 56.0799,18.096584 c 2.64617,0.432547 5.31755,0.916423 7.88739,1.628852 -0.20352,0.330771 -0.30427,0.685216 -0.27878,1.04143 0.0764,1.043201 0.9412,1.603854 1.93352,1.654739 10.53377,0.534321 17.93837,9.057796 22.92538,17.276186 3.20593,5.292329 5.87666,10.916533 8.42105,16.666849 -2.4935,-4.605337 -5.34233,-9.059789 -8.65004,-13.156254 -4.09648,-5.037895 -8.67614,-9.719573 -12.92528,-14.655687 -1.17041,-1.373971 -3.51259,0.128325 -2.36761,1.553184 2.74794,3.384039 5.67444,6.66542 8.49871,10.024014 -0.96687,-0.686987 -1.95918,-1.296541 -2.97694,-1.881749 -0.76332,-0.890536 -1.55141,-1.730625 -2.36561,-2.54483 -0.0254,-0.02544 -0.0263,-0.02632 -0.0518,-0.05177 -1.04321,-1.0432 -2.11229,-2.03463 -3.23182,-2.925163 -0.20356,-0.279884 -0.40621,-0.560429 -0.63521,-0.840312 -0.25443,-0.279879 -0.55888,-0.355548 -0.86421,-0.304663 -0.61065,-0.432546 -1.22175,-0.864872 -1.85784,-1.246531 -3.66392,-4.885228 -8.04138,-9.643014 -13.46093,-12.238293 z m -39.0566,0.864208 c 0.35621,0 0.73897,-0.02545 1.09519,0 0.1781,0 0.32966,0.02589 0.50777,0.02589 h 0.0518 c 0.25444,0.02545 0.48432,0.05067 0.73876,0.101555 0.53432,0.07633 1.09255,0.177886 1.62687,0.33055 0.22899,0.05089 0.48387,0.126777 0.71287,0.203109 0.1272,0.02545 0.25468,0.05266 0.35642,0.103545 1.06865,0.407102 2.08574,0.889873 3.05261,1.449638 0.61067,0.356215 0.86553,0.533218 1.17086,0.736768 0.43255,0.305328 0.83944,0.636982 1.24654,0.967752 0.48343,0.407103 0.94097,0.789204 1.34807,1.170863 -1.09408,0.814204 -2.21184,1.628187 -3.33137,2.391504 -0.43255,-0.228994 -0.89054,-0.432106 -1.37397,-0.661098 -2.51895,-1.195865 -4.65712,-3.027603 -7.15062,-4.223466 -0.43254,-0.203552 -0.86421,-0.382544 -1.3222,-0.509763 0.10175,-0.152664 0.17703,-0.331214 0.27878,-0.483877 0.33077,-0.534322 0.63544,-1.068644 0.99165,-1.602965 z m 30.26717,1.266442 c 1.27498,-0.02117 2.55337,0.108856 3.80331,0.414183 3.28226,0.788761 6.2083,2.695946 8.70181,4.858678 0.48343,0.432546 0.96621,0.866199 1.44964,1.324189 -2.84971,-0.636098 -5.87754,-0.841197 -9.1598,-0.434095 -1.22132,0.152664 -1.77969,1.042978 -1.7543,1.933515 -0.50888,-1.577522 -1.04365,-3.153274 -1.62886,-4.705351 -0.50887,-1.323083 -2.59615,-0.586316 -2.11272,0.736766 1.06864,2.926049 1.98507,5.878646 2.77382,8.881027 -0.20355,-0.178107 -0.40776,-0.383429 -0.61132,-0.561536 -0.10174,-0.381659 -0.17703,-0.736988 -0.27877,-1.093202 -0.15267,-0.58521 -0.9162,-0.585653 -1.27241,-0.254882 -0.0509,-0.05088 -0.12832,-0.100892 -0.17923,-0.177223 -1.17041,-2.28995 -2.49304,-4.452904 -4.32501,-6.310307 -1.14498,-1.144976 -2.82362,0.737209 -1.67864,1.907628 0.43255,0.432546 0.8131,0.890537 1.19476,1.373971 -1.09409,-0.508878 -2.23906,-0.941203 -3.43492,-1.24653 -0.71244,-0.178108 -1.29587,-0.02566 -1.72841,0.33055 -0.55982,-0.814205 -1.11976,-1.628188 -1.73041,-2.391505 1.80651,-1.297639 3.71369,-2.519166 5.77465,-3.333372 1.956,-0.763319 4.07185,-1.21722 6.19681,-1.252504 z m -60.25558,1.017535 c 0.6202,0.01909 1.25086,0.07025 1.89967,0.159301 1.67931,0.228996 3.33249,0.635875 4.88456,1.24653 -0.38166,0.127219 -0.7892,0.253553 -1.17086,0.406216 -0.30533,0.12722 -0.61065,0.279884 -0.91597,0.457991 h -0.30467 c -0.30533,0.02545 -0.63654,0.05221 -0.94187,0.07766 -1.62842,-0.966868 -3.43536,-1.806959 -5.29278,-2.315837 0.61066,-0.03817 1.22173,-0.05094 1.84192,-0.03186 z m 44.95075,6.113172 c 0.10174,0.12722 0.17703,0.229217 0.27877,0.356437 4.65623,6.106536 7.63472,13.002277 9.5939,20.406451 1.65388,6.233758 3.10372,12.974611 1.57708,19.361031 -0.0254,0.1781 -0.025,0.35666 0.0259,0.48388 -0.78876,2.34084 -1.65541,4.65645 -2.49506,6.99729 0.25444,-2.9006 0.0259,-5.80144 -1.34808,-8.37127 0,-0.0509 -0.0259,-0.10042 -0.0259,-0.15133 0.71242,-0.55977 0.99296,-1.90984 0.15332,-2.49505 -0.15266,-2.21362 -0.83941,-4.32391 -0.78854,-6.66475 0.12722,-5.165115 1.3733,-11.324091 -1.5273,-16.005765 -2.44262,-3.943811 -4.88501,-8.497594 -8.11638,-11.983408 0.89053,-0.610654 1.78174,-1.271971 2.67228,-1.933516 z m 18.62427,1.907629 c 0.17811,0.279883 0.43188,0.508436 0.76264,0.661099 -0.15266,0.432547 -0.2022,0.891643 -0.15133,1.324189 -0.20354,-0.661542 -0.40776,-1.323746 -0.61131,-1.985288 z m -11.06744,2.16251 c 2.3154,0.814205 4.37569,2.164058 6.25854,3.741581 0.0764,0.814204 0.17901,1.602784 0.28076,2.3915 -0.78876,-0.83961 -1.6793,-1.526187 -2.74793,-2.035065 -0.63611,-0.279883 -1.2733,-0.179877 -1.78219,0.12545 -0.12721,-0.279883 -0.22921,-0.532553 -0.35643,-0.812435 -0.50888,-1.144975 -1.06754,-2.291498 -1.65275,-3.411031 z m 19.89668,0.07766 c 0.22899,0.07633 0.43211,0.126777 0.6611,0.203109 0.94142,0.305326 1.98529,0.736987 3.13027,1.322197 1.14497,0.559766 2.21295,1.222635 3.28159,1.909619 0.27988,0.152668 0.53411,0.329665 0.78855,0.507772 0.0764,0.05088 0.43409,0.306655 0.43409,0.306655 0.43254,0.330771 0.86377,0.661327 1.29632,1.017539 0.22899,0.178111 0.48386,0.381884 0.71286,0.585432 0.0509,0.585208 0.356,1.143867 1.01754,1.423748 0.15266,0.05087 0.27945,0.128337 0.4321,0.179212 2.31541,3.434925 4.45423,6.995303 6.38797,10.659225 1.11953,3.231377 2.18772,6.488852 3.18005,9.771112 2.31536,7.65861 3.96836,15.46989 5.21511,23.3575 -3.79114,-10.68643 -8.77726,-20.91533 -14.14592,-30.94022 -1.37398,-2.54439 -2.82471,-5.088546 -4.1478,-7.658383 -1.01775,-2.010067 -2.00919,-4.04449 -3.15416,-6.003662 -1.37397,-2.366275 -3.00327,-4.78345 -5.08967,-6.640855 z m -8.04071,0.432103 c 0.25444,0.58521 0.78875,1.094749 1.60297,1.298303 0.20355,0.02545 0.38187,0.100454 0.58543,0.151336 0,0.02545 0.45799,0.203109 0.45799,0.203109 0.229,0.127219 0.45753,0.229216 0.66109,0.356435 0,-0.02545 0.48498,0.305766 0.43411,0.254881 0.76332,0.559766 1.44875,1.196749 2.08485,1.883734 1.17041,1.272198 2.39238,3.179384 3.35925,4.858676 2.18818,3.816585 4.17257,7.785385 6.28442,11.652865 -1.09408,-0.356223 -2.44261,0.280104 -2.97693,1.272419 -0.81421,-1.450306 -1.62796,-2.900612 -2.49306,-4.350908 -2.59527,-4.350909 -5.36822,-8.75159 -8.67593,-12.644507 -0.4071,-1.653874 -0.84076,-3.307933 -1.32419,-4.936343 z m -7.4294,10.533774 c 0.10175,0.254433 0.20442,0.534548 0.28078,0.814428 0.55975,1.628408 0.81398,3.002168 1.01753,4.452464 -0.35622,-1.755624 -0.78943,-3.536705 -1.29831,-5.266892 z m 51.21924,1.628856 c 0.35621,0.432544 0.71109,0.889649 1.06731,1.322193 3.53669,4.452687 6.92251,9.032367 9.95034,13.841254 6.28464,9.94858 11.22031,20.56 14.85878,31.67898 v 0.0239 c -0.63609,0.33078 -1.06975,1.11931 -0.6372,1.93351 0.99232,1.88285 1.93352,3.79269 2.8495,5.70099 2.11184,8.21837 3.3336,16.63942 3.46081,25.13768 -1.14497,-1.6284 -2.46718,-3.1046 -4.07014,-4.37679 -0.99231,-0.78877 -2.21429,0.61043 -1.2983,1.47553 2.31539,2.18818 3.99558,5.01308 5.31866,7.93916 -0.12722,3.35858 -0.48475,6.66608 -0.99364,9.94834 -1.11953,-3.40948 -2.28995,-6.81764 -3.43493,-10.22712 -0.20354,-0.58523 -0.71087,-0.73895 -1.16886,-0.6372 -1.47575,-12.08585 -3.8677,-24.09604 -7.2263,-35.87657 -3.48579,-12.31484 -8.1177,-24.17082 -13.23193,-35.90045 -1.6284,-3.740255 -3.40859,-7.861495 -5.4441,-11.983408 z m -40.45647,1.423748 c 0.55977,0.788756 1.06821,1.578858 1.57708,2.367614 2.90061,4.52902 5.44611,9.235915 7.73605,14.070255 -0.33077,-0.61065 -0.63699,-1.22131 -0.96775,-1.83197 -2.59528,-4.834345 -5.49633,-9.516895 -8.26971,-14.249463 -0.0255,-0.127216 -0.0502,-0.22922 -0.0756,-0.356436 z m -2.51894,0.967754 c 0.0254,0.07636 0.0761,0.126748 0.10154,0.20311 0.0764,0.356222 0.12675,0.736975 0.20311,1.093207 -0.10175,-0.432564 -0.20292,-0.863773 -0.30466,-1.296317 z m 4.3509,7.963058 c 2.72251,5.088777 5.34279,10.254337 7.53096,15.597547 0.6361,1.55209 1.24674,3.12983 1.83195,4.70734 0.27989,4.96156 0.17915,9.94901 -0.0498,14.91057 -0.15266,3.28226 -0.35758,6.58929 -0.53565,9.92246 -1.47576,-11.50066 -3.89182,-22.82362 -6.46165,-34.14616 -0.83965,-3.63848 -1.57796,-7.3024 -2.31584,-10.991757 z m 35.11192,5.217097 c 3.89291,7.32784 6.59063,15.26524 8.85514,23.17829 1.8574,6.64086 3.46015,13.30738 4.68146,20.05001 -0.12722,-0.45799 -0.279,-0.94186 -0.40622,-1.39986 -0.22899,-0.76331 -0.81554,-1.11909 -1.45163,-1.11909 -1.88285,-13.07816 -4.93567,-26.10499 -10.50789,-38.21628 -0.38166,-0.81421 -0.76377,-1.65338 -1.17086,-2.49307 z m -24.52637,0.45799 c 0.66154,1.09408 1.29609,2.18841 1.85585,3.33338 -0.10175,-0.0764 -0.22721,-0.15423 -0.35444,-0.20511 -0.48343,-1.0432 -0.9671,-2.08507 -1.50141,-3.12827 z m 16.71664,3.51059 c 0.78877,1.95919 1.52576,3.91904 2.23818,5.87821 1.65385,4.55447 3.35969,9.10803 4.98811,13.68793 0.10175,0.50888 0.17703,1.01843 0.27877,1.52731 1.98462,11.2462 3.13025,22.61939 4.04625,33.99281 1.14498,14.29948 1.67885,28.6505 0.89009,42.97542 -0.0509,1.01775 -0.10083,2.00895 -0.17722,3.02671 0.61065,-11.55153 0.3301,-23.20505 -0.61132,-34.7057 -0.68699,-8.60004 -1.83307,-17.17506 -3.61414,-25.67333 0.15262,-1.88285 0.17893,-3.76482 0.0518,-5.6731 -0.0509,-0.83965 -0.48408,-1.42552 -1.0693,-1.7563 -1.19586,-9.33791 -2.92473,-18.62493 -5.41823,-27.7084 -0.50887,-1.85741 -1.04318,-3.71415 -1.60296,-5.57156 z m -13.61227,2.49307 c 0.99232,2.2645 1.85719,4.60667 2.62051,6.94751 -0.8142,-1.98463 -1.62996,-3.96922 -2.49505,-5.95388 -0.0509,-0.33076 -0.0746,-0.66286 -0.12546,-0.99363 z m -16.66685,2.8256 c 0.0764,0.45799 0.15263,0.93987 0.229,1.39786 2.2645,13.73971 3.68935,27.58207 3.89291,41.49988 0.20355,13.43438 -0.61088,26.86898 -2.4174,40.20158 -0.78876,5.82665 -1.78018,11.62742 -2.92516,17.37774 -0.48344,-6.10654 -0.94233,-12.23896 -1.42573,-18.34549 -0.17813,-2.18818 -0.35511,-4.40091 -0.50778,-6.58909 2.36628,-13.71426 4.40091,-27.48073 6.13109,-41.29677 0.12722,-0.96687 -0.38095,-1.90806 -1.44964,-2.16251 -0.89051,-0.20355 -2.08664,0.40711 -2.18839,1.37398 -0.58522,5.67399 -1.24697,11.34929 -1.9594,17.02329 0,-6.64087 -0.22877,-13.28326 -0.78854,-19.89868 0.0764,-1.37397 0.12675,-2.77184 0.20311,-4.1458 1.19586,-6.36098 2.39129,-12.74894 2.95105,-19.21169 0.20357,-2.41717 0.28027,-4.83258 0.25488,-7.2243 z m 21.95764,0.76265 c 3.00238,6.53908 5.69988,13.22994 7.81172,20.09979 1.55208,4.98701 2.82427,10.0249 3.89292,15.11368 -0.38166,4.35091 -1.42553,8.6507 -2.44329,12.92527 -0.10174,-1.11953 -0.20333,-2.23774 -0.33055,-3.35725 -0.10174,-1.14501 -0.20289,-2.31586 -0.30466,-3.46083 0.71245,-3.00238 1.2983,-6.03086 1.7563,-9.08412 0.15266,-1.11954 -0.43255,-2.18686 -1.60296,-2.44129 -0.50888,-0.10175 -1.0952,-0.002 -1.55319,0.25288 -0.48344,-3.10415 -1.04299,-6.18175 -1.70453,-9.20958 -1.37397,-6.56452 -3.05216,-13.12993 -5.08766,-19.51635 -0.15267,-0.45799 -0.28143,-0.88965 -0.4341,-1.3222 z m -29.51448,18.47294 c 0.0254,0.0509 0.0259,0.0745 0.0259,0.12544 0.15266,1.32309 0.30488,2.62206 0.4321,3.97058 -0.22899,1.24676 -0.48387,2.49284 -0.71287,3.73958 -0.68699,3.46038 -1.29701,6.94642 -1.90762,10.43223 0.45797,-6.10653 1.22107,-12.18674 2.1625,-18.26783 z m 24.70558,2.44128 c 1.4503,6.00476 2.49416,12.08651 3.13026,18.24394 0.68699,6.71719 1.11976,13.45916 1.27242,20.22723 -0.50887,2.01008 -1.01755,4.02147 -1.47553,6.03153 -3.10416,13.61249 -4.4779,27.63142 -4.91044,41.52378 -0.15263,5.57222 -0.17795,11.1181 -0.10155,16.66487 -0.38165,1.65384 -0.76375,3.30837 -1.17086,4.96223 v -3.20594 c 0.0255,-14.47759 -0.0261,-28.95581 0.30466,-43.4334 0.30533,-14.45213 0.94209,-28.87727 1.7563,-43.30396 0.33076,-5.90299 0.83853,-11.80728 1.19475,-17.71028 z m 4.35091,0.58543 c 1.04321,3.38403 1.98462,6.79462 2.74794,10.255 0.76332,3.46036 1.37441,6.94485 1.85785,10.45611 -0.25444,1.09409 -0.53455,2.21339 -0.81443,3.30749 -0.45799,-5.54677 -1.14475,-11.06654 -2.16251,-16.51154 -0.48344,-2.51894 -1.01819,-5.039 -1.62885,-7.50706 z m 21.88197,2.26407 c 2.0864,11.22075 2.84972,22.56962 3.89292,33.94304 0.55977,6.28464 1.22086,12.56906 1.34808,18.87915 0.12721,6.20831 -0.279,12.34096 -1.3222,18.47294 -0.17811,1.14497 1.52575,1.78063 2.00918,0.6611 3.56215,-8.1166 3.56348,-17.50518 3.2836,-26.207 -0.20355,-6.23376 -0.58477,-12.44184 -0.8901,-18.65015 -0.10174,-1.85741 -0.20377,-3.68981 -0.35643,-5.52178 1.11953,4.24913 2.1614,8.52327 3.12827,12.79785 0.55976,10.33022 0.43298,20.73654 -0.4321,31.01588 -0.48344,5.8012 -1.34808,11.60331 -2.95105,17.22641 -0.76332,2.69705 -1.62885,5.36932 -2.77383,7.93916 -1.14497,2.54439 -2.56939,4.96134 -3.86703,7.4294 -0.68699,1.32306 1.17063,2.41561 2.18839,1.39786 2.3154,-2.34084 3.9686,-5.26601 5.34256,-8.19205 1.34853,-2.82427 2.46828,-5.7751 3.33337,-8.77748 0.0509,-0.229 0.12635,-0.458 0.17723,-0.68699 -2.46806,15.16456 -6.05388,30.2006 -9.97224,45.03437 -0.17811,0.6361 0.93987,0.99254 1.16887,0.35643 4.55445,-13.00183 8.67792,-26.25677 11.42585,-39.76747 -0.53432,3.20594 -1.12064,6.41186 -1.78218,9.61779 -2.62072,12.79828 -6.08153,25.44278 -10.33066,37.83396 -0.55976,1.62841 -1.14519,3.28205 -1.7304,4.91046 0.27989,-10.05035 0.20443,-20.09936 -0.17722,-30.1497 -0.15267,-3.61303 -0.33012,-7.25327 -0.53367,-10.86631 0.96687,-4.88523 1.75452,-9.79567 2.33973,-14.75724 1.6793,-14.14681 1.90808,-28.3945 1.24654,-42.54131 -0.58521,-12.74738 -1.67952,-25.52133 -3.33337,-38.1924 -0.12722,-1.06863 -0.27944,-2.13728 -0.43211,-3.20592 z m -56.51001,1.39986 c -0.10175,0.91597 -0.2288,1.85784 -0.33054,2.77382 -0.12722,1.09408 -0.25469,2.1875 -0.35644,3.2816 -0.25443,-0.0255 -0.53565,-1.6e-4 -0.76465,0.10154 0.43256,-1.95917 0.89054,-3.89269 1.37397,-5.82642 0.0255,-0.10175 0.0522,-0.22881 0.0777,-0.33056 z m 20.32879,2.03506 c 0.35622,3.02783 0.68699,6.08265 0.91598,9.13591 0.58517,7.73495 0.66219,15.49555 0.61131,23.25595 -0.10175,15.5971 -1.04364,31.16722 -2.08683,46.73889 -0.81421,11.98408 -1.85807,23.96858 -4.27524,35.74911 -0.83965,-9.00714 -1.62686,-18.01429 -2.31385,-27.02142 5.47044,-23.02674 8.34561,-46.63821 8.01483,-70.27559 -0.10175,-5.87757 -0.38276,-11.73075 -0.8662,-17.58285 z m -22.2623,6.48953 c 0.66154,4.37634 0.45821,8.8027 0.12744,13.22994 -0.38166,4.88523 -0.71398,9.74456 -0.89209,14.6298 -0.10175,2.8497 -0.27988,5.67487 -0.45799,8.52459 -0.10175,0.33076 -0.17655,0.63697 -0.25288,0.96774 0.1272,-4.24913 0.17655,-8.49958 -0.20511,-12.67238 0.43255,-4.68167 0.58522,-9.3368 0.91598,-14.01848 0.25444,-3.51126 0.53521,-6.99818 0.73876,-10.484 0,-0.0509 0.0259,-0.12634 0.0259,-0.17721 z m -6.13309,10.45611 c -0.10174,2.74793 -0.0766,5.52175 0.10155,8.2697 -0.53431,0.55976 -0.71176,1.3742 -0.53365,2.18841 1.29763,6.05564 1.01775,12.36485 0.91597,18.49683 v 0.8662 c -1.3994,-9.92316 -1.34896,-19.89805 -0.48387,-29.82114 z m 13.58837,6.86985 c -0.10185,5.34323 -0.10196,10.68644 0.10154,16.02965 0.0255,0.99232 0.0766,1.98463 0.12744,2.97694 -0.25443,3.15504 -0.56087,6.28553 -0.8662,9.44057 -0.10174,-0.94142 -0.20241,-1.85784 -0.27877,-2.77382 -0.48344,-4.987 -0.86553,-9.97334 -1.17086,-14.96035 0.76332,-3.56214 1.4253,-7.1254 2.08684,-10.71299 z m 34.80725,3.15615 c 0.30528,6.00476 0.27946,12.00974 -0.0259,17.98906 -0.229,4.09646 -0.38232,8.19315 -0.84031,12.26418 -0.33078,3.1296 -0.78943,6.28375 -1.52731,9.33702 0.89054,-9.08347 1.3238,-18.19328 1.29831,-27.30219 -0.0255,-2.62072 -0.0511,-5.26666 -0.12744,-7.88738 0.4071,-1.47574 0.81554,-2.92495 1.22263,-4.40069 z m 6.66476,2.82361 c 0.76331,6.38642 1.52774,12.7735 2.24016,19.15992 -0.0509,2.34084 -0.12725,4.70624 -0.22899,7.04707 -0.27988,7.14974 -0.78987,14.30013 -1.0952,21.44987 -0.0764,1.29763 2.13773,1.39963 2.31584,0.12744 0.30533,-2.03551 0.58544,-4.09757 0.81442,-6.13308 10e-6,0.15266 -0.0259,0.28143 -0.0259,0.43409 -0.76332,12.23852 -3.12828,24.40069 -7.47918,35.95223 -0.55977,1.50119 1.42441,2.46718 2.26407,1.09319 3.43492,-5.64852 5.64855,-11.8564 7.09884,-18.29371 0.0255,0.0764 0.0259,0.17702 0.0259,0.27877 -2.41718,14.37581 -6.00476,28.54873 -10.30478,42.51742 0.0254,-2.56983 0.0498,-5.14032 0.0498,-7.71016 0.0255,-14.3758 0.43255,-28.72505 0.68699,-43.10085 0.10175,-5.57222 0.20379,-11.14487 0.35643,-16.74254 0.43255,-5.90298 0.76332,-11.83164 0.91598,-17.76006 0.229,-2.59528 0.45733,-5.21644 0.76266,-7.81172 0.40709,-3.5367 0.94142,-7.02206 1.60297,-10.50788 z m 34.2477,6.76829 c 1.06864,3.28227 2.16339,6.56498 3.13026,9.87268 -0.76332,3.68937 -1.75519,7.32697 -2.95105,10.93999 0.61066,-6.94618 0.45688,-13.86648 -0.17921,-20.81267 z m -46.9181,16.89387 c -0.43256,7.73494 -1.22064,15.4201 -2.36562,23.07872 0.40711,-7.73495 1.16975,-15.44556 2.36562,-23.07872 z m -33.86539,3.08048 c 0.50887,5.216 1.06909,10.40612 1.85785,15.54578 0.10175,0.58522 0.17703,1.19543 0.27878,1.80607 -0.0509,0.40711 -0.10245,0.83988 -0.15333,1.27242 -0.0509,0.53433 0.17944,0.96663 0.53565,1.24653 0.94143,6.08108 1.93351,12.13696 2.84949,18.21805 -0.5852,-2.54439 -1.06886,-5.11488 -1.50141,-7.71017 -1.19586,-7.20061 -2.62095,-14.32513 -4.24935,-21.42398 -0.0509,-0.22899 -0.10246,-0.45754 -0.15333,-0.6611 0.22899,-0.0509 0.45928,-0.22832 0.53565,-0.53365 0.30537,-1.14497 0.0768,-2.41783 0.0259,-3.58825 -0.051,-1.29764 -0.0514,-2.56939 -0.0259,-3.86703 z m 6.66675,7.55684 c 0.35621,5.19056 0.71154,10.38112 1.0932,15.57167 -0.27988,-2.11185 -0.53411,-4.25069 -0.78855,-6.38798 -0.25444,-2.06096 -0.5082,-4.14624 -0.76264,-6.23264 0.15266,-0.99232 0.30532,-1.95874 0.45799,-2.95105 z m 31.77854,9.74523 c -0.76331,8.42194 -1.73085,16.79253 -2.90128,25.16357 -0.91595,6.51364 -1.93307,13.00227 -3.0526,19.49047 -0.45799,-5.445 -0.8403,-10.89176 -1.0693,-16.3622 1.98463,-7.93849 3.53647,-15.97765 4.68145,-24.09426 0.91597,-1.29764 1.70564,-2.72184 2.34173,-4.19758 z m -16.3861,27.27432 v 2.49504 c 0,4.5799 0.0252,9.18371 0.10155,13.7636 -0.61066,1.9083 -1.22175,3.84247 -1.85784,5.75077 -1.0941,3.25681 -2.26385,6.46363 -3.5106,9.66956 -0.15266,-1.39941 -0.279,-2.79971 -0.40622,-4.17369 2.0864,-6.8444 3.66305,-13.81537 4.75712,-20.91421 0.33078,-2.18818 0.6361,-4.37746 0.91598,-6.59107 z m 6.31032,12.08694 c 0.15266,2.9515 0.35642,5.90166 0.58542,8.85316 0.27988,3.68937 0.58477,7.35418 0.8901,11.04353 -0.61066,3.23138 -1.24564,6.48797 -1.88174,9.71935 -0.48343,2.44261 -0.9682,4.88522 -1.45163,7.32784 0,-2.97694 0.0259,-5.95387 0.0259,-8.9308 0,-7.48051 3.7e-4,-14.93513 0.0259,-22.41563 0.48344,-1.4503 0.96577,-2.90062 1.42376,-4.35091 0.12721,-0.40711 0.2551,-0.83943 0.38232,-1.24654 z m -5.97977,16.51354 c 0.10175,5.49588 0.20491,10.96587 0.30666,16.46175 0.10175,6.10654 0.30445,12.23895 0.86421,18.34551 -1.14497,5.67397 -2.23906,11.37165 -3.20593,17.07108 -0.10175,-2.84972 -0.22966,-5.69877 -0.38232,-8.54849 -0.0764,-1.11953 -0.12675,-2.23972 -0.20311,-3.35926 0.33076,-0.25444 0.53525,-0.66132 0.50976,-1.24653 -0.58521,-9.46512 -1.65453,-18.8537 -2.67227,-28.26795 1.70474,-3.43492 3.30726,-6.91942 4.783,-10.45611 z"
       style="fill:#9497a2;stroke-width:0.254439;fill-opacity:1"
       id="path83" /><path
       style="fill:#474e62;stroke-width:0.254439;fill-opacity:1"
       inkscape:connector-curvature="0"
       id="path85"
       d="m 524.32789,70.525706 c -0.86509,0.254439 -1.73018,-0.508878 -1.57752,-1.424858 0.20355,-1.272195 0.89054,-2.366283 1.47574,-3.485815 0.63611,-1.221307 1.37398,-2.41717 2.0864,-3.613034 1.39942,-2.366283 2.84972,-4.707121 4.45269,-6.971629 3.25682,-4.554458 7.37873,-8.371043 12.95095,-9.999453 1.50119,-0.432546 2.21361,1.602966 0.8142,2.213619 -4.78345,2.060957 -8.52371,5.928429 -11.34798,10.101229 -1.47575,2.162732 -2.74794,4.452683 -4.02014,6.717191 -0.71242,1.272195 -1.42486,2.747941 -2.31539,4.071024 0.5852,-0.457991 1.17042,-0.890537 1.70474,-1.246752 0.25444,-0.178107 0.53432,-0.356214 0.81421,-0.508878 0.48343,-2.747941 2.13728,-5.037892 3.9438,-7.17518 1.80652,-2.162731 3.96925,-4.020136 6.28464,-5.648546 4.57991,-3.205931 9.74502,-5.572214 14.85924,-7.862165 1.42486,-0.636097 2.64617,1.679297 1.24675,2.417171 -4.68168,2.41717 -9.3379,4.910672 -13.51071,8.09116 -2.0864,1.577522 -4.04558,3.333151 -5.77577,5.292331 -0.53431,0.610654 -1.01775,1.221308 -1.47574,1.882849 1.17042,-0.585209 2.34084,-1.119532 3.51126,-1.679297 6.41187,-3.027825 13.66338,-5.521327 20.864,-5.34322 1.75563,-0.890537 3.5367,-1.653854 5.44499,-2.213619 4.50358,-1.348527 9.36336,-1.50119 13.91782,-0.254439 2.51894,0.686985 1.67929,4.529014 -0.8651,3.892917 -3.9438,-0.992312 -7.86217,-0.814205 -11.72964,0.356215 0.10175,0.686985 -0.38166,1.424858 -1.24674,1.450302 0.78875,0.381658 1.55207,0.839649 2.28994,1.348527 0.38166,0.254439 0.50888,0.636097 0.45799,1.017756 2.90061,-0.101779 5.82666,0.05088 8.72726,0.508878 10.88999,1.679297 20.35513,7.785834 29.33682,13.612486 0.83965,0.559766 1.32308,1.501191 0.81421,2.468059 -0.43256,0.814205 -1.6793,1.348526 -2.51895,0.788761 -8.44738,-5.470439 -17.40363,-10.584663 -27.47942,-12.442068 -3.56214,-0.661541 -7.22606,-0.78876 -10.86454,-0.45799 8.06572,5.521327 14.91012,12.442067 20.71134,20.25334 6.94618,9.33792 12.34029,19.719032 17.37818,30.125582 5.82665,12.1113 10.17756,24.90958 12.74739,38.06408 2.62072,13.43438 3.5367,27.22497 1.14498,40.78657 -0.99232,5.62311 -2.56983,11.0681 -4.55446,16.43676 -1.52664,4.12191 -3.58759,8.49827 -7.86216,10.50834 -1.06865,0.50887 -1.78107,-1.0941 -0.91599,-1.73019 3.86748,-2.87517 5.0379,-8.32016 6.0811,-12.67107 1.57752,-6.58997 2.74794,-13.15449 3.28226,-19.92257 1.06865,-13.38349 -0.53432,-27.12319 -3.68937,-40.17592 -3.0787,-12.6965 -7.96393,-24.78236 -13.81603,-36.48656 -5.06334,-10.12666 -10.661,-20.075227 -17.98884,-28.853376 -3.43493,-4.121913 -7.3024,-7.913055 -11.55153,-11.27165 13.63792,19.490028 21.42376,42.491316 26.13089,65.492606 2.49349,12.16218 3.76569,24.52792 3.48581,36.91909 -0.27988,12.44207 -2.39173,24.75693 -6.46276,36.56289 -0.63609,1.88285 -3.66392,1.39941 -3.18048,-0.6361 3.25682,-13.43437 5.08878,-27.25042 5.06334,-41.041 0,-13.84149 -2.0864,-27.50487 -5.34322,-40.93924 -5.03789,-20.99122 -12.77284,-41.37179 -25.851,-58.775416 -0.55978,-0.763317 -0.40711,-1.526634 0.10174,-2.060956 -2.41717,0.483434 -4.78346,1.170419 -7.20062,1.62841 -0.40711,0.07633 -0.78877,0.152663 -1.19587,0.228994 0.43255,0.02545 0.83966,0.178108 1.14497,0.508878 16.81843,18.294163 26.538,41.27001 30.78713,65.28905 2.31539,13.20539 3.00238,26.76699 2.95149,40.15048 -0.0255,7.22607 -0.4071,14.45213 -1.17042,21.62731 -0.0764,0.71244 -0.15267,1.39941 -0.229,2.11185 -0.0254,0.20355 -0.0509,0.4071 -0.0764,0.61065 0,0.0509 0,0.10175 -0.0255,0.12722 0,0.0255 0,0.0509 0,0.0764 -0.10175,1.01775 -0.17811,2.03552 -0.25444,3.07871 -0.1781,2.34085 -0.38166,4.68168 -0.66154,6.99707 -0.48344,4.24914 -1.34853,8.37105 -2.92605,12.3403 -1.47574,3.66392 -3.7657,6.79352 -7.50595,8.44738 -1.37397,0.61065 -2.79883,-1.39943 -1.65386,-2.41718 3.00238,-2.62072 4.6308,-6.41186 5.6231,-10.15211 1.11954,-4.30002 1.67931,-9.18526 2.03552,-13.25627 0.45799,-5.24145 1.06864,-10.48289 1.42486,-15.72433 0.48344,-7.1243 0.5852,-14.29948 0.4071,-21.42377 -0.30532,-12.9255 -1.17042,-25.92734 -3.84203,-38.5984 -2.46806,-11.67875 -6.36097,-23.1285 -11.93319,-33.764053 -4.24913,-8.116609 -9.51601,-15.775222 -15.67344,-22.619631 -0.73787,-0.814205 -0.96687,-1.933737 -0.15266,-2.798829 0.15266,-0.178108 0.35621,-0.305327 0.5852,-0.432547 -0.43254,0.07633 -0.86508,0.152664 -1.29764,0.228996 -0.78875,0.101779 -1.57752,0.178107 -2.36628,0.330771 -1.17041,1.043199 -2.31539,2.111844 -3.38404,3.282262 -1.09408,1.221308 -2.03551,2.569835 -3.18048,3.71481 -1.17043,1.17042 -2.92605,0.178107 -2.77339,-1.348527 0.35622,-3.485814 3.51126,-6.513638 5.97932,-8.803589 2.11185,-1.959181 4.47812,-3.663922 6.92074,-5.266888 -1.4503,0.330771 -2.84972,0.737873 -4.22369,1.221308 -6.41187,2.264507 -12.13674,6.106536 -17.20007,10.482886 -0.53432,0.457991 -1.22131,0.279884 -1.6793,-0.152662 -1.0432,1.094087 -1.85741,2.468058 -3.02783,3.434926 -0.61065,0.508878 -1.67929,0.101779 -1.90829,-0.610654 -0.50888,-1.755629 0.25444,-3.511258 1.50119,-5.037892 z m 34.70548,-7.658614 c 1.62842,-0.33077 3.28226,-0.585209 4.93612,-0.763317 -1.32308,-0.610654 -2.69706,-1.017756 -4.12192,-1.272195 -1.29763,0.763317 -2.56982,1.577522 -3.84202,2.366283 -0.33077,0.203551 -0.66154,0.432546 -1.01776,0.661541 1.34853,-0.356215 2.67162,-0.712429 4.04558,-0.992312 z" /><path
       style="fill:#474e62;stroke-width:0.254439;fill-opacity:1"
       inkscape:connector-curvature="0"
       id="path87"
       d="m 532.19006,47.906078 c 1.42486,-1.348527 3.74025,0.534322 2.36628,2.010068 -2.13728,2.289952 -4.30002,4.579903 -6.13198,7.124293 -1.90829,2.646165 -3.25682,5.572214 -4.50357,8.549151 -0.45799,1.094088 -2.06095,0.636097 -2.18817,-0.407103 -0.81421,-7.124292 5.72487,-12.747394 10.45744,-17.276409 z" /><path
       style="fill:#474e62;stroke-width:0.254439;fill-opacity:1"
       inkscape:connector-curvature="0"
       id="path89"
       d="m 535.49777,71.568906 c 2.72249,-2.798829 6.10653,-4.910673 9.66868,-6.615414 3.63848,-1.730185 7.48051,-3.053268 11.42431,-3.943805 1.95918,-0.45799 3.96925,-0.712429 5.97932,-0.91598 0.86508,-0.07633 1.73018,-0.12722 2.59527,-0.203552 0.76332,-0.05088 1.78108,0.07633 2.46806,-0.152663 1.14498,-0.381659 2.36629,0.45799 2.44262,1.602966 0.0764,1.094088 -1.06865,2.21362 -2.23906,1.857405 -0.58522,-0.178108 -1.32309,0 -1.95919,0.05088 -0.86509,0.07633 -1.73018,0.178108 -2.56983,0.330771 -1.62841,0.279883 -3.23138,0.712429 -4.85979,1.094088 -3.56214,0.839649 -7.0734,2.010069 -10.35567,3.613033 -3.1296,1.501191 -6.15741,3.460371 -8.65092,5.67399 -2.69705,2.391728 -4.50357,5.34322 -6.51364,8.243825 -0.66154,0.966867 -2.41717,0.330775 -2.41717,-0.788757 0.0764,-3.842033 2.36629,-7.124297 4.98701,-9.846794 z" /><path
       style="fill:#474e62;stroke-width:0.254439;fill-opacity:1"
       inkscape:connector-curvature="0"
       id="path91"
       d="m 529.722,66.709121 c 1.67929,-2.595278 3.7657,-4.885229 6.05565,-6.971629 4.73257,-4.249131 10.27934,-7.480507 15.80066,-10.610106 1.98462,-1.119533 3.9947,1.755628 1.98462,2.900604 -5.13966,2.951493 -10.38111,5.953873 -14.80835,9.872234 -2.0864,1.831961 -4.02013,3.892916 -5.57221,6.182868 -0.83965,1.221307 -1.57752,2.518946 -2.26451,3.816585 -0.73787,1.348527 -1.27219,2.773385 -2.13729,4.071024 -0.55976,0.839649 -2.06095,0.788761 -2.13728,-0.407103 -0.15267,-3.078711 1.39941,-6.284643 3.07871,-8.854477 z" /></g></svg>