<svg xmlns="http://www.w3.org/2000/svg" viewBox="0 0 1000 1000" id="Layer_1"><style id="style2">.st0{fill:#010101;} .st1{fill:#F6E0E8;}</style><style id="style4546">.st0{fill:#F6E0E8;}</style><g id="g4566"><g id="layer1" stroke-linecap="round"><path id="path5225" d="M524.08 60.17l-2.86.16-2.5.5-1.9.7-2.73-.32-3.6.4-3 .6-2.2.5-1.6.7-2.4.9-1.7.9-1.7.6-2.3 1.8-2.5 1.9-2.2 1.9-2.4 2.1-2.1 1.8-2.2 2.4-1.8 2.2-3 3.5L477 87l-1 2-1.64 2.6-1.03 1.9-1.3 3.9-.86 2.64-.94 3.3-.96 3.17-.6 2.8-.56 3.4-.6 4-.4 3.1-.4 4.1-.4 5-.3 4.9.2 3 .2 6.8.3 3.2.3 2.7.7 5.8.7 5.2.8 4.4 1.2 5.3 1.4 4.5 1.2 3 1.5 3.1 1.5 2.9 1.4 1.8 2.5 1.7 1.4 1.3 1.4.9 1 .7-1.9-3-2.3-3.8-1.1-2.8-1-3.8-.4-2.8-.5-3.3v-.5l1.9 3 2.7 3.5 2.1 1.8 1.4 4.9 1.3 3.7.8 3.5.5 3.4.1 1.2-1.3 3.9-1.2 2.9-2.4 1.5-2.3.9-2.1.7-.9.9.7.5.8.2.6.4.9.1.9.2.7.1.2.7.6.5.8.7 1 .7 2.1.7h1.6l1.4-.3 1.7-.7 1.1-1.2.9-1.8 1-1.9.6-2.3v-1.8l.1-2 .9-2.3.7-2.2.5-2.6.2-1.8.2-2.2-.1-1.9V184l-.6-4.74-1.1-6-2.7-5.2-1.7-3.36-1.7-3-1.5-2.95-1.1-3.13-1.2-3.43-.9-3.1 2.1 4.1 1.6 1.6 2.4 2.4 2.3 1.8 1.2.7 1.5.6-2.1-2.4-3-3.7-1.5-3-1.2-4-1-3.5-.8-3.5-.6-3.7-.5-3.5-.2-2 .8-.7 1.7-1.3 2-1.9 2.4-3.3 1.9-2.9 1.9-2.8 1.2-2.2 1.4-2.6 1.6-3.5 1-2.6.7-2.3 1.3-3.2-.2 4.4-.1 4.5.2 3.3.3 3.3.6 3.5.5 3.1.6 2.3.7 2.7.9 2.2 1 1.7 1.3 1.4 1.8 1.8 1.3 1.2 1.5.8 1.6.6-.9-2.1-.7-2.4-.4-2.2-.1-1.7 1.1 2.5 1 2.2.9 1.1 1.5 1.1-.3-1.8.8 1.3-.6-3.8-.4-2.5.3-3.7.3-5.2.6-4.5.6-2.8 1-3.7.7-2.2.9-3 .9-2.7.8-2.6.9 4 1 3.4 1.1 3.3 1.3 3.9 1.6 4.2 1 2.7 1.2 2.5 1.4 2.4 1.3 2 2 2.3 1.9 2.2.5.5-1.1-2.9-.9-2.6 1.6 2.5 1.4 2.5 2.3 3 2.1 2.1.9.8-.5 3.1-.9 3.2-1.2 2.7-1.4 1.7-2.1 2.5-1.8 1.9-2.1 2-1.9 1.5-2.7 2-1.7.8 1.5.1 2.4-.8 3.2-1.5 3.3-1.9 2.6-1.3-1.4 2.3-2 3.8-1.6 3.8-.9 1.9-1.1 3.1-.7 2.9-.5 2.5.1 3 .5 5.7.5 4.1.9 3.3.6 1.9 1 1.6.8.8 1.1.7 1.2.5 1.3.5 1.1.3 1.7-.2 1.2-.4 1.5-.3 1.3-.4 1-.6.8-.6 1-1.2.4-.8.8-1.5.7-1.5.5-1.5.5-1.6.6-2.3 1.6-1 2.1-.9 1.9-1.2 1.5-1.1 1.3-.9 1.7-1.4 1-.7 1.2-1.5 1.2-1.6.7-1.5.6-1.2.6-1.8.6-1.6.5-1.9.3-1.4-.2 3.1-.3 2.7-.5 2.2-.6 2-1.2 2-1.2 2-.4.8 1.3-.8 1.9-1.8 1.4-1.5 1.4-2.4 1.2-2.2.9-3.2.8-3.5.5-3.1.2-2.3.3-3 .3 2.6.2 4.3.2 3 .1 4.5-.1 2.4-.2 2.5-.8 3.1-.6 2.1-.8 1.7-1 1.6-.04.4.6-.3-.2.8 1-.5 1.3-1.4 1.6-2.4 1.3-2.6.9-3.1.7-3.6.2-3.6v-2l-.2-5.3-.4-4.1-.3-4.4-.5-4.3-.5-5.1-.4-4.2-.5-4.4-.96-4.98-.2-3.5v-3l-.2-4.06-.6-2.7-.9-4.6-.3-3-1.4-4.8-.6-3.7-1.1-2.5-1.4-4.58-.9-3.2-1.2-2.9-1.7-3.3-2.1-3.7-2-2.8-3-2.9-3.4-2.9-3.4-2.5-4.04-2.5-3.8-2-4.1-1.6-4.4-1-3.8-.5-3.7-.3zm-35.3 49.8l-.66 4.1-1.26 5-1.72 5.1-1.75 3.4-.6.8.2-4.18.9-3.3 1.4-4.2 1.1-3.3zm76.78 54.6l-1.3 3.5-1.28 3.2-1.8 3.6-2.23 1.62-2.97 1.1 2.42-2.9 2.74-3.3 2.12-3.1zM535.4 184l.23-4.7.8-5.7 2.06-5.35 1.1-3.93-.2 3.5-1.1 4.62.4 2.27.9-2.2.6-.1.6-2 1.2 1.9 1.6-4.5 2.8-5.2 1.3-2.8-.1 1.8 1.1-1.6 1.6-3.9 1.6-4.1 1.1-2.3-.3 2-.9 3-1.9 5.4-2.2 4.6-1.7 2.8-1 3-1.3 7.2.2 3.7 1.1-4.7-.2 3.6.5 2.5 1.4-2.7v1.5l1.3-3.8 1.2-2.2-1 4.4-.6 3.1-.5 2.4-.7 2.2-.9.9-.7 1.4-.6 1.2-1 1-1.4.7-2.2.1-1.9-.8-1-1.5-.9-1.6-.8-1-.8-1.6zm-44.9 22.18l-.9 1.3-1 .95-1.25.6-1.4.08-1.82-.3-.95-.4-.52-.5 1.6.4h3.24l.94-.3 1.17-.8z" fill="#9497a2" stroke-width=".16"/><path d="M528.7 60.47s-.04 0-.04.03l.66.8.6.45c.2.07.58.37.87.6 1.8 1.23 2.2 1.52 2.3 1.67.1.07.3.22.5.3l.8.58.4.44.2.07c.1.1.1.1.1.2-.2.2-.3.2-.3 0 0 0-.2-.1-.5-.1-.4 0-.5 0-.5.1s-.1.2-.2.2-.2.1-.3.2c-.1.2-.3.2-.3.2-.1 0-.1.2-.1.3 0 .2 0 .4-.1.4l-.2.3c-.1.2 0 .3 0 .3.1 0 .2.1.2.2s0 .2.1.3c.1.1.1.2.2.4l.2.3c.1.2.5 1.1.4 1.1-.1.1-.2-.1-.6-.6-.6-.8-.8-.8-.4-.2.3.7 1.7 3.4 1.7 3.5 0 .3-.5.2-.6-.3-.2-.3-1-1.5-1.6-2.1-1.3-1.2-3.6-2.9-5.3-3.8-1.4-.7-3.1-1.2-4.5-1.4-.3 0-.8-.1-1.1-.2-1-.3-3.3-.7-4.1-.7-.5 0-.8 0-1 .1-.5.2-1.2.5-1.4.5 0 0-.2 0-.2.1-.1 0-.1.1-.2.1-.4 0-1 .2-1.1.3-.2.1-.2.1-.4.1-.1 0-.3.1-.5.3-.2.1-.5.2-.6.2-.2 0-.4.1-.5.2-.2.1-.4.2-.5.2-.1 0-.2.1-.2.2-.1.1-.2.2-.3.2-.1 0-.3.1-.3.2s-.2.2-.3.2c-.2 0-.3.2-.4.3s-.2.1-.3.1c-.1 0-.2 0-.3.1-.1.1-.3.1-.3.2-.2 0-.2.1-.3.2-.1.1-.2.1-.3.1s-.2.1-.3.2c-.1.2-.2.2-.3.2-.1 0-.2 0-.3.1-.1.2-.1.2-.2.2s-.2.1-.4.3c-.2.1-.2.2-.3.2-.1 0-.2.1-.2.2-.1.1-.1.2-.2.2-.4 0-.2-.7.1-.8l.2-.2.1-.1.2-.2c.1-.2.1-.2.2-.1 0 .1 0 .1 0 0l.1-.3c.1-.2-.2-.1-.6.2-.1.1-.2.2-.3.2-.1 0-.1 0-.1.1l-.4.2c-.4.2-.4.2-.6 0-.2-.1-.5-.1-1.1-.1-.5 0-1 .1-1.3.1-.9.2-2.3.6-2.4.8-.1 0-.5.1-.8 0-.8 0-1.5.1-1.6.2-.1.1-.4.1-.6.1h-.5c-.1.1-.3.1-.5.1-.3 0-.6.1-1 .3-.8.4-1.3.7-1.4.8-.1.1-.1.2.1.1.1-.1.3-.1.5-.3.5-.3 1.3-.4 1.8-.3.3.1.5.1.9 0h.8c.2 0 .6-.1.9-.2l1.2-.3c.3-.1.8-.2 1.1-.3.6-.2 1.3-.2 1.3-.2s.1.1.2.1.2 0 .3.2c0 .2 0 .3.3.2.3-.1.4.1.1.1-.3.1-.4.3-.1.4.1 0 .1.1.1.3 0 .1 0 .1.1.1v.1c0 .2 0 .3.1.3V71c0-.1.1-.17.3-.17.3 0 .3 0 1.2-.6l.8-.5.2-.1c0-.1.1-.1.1-.1s.2 0 .3-.2c.1 0 .2-.2.3-.2.1 0 .2-.1.3-.2 0 0 .2-.1.3-.1 0 0 .2-.1.3-.2 0-.15.1-.2.2-.2s.2-.1.3-.2c0-.1.2-.2.3-.2 0 0 .2-.2.3-.2 0-.1.1-.2.2-.2s.2 0 .3-.1c0-.1.1-.1.3-.1 0 0 .2-.1.3-.2 0-.1.2-.2.3-.2 0 .1.1 0 .2-.1 0-.06.2-.1.3-.1 0 0 .2 0 .3-.1.5-.3 2-.9 2.3-.96.4-.1.9-.2 1.7-.5.3-.15.8-.3.9-.3.2-.1.5-.1.6-.14.3-.1.3-.1 2.6.33 3.5.8 4.5 1 5.8 1.6 1.5.6 2.9 1.4 4.5 2.7.7.5 2.1 1.9 2.1 2l.3.4c.1.1.4.6.7.9.5.8.7 1 .9 1 .2 0 .2-.1.2-.4 0-.3 0-.5-.5-1.3l-.2-.5c0-.1 0-.1-.1-.1 0 0-.1-.1-.1-.2s0-.1.1 0l.6.9c.4.6.9 1.5 1.9 3.4.3.5.5 1 .5 1l.3.6c.7 1.2 1.1 2 1.3 2.3l.1.2.3.5c.3.5 1 1.6 1.4 2.34l.9 1.5.8 1.1c-.6-.8-1.1-1.7-1.7-2.8-.5-.9-1.1-1.7-1.1-1.7s.8 1.97 2 4.3c3.7 7.4 5.1 10.5 6.1 13.4.1.5.3 1 .3 1.07.1 0 .2.3.2.5s.2.8.4 1.3l.4 1.5.3 1.3c.6 2 1.1 5.6 1.2 7.9 0 .9.1 2.1.2 2.6l.2 1.1c.1.5 0-1.7-.1-4.94V107c.1-.34.1-.34.2.1.1.8.6 6.3.8 9.96.1 1.7.3 4.1.5 4.7.1.3.2.4.4.5.3.1.6 0 .6-.2 0-.1.1-.3.2-.55.5-1 .3-10.5-.3-13.5-.2-.6-.1-.7.2-.6.4.3.6 1.2.6 2.2v.7c.1-.1.1-.2.2-.2h.2c.1 0 .1-2.5-.1-4.6-.1-1.7.1-.8.6 1.9.1.8.4 3.3.5 5.2.1 1.6.1 1.9.4 3.2.3 1.1.5 2.8.6 4.4.1 1.7.5 3.5 1 4.9l.1.3.2.5c.1.5.4.4.5-.1.1-.4.3-.8.6-.9.2 0 .3-.1.3-.2s.1 0 .2 0 .2 0 .2.1c0 .2.5.1.7-.2.3-.2.8-1.6 1-2.8.2-.9.4-2.6.4-2.9 0 0-.18-.6-.2-1.1l-.4-2.8c-.5-2.9-.5-3.4-.4-3.7.2-.2.4-.1.4.3.1.2.12.7.3 1.3.33 1.5 1.1 6.1 1.3 8.1l.13 1.3c.1.1 1.1.1 4.7.1h4.7l-.1-.5-.2-1.5c-.4-2.6-.6-4.2-.8-5.9-.2-2.4-.4-3.5-.3-2.1v1l-.5-1.3c-.3-.7-.7-1.4-.74-1.6-.1-.1-.3-.4-.3-.6-.2-.3-.9-1.1-1.3-1.4-.3-.1-1-.1-1 0s-.1.3-.2.3c-.4.4-.5 1.4-.6 3.6 0 1.1.1 2.1.1 2.3.05.2.05.3 0 .3-.1 0-.2-.3-.2-.5l-.3-1-.2-.7v.8c0 .4.1 1.1.1 1.7.3 1.7.2 1.6-.6-.3-.5-1.3-1.4-4.2-2-6.3-1.2-3.9-3.5-10.8-4.7-14.3l-.2-.6-.1-.3.1.3 1 1.6c.9 1.5 1.73 2.8 1.73 2.5 0-.1-.1-.6-.2-1.1-.7-2.8-1-4.1-1.1-5.6 0-1.3 0-1.6.15-2 .1-.5.2-.5.3-.4.9.8.9.8 1.5 1.1.1.2.33.2.33.2l-.4-1c-.3-.6-.5-1-.5-1.1 0-.2.6.9 2.1 3.9.8 1.6 1.5 2.9 1.5 2.9 0-.2-2.6-5.6-3.2-6.6-.3-.5-.7-1.2-.8-1.6-.2-.3-.5-.8-.6-.9l.1.1c.1.1.2.1.2.2s.5 1 .5 1.1l.3.5.3.5.3.7c.4 1 .7 1.6.9 1.7l.3.7 1 2.1c.8 1.5 1.3 2.7 1.3 2.8l.3.4c.38.8.5 1.1.6 1.6.1.3.2.5.3.6 0 0 .1.2.1.3v.3s0 .2.1.2.1.2.1.3.1.2.1.2l.1-.1c0-.2 0-.2.1-.1v.1c-.1 0-.2.2-.2.3 0 .2.1.2.3.2s.1 0 .1.2c0 .1.2.4.3.9.2.4.8 2 1.3 3.6 1 3.1 1.1 3.3 1.1 3.1 0-.2-1.6-5.1-2.1-6.4-.3-.9-1.2-3.9-1.62-5.6-.6-1.9-1.1-3.5-1.7-4.8l-.2-.5c0-.1-1.4-2.8-2-3.9-1.1-1.9-1.8-3.1-3.7-5.9-.6-1-1.4-2.1-1.6-2.5-1.1-2-2.5-4.1-3-4.5 0 0-.2-.3-.5-.6-.5-.6-1.1-1-3.6-2.6-2.7-1.6-5.1-3-6.8-3.9l-1.2-.6-1.8-.9c-2.8-1.4-5.3-2.3-8.9-3.6-1.4-.5-2.7-.9-3-1.1-.1-.1-.4-.1-.4-.1zm5.4 2.3c.07 0 .07 0 .15.06.07.05.14.12.14.16h-.1s-.1-.1-.1-.2v-.1zm1.1.28c.15 0 .3.04.3.08.07.04.14.07.2.07.16 0 .23.04.23.07 0 .05.08.1.15.1.07 0 .22 0 .37.06.3.15.58.22.87.37.22 0 .37.07.37.15 0 0 .1.07.2.07s.1 0 .1.07h.1l.5.1.6.3.3.1h.1s.2 0 .3.1c0 0 .8.3 1.6.7l1.7.8.7.4c.3 0 .5.2.5.3h.3l.6.3.5.3h.4c.1 0 .1 0 .3.1l1.1.7.3.2c.2.1.4.3.7.4l.5.3v.1c.1 0 .6.3.7.4l.1.1c.1 0 .1 0 .3.2.1.1.3.1.4.1s0 0 0 .1.1.2.2.2c.1.1.3.2.3.2 0 .1-.1.4-.2.4s-.3.2-.3.4 0 .1-.2.1c-.1 0-.1-.1-.1-.2s-.1-.2-.3-.2c-.2 0-.2 0-.2.2l-.1.1c-.1 0-.1.1-.1.1 0 .1-.1.1-.2.1s-.2.1-.2.2-.1.2-.2.2h-.2s.1.1.2.1.1.1.1.2 0 .1-.1.1-.2 0-.2-.1-.2-.1-.5-.1c-.4 0-.5 0-.5.2 0 0 0 .1-.1.1h-.3c-.1 0-.2 0-.3-.1-.1-.1-.8-.7-1.2-1.1-.2-.1-.5-.3-.5-.3-.1 0-.2 0-.2-.1s-.1-.2-.2-.3l-.2-.2-.6-.5-.6-.6c0-.1-.1-.1-.1-.1s-.2-.2-.5-.3c-.1-.2-.4-.3-.4-.3-.1 0-.2-.1-.3-.2-.1-.1-.1-.2-.2-.2s-.2-.1-.2-.1-.1-.2-.2-.2h-.1c0-.1-.1-.1-.2-.1-.3 0-.5-.1-1.1-.6l-.5-.4-.5-.4c-.3-.3-.4-.3-.7-.5-.1-.1-.4-.2-.5-.4-.1-.1-.3-.3-.5-.4-.1 0-.4-.3-.5-.4-.4-.4-1.5-1.1-1.5-1.1-.1 0-.3-.2-.3-.3v-.1s-.1-.1-.1-.3c.1-.2.1-.3-.2-.2-.2 0-.2 0-.2-.2s0-.3-.1-.3-.1-.1-.1-.3c0-.4 0-.4.2-.4zm-.73.3c.07 0 .22 0 .22.08 0 0 0 .08-.2.08h-.2.1zm-15.25.97c-.34-.03-.6.02-1 .1-.48.13-1.15.34-1.48.5-.3.13-.88.3-1.25.38-.6.1-3.3 1.24-3.6 1.5 0 .04-.3.2-.5.3-.3.13-.7.4-.9.58-.2.2-.5.35-.7.35-.1 0-.2.07-.2.15 0 .08-.1.14-.2.14s-.4.18-.7.4c-.2.14-.6.36-.7.36-.1 0-.2.07-.2.14 0 .08-.1.15-.2.15s-.5.15-.8.44c-.9.7-2.4 1.6-2.6 1.6-.3 0-.3-.8 0-1 .1-.1.1-.2 0-.2-.2 0-.4-.2-.7-.5-.2-.3-.6-.5-.7-.5-.6 0-2.1.3-3.4.8-1 .3-1.4.4-2.1.4-.8 0-1 0-1.8.4-2.1 1.1-8.3 6.3-11 9.1-3 3.2-3 3.5 0 .5 2.1-1.9 2.2-2.1 3.3-3 .4-.3 1-.9 1.5-1.4.5-.5 1.1-1 1.4-1.1l.6-.4c0-.1.3-.2.5-.2.6 0 2.3-.8 2.8-1.2.5-.5 3-1.7 3.8-1.9.5-.1.6-.1 1.1.6.6.6.7.8.8 1.5l.2 1.3c.1.2 0 .4-.1.4-.2 0-.1.1 0 .3.1.2.1.2 0 .2s-.2.1-.1.2c.1.2-.7 1.2-1.8 2.1-2.2 1.7-3.8 3.4-3.5 3.9.3.4-1.1 2.3-3.6 5.3-.3.4-.5.7-.5.7 0 .1-.8 2.1-1.8 4.4-3.2 7.4-4.2 9.9-4.6 12.5l-1.5 7.1c-1.4 7-1.8 9.5-1.7 13.9 0 1.8.1 3.4.1 3.4.1 0 .3-.1.5-.3l.4-.3.2-2.2c0-1.1.3-3.1.4-4.4.2-1.3.3-2.6.3-3.3 0-.6 0-1.5.1-2.1.2-1.5 1.2-4.3 1.7-5.1.3-.5.5-.8.5-1 0-.2 1.5-2.8 1.8-3 .2 0 .2.2.1.6-.1.8 0 .9.4.5.2-.1.5-.2.8-.2.2 0 .4-.1.6-.2.1-.1.2-1.2.4-2.4.3-2.7.5-3.7.7-3.5.1.1.1.4.1.8v.7l.1-.8c.3-1 0-2.4-.5-2.9-.9-1-2.5.2-3.6 3-.3.7-.6 1.3-.7 1.3-.3.3.1-2.2.6-3.6.8-2.6 3-7.3 4.8-10.1 1.3-2.3 1.5-2.4 1.3-.9-.2 1.2-.2 1.4.1 1.4 1-.1 1.3 0 1.8.7.3.4.5.7.6.7l.1.2c0 .3-.2.4-.7.5-.2.1-.7.7-.6.8 0 .1-.1.2-.3.2-.3 0-.3 0-.2.1.1.1.3.1.4 0 .3-.1.3.4 0 1.4-.3.9-.3 1.1-.1 1.9.1.5.1 1.2.1 1.6v.6l.6-.1c1.2-.2 2-.7 3.5-2.5.6-.8 1.1-1.5 2.4-4 .3-.6.6-1 .7-1 .1 0 .2.4.1.9-.1.9 0 .9.3.8.3-.1.4.2.5 1v.3l.3-.4c.3-.3.3-.3.3 0 0 .1-.2.8-.2 1.4-.2 1.1-.2 3.2.1 3.2.1 0 .2-.3.2-.6s.2-.7.3-.9l.3-1c.2-.6.8-1.3 1.2-1.3.1 0 .2.1.2.2s.1.1.5.1c.4-.1.5 0 .5.2-.1.1-.1.2 0 .1.2-.1.3 1.9.3 5.7v3.2l.3-.6c.1-.3.5-.9.8-1.2.4-.5.6-.6 1.2-.6.4 0 .7.1.7.2s.1.1.2.1c.3-.2.9.7 1.1 1.7.1.5.2 1.4.2 1.9 0 1.2.2 1.2.4.1.1-1 .6-2.3 1-2.7.2-.2.3-.3.3-.2 0 .1.2.2.4.2s.5-.1.5-.1h.2c.2 0 .3.3.5.9.3 1.2 1.2 3.8 1.3 4 .4.6 1.3-.6 2-2.4.8-2 1-3.6 1-6.5 0-2.7 0-4.5-.4-7.5-.1-1-.2-2.2-.2-2.6v-1l.4 1c.4.7.5 1 .6.8.1-.1.2 0 .4.3.3.8 1.2 2.3 1.4 2.3 0 0 .1-.1.1-.2 0-.2 0-.2.1 0s.1.4 0 .5c-.1.2-.1.5 0 .7 0 .4 0 .4.2.1v-1c-.1-.2-.1-.2 0 0 .1 0 .4.9.7 1.8 2.3 5.8 5.2 10.5 7.7 12.5.8.6 1.5.9 1.4.6l.2-.8c.1-.4 0-1.2-.1-1.7-.1-.6-.2-1.1-.1-1.1s.3.5.6 1c1.2 2.4 2.4 4.2 3.5 5.4.7.7 1.4 1.3 1.6 1.3.3.2.5.5.9 1.3.3.6.5 1.1.6 1.1.2 0 .2 1.2 0 2.6 0 .2.1.9.1 1.5.1 1.1.1 1.7-.2 1.3-.1-.1-.2-.2-.4-.2-.4 0-.5-.2-.2-.3.2 0 .3 0 .3.1s.1.2.2.2c.4 0 .2-.4-.2-.5-.2-.1-.4-.2-.4-.3 0-.1 0-.2-.1-.2s-.1.1 0 .2c.3.8-.8 1-2 .4-.2-.1-.4-.1-.4-.1-.1.1 1.1 4.3 1.5 5 .2.3 1.4 3.5 1.4 3.6l-.6-.5c-.4-.3-.6-.5-.7-.5-.1.2.5 1.3 1.6 3 .7.9 1.1 1.7 1.1 1.8 0 .1.4.8.6.8.1 0 .6.5 1.1 1.2 2.7 3.5 7.9 8.8 10.6 10.9 1 .7 1.8 1.4 1.6 1.4-.2 0-1.5-.5-2.7-1.4-.6-.4-1.2-.7-1.2-.6 0 .1.3.5.8 1 .9.8 1.2 1.6.6 1.4-.5-.3.4.5 1.9 1.3 2.7 1.6 2.6 1.6 5.1 1.9l.6.1-.7-.6c-.3-.4-.6-.8-.6-.9.2-.4 1.1.4 1.6 1.2.3.5.6.8.8.9.2.1.6.1.7.1.3 0 .2-.1-.1-.1-.4-.1-1.1-1.2-1-1.4 0-.1-.3-.5-.7-.9-.4-.4-1-1.3-1.4-2-.7-1.3-5.3-10.3-6-12l-1.2-2.6c-.5-1-.9-2.2-1.4-4.3-.3-1.6-.8-3.5-1.1-4.3l-1.4-4.7c-1.5-5.1-1.6-5.6-3.2-10.6-1.5-4.8-2.1-6.2-2.1-6.2s.2 1 .5 2.2l1.7 6.2.9 3.1c.2.7.4 1.4.4 1.6 0 .6-1-1.8-1.2-2.8l-.5-2.3c-.2-.8-.8-2.9-1.3-4.8s-.9-3.8-1-4.1c-.1-1.5-.7-3.2-3.3-9.8-1.4-3.9-1.7-5.3-1.1-6 .6-.7 1.6-.4 2.6.7 2 2.2 6.1 10.5 8.7 17.8.5 1.5 1.1 2.9 1.3 3.2l.2.6.1-1.4c.2-1.6 0-2.8-.6-4.9-1.2-3.7-3.4-8.1-7.2-14.6-2.7-4.4-3.1-5.2-3-5.2.1-.1 1.1.5 1.8 1.2 2.1 2.1 6.5 10.2 9 16.7.5 1.2 1.3 2.7 1.3 2.5 0-.5-1.4-4.1-3-7.5-1.4-3.1-8.8-18-9-18-.1 0-.1 0-.1-.2 0-.1 0-.2-.1-.1s-.2 0-.3-.1h.1c.2.2.2.1-.1-.5-.2-.3-.2-.4-.5-.2-.4.3-.6.1-1.1-.9-.7-1.2-1.8-2.5-3.6-3.8-2.8-2-4.6-2.8-10.2-4-.8-.1-1.2-.2-1.6-.2zm15.9.1h.07v.16c-.1.07-.1.07-.1 0-.1-.08-.1-.15 0-.15zm6.6 5.97c.58 0 1.63.6 2.56 1.4.66.6 1.2 1.2 1.45 1.5l1.24 1.4c.6.6 1.12 1.3 1.18 1.3l.88 1 .7.9.78 1.1c.2.2.4.4.5.6l.5.5c.2.1.2.3.2.4 0 .1.1.2.1.2h.1c0 .1.1.1.2.3.2.1.2.2.2.3 0-.1-.1-.2-.1-.2 0-.2-.2-.4-.3-.4v-.1c0-.2-2.2-3.2-3.3-4.5-1.9-2.4-3.2-3.9-3.8-4.4-1.1-1.1-2.4-1.6-2.7-1.3-.1 0 0 .3.3.7 1.5 2.4 2.5 4.3 3.4 6.3l1.1 2.2c.2.2.2.4.3.7l-.2-.3c-.7-1.4-.7-1.6-1.2-2.7-.3-1-1-2.4-1.6-3.3l-.4-.9-1.4-2.1c-.2-.3-.2-.6 0-.6h.2zm-6.95.2h.03c.02 0 .02.1 0 .1-.03 0-.05 0-.05-.1 0 0 0-.1.02-.1zM552 71.9h.1l.13.07c.03 0 .04.07.04.07 0 .04-.07.04-.15.04-.07 0-.14 0-.14-.07h.07zm-6.8.36c.1 0 .62.47 1.02 1l.4.57c-.03.14-1.38-1.33-1.43-1.47zm7.94.55c.07 0 .14.1.14.3 0 .1-.14.1-.22.1-.22 0-.3 0-.14-.2h.07zm-.15.7c.2 0 .2.1.2.2-.1.2-.7.2-.7 0h.3zm-4.6.8s.1.1.1.2c0 .2-.2.2-.3.1-.2 0-.1-.1 0-.1zm2.5 1v.3c0 .1-.1.1-.1.1-.1 0-.2 0-.2-.1s0-.1.1-.1zm-1.3.2c.1 0 .1.1.1.2 0 .2-.2.3-.3.1-.2-.1-.2-.2.1-.2zm4.4.2s.1.1.1.2-.1.2-.2.2-.2 0-.2-.1 0-.1.1-.1zm.8 0s.1.1.1.2-.1.2-.2.2-.2 0-.2-.1 0-.1.1-.1zm.7.5v.1l.1.3c0 .1-.1.1-.1.1h-.1c0-.1-.1-.1-.1-.1-.1 0-.1 0-.1-.1zm-5.1.1s.1.1.1.2v.4s-.1.2-.2.2-.1 0-.1-.1-.1-.1-.2-.2c-.2-.1-.1-.3 0-.3zm.5.8l.1.2c0 .2.1.6 0 .6s-.1.1-.2.2c0 .1-.1.2-.1.2-.2 0-.2-.1 0-.3v-.3c-.2-.2-.1-.4 0-.4zm4.8.5s.1 0 .1.2-.1.2-.2.2c-.2 0-.2-.1-.2-.1 0-.1 0-.1.1-.1zm-1.4 1.9h.3c.2 0 .4.1.5.1 0 .1.1.2.2.2 0 .1.1.2.1.2l.1.2.3.3c0 .2.2.3.2.3l.2.2s.2.3.3.3v.1c0 .1.1.1.1.1.1.1.2.2.2.3v.1l.1.1v.1l.4.6.5.8c0 .1.2.2.2.2.1.1.1.1 0 .2l-.1.1c-.1-.2-1.1-1.5-1.3-1.7-.4-.4-1.6-1.2-1.7-1.2-.1 0-.2-.1-.2-.1-.2-.3-1.5-.6-1.5-.3 0 .1-.1.1-.1.1s-.3.1-.4.3l-.3.2.1-.1.1-.1h.1s0-.1.2-.1c.1 0 .2 0 .2-.1s0-.1.1-.1zm-2.4 0c-.1.1-.2.2-.3.2-.1.2-.3.3-.3.2v-.2s0-.1.2-.1zm6.2.8s.1.1.1.2v.1h-.2c-.3-.1-.3-.2-.1-.2zm-.7.2v.2c0 .2-.1.2-.2.2-.2 0-.2-.1-.2-.2 0 0 .1-.1.2-.1zm-4.2.1v1.1c0 .8.1 1.4.2 1.6h-.1c-.2 0-.2-.1-.2-.5 0-.3-.1-.5-.1-.5s-.1-.4-.1-.9v-.6zm-1.3.7v.2c0 .2-.1.2-.2.2-.2 0-.2-.1-.1-.2h.2zm-5.8.4c0 .2.1.7.3 1 0 .2.1.3.1.5l-.4-.6c-.2-.3-.2-.5-.2-.8zm5.5.3s.1.1.1 0c.2 0 .2 0 .1.4v.3c.1-.1.3.1.2.3-.1.1-.4.1-.4-.1 0-.1-.1-.1-.1-.1-.1 0-.2.1-.2.1 0 .1-.2.1-.3.1-.2 0-.3.1-.4.1-.1.1-.3.1-.5.1s-.2.1-.2.1c.1 0 .3-.1.3-.1.1-.1.2-.1.4-.1.1 0 .3 0 .3-.1s0-.1.1 0 .1-.1.1-.2-.1-.3-.2-.3h-.1zm.6 0v.1c0 .1 0 .2-.1.2s-.1-.1-.1-.2V82zm-5.8.1l.1.2v.2c-.1.1-.1 0-.2 0s-.1-.2 0-.2zm3.9 1.1c-.1.1-.1.1-.1.2 0 .2-.1.2-.2.2h-.1v-.1l.1-.1.1-.1zm2.5.3c.1 0 .1.1 0 .2-.2.1-.2.1-.2 0s0-.1.1-.1zm.6.1v.4l.1.7c.2.4.2.5.1.5l-.2-.3-.1-.5c-.1-.1-.1-.3-.1-.5v-.2zm5.4.1c.1.2.3.5.5.8.1.2.2.4.3.4 0 .1.1.2.1.2 0 .1 0 .3.1.4v.3l-.2-.3c-.2-.3-.5-.9-.7-1.2-.2-.1-.2-.3-.3-.4zm-12.2.1l.1.5c0 .5 0 1.1.1 1.3.4 1.7.1 4-.5 4.4-.1.1-.2 0-.3 0l.1.1c.1 0 .4-.4.5-.8.2-1.2.2-2.1 0-3.3-.1-.4-.2-1-.2-1.2 0-.1-.1-.3-.1-.3-.1 0-.1-.3 0-.5zm6.5.9l.1.1.1.1h-.4zm-3.3.2v.3l-.1-.2zm10.4.3l.1.1v.1c-.1.1-.3.1-.3 0s.1-.2.1-.2zm-10.3.1h.1s.1.1.1.3c0 .2 0 .3.1.3 0 0 .1.1.1.2v.1c-.2-.2-.2-.4-.2-.6 0 0-.1-.2-.2-.3zm3.4 0h.2c-.1 0-.1.1-.1.2s.1.1.2.1h-.2c-.2.1-.3.1-.3-.1V85zm.3.5v.3c-.1.4-.1.4 0 .4l.1-.1c0 .2-.1.2-.2.2s-.2 0-.2-.3 0-.4.1-.4zm6.3.4c.1 0 .1.1.1.2zM543 86c.23.36.53.8 1.04 1.46.6.8 1.47 1.7 2.13 2.13-.3-.2-.66-.5-.96-.8-.7-.7-1.4-1.6-2.2-2.8zm7.78.07v.06c.05.08.13.15.13.22l-.2-.3zm3.72.06l.07.08.06.2h-.07V86zm7.03.15l.07.08c0 .08 0 .08-.07.08s-.07 0-.07-.08v-.07zm-6.9.16c0 .07-.06.07-.2.07-.3.1-.37.3-.15.4h-.14c-.07 0-.07 0-.07-.1 0 0 0-.1.2-.1h.3zm-3.65.07s.08.1.08.2l-.07-.1zm.16.3l.07.1c.1 0 .1.1.1.3s.1.2.2.2c.2.1.2.2.2.2l.1.2v-.1l-.1-.2s-.1 0-.1-.1l-.1-.3zm1.17.4c.1 0 .2.1.2.2 0 .2-.1.2-.1.2s-.1 0-.1-.1 0-.1.2-.1zm2.5.1c.1.2.2.5.4.7h-.1s-.1 0-.1-.2-.1-.2-.1-.2c-.1 0-.1 0-.1-.1v-.7zm-2.8.3c.2 0 .3.1.3.2 0 .2-.1.2-.2.2h-.1v-.1c.2-.1.3-.3.1-.3-.1 0-.1.1-.1.2s-.1.1-.1.1h.1s.1-.1.2-.1zm-.1.4s-.1 0-.1.1.2.3.3.3c0 0 .1.1.1.2v.2l-.3-.3c-.1-.1-.1-.2 0-.3zm3.4.1c.1.2.2.3.2.4v-.3zm.2.5v.2c0 .2.1.4.2.4.1.1.2.2.2.4l.2.4s.1 0 .1.1c-.1 0-.1-.1-.1-.2v-.1c-.1 0-.1-.1-.1-.2s0-.2-.1-.3c-.2-.1-.2-.1-.2-.4l-.1-.1zm-3.1.3l.2.1.2.2s0 .2.1.2.1.1.1.3.2.3.3.5c.2.2.3.3.3.4s0 0 .1 0 .1.1.1.2v.1-.1c-.1-.3-.3-.6-.4-.6-.1 0-.2-.3-.4-.5-.1-.3-.2-.5-.3-.7zm-40.6.5v.1c.1.1.1.5 0 .7-.1.2-.1 0-.1-.3s.1-.4.1-.4zm42 .3c.4 0 .8.5.8.8 0 .2 0 .3.1.3s.2.1.2.4v.5h-.2c-.2 0-.3 0-.3-.1v-.1h-.1s-.3-.5-.3-.6l-.1-.1v-.2c0-.2 0-.2.3-.2zm-58.9.2c.2 0 .5 0 .7.2.1.1.2.2.1.2l-.5.2c-.5.2-.6.1-.6-.2 0-.1.2-.2.4-.2zm61.4.2l.3.4v-.1c-.2 0-.2-.1-.2-.2zm-.7.3c.2 0 .2 0 .2.1s0 .1-.1.1-.1 0-.1-.1.1-.1.2-.1zm.5 0c.2 0 .2 0 .2.1s0 .1-.1.1-.2 0-.2-.1.1-.1.2-.1zm.5.1c.1.1.1.2.2.3-.1 0-.1-.1-.1-.2v-.1zm-3 .1v.1c.1 0 .1.2.2.3l.1.2c-.1 0-.1-.2-.2-.4zm-58.4.3s.1 0 .1.1c.1.1.1.3.1.5v.4-.3c-.1-.2-.1-.4 0-.4zm61.6.1c0 .2 0 .2.1.3-.1 0-.1 0-.1-.2v-.5zm-2.8.2c.2 0 .2.2.1.2v-.1h-.1zm3 .3c.1.1.1.1.1.3 0 .1.1.3.3.4 0 0 0 .1.1.1-.1-.1-.1-.1-.2-.1s-.1-.1-.1-.4c0-.1 0-.2-.1-.2zm-1.9.4c.1 0 .2.1.2.3s-.1.2-.2.2-.1-.1-.1-.2 0-.2.1-.2zm1.7 0c.1 0 .2.1.2.3s-.1.2-.2.2-.1-.1-.1-.2.1-.2.1-.2zm-2.6.1l.1.2c.1.2.2.4.2.5l.3.5.2.3.1.3-.1-.3-.6-1.3zm3.1.2c.1.1.2.2.2.4v-.8s0-.1-.1-.1zm.2.8c0 .2.1.3.3.4h-.1c-.2-.1-.3-.3-.2-.3V93zm-.3.4c.1 0 .2.1.2.2s-.1.2-.2.2-.2 0-.2-.1 0-.1.2-.1zm.6.1c.1.1.2.3.2.5s.1.5.2.5v.1-.1l-.1-.1s-.1-.2-.1-.4c0-.1 0-.2-.1-.2zm-1.3.3c.1 0 .2.1.2.2 0 .2-.1.2-.1.2-.1 0-.1-.1-.1-.2s0-.1.2-.1zm-1.4.1l.2.4.3.6 1.6 3.3.2.5.2.5c.1.3.5 1.1.8 1.8-.3-.7-.8-1.5-1.3-2.6l-2.2-4.4zm2.7.5h.1c.1 0 .1.1.1.1h-.1v-.1l.1-.1zm.7.4c.4 1 1.6 4.2 2.6 7.1.3.8.6 1.8.7 2v.2l-.6-1.7v-.2c-.1 0-.1-.1-.1-.2s-.1-.1-.1-.2v-.1c0-.1-.1-.3-.1-.3-.1-.1-.1-.3-.1-.5l-.1-.4c-.1 0-.1-.1-.1-.2s-.1-.5-.4-1l-.7-1.8c-.1-.5-.4-1.1-.4-1.1V96l-.1-.4c-.1-.2-.2-.3-.2-.4V95zm-1.2.2c.1 0 .2.1.2.2s0 .2-.1.2l-.1-.1c0-.1 0-.1.1-.1zm-45.6 1c.2 0 .2.2.2.8 0 .5-.1 1.1-.1 1.3-.1.4-.1.3-.4-.6-.1-1-.1-1.2 0-1.2.1-.1.2-.1.3-.1zm-15.6 5.4c0 .1-.1.2-.3.3-.2.1-1.2 1.1-1.3 1.3 0 .1-.1.1-.1.2-.1.1-.1.2-.1.3l-.4.7-.3.8c-.2.3-.3.4-.7.1-.2-.1-.3-.2-.4-.2s-.3.2-.4.4c-.1.2-.3.3-.4.3 0 0-.1.1-.3.2-.3.3-.3.4-.5 1.8-.1 1.1-.3 2-.8 4.2-.2.8-.3 1-.6 2.7-.3 1.5-.8 3.1-.9 3.6-.1.1-.2.5-.4.9l-.4 1.3c-.1.4-.4 1.1-.5 1.6-.6 2.2-1.1 3.3-1.6 3.8 0 .2-.2.3-.2.3 0 .1-.9 1.8-1.4 2.7l-.6 1.1-.1.3v.2s.1.1.1 0c.2-.2 1-.8 1.2-.8.3 0 1.5-1.3 2.2-2.3.1-.2.3-.4.4-.5h.1s.2-.2.4-.3c.2-.2.6-.7.9-1.1.7-1.1 1-1.5 1.1-1.5v-.2l.2-.2c.1-.1.2-.2.3-.4.1-.1.1 0-.1.2l-.3.5c-.1 0-.1.1-.1.1s-.1.3-.4.7l-1.2 1.9c-.1.2-.4.7-.7 1.1-.6.9-1.1 1.8-1 1.8.2 0 .8-.6.8-.7 0-.1 0-.1.1-.1.2 0 .6-.5 1.2-1.3l1.2-1.5c.8-1.1 2-2.8 2-3l.4-.6c.2-.3.7-1 1.1-1.7.3-.7.7-1.2.8-1.4l.6-1.2c.9-1.5 1.9-3.6 2.1-4.6.2-.4.2-.4 0-.6-.2-.2-.4-.2-.6.3-.6 1-1.4 2.1-1.5 1.9 0-.1.1-.2.1-.4l.8-1.9c.1-.2.2-1.2.1-1.5 0-.2.2-2.6.3-3.5l.7-2.9.5-2.3h-.1zm64.1 1.5l.7.8c.2.2.6.8.7 1.4.1.2.2.5.2.5 0 .1.1.4.1.4s0 .1.1.2c.1 0 .1.1.1.2s.1.3.2.6c.1.2.2.4.2.5 0 .1 0 .2.1.3 0 0 .2.6.4 1.3.1.6.3 1.2.4 1.2 0 0 .1.2.1.3.1.3.2.8.5 1.7.2.9.4 1.6.4 1.7-.8-3.2-1.8-6.7-2.3-7.9-.1-.1-.2-.5-.3-.8-.3-.8-.6-1.3-1.2-2l-.3-.3zm1.6.6c.3.8.7 2.2.8 2.8.1.4.3 1.1.4 1.4l.2.3c0-.3-.2-.5-.3-.6 0 0-.1-.2-.1-.5v-.4c0-.1-.1-.1 0-.2.1-.2-.4-1.9-.6-2.4l-.1-.3v-.2zm-8.5 1.2c.1-.1.1.1.2.3.1.2.1.5 0 .8 0 .4 0 .4-.1.2-.2-.4-.2-1.2 0-1.3zm-18.5.1c0 .1.1.2.2.4.1.3.1.3-.1.3-.1 0-.2-.1-.2-.3 0-.2.1-.3.1-.3zm.3.8v.1s-.1.2-.2.2-.1-.1-.1-.2c.1-.1.1-.1.2-.1zm.2.9s.1.1.2.4c0 .2 0 .4-.1.4s-.2-.2-.2-.5v-.4zm.5.6c.1.1.1.3 0 .4 0 .1-.1 0-.1-.2v-.3zm-.3.5v.1c0 .1.1.2 0 .3-.1 0-.1-.1-.1-.2zm27.9 1.2l.3.9.6 2.3.3 1.2c-.1-.1-.3-.8-.3-.9 0-.1-.1-.1-.1-.2-.1-.1-.2-.3-.2-.5l-.1-.5c-.2-.4-.4-1.1-.8-2.2zm-56.5 1.1c-.4-.1-.4-.1-.6 1.9l-.2 2.4c0 .3-.1.3-.2.2-.3-.2-.3-.1-.3.5 0 1.5-.5.5-.8-1.3-.1-1.4-.3-1.2-.3.3.2 4.4.3 8 .4 8.2.1.1.2.3.4.3.5 0 .5.1.8 2.9.1 1.1.2 2.2.3 2.5.1.3.1.3-.2.2-.2-.2-.4-.3-.5-.5-.3-.4-.5.1-.2.8.1.4.1.7.1.8 0 0 0 .1.1.1s.3.4.7 1.3c0 .3-.7.4-1 .3-.4-.3-.3.2.2 1.2.2.5.4.9.5 1 .1 0 .2.2.2.3 0 .5 1.1 2.2 2.2 3.3.5.6 1.4 1.4 1.9 1.6.4.3.9.5.9.4 0 0 0-.2-.1-.5-.2-.6-.7-3.2-.9-4.9-.3-2-.4-2.5-.9-2.5-.2 0-.4-.2-.9-1.1-.3-.6-.5-1.2-.5-1.3 0-.1-.1-.2-.3-.2-.3-.1-.6-1.5-.6-2.6 0-.5 0-.6.2-.2.2.4.2.4.5-.6.2-.4.2-.6.5-.5.1 0 .3.1.2.2 0 .1 0 .1.1.1s.1.1 0 .2c0 .1 0 .1.2.1.4 0 .7.8 1.3 3.1.3 1.1.6 2.2.7 2.2.1.1.5 1.1.9 2.2.8 2.2 2 4.6 2.7 5.5l.6.6-.1-.6c-.1-.6-.3-1.1-1.6-3.2-1.3-2.2-1.5-2.6-2-4.1-.6-1.8-1.1-4.1-.9-4.1.1 0 .1.1.1.2 0 .3.7 1.3.9 1.3.1 0 .2-.4.4-.9.3-1.3.3-1.4.7-.7l.3.6V115l-.5.3c-.4.3-.4.3-.8-.2-.1-.26-.4-.77-.5-1.1-.1-.6-.2-.7-.4-.5-.2.1-.3.1-.5-.2-.1-.25-.3-.3-.3-.3-.2.1-.1 1.9.1 2.84.2 1.1.2 1.1-.1 1.1s-.5-.8-.8-2.94c0-1.1-.2-2.2-.3-2.5-.3-.8-.9-1.4-1.4-1.5zm29 .2l.1.1v.4c-.1.1-.1 0-.1-.2 0-.1 0-.2.1-.2zm.6 1.4l.2.3c0 .2.1.4.1.5 0 .2-.2.2-.4.1-.1 0-.1-.3 0-.5v-.4zm28.2 1.8l.2.6v.1l.4 1.4c.1.3.4 1.3.6 2.1-.1-.2-.1-.3-.2-.5s-.1-.4-.1-.5c0-.1-.1-.2-.1-.2-.1 0-.1-.1-.1-.3 0-.1-.1-.2-.2-.4-.1-.1-.2-.2-.2-.4-.1-.3-.2-.6-.3-.8-.1-.1-.1-.3-.1-.4v-.1c0-.1 0-.1-.1-.1s-.1-.2-.1-.3c0-.2 0-.2-.1-.3zm-.5.9l.2.7.3.9.1.3v.4c.1.1.1.3.1.3.1 0 .1.2.1.3 0 .1 0 .2.1.2l-.2-.9c-.2-.5-.3-1-.4-1.5l-.2-.8zm-89.4 1l-.1.2c0 .1-.1.3-.2.5l-.2.4-.2.5-.5 1-.4.9c-.1.1-.3.6-.5 1.2s-.4 1.1-.5 1.1c-.1.1-.5 1.4-.5 1.6 0 .1-.1.3-.2.6-.2.6-.2.8-.3 1.3 0 .2-.1.4-.1.5l-.2.9-.3 1.4c0 .1-.1-.6-.1-1.4 0-.8 0-1.4-.1-1.4-.1-.1-.2.3-.3 1l-.2.6v1.3c-.1 0-.1.3-.1.4 0 .6-.4 2.8-.5 2.9-.1.1-.2.1-.1.2 0 .1 0 .2-.1.2h-.2c-.1-.2-.4-.8-.4-1.1l-.1-.4c-.1-.2-.1-2.3-.1-3.7 0-1.4 0-1.9.2-3.7v-.7c-.1.1-.3 1.6-.5 3.4l-.1 1.3-.2 1.3c0 1.3-.2 1.4-.3.4 0-.3 0-.5-.1-.6 0 0-.1.3-.2 3.1l-.1 2.5c-.1.6-.1 2.4-.1 4v3h.4c.1.1.1 0 .1-.1.1-.3.3-.1.3.2.3 1.9.3 1.6.6 7.9.2 3.1.2 3 .4 4.3l.3 1.4.2.9c.2 1 .3.4.2-1.4v-12.7c.1-.1.2-.1.3.6l.1 1.2c0 .2 0 .6.1.9l.2 1.1c.1 1.2.5 3.7.6 4.2.1.7.3 1.8.4 2.8.1.6.1 1 .2 1.1.1 0 .1.2.1.4.1.4.2-5.4.1-6l-.1-3.7c-.1-3.3-.2-5-.3-5.8 0-.3 0-.5.1-.6.1 0 .2-.5.2-.9 0-.5.1-.8.2-1 .2-.3.2-.4.2-1.5 0-1.3.3-3.3.4-3.8l.1-.3.1.5c.1.5.1 1.5.1 2.9l.2 2 .2 1c0 .1.1.1.2 0s.1 0 .1.8c0 1.1.1 1.9.2 1.9l.1.1c-.1.1.1.9.2 1 .1.1.2.5.3 1.3 0 .2.1.4.1.6v.4c0 .2.1.7.3 1.2.1.6.2 1.1.2 1.2 0 .2.1.2.1.2.1.1.1.2.1.3s.1.2.1.2v-.6c-.1-1 .2-.9.5.2.1.3.2.5.2.6.1 0 .2.2.2.3l.2.3c.1.1 0-1.1 0-2.4-.2-1.1-.2-1.7 0-3.6.1-2.2.2-5.2.1-8.4 0-2.8 0-4.2.1-5 .2-1.3.2-2.7 0-3.4 0-.4-.1-.4-.1-.2-.2 1.2-.8 2.5-.9 2.5-.1 0-.1-.2-.1-.6 0-.7 0-.9-.1-.7-.1.2-.2.1-.2 0v-.3s.1-.3.1-.8c0-.4.1-1 .1-1.4l.5-3.8c.2-1 .2-1.1.1-1.1zm90.4 2.5l.1.4c0 .2.1.6.2.7v.3l-.4-1.3zm.9.4v.2c0 .2.1.5.1.7-.2 0-.2-.6-.1-.7zm.1.9v.7c-.1-.1-.1-.3-.1-.4v-.1zm-.6.4l.1.2c0 .2.2.5.3.5v.2c0 .1.1.2.1.2-.1-.1-.2-.5-.4-.8l-.1-.3zm.7.5c0 .1-.1.2-.1.2-.1.2-.1.3 0 .5v.4-.1l-.1-.2c-.1 0-.1-.5 0-.5zm-.2.7v.1s.1.1.1.2v.1c-.1 0-.1-.1-.2-.2h-.1zm-2.5 2.9v.4c0 .3 0 .9.1 1.5l.1 2.1.1 1.9.1 1 .1 1.3.1 2.3v2.1l.2 5.7c0 4.1 0 4.7.1 4.2.1-.8.1-1.2.2-1.3l.1-.6c0-.2.1-.4.1-.5.1 0 .1-.2.1-.3l.1-.4c.1-.1.2-.4.2-.7.1-.3.1-.6.2-.7l.1-.3v-.2l.1.2c.1.3 0 1.5-.2 2.9l-.2.9-.3 1.9-.1.7-.1.5v.1c0 .1 0 .1.1.1.2 0 .2-.1.2-.2v-.3c0-.1.1-.2.1-.2 0-.2 0-.3.1-.3.1-.1.2-.1.1-.1 0-.1 0-.2.1-.3.2-.5.3-.6.3-.7 0 0 0-.2.1-.2.1-.1.1-.1.1-.2s.1-.2.2-.3c.1-.1.1-.1.1-.2 0-.2.3-.4.6-.5h.3l.2.2c.1.1.3.2.3.3l.1.2c.1.2.2.5.3 1.6.1.9.1 2 0 2.8 0 .4 0 .4.1.4s.1-.1.1-.2 0-.1.1-.1.1-.1.1-.1c0-.1 0-.2.1-.3.1-.2.2-.3.2-.4s0-.1.1-.2.1-.1.1-.2 0-.3.1-.4l.1-.6c.1-.4.5-2.3.6-2.6v-.2l.1-.5v-.5c0-.1.1-.6.1-1.1v-.1c.1 0 .1 1.3 0 1.4v.8l-.1.8c-.1 0-.1.2-.1.3 0 .3 0 1-.2 1.5v.4c0 .1-.2 1.3-.3 1.6l-.1.6c-.1.3-.1.6-.1.8l-.3 1.5-.3 1.4-.3 1.1c-.3.8-.5 1.6-.8 2.2l-.3.9-.2.6c-.1.2-.1.5-.3.8-.5 1.5-1.5 3.6-1.7 3.7v.3l-.4.6-.5.5c-.1.1-.1.1-.2.1v-.8s.1-.1.1-.2.2-.5.4-1c0-.1.2-.4.3-.8l.3-.9c.1-.1.2-.3.2-.4l.1-.2.1-.3.2-.5.2-1.1v-.2h-.2c-.2 0-.2 0-.3.1l-.2.2-.6.8-.2.5c-.3.5-.4.6-.6.6-.2 0-.2 0-.4.7s-.8 2.5-1.1 3.4c-.2.6-1 2.2-1.3 2.7-.2.4-.5.9-.8 1.6l-.4.8c-.2.5-.2.5-.2.6 0 0 .3-.1.4-.3l.6-.5c.1.1.1.4-.1.8-.3.5-1.2 1.9-1.6 2.3l-.1.2-.3.3c-.5.5-1.1 1.4-1.2 1.8-.2.3-.2.5-.2.6v.2h.1c.2 0 .6-.1.8-.3.1-.1.3-.2.4-.3.2-.1.5-.3 1.1-.8 1.3-1.3 2.9-3.5 3.5-5.1l.2-.4c.1-.1.2-.6.5-1.1l.2-.5c.1-.3.4-1.3.4-1.6 0-.4 0-.4.5-1.1l.7-1c.2-.4.4-.6.4-.5 0 0 0 .1.1.2 0 .1 0 .2-.1.4-.1.4-.1.6.1.7 0 .1.2-.3.3-.7 0-.3.1-.6.2-.8v-.3c0-.1 0-.1.1-.2s.1-.2.1-.2l.1-.3.5-1.3c.2-.6.4-1.1.5-.9 0 0-.1 1.6-.3 2.5 0 .4-.1.9-.1 1.1l-.1.6c-.1.2-.2.4-.3 1.4l-.2.7c-.1 0-.2.2-.2.3h-.1c-.1.1-.4.9-.4 1.1v.3c0 .1-.1.2-.1.4l-.2.4c-.1.1-.1.2-.1.2s.1 0 .1-.1.2-.3.2-.4l.1-.3c.1 0 .1-.1.1-.2s0 0 .1 0v-.3c.1 0 .1.2 0 .4l-.1.6c-.1.3-.1.5-.3 1.2-.2.5-.2.6 0 .7.3.4.3.6.1 1.4-.1.7-.2 1-.2 1.2 0 .1-.1.4-.2.6l-.2.5-.1.2v.3c0 .2-.1.8-.1.9 0 .1 0 .1.1.1.1.1.2 0 .3-.4.4-.7 1-2.5 1.4-4.2.2-.7.3-1.2.5-2.3l.2-.8c0-.1.1-.3.1-.5 0 0 .1-.3.1-.6l.1-1.1.2-1.1.2-.7.1-.6.1-.9c.2-1.1.3-1.9.4-3.8l.2-1.3c.2-.5.3-1 .4-1.7.1-.6.3-1.4.4-1.7l.1-.2.1.2c0 .1.2.2.2.2.1-.1.3-.9.7-2.1.2-.7.2-.9.4-1.1 0 0 .1-.2.1-.3v-.2l.2-.4c0-.1.1-.2.1-.1.1.1.2 1.4.3 3 0 1.4.1 3.3.2 4.1 0 .3.1.4.1.4s.1 0 .1-.1l.1-.4c.1-.2.2-.9.3-2.8.1-1.8.2-3 .5-3.6l.1-.5c.1-.4.1-.5 0-.9-.1-.3-.16-.7-.16-.8l-.5-2.7-.3-1.6-.1-.8-.2-1c-.1-.7-.2-1.1-.1-1.2 0-.1.2 0 .3.5l.2.6.2.7c.1.3.2.6.3.7 0 .1.1.2.1.3v.1-.7c-.3-2-.4-3-.3-3.2l.1-.2.1.2.3 2.2.1.7.1 1.3c.1.5.13 1.3.13 1.7.1 1.3.2 2.1.5 4.3.5 3 .6 3.3.8 4.2l.1.7.5 1.8.4 1.8.2.8.2 1.3c.1.6.2 1.2.3 1.4l.2 1.2.4 1.9c0 .1 0 .1.1 0 .1-.3.1-6.6 0-7.8l-.1-1.1c0-.3-.1-.6-.1-.7-.2-.3-.4-1.1-.6-2.2l-.3-1.7-.3-1.8-.27-1.2-.2-1.8c-.1-.6-.2-1.3-.2-1.5l-.3-2.3-.2-1-.2-1.1-.2-.9-.1-.6-.1-.8-.4-3.1-.3-1.5c-.1-.6-.1-.9-.38-2.5-.1-.8-.1-.8 0-.8s.2.1.3.7l.2.7c.1.1.1.3.1.3s0 .2.1.2c0 .2.1.3.2 1.1l.1.4c.1.1.2.3.2.5.2.9.2 1.1.4 1.2l.1.2v.1c.1.1.1.3.1.3-.1 0 0 0 0 .2 0 .1 0 .1.1.1s.2-.1.2-.2c-.1 0-.1-.2-.1-.4-.02-.5-.2-1.7-.3-2l-.02-.4-.4-2.4-.1-.8v-.4s-.1-.1-.1-.2v-.5c-.1-.4-.1-.4.1-.3.1 0 .1.1.1.3 0 .1.1.3.1.3s0 .3.1.4l.1 1.1.2 1.4.1.9c.1.2.1.6.1.8 0 .3 0 .5.1.6v1c0 .1.1.2.1.4s0 .5.1.5v.4c0 .1 0 .4.1.4l.1.7.3 1.6.1.8.3 1.4c.3 1.3.4 2.3.5 3.7l.3 3.6c.2.8.2 1.2.4 3.1 0 .5.1 1.1.1 1.3v.9c0 .2.1.6.1.8v.5-.5c0-1.2-.2-3.2-.3-4.4l-.4-4.7c-.3-2.4-.3-3-.4-3.3l-.2-.6-.2-.6-.2-.9c-.1-.4-.2-1-.2-1.2l-.3-2.2-.1-1-.2-1.4-.2-1.5-.1-1.1-.2-1.3-.2-1.1-.1-.9c-.1-.3-.2-.8-.2-1l-.2-.7c-.1-.2-.1-.4-.1-.5s-.1-.2-.1-.4c0-.1-.1-.3-.1-.6l-.1-.9v-.5l-.1-.1h-9zm-93.1 4s.1.1 0 .1c0 .1-.1.1-.1.1h-.1s0-.1.1-.1zm7.5 3.2c-.2 0-.3.1-.3.2-.1.4-.1.8 0 1.4.1.3.1.8.1 1.2l.2 1.2c.3 2.1.4 2.8.4 5.5 0 1.9 0 2-.1 2.2-.2.2-.2.4-.2 2.1v5.7l.2 1.8c0 .5.1.8.1.9 0 0 .1.3.1.5.1.7.2 1.4.3 1.4.1 0 .1 0 0 0s0-.1 0-.2c.1 0 .1-.3.2-1.1v-4.9c0-3.7-.1-5.5-.3-5.7-.1 0-.1-.1 0-.6.2-.4.2-.7.1-2.1 0-1.4 0-1.6.1-1.6s.1.1.1.2c0 .2 0 .3.8 2.5.5 1.4.7 1.9.9 2.4l.3.9.3.8.2.7.7 1.5.6 1.6c.5 1.3 1.7 3.8 1.9 3.9v.2h.1l.1.2c.2.1.2.3.2.3 0 .1 0 .1.1.1s.1 0 .1.1c-.1.1 3 3.2 4.1 4.1l.8.7c.3.3 2.1 1.6 2.1 1.5 0-.1 0 0 0 0s.1.1.1 0 .1 0 .2 0c.1.1.5.1.5 0v-.1c-.1 0-.4-.6-.4-.6l-.5-.5c-1.3-1.5-3.4-4.1-3.7-4.6l-.8-1.2c-.4-.5-1-1.8-1.4-2.6l-.2-.4c-.1-.1-.4-1.1-.7-2l-.5-1.3c-.4-.9-.5-1.5-1.1-3.4l-.3-1.1-.3-1.1c-.1-.5-.6-1.2-.8-1.2-.2 0-.3 0-.3.1-.3.2-.3 1 0 2.6 0 .7.1 1.3.1 1.4 0 .2-.1.2-.3-.3-.3-.6-.5-1.2-1.1-3-.8-2.5-1.1-3.6-1-4.4l.1-.9c.1-.7.1-.9-.2-1.3-.2-.4-.4-.5-.5-.4-.1.1-1 0-1 0l.3-.6c.4-.4.4-.7.3-.8-.1 0-.2-.1-.2-.2-.1-.1-.3-.4-.4-.7l-.5-.6c0-.1-.1-.1-.2-.1zm-8.2.9v.7-.6zm72.7 14.5c-.1 0-.1.1-.3.1-.3.2-1.1 1-1.5 1.8l-.3.6c-.1.2-.2.3-.2.4s-.1.1-.1.1c-.1 0-.2.2-.3.5-.1.2-.3.5-.4.7l-.2.3c0 .1-.1.2-.2.4l-.3.5-.1.2-.3.3-.7.9-.7.8c-.3.4-.6.6-.7.7l-.1.1c.1 0-.4.6-1 1.3l-.7.7c-.9 1.1-3 3-3.2 3-.1 0-.6.4-.7.6l-.3.2-.8.5s-.1.1-.2.1h-.2c0 .1 0 .1.1.1.2 0 .2.2 0 .2 0 .1-.1.1-.2.2l-.3.2-.3.2c0 .1-.1.1-.2.1l-.1.1-.1.2s-.1.1-.3.2c-.1.1-.3.2-.5.3-.2.1-.3.1-.4.3-.1.1-.1.1-.1.2.1.1 0 .1 0 .1-.2 0-.2 0 0 .1 0 0 .3-.1.6-.1h.6l.2-.1s.1 0 .1-.1h.1s.1 0 .2-.1c.1 0 .2-.1.2-.1l.2-.1h.1c0 .1.1 0 .1 0l.3-.2c.1 0 .5-.2.8-.4.6-.3.7-.4 1.3-.6l.4-.1c.1 0 .2-.1.2-.1.1 0 .3-.1.3-.2 0 0 .3 0 .6-.2.5-.2.5-.3.5-.3l-.2-.1.3-.2c.6-.3 1.1-.8 1.7-1.4.4-.3.8-.7 1.1-.8.5-.4.7-.6.7-.8 0-.2.4-.7.9-1.3s.9-1.2 1.4-2l.5-.8.3-.4.4-.5.2-.2c0-.1 0-.1.1-.1l.3-.3c.1-.2.3-.4.4-.5 0-.1.2-.3.3-.4l.5-.6.3-.4c.1-.1.2-.3.4-.5l.4-.6s.1-.1.1-.2c.2-.2-.1-.3-.4-.2h-.2l.1-.2.1-.5c0-.3 0-.4-.1-.5l-.2-.1zm-70 .3v1.6l.1 1c0 .3.1.7.1.7 0 .1.1.2.1.5 0 .1 0 .4.1.4 0 0 .1.2.1.3 0 .2.1.4.1.5l.1.1c.1 0 .2-.8.2-1v-.6c0-.2 0-.5-.1-.7 0-.3-.1-.5-.1-.6 0-.1 0-.3-.1-.4v-.8c-.1-.1-.1-.2-.1-.3-.1-.5-.2-.9-.3-.9zm73.8 3l-.3.2-.2.3-.3.3c-.2.4-.6.7-1.2 1.5l-.5.7c-.1.1-.1.5-.2.8-.1.4-.2.8-.3 1l-.4 1.2c-.1.2-.1.3-.1.4 0 .1 0 .2-.1.3-.1.6-.2.9-.2 1-.1.1-.1.3-.1.4s0 .2-.1.2c0 .1 0 .3-.1.4-.2.6-.2.8-.2 1.1-.1.1-.1.2-.1.4 0 .1-.1.3-.1.3-.1.1-.1.2-.1.3 0 .1 0 .3-.1.4v.3c0 .1-.1.2-.1.4l-.1.6c-.1.5-.3 1-.4 1.2v.2l-.1.5-.2.6c-.1.1-.1.2-.2.2l-.2.5v1.3c.1 1.1.1 1.3.2 1.4h.1v.2h.1c.1 0 .4-.7.4-.8l.1-.1s.1-.1.1-.2.1-.3.2-.5l.2-.4c0-.2.2-.7.4-.7.1-.1.4-.7.4-1 .1-.4.3-.9.4-1.3.2-.8.3-1 .7-1.4l.4-.6c0-.1 0-.2.1-.2l.1-.3c.1-.3.4-1.3.5-1.5.4-.8.5-1.3.4-1.8-.1-.3-.1-.8.1-1.3 0-.3.2-1 .3-1.3v-.2s.1-.2.1-.3l.2-.5c.1-.6.2-1 .3-1.4l.1-.8c0-.2.1-.5.1-.5 0-.3.1-1 0-1zm8.2.9c-.1 0-.1.2-.1.4-.1.4-.4 1.3-.5 1.5l-.4 1.1-.1.5-.1.4c-.1.2-.1.3-.1.3-.1.1-.1.2-.1.4v.3s-.1.2-.1.3c0 .1 0 .2-.1.2 0 0-.1.2-.1.3s0 .2-.1.2c0 .1-.1.1-.1.2v.3c-.1.1-.3.8-.3.9 0 .2.1.2.4-.3.5-.5 1-.7 1.1-.4.1.2.1.2-.3.9l-.9 1.8-.4.8c-.4.8-.5 1-1.1 2.3l-.6 1.4c-.1.1-.1.3-.1.5 0 .4-.2.9-.6 1.9-.2.4-.3.5-.3.1-.1-.1-.1-.1-.1 0s-.1.1-.1.2c-.1 0-.1.1-.1.2l-.5.9-.1.2-.1.3c-.1.2-.3.4-.3.5l-.3.6-.1.5-.1.3c0 .1 0 .2-.1.4l-.2.7c-.1.1-.1.4-.1.5v.2l.1-.2.1-.3c0-.1.1-.2.1-.3 0-.1 0-.1.1-.2 0-.1.1-.1.1-.2s0-.2.1-.3c.1-.2.1-.3.1-.4l.1-.2.1-.3c.1-.3.3-.5.5-.6.1-.1.1-.1.1.2 0 .2-.4 2.1-.6 2.7 0 .3 0 .4.3.3.3-.1.3-.1.4.1.1.1.1.2.1.3 0 .1.1.1.1 0l.1-.2c.1-.1.1-.1.1-.2s.1-.2.1-.3c.1-.1.1-.2.1-.3l.1-.3c.1 0 .1-.2.1-.3s.1-.1.1-.2c0 0 .1-.2.1-.3l.1-.3.1-.5.2-.6c.1 0 .1-.1.1-.2 0 0 .1 0 .1-.1s.6-1.4.7-1.7v-.4l.1-.2c0-.1.2-.2.2-.4.2-.7.5-1.1.6-1.1.1 0 .2-.1.2-.1l.2-.2.2-.2c0-.1.2-.1.4-.1.3 0 .3-.1.3-.1l.1-.1c.2 0 .3.1.3.3v.3c-.1.2-.1.3-.1.4s-.1.2-.1.3c-.1.1-.1.2-.1.3v.2c-.1.1-.2.2-.2.3 0 .2-.1.7-.2.8v.5c0 .2-.1.3-.2.4v.3c0 .2 0 .2-.1.3v.2l-.1.6c0 .5-.1.6-.2 1.2 0 .1-.1.2-.1.2l-.1.4-.2.7-.2.7-.1.4c-.1.1-.1.2-.1.3-.1.1-.1.2-.2.3v.3s0 .2-.1.3c-.1.1-.1.2-.1.3 0 .1 0 .2-.1.2l-.1.4-.2.8h.1l.1-.2v-.2l.2-.2c.1-.2.7-1.3.8-1.6.1-.1.3-.6.4-1.1l.4-.9.4-.8.5-1 .5-1c-.3.6-.5.9-.7 1.6-.6 1.3-1.3 2.9-1.3 3 0 .1.2-.1.2-.2.1-.1.1-.1.2.1 0 .1 0 .2-.2.8l-.3.9c0 .1-.1.1-.1.2s0 .2-.1.3c0 .1-.1.2-.1.2l-.2.6-.3.9-.1.4-.1.1s0 .2-.1.3c0 .1-.1.2-.1.2l-.1.6c-.2.9-.3 1-.3 1.3 0 .2-.1.4-.2.5v.7c-.1 0-.1.1-.1.2 0 .2-.1.3-.1.3v.3s0 .2-.1.2v.3l-.1.5c0 .2-.1.5-.1.6 0 .2 0 .5-.1.7l-.2.7c-.1.1-.1.4-.1.4-.1.1-.1.2-.1.3 0 .1-.1.2-.1.3v.5c0 .2-.1.4-.1.4-.1 0-.3.5-.3.6 0 .1-.1.1-.1.2-.1 0-.1.1-.1.1s0 .1-.1.2l-.3.6c-.3.7-.4.9-.7 1.3-.5.7-1.4 1.8-2.1 2.5-.6.6-.8.8-.6.8s1.4-.6 1.8-.9l.4-.2c.3-.1.8-.6.9-.7 0-.1 0-.1 0 0 .1 0-.1.6-.4.9-.1.1-.1.3-.1.4v.4c-.1.2-.1.2 0 .4s.1.3-.2.6c-.2.3-.4.7-.3.7v.1h.2c.1.1-.2.3-.2.3.2 0 .1-.1 0-.1l-.2.3c-.1.1-.3.2-.5.3-.3.2-.3.2-.1.2.1 0 .2.1.3.2.1.1.2.1.2.1s.2-.1.3 0v.3c0 .1 0 .1.2 0 .1-.2.1-.2 0-.2s-.1 0-.1-.1 0 0 .1 0c.2.1.26-.1.26-.2s0-.1.1-.1c.1.1.3 0 .3-.3.1-.2.3-.7.5-.7 0 0 .3-.3.5-.6.4-.5.6-.9 1.2-2.1 0-.2.2-.4.3-.5.3-.5.5-1.2.5-2l-.1-.6h-.4c-.3-.1-.4-.2-.5-.7-.1-.3-.1-.5-.1-.8v-.5h-.2c-.2 0-.2 0-.2-.1 0-.2.1-.3.3-.8.1-.3.3-.8.3-1.2.1-.7.2-.9.3-1v-.4c0-.2.1-.2.1-.2 0 .1.1.2.1.3l.1.2v-.2c0-.1 0-.3.1-.4.1-.2.2-.3.2-.5 0-.1.1-.8.37-1.7l.1-.5c0-.1.1-.3.1-.4.1-.1.1-.1.1-.2v-.1c.1-.1.1-.2.1-.2 0-.1.1-.2.1-.2.1-.2.4-1 .5-1.3 0-.2.1-.3.17-.4s.1-.1.1-.2c-.05-.1 0-.2.1-.3 0-.1.1-.4.1-.6 0-.2.1-.4.1-.4l.1-.2c0-.1 0-.3.1-.4l.1-.4.1-.5v-.6l.4-1.9.46-2.1c.05-.3 0-.4-.2-.2-.1.1-.7 1.1-.9 1.3-.1.1-.1.2-.14.2 0 0-.1.1-.1.2v-.3l.1-.2.1-.3.1-.4.3-.7.2-.5.1-.1c.04 0 .04-.1.04-.1l.3-.6.3-.6c.1-.2.4-.8.5-1.3.1-.2.18-.4.18-.5l.2-.2c.1 0 .1-.2.1-.3 0 0 0-.1.1-.2l.5-1.2c.2-.4.3-.8.5-1.1.08-.2.08-.3.16-.5 0-.1.1-.1.1-.1.1 0 .1-.1.1-.17s.1-.2.2-.3c.3-.4.4-.5.6-.2.1.2.1.2.1.4 0 .1-.1.3 0 .3 0 .1 0 .3-.1.5-.1.4-.1 1.5-.1 1.5v-.1s.1-.1.1.05c.1.1.1.2.3.2.1 0 .14.1.14.1h-.1c-.1 0-.1.1-.1.1 0 .2 0 .2.1.2l.1-.1c0-.12.4-.12.6-.1.1.1.2.1.3.1.1 0 .2 0 .2.18 0 .1 0 .3-.03.3l-.2.2c-.1.1-.1.2-.1.2s-.1.2-.1.3v.2l-.1.2c-.1.2-.1.2 0 .3.1.1.1 0 .1-.1s.1-.1.1-.3c0 0 .1-.1.1-.2s.1-.4.2-.4.2-.1.2-.2c.1-.2.2-.4.2-.2 0 .1.1.1.1.1s.1 0 .1-.1 0-.1.1-.1l.2-.1v-.4l.1-.2s.1-.1.2-.3l.3-.5c.35-.7.7-1.4.7-1.6 0 0-.14.1-.2.3l-.1.2c.46-1 1.3-3.9 1.6-5.8l.1-.6c.1-.4 0-1.2-.14-1.3-.17-.1-.17-.1-.3.2-.1.1-.3.5-.4.8-.4.7-.6 1-.8 1-.1 0-.2-.3-.2-.6s.1-.7.4-1.2c.4-.7.7-1.7.8-2.3l.1-.7c.1-.5.1-.8.1-.8-.1-.1-.2.2-.3.5l-.1.3v.15c0 .3-.6 1.5-.8 1.9-.1.1-.2.1-.2.1-.1 0-.2-.1-.2-.3v-.4c-.1-.5-.2-1.3-.04-2.2.1-.5 0-.6-.6-.5-.5.2-.9.1-1.7-.2-.3-.1-.7-.2-1.1-.3-.6-.1-1.2-.2-1.9-.5l-.5-.1zm-7.2 2.3l-.1.2c0 .1-.1.1-.1.1s-.1.1-.1.3l-.1.2c-.1 0-.1.1-.2.2v.2c-.1 0-.1 0-.1.2v.3l-.1.6c-.1.2-.1.5-.2.5v.1s0 .2-.1.2l-.3.8c-.1.4-.2.8-.3.8v.3l-.1.5-.4 1.4-.4 1.2-.1.4c0 .2-.1.3-.1.3v.2s-.3 1.1-.4 1.6c-.1.1-.1.3-.1.5s-.1.6-.2.9c-.1.5-.2 1.5-.3 2.2-.1.3-.1.7-.1.9 0 .4 0 .4.1.4.2-.1.5-.5.8-.8l.4-.6c.1-.2.4-.6.4-.8l.3-.5.3-.6 1-2.1.3-.6.2-.6c.1-.1.2-.3.2-.3v-.3c0-.1.1-.3.1-.4.1-.1.1-.2.2-.2v-.2l-.1-.2-.2.3-.1.3c-.1.2-.2.3-.4.5l-.1.2c0 .1-.1.1-.2.1s-.2.1-.1.1-.1.2-.3.2c-.1 0-.1 0-.1-.1 0 0 0-.1.1-.1h.1-.1c-.1.1.1-1.1.2-1.3 0-.1.1-.2.1-.2s0-.2.1-.3l.1-.4c.1-.2.1-.3-.1-.5-.2-.1-.2-.2-.2-.5-.1-.5.2-1.8.5-2.5.1-.1.1-.2.1-.2s.1-.1.1-.2c.1 0 .2-.2.2-.3l.2-.3c.1 0 .1-.2.1-.2l.1-.1c.2-.3.5-1.2.5-1.2v-.2zm25.6 3.5c-.1 0-.1.1-.1.2s-.1.1-.1.1-.1.1-.1.3c0 .2 0 .2-.1.2 0 0-.1.1-.1.2s0 .3-.1.3c0 .1-.1.3-.1.3 0 .1 0 .2-.1.4l-.1.5-.1.6-.2.5c-.1.2-.1.2-.3.3l-.2.1v2.1c-.1 1-.3 2-.5 2.3-.1.1-.1.1-.2 0h-.2c-.1.2-.1.2-.3 1.7-.1 1.8-.3 2.9-.6 4.3l-.2 1c.1.2.3-.3.5-.9.3-.6.4-.9.5-.8 0 .1.1.2.1.2v.2c0 .2.1.4.2.4s.1.1.1.1h.1c.1 0 .2 0 .3-.3l.3-.5.2-.6.2-.5c.1-.1.1.3.1.8-.2 1.2-.7 3-1 4.1-.3.8-.5 1.2-.6 1.3-.1.1-.1.1-.1.2 0 .2.6-.9.9-1.8l.1-.3.3-1.2c.1-.6.4-1.1.4-1.2 0-.1.1-.3.1-.4l.1-.3v-.3s0-.3.1-.3l.2-.7.2-.7.2-.9c.2-.7.2-1.3.4-2.1.2-1.9.4-3.8.4-4.5v-.7l.1-.6c0-.2 0-.2-.1-.2s-.2 0-.2-.2v-.5c0-.2-.1-.4-.1-.4s-.1-.2-.1-.4c0-.1-.1-.3-.1-.3-.1 0-.1 0-.1-.1-.1-.1-.1-.2-.2-.1zm-39.8 3.6v.1c0 .1-.1.1-.2.1s-.1 0-.1-.1h.1zm24.1.5l-.2.2v.1-.1c0-.1 0-.2.1-.2zm.1.1v.4c0 .3 0 1.5-.1 1.8 0 .2 0 .6-.1.8l-.1.5v-.8c.1-.6.2-2.2.1-2.5l-.1-.2zm-.3.4l-.2.4c-.4.5-.5.7-.9 1.8-.5 1.2-.9 2.3-1.3 3.4.2-.4 1.1-2.6 1.1-3l.2-.5c.1-.1.2-.4.2-.4l.6-1.2c.1 0 .1-.1.2-.1 0-.1.1-.1.2-.2zm2.6 1.5c.1 0 .1.1.1.1v.1h.1c.1 0 .4.3.4.3s0 .1.1.1v.5c0 .3.1.5.1.5s-.1-.1-.1-.4c-.1-.5-.3-.8-.5-.9h-.1c-.2-.1-.3-.1-.7-.1-.3 0-.4.1-.5.2-.2.2-.5.7-.8 1.1l-.2.3c.2-.5.7-1.1 1-1.4.2-.1.2-.1.7-.2h.5zm-7.1 1.6l.1.1h-.2v-.1zm4.7.4v.1c-.1 0-.1-.1-.1-.1zm20.4.1c-.1-.1-.1 2-.1 3.7 0 .8.1 1.6.2 2.2 0 .3.1.8.1 1.1l.1.8v-5c0-.9-.1-1.3-.1-1.2l-.1.5c0 .6-.1 0-.1-.9 0-.6-.1-1.1-.1-1.1v-.5zm-28.6 2.5v.2zm-16.5 6.2c-.1 0-.1.2-.1.3v.4c0 .1-.1.3-.1.6l-.2.8-.2.8-.3 1.2c-.2 1-.2 1.1-.4 1.8-.3 1.2-.3 1.2-.3 3.3 0 1.3 0 2.1.1 2.3v1.1c0 .9.1 2 .1 2.5l.2.9.3 1c0 .2.1.6.1.9 0 .5.2 1 .8 3.5.4 1.2.4 1.2.8 2 .4.6.6.9.8 1.1.3.2.4.3.4.2 0-.1.3-.1.6.1.6.4 1 .6 1.4.7.1.1.3.1.4.1.1 0 .3-.1.3-.2s-.8-1-1.1-1.1c0-.1-.1-.1-.1-.1s0-.1-.1-.2-.1-.1 0-.3c0 .1-.3-.1-.3-.3-.1-.1-.1-.1-.2-.1s-.1 0-.1-.1-.2-.3-.4-.6c-.4-.4-.8-1-.9-1.1l-.1-.1c-.2-.1-.3-.6-.4-1.2 0-.6-.3-1.5-.3-1.8-.1-.1-.1-.2-.1-.3v-.3c-.1-.1-.2-.6-.3-2.2l-.3-3c0-.2-.1-.4-.1-.6v-3.5c0-3.3 0-3.7.3-5.7.2-.7.2-1.2.2-1.5 0-.2.1-.3.1-.3.1 0 .2-.7.1-.7zm2.5 1.4l-.1.2c-.1.2-.2.3-.2.4 0 .1-.1.2-.1.3v.3c0 .1-.1.2-.1.3-.2.7-.5 2.3-.8 3.6l-.1.8c-.1.5-.2 1.5-.2 2.7 0 .9-.1 1.1-.2 1.5-.1.4-.1.5-.1 1.3 0 .6.1 1.1.1 1.3 0 .2.1.4.1.5 0 .2 0 .2.1.3l.1.6.2.7.1.5c.1.4.1.8.2.9.1.1.1.2.1.2 0 .1.1.2.3.2.1 0 .1 0 .1.1s0 .1.1 0 .1-.1-.1-.1c-.1 0-.1-.1-.1-.2s0-.2-.1-.4-.2-.3-.2-.6c-.1-.3-.1-.3.1-.5.1-.2.3-.3.4-.1.1.1.6.9 1.1 1.5.2.5.6.9.7 1l.2.3c.3.4.7.9.9 1 .5.4.6.4 1 .6l.4.2v-.2c-.1-.2-.5-.6-.7-.8l-.2-.1-.4-.6-.5-.7-.2-.3c-.1 0-.1-.1-.1-.1s-.1-.3-.3-.5l-.3-.6-.1-.2c-.3-.3-.5-.6-.9-1.4l-.4-.9-.1-.7c0-.4-.1-.8-.1-1 0-.3-.1-2.4-.1-3.4v-.3.1c-.1-.1 0-4 .2-4.6.2-.5.2-1.1.2-1.5 0-.4 0-1.3-.1-1.6l-.1-.1zm21.4 4.9c-.2 0-.5 0-.7.1-.6.1-2.1.5-2.5.7-.1.1-.2.1-.3.1-.1 0-.2 0-.3.1-.1.2-.1.2-.1.4 0 .1 0 .4-.1.4-.1.2-.1.3-.1.5v.3l-.1.5-.1.5c-.1.7-.3 1.5-.3 1.8 0 .3 0 .4.1.5.1.1.3.2.3.2.3.1.5.1.8 0 .4-.1 1.6-1 2.3-1.4l1.5-1.1.2-.2.5-.4c.4-.3 1.5-1.3 1.5-1.5.1-.1 0-.1-.5.2l-.8.4c-1.2.7-1.6.8-2.3.8-.3 0-.4 0-.5-.1l-.2-.1.3-.2c.3-.2.6-.5.6-.7 0-.2.4-.6.6-.7.1 0 .2-.1.2-.2l.2-.1c.1 0 .5-.4.5-.4v-.2c0-.1 0-.1-.2-.2-.1-.1-.3-.1-.5-.1zm-7.2 10.3c.2 0 0 .5-.1.6-.2.1-.2.1-.2 0s.2-.6.2-.6zm-58.7 3v.1c-.1.2 0 .4.1.6v.3s0 .2.1.3c.1.5.4 2.6.5 3.9.2 2 .1 3.6-.2 4.7-.2.8-.7 1.8-1.3 2.4l-.5.6-.5.5c-.1 0-.3.1-.3.2h-.4c-.1 0-.1 0-.1.1l-.2.1c-.1.1-.4.4-.5.4 0 0-.1 0-.2.1 0 .1 0 .1.1.1s.3-.1.3-.1l.4-.1c.3-.1.4-.1 1-.1h.8l.3-.1c.4-.1.4-.2.7-.5.5-.4.6-.8.9-2.2l.4-2.5c.1-.3.1-.4.3-.3.1 0 .1 1.4 0 2.1l-.2 2.2v1.7c0 .2-.1.3-.1.3 0 .1.1 0 .7-1.4.5-1.1.7-1.4.6-1.3l-.1.1c0 .2 0-.2.1-.7l.1-.7c.1-.2.1-.3.1-.4s.1-.2.1-.3c0-.1 0-.4.1-.6v-.7c.1-.2.1-.4.1-.7 0-.9.1-1.9.2-2.1.1 0 .1-.2.1-.3 0-.2.2-.5.3-.7.1-.1 0-.1-.1 0-.2.2-.2.3-.2.4 0 .2-.1.3-.1.1 0-.3-.1-.8-.1-.8 0-.1-.1-.3 0-.3s.1 0 .1-.1v-.3c0-.1 0-.1-.1-.2 0-.1-.1-.2-.1-.6 0-.4 0-.4-.1-.4v.1s-.1.2-.1.3c0 0-.1 0-.1.1s0 0-.1.1c0 0-.1 0-.1.1s-.1.1-.2.1c-.2 0-.2 0-.3-.1-.1-.1-.1-.3-.1-.3l-.2-.3-.1-.4c-.1-.3-.1.2-.1 1.4 0 1.1 0 1.3-.1 1.4 0 0 0 .1 0 0 0 0-.1-.1-.1-.2 0 0-.1-.3-.1-.5l-.1-.6-.2-.7c-.1-.9-.4-1.6-.7-2.7-.1-.4-.1-.6-.2-.6zm45.3 1.3c-.1.1.3.8.8 1.4.4.5 1.8 1.8 1.9 1.8h.2c.2.1.8.2 1.3.3.6.1 1.6.1 2.1 0 .4 0 .8-.2.9-.3.1-.1.6-.5 1.1-.7.5-.2.7-.3.5-.4H541c-.5-.1-.6-.1-.8 0-.1.1-.2.1-.3.1-.38 0-1.7-.4-1.9-.6-.1-.1-.1-.1-.17-.1s-.93-.6-1.44-1c-.1-.1-.3-.2-.3-.2zm11.1 1.6c.1 0 .1.1.2.2 0 .1 0 .1-.1.1-.2 0-.2 0-.1-.1 0-.1 0-.1-.1-.1-.2 0-.2-.1-.1-.2h.1zm.3.1s0-.1.1-.1zm-.9.2c.1 0 .2 0 .2.1 0 .2 0 .2-.2.1-.1-.1-.1-.1 0-.1zm-4.9 1.2c.1 0 .1 0 .1.1h-.2c-.1 0-.1 0 0 0l.3-.1z" id="path5230" fill="#b4b3b7" stroke-width=".02"/><path d="M524.5 60.27c-2.85.05-3.67.1-3.9.24-.1.1-.23.1-.3.1-.08 0-.4.1-.76.2-.93.5-2.27.7-3.3.7h-4.2c-.4 0-.7.1-.65.2 0 .1-.6.2-1.6.2-.2 0-.3.1-.3.2s-.2.1-.4.1c-.3 0-.4 0-.5.1 0 .1-.3.2-.7.2-.3.1-.7.1-.8.2-.1.1-.3.1-.3 0-.1 0-.2 0-.3.1 0 .1.1.2.2.2.6 0 .2.6-1 1.2-.5.3-1.1.6-1.2.7-.1.2-.3.3-.4.3s-.2.1-.4.2c-.1.1-.4.3-.7.5-.3.2-.6.4-.7.5-.1.1-.2.2-.3.2-.1 0-.2.2-.4.3s-.3.2-.4.1h-.4.3c.2.1.6-.2 1.5-.7.6-.4 1.2-.8 1.3-.8 0 0 .7-.3 1.4-.8 2.8-1.7 1.2-1.7-2.6-.1l-2.2 1c-.6.3-1.1.6-1.3.6l-1.1.6c-1.5.8-4.2 2.7-6.7 4.9-.5.5-1.3 1.1-1.7 1.5l-1.1 1c-.2.3-.9.9-1.5 1.3-.6.5-1.4 1.3-1.8 1.8l-2.6 3c-4.2 4.9-5 6.1-7.9 11.4-.4.6-.7 1.2-.7 1.3-.2.3-1.9 4.4-1.8 4.7 0 .1.1-.1.3-.3 1.7-3.6 2.5-5.2 3.8-7 4-6 7.5-9.9 11.9-13.6 1-.8 2-1.7 2.4-2 .7-.7 2.5-2.1 4.7-3.5.9-.5 1.7-1.1 1.6-1.3l.1.2c.2.1-.1.3-.4.5-1.4.8-5.6 3.8-5.6 4 0 .2.2 0 1.4-.8 3.1-2.4 4.7-3.3 6.5-3.6.7-.1 1.4-.2 1.5-.3l.3-.1c-.2.1-.3.2-.7.2-.6.2-1.2.3-1.4.3-.3 0-.3 0 0 .2.2.1.6.1 1 0 .3-.1.8-.1 1.1 0 .3 0 1-.1 1.9-.4 2.4-.8 4.7-.7 4.7 0 0 .5.3.4 1.1-.2.4-.3.8-.5.8-.5.1 0 .4-.2.8-.5l1.2-.7c.2-.1.5-.2.5-.3.2-.1 1-.6 1.5-.7l1.4-.4c.5-.2.9-.3 1.1-.3.3 0 2.2-.7 2.3-.9.1 0 0-.1 0-.1 1.2.1 4.5.6 4.8.8.1.1.7.2 1.3.3 2.4.4 4.8 1.6 7.6 3.6 1.7 1.2 2.3 1.9 3 2.9.6.8.3 0-.7-1.9-.5-1-.9-1.8-.8-1.7.5.3.3 0-.6-1.5-1.1-1.8-1.3-2.3-1.1-2.8.2-.5.1-.8-1-1.4-.8-.5-2.1-1.5-1.9-1.6 0 0-.5-.1-1.1 0-.7.1-1.1 0-.9-.1H525zm6.82.44c-.14 0-.33 0-.5.1-.67.2-.65.2 2.04 1.1 3.63 1.3 5.86 2.3 8.98 3.8 4.43 2.2 10.77 6 12.28 7.4.9.8 2.3 2.8 3.8 5.3.45.8 1.3 2.2 1.9 3 2.65 3.9 5.5 9.2 6.6 12.3.26.8.76 2.4 1.1 3.6.35 1.3 1.25 4.1 1.98 6.3 1.6 4.7 1.96 6.3 2.5 10.5.62 4.7.98 7.3 1.4 9.7l.9 5.8c.9 6.2 1.6 10.8 1.7 11.2.14.9.14.1-.15-2.7-.22-1.6-.5-4-.8-5.3-.6-3-.6-3.4-.74-8.2 0-4.5-.1-5-.9-9.4-.3-1.8-.7-4-.8-4.9-.1-.8-.3-2.5-.6-3.6s-.6-3-.9-4.2c-.3-1.4-.6-2.6-.9-3.3-.3-.5-1-2.7-1.7-4.9-.6-2.1-1.4-4.6-1.8-5.4-.7-1.8-2.1-4.6-2.4-4.7 0-.1-.1-.1 0-.1.2 0-2.1-3.9-3.1-5.3-2.3-3.1-7.8-7.8-12.7-10.8-2-1.1-6.8-3.7-6.8-3.6 0 .1-.2 0-.4-.1s-.4-.2-.4-.1-.2 0-.3-.1c-.2-.1-.4-.2-.4-.1s-.1 0-.2-.1c-.3-.2-1.7-.7-2.3-.8l-.9-.1c-.2 0-.5-.1-.6-.1-.1 0-.3-.1-.4-.1h-.2c0 .1-.2 0-.3 0-.1-.1-.3-.1-.4-.1-.1 0-.4-.1-.7-.1-.7-.1-1.5-.2-1.9-.2-.2 0-.5-.1-.5-.1-.1-.1-.1-.1-.4-.1zm-23.3 1.7c.2 0 .3.1.2.2-.15.2-.9.3-.9.2 0-.1.2-.2.43-.2h.26zm9.4 1.7c-.96.1-3.06.6-5.36 1.2l-2.03.6-1.8-.2c-1.56-.1-1.93-.1-2.86.1-1.33.4-2.34.9-3.5 2.1-.26.3-.45.4-.63.6.26-.2.56-.5.73-.7.55-.7 2.03-1.6 2.64-1.7.4-.1.9-.2 1.1-.3.3-.1.7-.2.8-.2l1.5.2c.7 0 1.4.1 1.6.2.4.1.7 0 2.9-.6 2.3-.7 3.9-1 5-1.1zm-16.77 2.6l-.02.1c0 .1-.1.2-.22.2s-.5.3-1 .6l-.8.6-.4.4s-.5.4-.6.4l-.1.1h.1c.3 0 .6-.3.7-.4.1-.1.3-.2.4-.2.1 0 .4-.1.6-.4.5-.3 1-.6 1.5-.8zm-1.67 1.9c.1 0 .18 0 .2.1.05.1.03.2-.03.2-.08 0-.4.1-.72.2-.36.1-.53.1-.44 0 .1-.2.7-.3.9-.3z" id="path5295" fill="#e1e0e2" stroke-width=".02"/><path d="M519.4 93.96c-.06 0 0 .75.07 1 .05.15.1.44.22 1.3 0 .23 0 .45.1.5v.68c0 .1.1.56.2 1.04.4 1.95.5 2.95.4 2.95-.1 0-.4 1.1-.3 1.25 0 .07.1.07 0-.03-.1-.04-.1-.1 0-.1v-.2c0-.17.2-.52.2-.63v-.2l.1-.13c0-.2 0-.2 0 0 0 0 0 .1.1 0v-.2l-.1-.5c0-.3-.1-.5-.1-.6-.2-.9-.3-1.3-.4-1.8l-.1-.5c0-.1-.1-.2 0-.5V97l.1.3c.1.18.1.4.1.47.1.07.1.22.1.3 0 .07 0 .14.1.2.1.1.1-.43-.1-.87l-.2-.6c-.2-1.1-.3-1.84-.4-1.84l-.1-.38v-.45c0-.08-.1-.3-.1-.5-.1-.24-.1-.4-.2-.4zm.5 3.02c.02 0 .03 0 .04.02v.17c-.02.03-.03 0-.03-.1zm-18.34.35c-.08 0-.08 0-.08.03l-.14.44-.22.68-.15.48c-.15.27-.3 1.6-.22 1.8v.15-.2l.07-.3c.08-.2.22-.8.37-1.4l.2-.9v-.5l-.1-.1zm-.22.82c0-.02.07 0 .07.05v.04c-.1-.08 0-.08 0-.15zm-.15.54v.1l-.1.2c-.1 0-.1 0-.1-.1v-.2zm-.2.5v.1c0 .1-.1.1-.1.1v-.1zm38.7 3.2c-.1 0 0 .6 0 .6v.5s.1.2.1.3v1.1s0 .3.1.4l.2.8.1.6v.3l.1.3c.1 0 .1 0 .1.1v.4l.2.8.4 1.2v.6c.3 1 .4 1.5.5 1.6l.1.1s0 .2.1.2c0 0 0-.5-.1-.8-.1-.2-.1-.3-.1-.3l-.1-.2s-.1-.1-.1-.2-.1-.3-.1-.3l-.3-.5-.3-.6-.2-.8-.3-.9-.1-.5-.2-.6c-.1-.6-.3-.9-.3-1.1v-.2s-.1-.1-.1-.2c-.1 0-.1-.1-.1-.2s-.1-.2-.2-.4l-.2-.6c-.1-.6-.3-1-.4-1.1-.1-.1-.1-.3-.1-.3 0-.1 0-.2-.1-.2zm1.3 5.2v.1s-.1 0-.1-.1v-.1zm.1.6v.1-.1zm.1.6v.3c0 .1-.1 0-.1-.2v-.1zm.1.6v.7l.1.5.2.8c.1.2.1.5.1.6-.1.2-.1.1-.2-.2-.1-.1-.1-.3-.2-.3s-.1-.1-.1-.2c0-.2 0-.3-.1-.4s-.1-.2-.1-.3c0-.1-.1-.2-.1-.3-.1-.2-.1-.3-.1-.4 0-.1-.1-.1-.1-.2-.1-.1-.2-.5-.1-.6zM473.7 151v.3c0 .15.07.5.1.7.24 1.15.3 1.72.23 1.8 0 0-.03 0-.03-.1s0-.13-.06-.2c-.08-.06-.08-.2-.15-.3 0-.1-.1-.2-.1-.2s-.1-.04-.1-.15c0 .15.1.6.2 1 0 .14.1.44.3.8.2.74.5 1.54.5 1.7l.2.43c.1.5.5 1.5.7 1.9l.1.3c0 .24 1.6 3.46 2.3 4.7l.8 1.47c.7 1.3 1.3 2.35 1.3 2.78.2.75.2.97 0 .9-.2 0-1.3-1.16-1.6-1.45-.2-.2-.6-1.1-1-1.8l-.4-.9-.3-.65-.8-2.07-.5-1-.4-.9c-.1-.2-.2-.66-.4-.95-.3-.5-.3-.5-.4-.5-.1.1-.1.2-.1.3.1.2.1.4.1.5l.3 1.2.1.6c0 .2 0 .5.1.5l.1.3c0 .1.1.3.1.5l.3.7.6 1.5.3.8c0 .2.4.8.9 1.4.1.2.6.9 1 1.6l1.5 2.3 1.5 1.9c.1.1 1.1 1.3 1.2 1.5.2.3 2.4 2.5 3 3.1 1.4 1.3 2.5 2.2 3.8 3.2.7.5 1.2.8 2.1 1l1.8.7c.7.2 1.2.4 1.3.4-.1 0-.4-.1-.8-.3-1.2-.4-2.8-1.1-3.5-1.5-2-1.1-5.3-4-7.6-6.6l-1.2-1.4c-.7-.8-1.3-1.6-2-2.6-.5-.8-.8-1.1-.7-1.1 0 0 .3.1.8.5 1 .9 1.2.9 1 .2-.1-.7-.7-1.8-1.9-4.1-1.8-3.2-2.5-4.7-3.5-7.5-.5-1.5-.6-2-.6-2.2.1 0 .1-.2 0-.6-.1-.9-.2-1.3-.2-1.4h.1c.1.1.5 1.1.8 2l.8 2.2c1.1 3.2 1.7 4.8 3 7 .8 1.5 2.1 3.4 2.2 3.4l.2-.1c.1-.1.2 0 .8 1.2.3.5.8 1.4 1.1 1.8.3.4.6 1 .6 1l.1.3v.1l.1.4c.2.5.8 2.1.9 2.7.1.5.3.8.7 1.4.6.8 1.1 1.3 1.4 1.2.2-.1 0-.6-.7-2.2-.4-.9-.6-1.4-.5-1.4l.7.7c1.1 1 1.8 1.7 1.8 1.6.1 0 0 0 0-.1 0 0-.6-.6-1.4-1.3-.7-.7-1.3-1.2-1.3-1.2-.1.1-.1.3.1.6.4.8.6 1.3.6 1.4 0 .1 0 .2.1.2s.4.8.3.8c0 0 0 .1.1.1s.1.2.1.2c0 .2-.3 0-.5 0l-.6-.7c-.1 0-.1 0-.1-.1s0-.1-.1-.1-.2-.3-.2-.7c0-.1-.1-.3-.1-.3s-.1-.1-.1-.2 0-.1-.1-.2l-.1-.3c0-.1 0-.3-.1-.3v-.2c0-.1-.1-.2-.1-.3l-.1-.1c0-.1 0-.3-.3-.9-.1-.2-.3-.7-.7-1.1-.7-1.1-1.2-2-1.8-3.2l-.6-.8s-.1.2-.1.3c0 .2 0 .3-.1.4 0 0-.1 0-.2-.2-.3-.3-1.2-1.7-1.7-2.5-.3-.5-1.4-2.7-1.7-3.2-.2-.3-.5-1.2-.7-1.8-.4-1.1-1.2-3.5-1.5-4.6-.1-.4-.4-1-.5-1.3-.2-.3-.3-.7-.4-.9l-.5-1.2-.3-.4zm94.8 13.43c-.03.02-.1.72-.3 2.23-.2 1.6-.36 3.1-.53 3.96-.1.35-.17.86-.17 1-.02.45-.5 2.3-.9 3.75-.2.63-.35 1.14-.5 1.4-.04.2-.2.5-.22.62 0 .1-.13.4-.2.6-.07.2-.14.4-.14.5 0 .1.07.1.15.1.3-.2 1-1.5 1.4-2.6.9-2.3 1.3-4.4 1.4-6.6.1-.8.1-1.6.2-1.9 0-.5.1-3 0-3.1h-.1zM553 173c-.08.05-.15.23-.2.42l-.07.22c-.04 0-.06.08-.06.15l-.12.4c-.15.5-.22.9-.3 1.1 0 .1-.07.4-.07.6-.14.5-.22 1.6-.22 1.7l.08.3c.07.2.07.2.14.1.08-.1.15-.3.3-.9.36-1.5.66-3.9.5-4.2h-.06zm-70.4 5.7c-.04 0 0 .1.2 1 .08.3.15.58.15.67 0 .07.05.22.08.44.07.2.13.5.17.6.1.4.64 1.9.83 2.5l.22.6.15.3.07.2c0 .1.37.8.55 1.1.22.4.32.7.38 1.2.05.6.1.8.15.8l-.05-.7c-.06-.5-.05-.8.02-.8 0 0 0 .1-.02.1-.05.2 0 .6.15 1.9l.1.7c.03 0 .08.4.1.8l.1 1.4c.04.3.08 1.6.08 2.7.03 1.8.02 2.2-.05 2.3-.04.1-.07.3-.07.4s0 .2-.1.3h.1c.1-.1.2-.6.2-1.4v-.6l-.2.6-.2.6v.2s-.1.2-.1.3c0 .1-.2.4-.3.8-.1.4-.2.7-.3.8l-.1.5c-.3.7-.5 1.4-.6 1.5v.2s0 .2-.2.4l-.1.4c0 .2.5-.6.6-.8 0-.1 0-.1.1-.1 0 .1-.1.1-.1.2 0 .2-.7 1.2-1.2 1.5-.7.5-1.5 1-1.8 1-.1 0-.2.1-.3.2 0 .1-.2.1-.9.4l-1.2.5h-.1l-.5.1c-1.4.5-2 .7-2.2 1.1-.4.4-.4.4.1.6.2.1.5.1.6.1.2 0 .6.2.7.4 0 .1.2.1.2.1l.4.2c.2 0 .6.2 1 .3l.8.1s.1 0 .1-.1 0-.1.1-.1l.2-.1h.4-.2c-.2 0-.3 0-.4.2-.2.2-.2.2-.1.2.2 0 .2.1.3.4l.2.4c0 .1.1.1.1.1.1 0-.1-.4-.2-.6-.1-.2-.1-.2 0-.3.1-.1.2-.1.4-.1l.4.2c.1.1.2.1.2.1.2 0 .2.1.7.5.3.3.5.4.7.4s-.6-.5-.8-.5-.2-.1-.2-.4l-.1-.3c-.1-.1 0-.1.1-.2l.2-.1.3-.1c.1 0 .4-.1.5-.1.1-.1.4-.1.4-.2.9-.4 2.5-1.3 2.8-1.6 0-.1.1-.1.2-.1.1-.1.1-.1-.1-.1 0 0-.1 0-.1.1s-.1 0-.1 0l-.3.2-.5.2-.4.1c-.1.1-.2.1-.2.1l-.2.1c-.1.1-.2.1-.4.1l-.3.1c0 .1-.1.1-.3.1-.1 0-.3.1-.5.1-.2.1-.6.1-.9.1-.5 0-.5 0-.6-.1v-.1l.1-.1c.3-.2.6-.4.9-.5l.5-.2c.6-.2 1.3-.5 1.4-.6.4-.1.8-.4 1.2-.7.4-.4.5-.4.5-.1l-.1.5c-.1.2-.1.2.1.2.1 0 .3-.2.7-.6.7-.6.8-.9 1.3-2.5.4-1.1.4-1.5.5-2.5.3-2.5.4-4.5.2-5.1 0-.3-.1-.4-.3-.3 0 .1-.1.1-.1 0-.1 0-.1-.6-.1-1.3-.1-1.1-.2-3.7-.3-4l-.2-1.5c-.1-1.4-.2-1.8-.4-2.5l-.1-.5c-.2-.8-.3-.9-.9-1.2-.4-.2-.6-.3-.5-.1 0 0 .1.3.1.7.1 1.1.1 1.3.4 2.1.1.2.3 1 .2 1l.1.2.2.8.1 1.4c.3 2 .3 3.4.3 4.7 0 1-.1 1.5-.3 1.6-.1.1-.4-.3-.5-.5 0-.2 0-.2-.1-.2-.1-.2-.1-.8-.2-1.9 0-.6-.1-1.3-.1-1.6-.1-.3-.1-.8-.1-1l-.1-1-.1-.9c0-.2-.1-.5-.2-.5-.1-.1-.1-.3-.1-.3 0-.3-.2-1.3-.4-1.8v-.2l-.1.2c-.1.2-.1.2-.2.2l-.2-.6c-.1-.2-.2-.4-.2-.5l-.5-1.3c-.2-.4-.9-2.3-1.1-2.7-.1-.4-.4-.7-.4-.6zm1.18 3.73c0-.03.02 0 .05.03v.27c0 .14-.08.14-.08.14s0-.14-.07-.22v-.14zm1.74 4.14zm.08.22c.07.2.22 1.1.44 2.3l.14.9c-.22-1.5-.44-2.7-.44-2.8 0-.1 0-.3-.07-.5zm64.55 3h-.08c0 .1-.07.3-.22.5l-.44.9c0 .2-.2.6-.4.9-.1.3-.2.6-.2.7.1 0 .2-.1.7-.9.3-.4.5-.9.6-1.1.2-.6.4-1.1.2-1.2zm-63.9 1.6v.1c.08 1.6.15 2.1.37 2.7s.37.6.52.6c.07 0 .07 0 .14.1h-.07c-.2 0-.2 0-.5-.8-.1-.4-.2-1.2-.2-2.4v-.3zm2.06 3.2h.2zm.2 0c.1 0 .1.2.2.4v-.4zm-.2 0c.1.1 0 .1 0 .1h-.1l.2-.1zm-.1.1c0 .1-.2.3-.2.4s0 .2-.1.3l-.1.2-.1-.2c-.1-.2-.1-.4-.1-.5v-.1l.2.4.2.4c.1 0 .3-.4.3-.6 0-.1.1-.3.2-.3zm-2.3 2.5c.1.2-.1.8-.2.8v.5l-.1.2c0 .2-.2.6-.2.6l-.1.3c0 .1-.1.3-.2.3v.1c0-.1.1-.1.1-.2.1-.1.6-1 .7-1.3.2-.4.3-.7.4-1.2l.1-.3zm1.1.7h.1c.1.1-.1.8-.5 1.5l-.5.9c-.2.3-.2.3-.2.1 0-.1 0-.1.1-.2.1 0 .2-.2.3-.4.1-.4.4-.8.5-.9l.3-.5.2-.4zm1.6 1.3c-.1.6-.4 1.3-.6 2.1 0 .2-.1.4-.3.5.3-.4.8-1.7 1-2.6zm-1.7 2.2h.1c.1.1.1.9 0 1v.1-.2c.1-.3.1-.8 0-.8l-.7.6v.1l.3-.2.5-.5zm.8.4c-.2.4-.5.8-.6.8.2 0 .5-.4.7-.8zm-1.9.7c-.1.1-.3.3-.5.3-.1.1-.3.2-.6.3.5-.2.9-.4 1.2-.7zm1.3 0h.1zm-2.4.6l-.6.3.6-.3zm-.7.3h-.3c-.3.1-.8.4-1.4.8-.4.4-.7.7-.6.7.1.1.5.1 1 .1.7 0 1.1 0 1.5-.2h.4-.1c-.2.1-.4.2-.7.2-.6.1-1.9.1-1.9 0 0-.2 1.7-1.5 2.1-1.5.1 0 .2 0 .4-.1zm-.3 1.8c-.2.1-.3.1-.6.3l-1.1.5c-.2.1-.3.3-.3.4 0 0 0 .1-.1.1l.1-.1c0-.3.2-.4 1.8-1l.3-.2z" id="path5354" fill="#525767" stroke-width=".01"/></g></g></svg>