<svg xmlns="http://www.w3.org/2000/svg" viewBox="0 0 1000 1000" data-name="pubic hair">
  <g data-name="bushy blue">
    <path d="M472.07 426.59c-1.31-6.13 4.08-11.39 10.91-11.95l35.34-2.93c6.88-.56 7.69 3.69 2.89 9.77C510 435.68 503 451 500.2 465.4c-1 6.14-5.61 6.18-10.22.1-9.26-12.75-15.23-26.16-17.91-38.91z" fill="#525767"/>
    <path d="M534.3 400.64c2.292 2.634-.76 6.063-2.855 7.682-1.384 1.573-8.564 4.938-4.674.88.48-.997 5.24-3.358 1.31-1.555-3.95.757-5.34 6.66-9.02 5.324 2.31-1.75 3.87-5.72 1.39-7.97 1.73 2.03-3.78 7.85-2.02 4.97.99-1.16 1.24-4.25-.89-4.98-3.59-1.28-7.33 1.31-10.19 3.28 2.26-1.49 6.97-2.74 8.17.71.88 2.64-3.48 4.63-5.58 4.77-2.16-1.34 1.98 2.31-.86 1.12-.51-1.4-1.89-3.73-.87-2.72-.15-3.83-5.13-3.98-6.86-3.98.42-2.4-2.43-3.46-4.35-2.85-3.07-.87-6.61-.14-8.9 2.36-2.02 2.92-3.67 6.31-6.87 6.92 3.07-1.77 5.9-5.47 4.42-9.13 1.03-1.82.24-6.09-.39-1.91-2.48 2.13-6.78 3.2-9.29 5.46-2.27-.58-3.37-1.34-1.11 1.02 1.01 1.11-3.66 2.58-4.04 4.75-1.45.4-2.73-1.58-4.5-.74 1.1-.37 3 1.55 1.16 2.02-1.24.09 0-.65-1.46 1.19-2.97 1.43 1.54-7.3-.24-4.39-2.5 2.05-2.84 5.31-4.36 7.9-.3.91.26 1.93 1.16 2.19-1.52.58-3.29-1.62-1.26.96-1.31 1.03-3.55 3.74-.72 1.33 2.9-.79-.35 5.61-2.22 6.3-1.25 1.84-7.51 1.16-2.41 2.05 3.09.87 6.01-1.92 7.55-3.34 1.24.94 4.18 3.27 3.14 3.95-1-.8-.91 3.55-3.51 3.47-1.33.79-3.69-2.52-2.26-.11 0 1.62 3.89 1.42 2.48 2.07-2.65-.04-3.65 3.91-1.32 5.18 2.13 1.49-1.03-1.22-.05-2.41.34-1.98 2.36-1.9 2.06-1.3.68-2.33.55.83 1.45.9 1.49 1.87 4.24 1.64 1.93 4.58-1.4 2.45 1.58 5.42 1.32 6.8-2.25-3.96-9.14-2.85-9.66 1.76-.42 2.02.36 6.93.67 2.18 1.45-4.39 7.81-3.55 10.14-.4 1.49 2.11 1.87 3 .69-.36-2.88-2.88 2.34-3.81 1.3-.19-.6 4.5.22-.58 2.58-1.13 2.22.28.54 5.69-1.46 6.64-1.15.55.52-5.11-.99-1.25-.95 1.33-2.62-1.4-1.05.73-1.96.42-4.07-.92-4.69-2.8.04 2.66 2.83 5.68 5.51 4.3.41 1.97-1.7 3.71-3.56 2.93 1.68.22 3.9 1.33 3.3 1.84.56-1.13 1.48-2.26 2.59-2.88 2.05-.81 7.55.92 6.31 3-.79.22 2.95-.46 2.72 2 2.56 4.57-2.96-5.61 1.38-4.13 2.37.65-2.03 5.35.73 3.53.97 2.12-1.89 3.55-3.57 2.51-1.31-2.38-1.77-2.6-1.1-.59 0 1.49-1.92 1.99-3.08 1.5 1.39-.6 2.2-1.67.27-.86-2.1-.01-4.13-2.35-3.52-4.44-1.64.82.57 4.05-1.21 3.32.04.04 3.34 1.84 2.94 3.76.15 1.17-.77 2.32-1.97 2.31 2.71-.39 1.89-.1 2.06 1.97 2.78 3.32-5.42-2.86-.7.9 2.97 2.31 6.97 4.2 10.79 3.42 1.17-.71.25-2.24.8-3.25 1.17 1.15 1.75 2.67 2.28 4.18 1.66 1.42 3.08 3.4 3.12 4.48.89.78 1.8 2.84.03 3.22-1.96.6-5.59-1.81-1.55.53 1.16.66 4.27 1.64 4.26-.6-1.19-2.03 1.2.16 2.32-.33.83.26 1.93-1.7 1.38-1.45-2 1.3-4.53-.61-5.89-2.03-2.29-1.75 1.28-1.95.22-.23 1.68-1.79 4.44.14 5.81 1.39 1.33 2.18 1.96 2.69 1-.06-1.04-1.96-3.77-3.89-5.99-2.82-1.12.96-2.78-1.16-3.21-2.27 1.22.69 3.2.36 3.25-1.32.89 1.91 5.5 6.03 2.13 1.8-2.06-3.13 2.45-.47 1.23 1.05-.94.27 3.22-.54 1.13-.65.73-.81.11-1.88.66-2.73-1.62-3 4.04-.27.16-2.05 1.12-.94 7.37 3.48 3.66.6-3.66-1-1.18-2.72.31-1.06 2.43 1.18 4.2 1.21.98-.28-2.16-2.09 1.37-1.62 1.59.16-.28 1.07 1.59-1.48 1.83-2.71-.24-2.19-2.4-4.05-4.61-3.96 1.76-1.55.78-4.86 2.07-6.08 2.58-.26 4.93 2.76 4.24 5.2 1.72-1.99.59-5.25-1.84-6.02.25-1.91 1.63-3.04.16-2.85-.02-1.44-3.48-2.05-2.06-2.52 1.49.84 3.42-.55 3.22-2.21 3.27 1.68 5.57 1.45 3.49.43 1.97.35 3.26-2.11 2.48-3.75 3.32-.13 6.15-6.44 3.82-4.08 1.15-1.51-.48-6.92 1.55-2.96.5 2.96-.32-2.94 2.07-.11 2.96 1.23 6.55-.41 7.33-3.59 1.65-2.51-2.05-7.76-2.64-7.24 2.86 4.27-1.64 10.47-6.51 9.41-.2-1.24-1.35-2.29-2.65-2.07-1.25-.9-2.03-3.15-.69-4.62 1.01-.69 2.82.95.81-.79 3.16-1.52 7.41.14 8.39 3.57-.11-3.5-2.59-8.26-6.74-7.38-3.2.88-.39-.62 1.3-.54 2.1-.53 3.07-4.02.79-4.99.99-3.24 1.86-5.78 5.19-7.1 1.23-2.33 2.68-2.03 1.85.47 1.76-1.89.41-4.4 1.37-6.31-.21-2.51-3.73-4.89.82-4.89 3.11-1.45 6.52-4.4 6.37-8.12-.48-1.26-1.53-2.38-2.89-2.67zm-49.734 3.94c-.663 1.618-6.926 5.292-3.055 1.908.93-.77 1.95-1.44 3.06-1.908zm.637 1.637c-.35 1.797-2.08 5.125-3.783 3.562 1.485-.9 2.892-2.06 3.783-3.57zm6.486 1.47c-2.06.733-3.78 5.212-4.78 5.258.46-2.476 2.61-4.24 4.78-5.257zm3.64.543c2.5-.23 5.2 1.867 1.47 3.102-.93.936-2.85-2.42-4.93-.904-2.04.214-6.13 3.697-2.46.29 1.65-1.384 3.71-2.462 5.91-2.488zm9.23 2.58c3.14-.845 3.88 3.395 1.84 4.81-.96-.513-2.84-2.1-4.53-1.33-1.5.35-7.1 3.835-3.88.44 1.75-1.21 1.18-1.01 3.34-2.23 1.73-1.702 7.76.866 3.24-1.685zm-22.67.3c-.56 1.716-5.27 1.83-2.16.345.7-.192 1.42-.308 2.15-.346zm4.13.804c1.32 2.66-2.08 3.957-1.92 3.56.25-1.343.96-2.593 1.92-3.56zm29.37.002c-.43 1.65-2.25 1.664 0 0zm9.63.1c3.49-1.692 4.32 3.91 1.92 4.524-2.17-.268-2.73-2.785-1.93-4.524zm-33.32 1.172c2.35-.306 4.46 1.292 1.2 1.703-1.78 2.55-1.92-.81-1.54-.74 0 1.68-5.5-.08-2.03-.44.75-.29 1.55-.47 2.36-.51zm-9.46 1.484c.05 2.574-4.11 2.917-2.15.465.73-.068 1.45-.23 2.15-.465zm-8.08.068c1.74.81 1.25 1.688-.36.358zm20.4.537c-.03 2.636.11 2.376-2.31 1.842.55-.84 1.41-1.43 2.31-1.85zm20.1.055c-.4 2.143-3.4.077-1.2.06-1.66 1.74.41-.542 1.2-.06zm3.95.578c2.39-.25 4.92 1.584 4.73 4.13-1.59.136-2.02-.23-2.88-1.33-3.13-.053-2.55.326-1.85-2.8zm-44.43.37c3.74-.05.09 1.7.27 1.56 2.21-.187 4.3-.805 1.25 1.085-2.47.993-1.96-2.644-2.01-2.14-1.31 3.445-1.34-1.853.48-.506zm34.31.122c2.55.122-2.8 3.372-.36.87l.26-.605zm7.55.07c.16 1.58-2.13.28 0 0zm-14.56.247c1.33.29.76 1.03 0 0zm-16.2.17c2.73-.81 3.94 3.35 1.13 2.13-.54-1.14-3.16-.15-1.14-2.14zm-.56.01c.19 2.43-1.54-.07 0 0zm11.67.13c1.15-.28-.94 1.24 0 0zm5.96.09c1.92 1.67-.34.92-.01.61-.02-.22-.44-.41.01-.62zm-4.93.11c4.08 1.21-4.14.88 0 0zm-27.45.11c.53 2.96-1.99.92 0 0zm57.24 0c-2.09.49-4.81 5.05-3.3.28 1.1.28 2.22-.07 3.29-.28zm-46.32.01c-1.13.7-4.63 3.39-2.07.16.69.01 1.39-.01 2.06-.17zm-11.79.49c-.35 2.1-2.22.77 0 0zm34.43.58c.13 2.34-2.04-.19 0 0zm-4.45.12c.22.21-.23-.03 0 0zm-.6.12c-.09 2.14-2.02.7-1.23.71-2.47 1.85-.16-1.07 1.23-.71zm27.38.37c-2.38 2.85-2.95.69 0 0zm-7.98.07c1.18-.37 2.77 1.67 1.25 2.07-.93 1.39-4.72 1.31-1.9-.28-1.54-.99 3.66-.03 1.64-.91-.2-.47-1.93-.24-1-.89zm-19.08.35c.36.98-1.34 1.02-.09.09zm-36.17.2c1.17 1.28 1.1 2.84.06.69-.05-.22-.07-.46-.06-.69zm33.12.15c1.19.67-.98.91 0 0zm1.21.11c.45 1.07-1.79 1.23 0 0zm8.96.08c-.63 1.18-1.82 3.26 0 0zm-16.82.08c.45 1.39-1.63-.15 0 0zm32.22.29c.72-.05.03.44 0 0zm1.12.65c.39 1.59-4.13 1.46-.3.11zm-41.41.18c1.11 3.33-3.5-.15-.79 2.4-1.72 2.79-3.24-.37-.77-1.94.49-.23 1.02-.39 1.55-.47zm23 .04c.12.32-.28-.03 0 0zm4.19.13c-.95 1.55-2.04.81 0 0zm3.19.14c.82-.14-.42 1.08 0 0zm-6.41.45c.25 1.64-1 .16 0 0zm11.11.09c1.48.64-.96 2.04 0 0zm-41.32.13c2.99 1.02-5.39 2.07-1.55.73.54-.19 1.06-.43 1.54-.73zm24.5.11c-.52 3.05-2.24 1.22 0 0zm15.92.39c.4.33-.39.1 0 0zm-39.78.15c.15 1.21-1.99 1.05 0 0zm39.65.11c1.89 1.62-2.07 2.49-1.09 1 1.3 1.96-.47-.91 1.09-1.01zm-23.29.89c.63.15-.88 1.01 0 0zm27.32.11c1.93 1.12-4.1 4.28-.64.82zm-55.14.03c1.28.47-2.63 1-.42.02zm49.38.01c.09 1.74-2.62.06 0 0zm-7.47.16c1.53.91-.64 1.32 0 0zm-17.43.01c-.14 1.14.38 4.5-1.13 2.25-.93-.37.14-2.42 1.13-2.25zm31.94.08c4.3-.96-2.29 3.45 1.15 1.49 1.46-.26-2.89 3.24-2.7 2.8-1.4-.29 2.18-2.25 1.57-3.85l-.01-.4zm-38.51.08c1.19-.04.32 3.77-.06 1.57 1.45-1.62-2.6.65-.29-1.36zm-2.21.3c-1.16 2.26-2.02.81 0 0zm25.13.22c.08.09-.1.09 0 0zm-17.96.15c.99 1.76-3.5 1.64-3.03.17 1 .3 2.08.22 3.04-.17zm-21.89.01c.38.83-.59 5.58-1.26 3.27.27-1.26.02-2.43 1.26-3.28zm36.95.85c.64 2.98-3.24 3.63 0 0zm-26.01.1c.63 1.1-.53 3.04 1.12 3.73 3.04-.17-1.85 3.58-.55.8-.08-1.21-1.19-2.2-2.11-2.36-1.32 1.64.36-1.93 1.54-2.18zm-7.92.29c-.02 2.05-1.58 2.97 0 0zm16.61.32c1.19.11 1.01.57 0 0zm19.47.15c3.03.77-2.15 1.86 0 0zm-24.68.03c1.61-.32 1.02 1.02 0 0zm6.65.54c1.12 1.29-4.19.47 0 0zm-13.07.02c-.13 2.49-.25 2.13 0 0zm10.05.01c.13.07.07.11 0 0zm-1.83.01c1.06.62-.68.54 0 0zm.39.45c.33 1.39 1.25 3.54.68 3.67-1.53-.8-2.11-4.85-1.76-1.07-.72 3.26 5.2 4.99 1 6.15-1.25 1.16-.41 3.9-2.71 2.4-1.63-.24 1.95 1.12 1.12 2.5-.55.79.06.6-2.33-.16-2.82.11-2.95-.21-.92-1.81 1.36-3.26 1.14-2.33-.99-.55-2.95.83.13-5.48.82-5.45-1.07 2.09 1.8 4.11 3.53 2.57 2.36-1.62-.34.24-1.51-.7-1.91-1.4-.13-2.24-.58-2.24-.5-1.14.89-.95.41-1.17 1.39-.68 1.36-2.47 1.86-3.5.49-.29.61-.92 1.37-.65zm1.61.01c1.59.79 4.99 3.57 1.45 1.93-.64-.51-1.15-1.18-1.45-1.93zm31.17.05c.97.62-1.64 1.08 0 0zm-14.07.36c1.05-.02-.8 1.6 0 0zm-25.57.24c1.52 1.26-.27 3.25-.82.94-.2-.48.56-.69.81-.95zm-5.95.01c1.11 2.88-1.89 4.52-1.07 1.45.46-.4.8-.91 1.06-1.46zm46.08.22c.95.76-1.15.51 0 0zm-37.23.26c1.91-.18.79 1.63 0 0zm-14.14.02c2.94 1.06-1.59 1.91 0 0zm39.86.44c2.81-1.17 2.38 2.7 3.83 3.07 3.05 1.39-3.32 3.44-.4.85.64-.37-2.3 1.5-2.15-.57.9 2.2-2.71 3.65-3.47 4.84-1.79-3-.67-4.94 1.14-7.26l.57-.55zm17.92.15c.81 1.14.18 3.75-1.49 3.21-3.2.51-.24-1.99-.27-1.5.48-.4 1.32-1.03 1.76-1.7zm-51.36.08c1.82 1.96-2.87 3.92-.63 1.25zm18.8.01c-.17 3.11-3.49.03 0 0zm-15.34.07c2.08 1.19-.86 1.12 0 0zm24.77.02c1.34 1.42-1.69 4.23-.53 5.21.49 2.29-2.12 4.41-4.22 3.78 2.14-3.14-2.96-9.07 3.08-8.48.57-.09 1.13-.26 1.66-.51zm13.32.14c.18-.1.11.27 0 0zm-36.27.78c-.03 1.19-1.88-.19 0 0zm40.93 1.89c-.24 3.17-2.68-.49 0 0zm4.53.46c-1.6 1.96-3.19 1 0 0zm-3.2.05c.94.07-.53.78 0 0zm-24.99.05c.06 1.54-.74 3.21-.22.71zm-17 .23c-.06.83-2.1.43-.71.17zm35.75.12c2.19 1.16.87 4.81.52 1.22-.31-.73.16 3.91-2.45 2.52-1.91-.51 1.42-3.26 1.13-1.81-.22-.83-.18-1.63.8-1.93zm-39.34.33c2.07.49 3.69-.09.88 2.04-.93 1.98-.39-1.66-.88-2.04zm46.7.32c.29.23-.53.2 0 0zm-8.63.5c.12.13-.26.2 0 0zm-4.8.3c2.21 2.37.2 1.77-1.39 3.06.21-1.11.69-2.17 1.39-3.06zm-34.9.15c1.34.76 1.98 4.47.13 4.32-.93-1.51-2.13-2.89-.13-4.32zm18.55.09c2.31 2.33-.4 5.48-1.74 4.41 1.67-1.57-1.6-4.03 1.06-4.1l.25-.12zm-17.14.27c.24.41.26.61 0 0zm12.4.32c2.06-.22 3.09 1.17 1.81 2.97-.58 1.84-4.07 1.72-3.79-.32.21-1.12.93-2.16 1.98-2.65zm22.12.28c.89.06 1.59 1.03.27.21zm-34.7.36c1.34.01 0 1.77 0 0zm27.13.54c3.05.96 2.23 3.68.62 5.48-.97 2.24 1.21 4.3 3.37 4.28 1.59 1.64 4.75 2.32.83 2.09.33.33 3.46.8 1.74 3.07-.13 1.79 2.47 6.35-.37 4 .3-2.28-4.42-3.63-1.4-5.1.03-.48-3.97 2.18-1.89-.72.93-1.13-3.43 3.43-3.41.27-.47 3.24-.07-4.12-2.15-4.46-2.95-2.36 4.07 1.52 3.36 3.89.49-3.66-2.25-7.57-5.04-8.55.87-1.6 1.44-.42.89-1.42 1.75.31 3.23-1.17 3.44-2.83zm-29.85 1.1c1.93 1.12 1.04 1.76 0 0zm37.25.6c3.03-.13-4.82 4.62-1.81.64.5-.42 1.16-.62 1.81-.64zm-41.66.79c.35.35-.41.21 0 0zm17.86.29c1.56 1.1.04.72 0 0zm10.55.11c1.17.24-.61.71 0 0zm-.23.63c1.41 1.43-3.74 2.4-.37.17.04-.22.23-.14.37-.17zm-10.87.14c1.12.46 4.88 1.46 1.87 1.45-.82-.15-1.49-.73-1.87-1.45zm1.4.18c.71.12 1.12.74 0 0zm32.13.14c1.19 1.71.77 2.14-.28.53zm-1.19 0c.36 1.21-.61.13 0 0zm-6.84.01c2.4-.53 1.94 1.61 1.58 1.65 2.07-1.46 2.37.72-.1.22-1.71 1.49-1.62-.26-1.62 1.94-2.57-.46-4.39-3.92.14-3.81zm-16.5.95c-.24 1.57-2.84 3.69-1.47.63.52-.12 1.01-.34 1.47-.63zm-5.32.14c1.98-.31 3.67 2.73 2.62 3.68-1.81.21-3.76-1.52-1.18.7 2.6.52.57 2.83-1.11 1.38-1.72-.39-4.14-3.59-2.94-4.53 1 .08 1.92-.56 2.61-1.22zm29.23.29c3.17.66-.89 6.15 1.11 3.73 1.62-.24-.32 4.85-1.89 5.64-2.63.14-4.77-5.46-1.89-3.6.38 2.46-.11-3.63 1.14-.85-.08 2.15-.41 3.42.69.35.65-1.66.49-3.4.84-5.28zm-13.84.47c1.24 2.59 2.07 5.35-.13 2.06-.17-.68-.15-1.42.13-2.07zm-19.66.63c.28.6-.3.36 0 0zm30.31.28c2.41.8.78 4.13-.4 1.45l.26-.85zm-43 .17c.83.33-.69 6.22 0 0zm41.43.05c-.41.64-.56.18 0 0zm-40.02.02c-.16.67-.46-.28 0 0zm39.6.19c-.16.62-1.04.42 0 0zm-16.14.59c1.23-.01.56.24 0 0zm-18.25.85c2.54-.27-1.44 5.67.04 1.34.04-.44.01-.89-.04-1.34zm7.22.1c2.07 1.2-.19 6.82-.4 3.1.34-1.07-.46-2.27.39-3.11zm-3.36.14c1.74 1.82-1.27 1.15 1.33 1.8-1.89 2.58-2.06-.37-1.33-1.8zm31.47.63c.04 0-.03.02 0 0zm-38.55.07c.9 2.84-1.4 1.13 0 0zm19.82.73c1.08-.29-.13.92 0 0zm-.9.01c-.3 2.74-3.38.34 0 0zm-10.29.82c2.04 2.68-1.51 1.91 0 0zm13.7.14c2.07.46 3.56 6.14 1.32 2.59-.32-.92-.85-1.75-1.32-2.59zm-.71 1.37c.63 1.4-.9.49 0 0zm-9.6.28c2.28 1.41 1.79 2.05-.62.52.17-.21.38-.39.61-.52zm24.95 1.14c1.92 1.91-.92 5.43-.23 1.18l.11-.69zm-17.8.55c2.15 2.44-2.39 4.88-2.31 4.47-1.37-1.07-2.19-1.41-.54.17-2.94-.14 0-4.65 1.04-4.18.62-.03 1.23-.21 1.8-.45zm18.76 1.07c.69.39-.16.57 0 0zm-17.77.13c1.69.91-1.86 2.31-.07.24zm17.78.2c1.16 1.34 5.47 1.15 3.18 3.45-1.74 2.24-4.87-.11-3.22-2.51.04-.32.04-.63.04-.94zm-11.31 1.29c-.31 3.14 4.88 4.88 4.97 5.79-2.38 1.82-5.89-.74-5.1-3.58.57-3.21-1.06 3.91-1.22-.12.81 3.3-4.56-.72-1.18-1.59-.26 3.11.26-.75 1.97-.25.19-.08.39-.16.57-.26zm-25.93.07c-.26.85-.19.37 0 0zm27.63.1c.24-.1.32.59 0 0zm-16.16 1.2c.34 2.24-.58 5.62-.93 1.68-1.61-1.57.9-1.08.93-1.68zm-5.79.07c1.13.07-.23 1.42 0 0zm1.21 1.12c1.96-.26 4.43 3.04 2.8 4.36-3.63 2.31.63-4.06-1.6-1.76-1.68 3.25-3.24-.92-1.82-2.47.19-.07.4-.14.61-.13zm7.69.85c.2 1.44-1.11 3.08-2.87 3.75-.73 1.52-3.94.08-.58-.01 1.65-.6 2.91-2.11 3.45-3.74zm4.85.85c2.47-.05 3.86 2.03.77.57-.28-.16-.54-.35-.77-.58zm-.34.05c2.06 2.09-.25 2.43 0 0zm7.15.8c1.81 1.38.33 1.43 0 0zm-15.61.55c.17.06-.13.37 0 0zm9.58.19c1.06.95-1.59 1.09 0 0zm-14.97.32c1.22 1.9-.57.55 1.38 1.88-1.13-.84-3.51-.44-1.38-1.88zm7.63 1.11c1.68.38-3.14.59-.01 0zm19.25.14c1.54.47 3.16 2.81.45 2.43-2.73-.04-1.77-1.07-.45-2.43zm-8.71.24c.89.25.69.73 0 0zm-2.62.21c1.31.22 1.25 1.33 0 0zm3.91.12c.17.07-.02.07 0 0zm-2.75.77c.76-.08.8.69 0 0zm2.68.62c1.38.15-.17.59 0 0zm-5 .01c.41-.2.69 1.02 0 0zm.43.21c1.24-.08.14 1.22 0 0zm5.32.17c1.47 1.26-.66 6.12 1.36 2.15 1.56-2.2 1.17 4.86.49.8-.08-.38-.3 2.31-1.69 2.13-.57-.32 1.43-1.54-1-.55-1.44-.18-3.24-2.55-2.68-2.68 1.93.28-2.81-1.36-.54-.46-2.13-2.62 4.43-.97 2.49 1.75.53 1.14.75-3.42 1.56-3.15zm-5.57.43c.94.14.44.8 0 0zm14.8.22c.72 1.31-1.74.56 0 0zm-21.13.9c.11-.04.01.1 0 0zm2.41 1.59c.98.44 2.62.19 2.85 1.08-1.26 1.71-4.95-.55-2.85-1.08zm-2.2.48c.73 2.47.34 3.99-.94.88-.38-.32.79-.7.94-.88zm8.36 2.72c1.96.92-.4 2.2 0 0zm-1.31.03c.05 1.22-.82.27 0 0zm3.95.84c2.08-.29-.12 1.17 0 0zm4.39.34c.22 1.01-1.36-.33 0 0zm-20.03.3c5.35 3-2.99 2.29-2.57 1.95 1.51 1.64 6.5 1.12 4.75 4.16-2.3-1.43 1.22 1.29-1.95 1.73-1.51.58-5.04.95-4.33-1.5.66-1.7 2.95-1.58 4.29-.82-.67-2.08-5.44-.56-4.13-2.49.18-1.55-2.02-3.63.84-1.47 1.35.82 3.32.26 3.09-1.56zm16.7.11c1.24-.33 3.95 1.95 1.5 1.7-.27.08-2-1.87-1.5-1.7zm-6.42.55c2.02 1.56.93 1.89 3.13 3.81 2.04 2.49-1.09-1.55-2.37-1.48-1.03-.08-.82-1.61-.76-2.33zm4.03.11c1.69.76 2.11 4.87 0 1.1-.35-.57-1.08-1.16 0-1.1zm6.66.18c1.96-.48 4.79 5.21 2.85 2.45-.57-1.25-2.68-1.3-2.86-2.45zm-19.13.08c2.27-.15 1.37 1.59 0 0zm6.13.39c1.48 2.53-.39 1.43 2.24 2.86 1.97.71 2.96 2.73.76 3.11-.12-.52 2.06 2.35.56 3.15-.76.42-3.34.04-2.02-.98 3.1-1.25-2.03.56-2.56-1.09-1.53-1.19-.56-3.98 1.47-3.48.81.1-3-1.37-3.63.21-1.73-1.68 3.37-.97 3.16-3.69l.01-.06zm11.79.35c-.92.54-.54 1.95-1.18 2.77-1.25 1.91-4.43-3.63-.81-2.04 1.72 2.85-.69-.58 1.99-.72zm.84 1.25c-.34.3-.56.1 0 0zm1.29.06c1.51.31 3.73 1.81 2.41 3.48.11-1.61-2.75-2.66-2.41-3.48zm-10.56 1.2c1.41 1.16 1.55 2.05 0 0zm8.47.17c.69 2.5-2.15-.6-.21.79.01-.26-.32-.86.21-.78zm1.56.23c2.31.41-.26 1.41 0 0zm-4.25 3.52c.46 1.6-1.72 1.32-.9.29.28-.15.58-.24.9-.29zm-9.76.99c.53.09.57.63 0 0zm8.25 1.83c.5.21.32.94 0 0zm-12.44 3.06c-1.43-.25-2.24 1.56-1.14 2.54 1.81 2 1.33 1.94.79-.26.59-1.55 2.96-.85 4.03-.26 2.95 1.84-2.79-2.52-3.69-2.02z" fill="#9497a2"/>
    <path d="M534.566 398.125c.788.905.932 1.903.713 2.89.8.457 1.43 1.218 1.81 2.063.26-.72.4-1.48.37-2.28-.49-1.263-1.54-2.386-2.9-2.673zm-48.504 1.105c-.168-.012-.38.47-.576 1.774-2.48 2.132-6.784 3.2-9.3 5.46-2.273-.586-3.367-1.347-1.108 1.016.31.34.058.72-.412 1.137.36.11.764.238 1.256.365 2.516-2.26 6.82-3.33 9.3-5.462.344-2.295.73-2.013.844-1.014.486-1.306.33-3.252-.003-3.276zm48.928 2.68c-.68 1.558-2.123 3.003-3.28 3.897-.603.686-2.294 1.688-3.704 2.29-.566.398-1.09.804-1.235 1.104 0 .01 0 .01-.01.02.71.09 1.22.56 1.52 1.18.18-.08.35-.18.53-.27-.14-.69.25-1.13 1.96-1.18.29-.21.54-.42.7-.6 1.78-1.37 4.22-4.03 3.55-6.41zm-50.158.154c-.664 1.618-6.928 5.293-3.057 1.91.926-.77 1.945-1.44 3.057-1.91zm30.934.06c-2.933.01-5.838 2.024-8.16 3.62 1.722-1.138 4.875-2.134 6.806-1.004 1.035-.166 2.083-.126 3.117.244.89.304 1.35 1.032 1.52 1.852.63-1.394.56-3.747-1.27-4.367-.68-.25-1.35-.35-2.03-.35zm-20.897.3c-2.4-.046-4.82.83-6.55 2.705-.84 1.2-1.61 2.48-2.45 3.61-.54 2.43-2.56 4.59-4.68 5.82 1.3-.25 2.34-.98 3.26-1.93.3-1.22.95-2.35 1.83-3.24.1.2.16.39.21.58.51-.78 1.02-1.57 1.55-2.34.92-1.01 2.05-1.71 3.27-2.16l.13-.07c-.03.01-.05.03-.07.05 1.78-.64 3.75-.7 5.57-.18 1.92-.61 4.77.45 4.35 2.85.96-.01 2.91.04 4.49.73-.26-.16-.53-.33-.97-.58l-.02-.01c1.92-.52 2.94.87 2.97 2.35.21.42.35.9.37 1.47-.85-.84-.06.61.53 1.94l.06-.18c.96.04.8.53.36.99 2.65 1.07-1.37-2.47.78-1.15 1.95-.13 5.83-1.85 5.69-4.21-.49 1.49-2.09 1.48-.01-.09-.01-.16-.05-.32-.1-.48-.04-.13-.1-.24-.16-.36-1.11 1.5-3.69 2.51-5.16 2.6-2.17-1.34 1.98 2.31-.86 1.12-.51-1.41-1.89-3.74-.87-2.73-.03-.68-.21-1.24-.5-1.7-.21.11-.44.23-.62.35.19-.13.4-.27.6-.4-1.34-2.13-4.93-2.24-6.35-2.23.41-2.4-2.43-3.47-4.36-2.86-.77-.22-1.57-.34-2.37-.35zm25.83.06c.55.65.36 1.686-.09 2.702.58.594.9 1.29 1.02 2.03.58-1.656.46-3.467-.93-4.732zm-34.62 1.053c-.05.667-.18 1.38-.47 1.9.19.464.3.93.36 1.39.34-1.053.41-2.168.1-3.29zm43.77.936c-.1.016-.54.207-1.52.658-3.29.63-4.81 4.81-7.35 5.43-.49.96-1.17 1.82-1.95 2.41 2.98 1.09 4.46-2.57 7.01-4.41-.34-.14-.16-.68.98-1.87.35-.74 3.12-2.26 2.82-2.21zm-45.3.107c-1.11.47-2.13 1.14-3.06 1.908-3.87 3.385 2.39-.29 3.05-1.908zm36.02.67c-.4.867-.97 1.688-1.44 2.256.03.95-.26 1.918-.72 2.46-1.7 2.773 3.33-2.508 2.16-4.716zm-35.38.967c-.89 1.51-2.3 2.667-3.79 3.562 1.7 1.56 3.43-1.77 3.78-3.57zm9.98 2.023c-2.15.072-4.15 1.126-5.77 2.48-.31.28-.48.45-.68.643.18-.074.46-.137.87-.18.19-.077.4-.123.6-.183.58-.282 1.18-.522 1.66-.572 2.08-1.515 3.99 1.84 4.92.904 2.54-.84 2.07-2.066.74-2.7-.15.064-.3.125-.48.184-.44.44-1.1-.07-1.89-.576zm-4.57.188c-.39.184-.71.36-1.05.554-1.3 1.005-2.35 2.325-2.66 3.963.82-.038 2.12-3.027 3.7-4.517zm-16.58.695c-1.16.85-2.78 1.86-3 3.106-1.45.39-2.73-1.59-4.51-.75 1.1-.38 2.99 1.54 1.16 2.01-.97.06-.47-.33-.86.32 1.49-.25 2.64 1.27 3.93.92.38-2.17 5.05-3.64 4.04-4.75-.4-.42-.57-.64-.78-.88zm-7.62.574c-.03-.03-.15.138-.43.592-2.51 2.04-2.85 5.31-4.36 7.89-.18.53-.06 1.09.25 1.52 1.04-2.23 1.58-4.76 3.43-6.54.32-1.47 1.17-3.39 1.1-3.48zm15.48 1.412c-.73.03-1.46.15-2.16.34-3.11 1.48 1.6 1.37 2.15-.35zm47.53.43c-.49.1-.76.28-.87.52-.01.13-.03.26-.05.38.06.8 1.03 2 1.37 3.28.01-.68.07-1.34.37-1.94-.07-.79-.47-1.56-.83-2.26zm-40.96.06c-.82.79-.54.65.17.24-.11-.08-.18-.17-.18-.25zm14.74.26c-.74.04-1.44.19-1.88.62-2.16 1.22-1.59 1.02-3.34 2.23-.03.02-.04.04-.07.07 1.92.61.47.78-.59.67-1.56 2.01 3.12-.85 4.51-1.18-.03-.04-.06-.06-.08-.1.07.01.12.04.18.05 1.67-.68 3.51.85 4.45 1.36 1.04-.73 1.36-2.19.99-3.33-.18.32-.42.6-.73.82-.5-.27-1.26-.83-2.1-1.19-.44-.04-.9-.06-1.36-.04zm12.18.04c-.53.39-.82.67-.97.88.18-.05.35-.07.49.01.18-.21.37-.5.47-.9zm-29.34.07c-.17.21-.36.38-.56.53-.69.86-1.2 1.87-1.4 2.95-.05.11.2.07.53-.08-.3-.21-.53-1.05.37-1.01.02.28.01.47-.01.63.12-.18.3-.39.57-.66.13-.04.25-.06.38-.07.38-.58.54-1.36.09-2.32zm-1.05 3.04c-.07.09-.11.18-.14.25.03-.02.06-.03.1-.05.01-.06.03-.13.04-.2zm40.06-3.04l-.04.01c-.47 1.01-.46 2.27.04 3.21.82 0 1.64-.23 2.44-.39-.62.15-1.26.63-1.86 1.14.34.29.77.49 1.3.56 1.23-.32 1.6-1.94 1.21-3.22-.23.34-.54.6-.95.7-1.2-.15-1.89-1-2.15-2.03zm-32.5 1.15h-.11c-.31.22-.53.18-.69.02h-.07c-.81.04-1.61.21-2.37.51-3.13.32 1.02 1.77 1.87.83.02-.24.07-.41.16-.39 0 .16-.07.28-.16.39-.06.78.33 2.31 1.69.35.19-.02.31-.06.47-.1-.26-.06-.48-.11-.85-.19.32-.48.74-.87 1.21-1.2-.34-.12-.73-.22-1.17-.25zm-25.84.81c-.12.18-.23.37-.51.72-.47.22-.75.19-.9 0-.49 1.57-.78 3.19.64 2.51 1.45-1.84.22-1.1 1.46-1.19 1.59-.41.38-1.91-.69-2.05zm15.51.7c-.42.14-.84.24-1.27.33-.37.24-.82.54-1.32.86-.61 1.61 2.63 1.08 2.58-1.2zm-8.26.25l-.18.18c.08.07.15.11.22.16-.02-.12-.04-.23-.05-.34zm.96.3c-.08.03-.24.11-.22.09l.29-.03c-.02-.02-.06-.04-.08-.06zm39.38.04c-.61.06-1.41.76-1.44.75.46.37 1.55.56 1.78-.69-.1-.06-.22-.08-.35-.07zm-19.76.01c-.9.41-1.76 1-2.31 1.84 2.42.53 2.28.79 2.31-1.84zm18.9.11c-.91.01-.91.36-.59.63.04-.05.19-.21.59-.62zm-39.87.67c-1.2.06-1.04 3.74.11.73.05-.51-.47 3.13 2 2.14 3.05-1.89.95-1.28-1.25-1.09-.13.11 1.99-.9 1.26-1.35-.58.17-.98.06-1.24-.19-.11 0-.17-.02-.29-.01-.23-.17-.43-.24-.6-.23zm44.97.04c-.04.2-.07.31-.12.48 1.13-.03 2.37 1.74.97 2.11.32 0 .57 0 1.05.01.2.25.38.46.55.63.18-.17.6-.4 1.43-.69l.3-.11c.19.76-.74 1.11-1.35 1.14.46.33 1 .43 1.95.35.08-.98-.25-1.84-.81-2.53-.74-.11-1.15-.51-1.74-1.25-.05-.03-.1-.05-.15-.07-1.12-.02-1.76.02-2.06-.09zm-10.07.3l-.09.26-.27.6c-2.44 2.5 2.91-.75.36-.87zm7.55.07c-2.12.28.17 1.58 0 0zm13.82.12c-.28.71-.27 1.51-.27 2.31.26-.74.27-1.53.26-2.31zm-28.37.12c.36.49.67.57.76.5 0-.01.01-.01.01-.02.06-.1-.13-.35-.78-.49zm.78.49l-.02.01c-.2.17.08.34.09.53-.33.3 1.92 1.05.01-.62-.05.02-.06.04-.09.07zm-16.48-.41c-.16.01-.33.04-.5.09-.27.27-.46.48-.58.65-.03.23-.09.36-.17.4-.01.55 1.49.24 1.88 1.08 2.63 1.14 1.73-2.44-.64-2.23zm-1.24 1.15c0-.11.05-.24.17-.41.02-.16.03-.36.01-.64-1.1-.05-.52 1.23-.18 1.04zm12.15-.93c-.06-.02-.15-.01-.29.03-.15.2-.21.31-.23.38.04.03.08.06.11.09.05-.02.12-.06.18-.11.03-.08.13-.2.28-.35-.01-.02-.02-.03-.06-.04zm21.61.13c-.08.28-.15.59-.19.77.96-.01 2.22.1 1.04-.41-.1-.22-.53-.29-.86-.36zm-20.87.1c-.61.13-.93.24-1.08.35.06.1.04.18-.03.23.07.05.19.09.34.12.1-.14.26-.3.58-.51.1.24.05.43-.04.58 1.08.08 2.4-.12.22-.76zm-27.46.11c-1.99.92.52 2.96 0 0zm57.24 0c-.77.15-1.55.36-2.34.38-.57.36-.83.25-.7-.05-.09-.01-.18-.03-.26-.05-1.51 4.77 1.21.21 3.29-.28zm-46.32.01c-.67.16-1.38.18-2.07.16-2.56 3.22.95.54 2.07-.17zm-11.78.49c-2.22.77-.35 2.09 0 0zm52.49.01c.72-.04.03.45 0 0zm-18.4.56c-1.44.11.46 2.19.33 0-.13-.01-.24-.01-.33-.01zm-4.12.12c-.23-.03.22.22 0 0zm-.86.09c-1.35.02-3.13 2.29-1.13.85-.01-.07.02-.12.16-.12-.07.06-.1.07-.17.11.04.28 1.32.93 1.4-.83-.09-.03-.18-.03-.27-.03zm27.65.4c-2.96.69-2.39 2.85 0 0zm-7.12.17c-.3.17-.64.29-.97.36.31.12.97.15 1.1.43 2.02.88-3.19-.09-1.65.9-2.83 1.58.97 1.66 1.9.27 1.15-.31.51-1.55-.39-1.97zm-19.95.25l-.1.09c-1.25.93.45.89.09-.1zm-36.17.2c-.01.22.01.44.05.66.02.01.04.02.07.02l-.05.01c1.03 2.12 1.09.57-.07-.71zm33.12.15c-.99.91 1.19.67 0 0zm1.2.11c-1.79 1.23.45 1.07 0 0zm-36.36.1c-.08.01.18.36.66.97.01-.11.04-.22.07-.33.07-.11.12-.22.18-.34-.46-.13-.83-.34-.91-.32zm28.51.06c-1.63-.15.46 1.39 0 0zm32.22.29c.04.44.72-.04 0 0zm1.12.65l-.3.11c-.65.23-1.04.41-1.27.57.83-.17 1.2-.1 1.29.09.22-.19.36-.44.28-.77zm-41.41.18c-.24.04-.48.09-.72.16-.55.76-1.06.94-1.41.77-1.43 1.43-.52 3.44.79 2.15-.02-.02-.04-.03-.06-.05.05-.01.07-.01.12-.02.16-.16.32-.36.48-.63-.39-.37-.62-.6-.74-.76-.88 1.12-1.27-.04.46-.73-.11.21-.21.35-.31.5.63.12 2.05.61 1.38-1.41zm23 .04c-.27-.03.13.32 0 0zm-42.77.24c-1.27 1.07-3.01 3.18-.79 1.35-.22-.33-.13-.33.23-.18l.04-.03c.59-.16.91-.01 1.05.31.22.01.44-.01.67-.09-.64-.19-1.09-.74-1.21-1.37zm59.42.36c-.12.12-.1.21.01.26l-.01-.27zm-15.68.12c-1 .17.25 1.64 0 0zm-30.22.22c-.49.3-1.01.54-1.55.73-3.84 1.34 4.54.29 1.55-.73zm24.5.11c-2.23 1.22-.52 3.05 0 0zm15.92.39c-.39.1.4.33 0 0zm-39.78.15c-1.98 1.05.16 1.21 0 0zm39.65.11c-1.56.09.21 2.96-1.08 1-.99 1.49 2.97.62 1.08-1.01zm-23.29.89c-.88 1.01.63.15 0 0zm27.33.11l-.64.82c-2.15 2.14-.64 1.74.35.85.07-.22.33-.53.64-.88.09-.31.02-.59-.35-.81zm-55.14.03l-.41.02c-1.75.77.31.6.63.27l.02-.14c-.03-.05-.1-.1-.24-.15zm49.39.01c-2.63.06.09 1.74 0 0zm8.19.12c-.31.31-.69.63-1.07.95.02 1.52-2.92 3.2-1.63 3.47-.19.43 4.15-3.06 2.7-2.8-3.01 1.71 1.64-1.44 0-1.62zm-15.67.03c-.64 1.32 1.53.91 0 0zm-17.98.14c-.77.43-1.34 1.82-.58 2.12 1.36 2.02 1.09-.44 1.12-1.79-.12.07-.3-.05-.55-.33zm-6.02.02l-.35.22c-.87.75-.85.91-.55.89.11-.11.24-.19.41-.21-.15-.06-.23-.2.03-.4.43.26.38.39.23.42.05.01.1.02.15.04v.01c.28-.03.4.06.12.43.08.27.15.53.24.82.34-.22.57-2.25-.3-2.23zm-.21.92c-.1-.02-.19-.03-.27-.02.08.04.18.04.26.02zm-2.01-.61c-2.02.81-1.16 2.27 0 0zm7.17.38c-.14.05-.28.09-.43.13-.06.44-1.35.4-1.7.2-.31-.02-.62-.07-.91-.16-.04.12-.03.23-.01.34.36.2.74.45 1.12.73 1.1.2 2.51-.17 1.92-1.24zm-21.85.24c-.25.92-.6 1.54-.92.86-.06.15-.1.3-.13.46 1.49.62.49 1.14-.16 1.02-.01.05-.02.1-.02.15.22.16.49.38.76.6.34-.86.58-2.42.46-3.09zm-3.62.02c-.69 1.57-1.95 3.32-2.87 3.66-1.25 1.84-7.51 1.15-2.41 2.05 1.05.3 2.08.16 3.05-.2 1.46-1.47 3.04-4.73 2.23-5.52zm40.52.6c-3.25 3.63.63 2.98 0 0zm-26.3.22c-.11.06-.21.15-.31.24.74 1.08-.34 2.31-.94 1.16-.04.06-.09.13-.12.19.28.3.07.43-.21.4-.25.51-.24.76.32.07.11.02.22.05.33.09.1-.08.32-.12.76-.08 0 .21-.08.32-.17.4.61.43 1.13 1.13 1.19 1.94-.22.47-.25.74-.19.89.19-.25.36-.43.46-.42-.09.18-.15.37-.19.55.79-.09 2.62-1.94.46-1.82-1.41-.59-.78-2.08-.95-3.19-.14-.16-.29-.3-.46-.42zm-7.64.17c-1.58 2.97-.02 2.05 0 0zm11.89.44c-.14 0-.31.01-.51.05.27.27.51.37.69.38.03-.13.08-.25.11-.38-.08-.03-.17-.05-.3-.05zm24.17.03l-.05.05c.04-.01.07-.03.11-.03l-.06-.02zm18.22.25c-.14.36-.27.74-.39 1.13.03.4-.03.83-.17 1.2.47.24.78.6.96 1.02.63-1.11.63-2.58-.4-3.35zm-49.31.33c-.25 2.13-.12 2.49 0 0zm8.23.02c-.25.2-.17.34-.02.4.08-.01.16 0 .26.02.01 0 .02 0 .03-.01-.07-.13-.14-.25-.2-.37-.03-.02-.03-.03-.07-.05zm.24.42c-.07.02-.17.01-.26-.02-.16.02-.29.09-.41.2-.29 1.45.71 2.58 1.54 3.51.44-.23-.28-2.03-.64-3.38-.06-.1-.13-.2-.19-.31l-.03-.01zm3.93-.35c-2.29.4.56.9.81.3-.16-.03-.47-.15-.81-.29zm-2.17.4c.3.75.81 1.42 1.45 1.92 3.53 1.64.14-1.13-1.46-1.93zm31.17.05c-1.64 1.08.97.62 0 0zm-14.07.36c-.8 1.6 1.05-.02 0 0zm-25.58.25c-.26.26-1 .46-.8.94.53 2.25 2.23.43.92-.84-.05-.03-.09-.06-.12-.09zm-5.87.22c-.12.15-.25.26-.37.32-.21.34-.45.66-.76.93-.7 2.63 1.39 1.79 1.31-.32-.06-.06-.07-.16-.03-.31-.03-.2-.07-.41-.14-.63zm46.02.01c-1.14.52.95.76 0 0zm-37.23.26c.29.59.62.72.84.66l.03-.02c.08-.04.13-.1.16-.17-.01-.01-.01-.02-.04-.03.02-.01.03-.03.05-.04.02-.23-.23-.5-1.03-.42zm-7.71.68l-.63 1.25c-2.24 2.67 2.45.71.63-1.25zm18.8.01c-3.5.03-.18 3.11 0 0zm-15.34.07c-.86 1.12 2.07 1.2 0 0zm48.02.12c-.21.26-.47.44-.8.48-.2.2-.38.35-.58.51.25-.11.53-.22.89-.33-1.13 1.38-2.22 1.3-1.65.79-.16.08-.35.21-.53.4.02-.03.04-.05.13-.08.21.16-.13.19-.17.13-.2.21-.38.46-.41.67.22-.23 1.67-.77 2.71-.73.19-.05.37-.13.53-.22.13-.56.09-1.15-.13-1.62zm-9.84.04c-.02-.02-.05-.02-.1 0 .08.2.14.05.09 0zm-13.31.01c-.46 1.04-.98 2.04-.37 2.54.01.06.01.12.02.18.43-.96.85-1.98.35-2.71zm6.64.35c-.03.32.03.54.13.69 0-.22-.04-.45-.14-.69zm.13.69c0 1.83-2.93 3.1-3.61 4.15-.44-.73-.7-1.4-.82-2.02-.27.67-.4 1.36-.33 2.11.56.54.72 1.22.63 1.93.09.17.15.32.25.5.49-.76 2.16-1.64 3.04-2.75.14-.48.33-.95.57-1.39v-.02c-.1-.16-.16-.37-.13-.69.1.24.13.47.14.69.19-.37.41-.72.66-1.05.48.51.72.86.86 1.14.44-.17.74-.37.49-.22-.08.07-.13.13-.2.2.83.12 1.42.97.16.19l-.21-.15-.17.16c.11.34-.06.53-.35.7.23.61 3.52-.86 1.16-1.94-.24-.06-.41-.23-.57-.43-.29.01-.44-.12-.28-.43-.07-.14-.14-.3-.2-.45-.43.11-.89.11-1.11-.23zm-30.37-.28c-.49.07-.3.36-.02.46.07-.04.19-.08.39-.12l.08-.02c.04-.07.08-.17.08-.31-.24-.02-.41-.02-.54 0zm19.13.2c-.83.99-.1 2.98.11 4.91.65-1.45.14-3.32-.11-4.91zm26.68 1.26c-.25.02-.5.05-.76.1-.89.25-1.31.31-1.42.27.03.29.4.47 1.48.3.69.22 1.19-.11 1.49-.63-.25-.04-.52-.06-.79-.04zm-42.36.06c-.23.13-.44.36-.2.92.22.01-.12.23-.27.63.79.47 1.83.52 2.63-.19.56-.39.8-.56.87-.63l-.04-.06c-.34.08-1.63.56-2.36-.02-.32-.23-.51-.44-.65-.64zm-12.18.17c-.44 1.07-1.02 2.75-2.65 2.7-1.32.79-3.68-2.52-2.26-.11.01 1.62 3.9 1.41 2.49 2.07-.62-.01-1.15.21-1.57.55.38.15.76.2 1.08.01.64.02 1.12-.23 1.49-.6 1.13-1.15 1.27-3.47 2.02-2.86.49-.32.08-1.01-.6-1.75zm49.75.17c-1.94-.01.22 3.02.44.05-.17-.03-.32-.04-.45-.04zm6.86.03c-.35.79-.99 1.46-1.81 1.66-1.68-.07-4.49 1.43-1.29.54 1.94-.41 3.5.42 4.64 1.76 1.11.72 1.99 1.78 2.37 3.11-.09-2.61-1.48-5.92-3.91-7.07zm-1.9.48c-3.18 1-1.59 1.96 0 0zm-3.19.05c-.52.78.94.07 0 0zm-24.98.05l-.22.72c-.52 2.5.28.83.21-.72zm-17.27.3l-.43.1c-.99.19-.25.43.29.27.04-.12.09-.25.14-.37zm36.43.33c-.2.66-.55 1.25-1.28 1.2 0 .03.01.06.01.09.07.06.1.17.06.37-.03-.13-.05-.25-.06-.37-.45-.38-2.72 1.73-1.07 2.17 2.62 1.39 2.14-3.25 2.45-2.51.33 3.34 1.5.4-.12-.95zm-39.74.06c.03.02.06.06.08.12.56.12.38.67.13.73.09 1.09-.02 2.64.66 1.19 2.81-2.13 1.19-1.55-.88-2.04zm10.12.14c-.09.03-.16.06-.27.09-1.23 1.14-.44 3.79-2.58 2.47-.15.05-.31.07-.46.08.36.37 2.06 1.35 1.46 2.35-.16.23-.23.37-.3.44.94-.04.63-1.92 1.61-2.82.37-.1.64-.21.87-.33-.01-.1 0-.22.01-.34.07-.36.21-.71.38-1.04-.18-.28-.44-.58-.72-.9zm45.22.12c-.06-.01-.11 0-.15.03.71 1.06.97 2.24.88 3.4.71.91 1.5 2.34 1.8 3.76 1.44-2.38-1.65-7.04-2.53-7.19zm-8.65.07c-.53.2.29.23 0 0zm-21.18.53c-.75 1.13-2.17 1.86-3.47 1.63.04.89-.06 1.74-.55 2.45.46.14.95.14 1.43.03-.09-.04-.18-.08-.27-.11.88-1.6 1.45-.42.89-1.42.69.12 1.34-.04 1.88-.38.3-.58.43-1.24.29-1.91-.1-.08-.16-.19-.21-.29zm7.75.27c-.66.84-1.12 1.84-1.35 2.88.08-.25.28-.61.65-1.1.44-.37 1-.56 1.56-.62-.13-.28-.38-.65-.87-1.18zm-35.35.54c-.11.11-.22.22-.3.32 1.08.78.62 1.15-.13.2-.61 1.11.28 2.21 1.01 3.39 1.2.09 1.34-1.42.94-2.71-.17.13-.39.21-.67.19-.3-.48-.62-.94-.86-1.4zm17.98.03c-1.98.29.87 2.58-.71 4.07 1.14.91 3.27-1.25 2.43-3.35-.57.88-1.53 1.35-2.17.83.49-.47.53-1.01.44-1.55zm-11.06.17c-.25.23-.47.44-.81.73-.57.16-.91.05-1.09-.23-.59 1.58-.76 3.19.82 2.74.11-.09.16-.14.26-.23-.72-.18-.35-.67 1-1.73l.33-.81c-.2-.13-.37-.29-.52-.47zm29.46.35l.07.05h.01c.11-.01.18.01.27.01-.11-.03-.23-.06-.35-.07zm.76.28c.01.05.01.11-.01.18.34.15.26-.01.01-.18zm-20.87.01c-.53 1.3-2.58 1.52-3.4.65-.05.08-.09.16-.14.25 1.34.96.14.69-.03.06-.15.27-.27.56-.35.85 1.3.49 4.47 1.38 1.62 1.37-.71-.13-1.29-.59-1.68-1.17-.01.02-.02.04-.02.06-.28 2.04 3.21 2.16 3.79.32.71-.99.69-1.85.2-2.39zm-14.51.08c-.02.04-.05.07-.07.1.07 1.49 1.21 0 .07-.1zm32.22 1.45c-.01.05-.03.09-.04.14l.02-.02c0-.04 0-.07.01-.12zm-35.05.14c1.04 1.76 1.93 1.13 0 0zm14.57.24c.71.13 1.12.74 0 0zm-22.03.08c-.43.75-.55 1.69-.26 2.5.25-.45.62-.82 1.08-1.05.01 0 .01-.01.01-.01.07-.39.21-.68.38-.93-.41-.12-.87-.28-1.21-.52zm39.21.11c-.26.52-.61 1.02-1.01 1.46-.34.78-.29 1.53 0 2.18.9-1.13 1.45-2.53 1-3.64zm5.05.22c-.5.08-.98.27-1.37.59-1.38 1.83-.45 1.78.65 1.24-.36-.72-.23-1.46.72-1.84zm-27.73.13c-.34.01-.64.02-.9.02-.1.24-.15.35-.29.68-2.03 1.6-1.9 1.92.92 1.81 2.39.76 1.78.95 2.33.16.69-1.15-1.67-2.28-1.54-2.49-.18-.06-.28-.11-.52-.18zm49.83.14c-.31.96-.84 1.87-1.53 2.62.02.2.04.4.04.59-.04-.16-.1-.31-.16-.47-1.4 1.45-3.38 2.31-5.43 1.86-.2-1.23-1.36-2.29-2.65-2.07-.54-.39-.97-1.03-1.21-1.75-.94 1.46-.21 3.43.94 4.26.57-.09 1.11.07 1.56.37 0-.92.14-1.17 1.1.7.51 2.96-.32-2.93 2.07-.11.62.26 1.26.38 1.91.4 2.19-1.29 3.67-3.89 3.37-6.39zm-45.45.77c.04.72 1.56 1.1 0 0zm14.12.02c-.36.1-.75.13-1.16.06.56 1.01-.01-.17-.89 1.42 1.27.45 2.52 1.52 3.47 2.88.92.8 1.8 1.78 1.88 2.66.03-.56 0-1.11-.1-1.66-.35-.51-.56-1.11-.52-1.75-.6-1.45-1.57-2.74-2.68-3.63zm3.3 7.03c-.01.16-.02.33-.04.49.05-.15.06-.32.04-.49zm-6.88-6.94c-.6.71 1.17.24 0 0zm-.23.63c-.13.02-.33-.06-.36.16-3.37 2.23 1.78 1.26.37-.17zm-10.87.14c.24.46.61.85 1.05 1.12-.04-.27-.02-.52.08-.72-.44-.15-.86-.3-1.13-.41zm26.37.27c-.79.31-.74-.35-.74 1.36-.77-.14-1.46-.55-1.95-1.05-2.02.77-.42 3.18 1.69 3.56 0-2.2-.09-.45 1.62-1.94 2.47.5 2.17-1.67.1-.22.3-.03.67-1.6-.72-1.72zm5.97.06c-.61.12.37 1.21 0 0zm-51.75.45c-.12.18-.22.4-.29.66.08.05.15.11.24.16 1.37.96.56.18.06-.82zm28.42.5c-.45.28-.95.5-1.47.63-1.37 3.05 1.23.94 1.47-.63zm-4.85.86c-.06.03.27.3 1.24 1.14.8.16 1.16.48 1.23.82-.04-.49-.28-1.04-.64-1.52-.92-.08-1.74-.49-1.82-.44zm14.93.03c-.08.2-.13.41-.17.62.19.14.39.27.61.37-.15-.34-.27-.66-.43-1zm14.97.39c-.29.79-.51 1.25.12.5-.02-.18-.05-.35-.11-.51zm-32.33.03c-.2.05-.42.07-.63.05-.01.01-.02.03-.04.04.69.57.76 1.7.59 2.66.67.88 1.6 1.66 2.39 1.84 1.68 1.44 3.71-.86 1.11-1.38-1.62-1.39-1.38-1.22-.6-.96-.08-.05-.16-.11-.24-.18-.86-.19-1.9-1.1-2.57-2.07zm-2.29.21c-.3.36.28.6 0 0zm30.31.28l-.13.6-.26.84c.02.03.03.06.05.09.22-.09.58-.01 1.13.34.04.28.07.41.1.5l.07-.07c.03-.28.05-.94.14-1.44-.18-.36-.52-.69-1.09-.88zm-43.66.07c-.05.07-.09.13-.15.2-.45.79-.42 1.63-.22 2.46 1.12-1.46.98-2.12.37-2.67zm.67.1c-.61 5.55.53 1.46.19.28-.05.06-.08 0-.1-.19-.03-.04-.06-.08-.1-.09zm1.28.01c-.24-.02 0 .64.14.05-.06-.03-.1-.05-.14-.05zm40.15.03c-.56.18-.41.64 0 0zm-.41.21c-1.03.42-.16.62 0 0zm-16.14.59c.56.24 1.24-.01 0 0zm-4.99.23c-.07.36-.43.68-.92.76.19.02.39.03.59 0 .21-.19.3-.45.32-.76zm6.97.22c-.03.05.17.28.72.72 2.08.33 1.68 7.69 2.15 4.45-.02 3.15 4.33-1.4 3.4-.28-2.08 2.9 1.92.24 1.89.72-3.02 1.47 1.7 2.81 1.4 5.09 2.09 1.74 1.23-.29.68-2.19-.13-.09-.26-.19-.42-.32.3-2.28-4.42-3.63-1.4-5.09.03-.48-3.97 2.19-1.89-.72.63-.77-1.2 1.12-2.42 1.38 0 .12-.01.24-.01.35.02.17.01.34-.04.49.02-.17.03-.34.04-.5-.01-.12-.04-.23-.08-.35-.52.08-.91-.17-.9-1.11-.23 1.58-.26.61-.47-.81-1.16-1.12-2.61-1.98-2.69-1.85zm-19.79.43c-.17.23-.32.4-.41.37.02.31.03.62.01.93-1.38 4.02 1.95-.82.39-1.3zm6.73.13c-.76.83-.01 2-.35 3.04.16 2.94 1.6.03 1.18-1.9-.34.81-.82 1.02-.92-.62.05-.17.08-.35.08-.52zm-3.32.08c-.73 1.43-.56 4.37 1.33 1.79-2.46-.61.06-.07-1.14-1.55-.08-.05-.14-.13-.19-.24zm40.24.36c-.21-.04-.17.66-.16 1.51.16-.4.22-.92.25-1.45-.04-.03-.07-.06-.1-.07zm-3.02.01c-.49 1.28-1.31 2.62-2.05 3-.3.02-.58-.05-.86-.16-.23.54-.27.38-.24-.11-.31-.16-.6-.38-.87-.65-.03.44-.06.66-.19-.16-2.88-1.86-.74 3.74 1.89 3.6 1.39-.7 3.06-4.74 2.32-5.51zm-44.3.33c-1.4 1.13.9 2.84 0 0zm20.12.68c-.07 0-.17.01-.3.05-.12.81.8-.02.3-.04zm-1.2.06c-3.38.35-.3 2.74 0 0zm28.85.29c-.09-.06-.29.05-.6.33 0 .46-.02.94-.07 1.4.56-.86.85-1.61.67-1.73zm-39.14.54c-1.51 1.92 2.04 2.69 0 0zm13.69.15c.47.84 1 1.67 1.32 2.59 2.24 3.55.75-2.13-1.32-2.59zm-29.93.16c-2.36.09-4.67 1.58-4.96 4.17-.1.48-.13 1.13-.11 1.77 1.07-3.76 6.73-4.65 9.13-1.57.13.08.26.17.39.25-.08-.95-1.13-2.43-1.53-3.97-.88-.48-1.9-.7-2.91-.66zm29.22 1.21c-.9.49.63 1.4 0 0zm-9.6.28c-.24.13-.45.31-.62.52 2.41 1.53 2.9.89.61-.52zm21.69.2c.04.24.11.5.18.77.04-.3-.04-.56-.18-.77zm3.21 1.12l-.08.31-.11.69c-.61 3.84 1.63 1.34.65-.59-.2.15-.4.06-.46-.41zm-17.5.73c-.86 1.11-2.35 1.83-2.3 1.59-.45-.35-.79-.58-1.05-.73-.05.06-.11.12-.16.19.15.17.33.37.68.71-.44-.02-.73-.15-.93-.33-.52.85-.82 1.86-.35 2.43.07-.16.13-.31.19-.47-.29-.42.39-.04 1.37.72-.07.39 4.02-1.8 2.57-4.11zm.74.84l-.07.24c-1.79 2.07 1.76.67.06-.24zm17.75.89c-.01.08 0 .17-.01.25-.4.58-.52 1.16-.44 1.67 1.48.72 2.73 1.06 3.42 1.09.08-.08.17-.16.24-.26.06-.06.1-.11.15-.17-.13-.1-.32-.23-.6-.36.33.06.63.04.91-.04.45-.73.03-1.13-.68-1.46-1.1.84-2.47.33-2.98-.72zm-39.01.29c-.29-.02-.57.07-.78.24.04.05.08.09.12.15 1.49 2.11 1.86 2.99.68-.36l-.03-.03zm27.73.3c-.09.06-.19.09-.29.14-.28.65-.6 1.1-.74.17-.05.53-.41.64-.85.5-.65.77-.84 1.8-.66-.28-3.06.78 1.07 4.15 1.25 2.3-.02-.19-.05-.41-.06-.72.08.3.09.53.07.71.34 2.26 1.69-3.57 1.16-.6-.79 2.84 2.72 5.4 5.11 3.57-.05-.47-1.47-1.18-2.78-2.18-1.16-.49-2.09-1.61-2.17-2.92-.04-.22-.06-.46-.03-.7zm-1.03.3v-.06l-.01.01c0 .02 0 .03.01.06zm2.81-.13c-.03-.01-.05-.01-.08 0 .28.52.25.06.08 0zm14.58.2c-.04 0-.08.02-.11.02.02.04.02.09.04.13.03-.05.04-.1.07-.15zm-42.94.45c-.04.41-.04.57.02.55.01-.2 0-.38-.02-.55zm15.46.3c.01.2-.01.39-.05.59.2.14.47.22.83.24-.41-.39-.66-.65-.79-.83zm-9.17.35c-.11.68.14.72.31.58-.01-.16 0-.32.01-.49-.08-.05-.18-.08-.33-.09zm-11.75.24c.03 2.13 1.82 4.47 3.9 4.63-.11-.13-.08-.12.09.01.5.02 1.01-.08 1.52-.34.01.06.01.11.02.16 1.38-3.5-.2 1.93.94 1.39 1.51-.73 2.84-4.01 2.43-5.68-.45 1.37-1.26 2.72-2.17 3.16-1.15.55.51-5.11-.99-1.25-.33.46-.75.42-1.08.28.18.64-.01.41-.49-.3-.13-.11-.09-.08.51.74-1.96.42-4.07-.92-4.69-2.8zm17.02.01c-.32.08-.69.15-.86.32.16.31.3.62.35.93.03.04.04.06.09.1.08.93.19 1.42.31 1.65.11-.01.2-.02.33-.03.23-.42.4-1.55.34-2.65-.17.47-.39.51-.57-.32zm15.54.92c1.8 1.38.33 1.43 0 0zm-20.36.26c-.24.34-.37.77-.41 1.21.67 1.25-.64.26 1.15 1.47-.31-.23-.71-.37-1.08-.48.28 1.28 1.26 2.09 2.29.09.2-.21.3-.29.41-.36-.2-.28.01-.96.23-1.58-.17-.13-.33-.26-.51-.36-.9 1.54-1.74 1.03-2.08 0zm4.75.29c.16.06-.13.38 0 0zm3.68.26c-.54 1.64-1.8 3.15-3.46 3.74-3.36.1-.14 1.54.59.01 1.76-.67 3.07-2.3 2.87-3.75zm4.85.85c.23.23.49.42.77.58 3.09 1.45 1.7-.63-.77-.58zm-.34.06c-.25 2.43 2.06 2.09 0 0zm-9.27.17c-.52.32-.87.44-1.08.42-.19.85-1.68 3.69.95 2.02.52-.42.62-1.04.45-1.68-.25-.1-.35-.25-.13-.38-.05-.13-.13-.25-.2-.37zm16.42.63c.33 1.44 1.81 1.38 0 0zm-15.61.55c-.13.38.17.06 0 0zm24.68.01c-.38.28-.84.44-1.32.44.29.41.39.81.15 1.05.5.33.94.74.95 1.24.07-.01.11 0 .17 0 .35-1.7 1.47-2.69.09-2.51 0-.08-.01-.15-.03-.22zm-15.1.19c-1.59 1.09 1.06.95 0 0zm-14.97.32c-2.13 1.44.25 1.03 1.38 1.87-1.95-1.33-.16.02-1.38-1.88zm7.62 1.1c-3.13.59 1.7.39.01 0h-.01zm19.27.14c-1.33 1.36-2.28 2.39.44 2.43.07-.11.15-.21.25-.3.37-.04.74-.01 1.1.08.48-.56-.67-1.88-1.78-2.23zm-8.71.24c.69.73.89.26 0 0zm-2.62.21c.27.29.48.45.63.54-.1-.16-.17-.3-.2-.42-.12-.05-.26-.09-.43-.12zm3.91.12c-.02.08.17.07 0 0zm-25.5.49c-.41.21-.81.3-1.21.33-.38.18-.79.28-1.22.27.88.24 1.74.63 2.19 1 .24-.48.36-1.02.24-1.6zm-2.43.6c-.29-.08-.59-.15-.87-.18.29.12.58.17.87.18zm25.19-.3c.33.29.51.31.56.26-.11-.07-.33-.17-.55-.26h-.01zm13.74.17c-.11.31-.32.76-.5 1.3.93.65 1.63 1.68 1.88 2.78.19.33.33.7.42 1.07.93-1.83.04-4.25-1.8-5.15zm-15.92.45c-.05-.01-.1-.01-.15.01.6.89.46.07.14-.02zm4.85 0c-.03.09-.01.15.03.2.02-.06.03-.12.04-.19l-.08-.02zm-4.58.22c.14 1.22 1.24-.08 0 0zm1.64.26c-.72-.05-1.13.32-.42 1.24.7.26 1.68.69.59.53-.56.13 1.24 2.5 2.67 2.67 1.75-.71 1.2-.28.97.14.5.03.34.28.06.41 1.36.13 1.57-2.5 1.65-2.13.67 4.05 1.06-3-.5-.8-1.16 2.29-.94 1.62-.84.41h-.08c-.24-.14-.04-.41.11-.63v-.3c-.15.01-.48.12-1.11.37-.1-.01-.21-.06-.32-.09-.22.95-.4 1.79-.67 1.22.36-.5.42-.96.32-1.36-.68-.348-1.36-1-1.75-1.55-.24-.08-.47-.14-.68-.15zm-1.89.35c.44.8.94.14 0 0zm-17.88.14c-.98.49-.6 1.82-.5 2.67.07-.06.14-.11.23-.16-.13.46-.13.93-.04 1.39.83.6 1.93 1.58 2.05 2.65.47.25.99.4 1.51.41l.08-.03c-.36-1.29-1.37-2.34.95-.59.53.33 1.15.43 1.71.33.02-.11.05-.22.05-.35-.59-1.79-.25-1.71.76.01.41-.32.66-.83.57-1.54 3 1.69 1.68 2.19.02 2.25.99.46 2.27.17 2.98-.55-.25.05-.67-.08-1.16-.65.96-.06 1.33.2 1.36.42.36-.49.47-1.12.14-1.84-.86.57-.99.46-.88.08-.31.14-.65.24-1 .25.47 1.42.89 2.26-.22.27.01-.1 0-.18 0-.27-.42-.02-.84-.12-1.2-.34-.3-.55-.55-.96-.76-1.28-.21-.02-.39-.04-.54-.04.05.21.09.39.2.73 0 1.49-1.92 1.99-3.07 1.5 1.39-.6 2.2-1.67.27-.85-2.09-.01-4.13-2.36-3.52-4.44zm8.73.87c-.12.07-.2.18-.27.31.3.28.49.7.43 1.31 1.45 2.58.31.45-.16-1.63zm1.73.25c-.41.9-.72 1.52.26.93.04-.37-.02-.7-.26-.93zm-4.39 1.32c-.05.02-.06.11-.04.27.03-.09.04-.18.04-.27zm7.89.13c-2.1.53 1.59 2.79 2.85 1.08-.24-.89-1.87-.64-2.86-1.08zm-2.2.48c-.09.11-.52.29-.79.49-.06.1-.13.2-.21.3.01.03.02.06.05.09 1.28 3.12 1.67 1.6.94-.88zm-12.97.25c.01.01.19.12.31.2 0-.03.01-.07.02-.1-.09-.01-.19-.04-.32-.09zm30.86 2.02c-.04.24-.09.46-.14.69 1.69 1.07 3.27 4.41 1.7 2.17-.34-.75-1.23-1.07-1.93-1.45-.17.4-.4.75-.74 1.05 1.8-.07 3.56 1.16 4.28 2.81.28-.49.52-.99.59-1.37-.21-1.9-1.88-3.56-3.77-3.9zm-9.53.45c-.4 2.2 1.95.93 0 0zm-1.31.03c-.25.08-.33.23-.34.36.07.07.15.15.2.22.08-.05.16-.2.14-.58zm4.55.81c-.14-.01-.33 0-.59.03v.03c.07.13.12.26.17.38.37.17 1.16-.41.42-.46zm-18.53.11c-.04.03.02.07.12.1-.04-.03-.08-.06-.12-.1zm.12.1c.2.19.45.34.73.48.08-.09.15-.2.21-.31-.43-.04-.77-.1-.95-.16zm21.83.11c-.04.07-.09.14-.12.22.15.21.63.43.5-.17-.17-.04-.29-.05-.38-.05zm-19.65.36c.03.2.02.39-.01.56.54.17 1.07.34 1.53.53-.26-.29-.73-.65-1.52-1.09zm-3.68.29c-.14.08-.29.16-.45.23.12.05.25.08.39.11.02-.04.03-.08.06-.12.01-.08-.01-.15-.01-.23zm22.05.28c.28.48.34.57.3.23-.1-.08-.19-.16-.3-.23zm-22.89.06c-.29.02.71 1.33.58 2.4-.35.52-.25.79.08.95.01-.05.01-.1.03-.15.34-.89 1.14-1.27 2.02-1.33-.24-.13-.46-.27-.64-.44-.1-.04-.16-.07-.12-.1.03.03.08.06.12.1.34.12 1.33.22 2.3.2-.32-.2-.72-.32-1.14-.4-.53.12-1.12.05-1.65-.23-.59-.09-1-.24-.94-.64-.35-.24-.56-.36-.64-.35zm14.8.03c-.02.26-.05.62-.04.98l.23.13c.61.22 1.1.58 1.46.96-.34-.65-.45-1.14-1.65-2.07zm4.03.11c-1.09-.05-.35.53 0 1.1 2.11 3.77 1.68-.35 0-1.11zm7.03.16c-.12-.01-.25-.01-.37.02.17 1.15 2.28 1.2 2.85 2.45 1.82 2.59-.55-2.26-2.47-2.47zm-19.5.11c1.37 1.59 2.27-.15 0 0zm-7.62.19c-.27.38-.66.66-1.11.78.63-.08 1.04-.11 1.26-.04 0-.25-.05-.5-.15-.74zm-1.11.78l-.47.06c.16 0 .32-.02.47-.06zm26.04-.65c-.04.13-.086.26-.14.38.164-.08.2-.22.14-.38zm.6.42c-.48.02-.79.16-.99.33l-.11.12c-.73.87.45 2.5-.9.27-3.62-1.58-.436 3.95.81 2.05.45-.58.41-1.44.65-2.09-.05-.08-.06-.13.04-.1.1-.24.25-.44.49-.58zm-11.87.35c-.04.13-.09.25-.15.36.22-.07.46-.09.73-.05-.02-.06-.03-.1-.06-.16-.146-.06-.32-.1-.52-.15zm12.714.9c-.56.1-.34.3 0 0zm1.29.06c-.11.28.21.62.61.98-.36-.46-.37-.74-.2-.87-.13-.05-.27-.09-.4-.12zm-15.13.25c-1.31.68-3.09.76-1.96 1.86.24-.61.96-.76 1.7-.73-.02-.4.07-.79.26-1.13zm5.65.08c.034.11.06.21.07.31 1.24 1.01 2.38 2.5.94.74-.475-.415-.78-.75-1.01-1.04zm-19.896.26c-.04 0 .26.26.77.67.06-.03.12-.08.19-.12-.46-.27-.9-.55-.96-.55zm9.32.2c.17.55.15 1.24-1.33 1.45-.1.04-.23.076-.35.11.01.03.03.055.04.086-.03-.02-.08-.04-.12-.06-1.06.31-2.61.47-3.43-.04-.3.2-.54.48-.7.85 1.18.72 2.46 1.32 3.78 1.73.19-.05.37-.11.52-.16 3.17-.44-.34-3.16 1.95-1.73.66-1.15.36-1.79-.35-2.23zm-8.02.56c-.1 0-.26.01-.41.03l.6.48c.14.11.29.21.43.31 0-.21-.01-.37-.04-.5-.18-.09-.37-.2-.56-.31h-.01zm25.83.02c-.29.07-.04.55-.05.79-.94-.68-.75-.29-.38 0 .18.05.37.12.56.2.09-.05.15-.18.13-.42-.2-.21-.25-.41-.19-.57h-.07zm3.42.12c.34.3.68.62.92.98.93.21.98-.08-.91-.98zm-11.25.13l-.09.04c.9 1.08.92.76.1-.04zm12.66.03c-.01.13.01.18.09.14-.024-.05-.06-.09-.084-.14zm-13.23.12v.03h.03l-.03-.02zm.2.15c.23.27.59.84.78 1.45.06-.46-.25-1-.77-1.45zm-4.67.46c-.16.17-.3.38-.39.6.64.93 1.05 1.99 1.43 3.06.48.12 1.07.11 1.58.07 0-.02-.02-.03-.02-.05.03.02.07.03.1.04.89-.08 1.4-.19.51.19.7.18 1.48.09 2.01-.31-.09-.34-.25-.67-.41-.95-.93.273-3-.12-1.79-1.057 3.1-1.25-2.02.56-2.56-1.1-.19-.14-.34-.31-.45-.5zm15.19.66c.05.13.14.29.29.48.62.31.67.28-.29-.47zm-14.33.56c.54.08.58.63 0 0zm-2.3.95c-.04.08-.06.17-.09.25.04-.08.08-.15.11-.24l-.01-.02zm11.8.57c-.31.04-.62.14-.9.29-.06.08-.08.14-.11.21.13.19.07.35-.07.14-.13.72 1.48.76 1.08-.64zm.4.19c-.3.15-.42.47-.13 1.13.12-.36.12-.74.13-1.13zm-7.96 1.16l-.05.02c-.87.68-.02 1.07.87 1.13-.33-.37-.62-.78-.82-1.15zm7.83.5c-.04.11-.07.22-.09.33.39-.13.54-.26.09-.33zm-1.77.98c.07.22.14.32.19.39.05.03.09.04.12.04.02-.09-.06-.32-.31-.43zm-1.64.08c.05.23.2.56.51 1.03.1.13.13.18.22.29.38.143.76.34 1.12.56.25-.52-.05-1.14-.49-1.6-.45-.17-.9-.27-1.36-.28zm-1.04.16c-.12.04-.24.09-.36.14-.27.24-.57.28-.88.21-.07.05-.143.1-.22.14.387.095.707.46.28 1.145.56-.59 1.23-.77 1.93-.71-.27-.3-.523-.61-.75-.92zm-9.27.27c-.09-.01-.16.01-.22.04-1.43-.25-2.23 1.56-1.133 2.53l.07.08c.23-.1.49-.15.79-.1-.028-.09-.04-.13-.07-.24.58-1.55 2.96-.85 4.03-.26 2.77 1.73-2.11-1.99-3.47-2.05zm7.12.43c-.18.03-.36.03-.54.02.44.69.73 1.33.746 1.8.09.08.18.18.27.29.36.13.72.12 1.04-.15l.06-.027c-.3-.26-.59-.52-.83-.77-.71-.54-.86-.93-.76-1.16zm6.197.38c-.04.07-.08.13-.13.19.21.01.31.03.41.06-.09-.08-.188-.17-.28-.25zm.43.38c-.15.15-.84.32-1.33.42.56.37 1.08.78 1.48 1.14 1.33 2.18 1.96 2.69 1-.06-.28-.52-.68-1.04-1.16-1.5zm-5.9 1.69c.06.09.11.17.16.26-.02-.1-.08-.19-.15-.26zm1.79.27c-.51-.02-1 .09-1.44.4.16.42.2.84.07 1.19.5.45 1.08.88 1.7 1.21.05-.16.09-.33.09-.55-1.19-2.02 1.2.16 2.31-.32.25.08.51-.05.75-.24-.34-.28-.74-.56-1.15-.82-.75-.08-1.51-.4-2.2-.85l-.13-.01zm4.12.47c-.08.05-.16.09-.23.13l.26.29c.15-.29.18-.5-.03-.41zm-9.75 1.35l.01.01c-.06-.01.38.21 1.78 1.025.52.3 1.43.64 2.28.75-.03-.45-.22-.93-.49-1.35-.07.03-.15.05-.23.07-1.22.37-3.08-.41-3.35-.5z" fill="#b4b3b7"/>
  </g>
</svg>
