<svg xmlns="http://www.w3.org/2000/svg" viewBox="0 0 1000 1000" data-name="pubic hair">
  <g data-name="neat blue">
    <path fill="#9497a2" d="M487.94 432.27a.46.46 0 0 1-.45.37h-2.8a.9.9 0 0 1-.65-.36 52.45 52.45 0 0 1-8.24-18.92.32.32 0 0 1 .33-.38l19.08-.62c.22 0 .3.15.17.36a49.71 49.71 0 0 0-7.44 19.55z"/>
    <path d="M485.057 417.56l-.368.188c.05.648.11 1.297.12 1.947-.03-.12-.05-.242-.08-.363l-.35.19c.13.598.25 1.198.3 1.81.02.326.03.403.03.727-.14-.5-.3-1-.46-1.5l-.31.17c.22.66.44 1.33.59 2.01.07.34.11.53.16.83 0 .33 0 .67-.03 1l.13-.07c0 .06 0 .11.01.16l-.2.1c0 .1 0 .21.01.31.02.43.09.86.15 1.29-.02.07-.02.13-.03.2l.05-.02c.04.23.09.46.13.7.02.15.03.31.05.46l-.12.35c-.01-.1 0-.2-.01-.3-.02-.28-.05-.55-.1-.82-.02-.12-.06-.23-.09-.34-.09-.32-.2-.64-.307-.95-.09-.26-.15-.53-.22-.79l-.02-.08-.42.223c.01.02.02.05.02.07.084.257.15.52.243.77.102.32.2.637.3.95.022.11.06.227.08.33.052.27.08.54.11.81.022.27.05.54.06.81v.29l-.15-.394c-.06-.17-.034-.09-.084-.25l-.403.227c.06.16.022.08.09.25.176.42.365.84.514 1.27l.05.15v.19l-.287.12c-.185.184-.336.4-.474.62-.024.04-.046.076-.065.116-.05.11-.08.23-.12.35l.44-.22c.03-.11.054-.22.104-.326l.06-.11c.1-.16.21-.31.34-.45v.47l-.17.08c-.06.23-.123.46-.163.69-.02.19-.015.38.04.57l.15-.08c-.02.064-.05.13-.07.2l.197-.1v.04l.3-.155c.01.06.03.13.06.19l.24-.132c-.02.04-.02.08-.03.115l.44-.207c.02-.07.03-.14.043-.208l.11-.05c0 .053 0 .11-.006.17l.1-.056c0 .09 0 .18-.01.27-.01.07-.02.15-.04.22-.018.074-.04.15-.086.214l.45-.2c.02-.026.02-.06.03-.09l.4-.24c-.09-.12-.1-.27-.11-.41-.006-.04-.005-.08-.01-.12.06.09.13.18.19.27.08.13.157.27.26.38l.42-.26c-.12-.09-.19-.23-.27-.35-.11-.17-.23-.33-.35-.496-.02-.025-.032-.053-.05-.08l-.21.12c-.01-.205-.02-.41-.02-.62l.13-.42c.09-.284.1-.35.17-.645.16-.627.25-1.267.31-1.91l-.38.19c-.04.64-.12 1.27-.29 1.89-.08.29-.097.37-.186.65l-.06.18c-.004-.216 0-.43-.02-.644-.03-.2-.015-.1-.05-.29l-.14.08.004-.81c.01-.27-.01-.55.003-.82.003-.06.01-.12.02-.18.04-.31.1-.616.19-.91.074-.24.115-.33.21-.56.24-.54.554-1.04.874-1.53.15-.225.08-.12.22-.32l-.41.18c-.13.2-.064.09-.204.31-.31.497-.612.996-.85 1.53-.1.24-.14.327-.22.57-.1.3-.17.614-.21.93-.04-.26-.07-.525-.08-.79l.15-.5c.08-.276.17-.55.28-.82l.15-.07c-.01-.2-.016-.41-.02-.615-.03-.606-.04-1.216-.06-1.824-.01-.51-.065-1.02-.167-1.52-.064-.33-.1-.44-.184-.762-.127-.48-.27-.95-.418-1.42v-.326c0-.68-.06-1.37-.11-2.05zm.113 3.745c.022.08.05.16.072.24.033.125.07.25.1.375.15.622.235 1.26.246 1.898.015.616.01 1.233.012 1.848-.005.183-.01.364-.018.547l-.096.045c-.08.203-.137.412-.2.62l-.09-.482h.005c.04-.328.05-.657.04-.986 0-.108-.01-.214-.01-.322-.02-.425-.06-.85-.11-1.272 0-.217-.01-.434-.01-.652v-1.004l.1-.053c-.01-.22-.01-.44-.02-.662v-.14zm-6.01 1.035l-.428.22c0 .052 0 .105-.003.16l.43-.222c-.01-.052-.01-.106-.01-.158zm11.186.01l-.418.228c.025.09.05.18.086.264l.425-.244c-.05-.078-.07-.164-.1-.248zm-9.826 2.435l-.432.213c-.008.08-.005.038-.01.125-.01.127-.03.252-.057.377l.44-.215c.02-.125.04-.25.05-.375.01-.088.01-.045.02-.125zm8.4 1.07l-.408.207c-.006.195-.005.097-.006.29-.002.193-.003.387-.014.58l.438-.223c-.012-.19-.012-.38-.014-.57 0-.19 0-.1.004-.29zm-7.047.786l-.422.22.01.09c.01.19.02.37.06.55.03.09.07.18.09.28l.44-.23c-.02-.09-.07-.18-.1-.27-.05-.17-.05-.35-.06-.53v-.08zm6.744 1.45l-.408.21-.01.41c0 .16 0 .32-.01.49l.43-.22c-.01-.15-.01-.31-.01-.47l-.01-.4zm-3.574.07c.02.64.014 1.28.02 1.92 0 .13-.003.25-.002.37-.03-.11-.08-.22-.12-.34v-.51c0-.45-.02-.9-.04-1.36l.16-.07zm-1.914 1.34l-.42.22c-.01.13-.01.07-.01.19l-.01.29.43-.22-.01-.27c-.01-.12 0-.06 0-.18zm5.3.67l-.43.22c0 .05 0 .09-.01.13l.44-.22c-.01-.04-.01-.08-.01-.12zm-1.14.47l-.4.23c.08.13.17.25.23.38.12.21.23.43.29.66l.3-.16c.03.07.06.13.1.19l.42-.25c-.05-.06-.09-.14-.12-.21-.03-.06-.02-.03-.04-.09l-.3.17c-.08-.17-.16-.34-.26-.51-.07-.13-.15-.25-.23-.38zm-1.56.5v.36c0 .1-.01.2-.01.3-.03.08-.07.16-.1.23.01-.09.04-.18.05-.27.02-.2.02-.4.03-.6l.02-.01z" fill="#525767"/>
    <path d="M491.256 413.412c-.513.17-1.026.338-1.54.5-.284.086-.566.177-.853.252v.002l-.263.19c.015 0 .03-.003.046-.006.13-.028.25-.078.375-.118l.47-.146c.52-.167 1.04-.338 1.56-.508l.22-.166zm-11.63.65l-.235.16c.35.128.18.06.52.192.41.15.82.29 1.22.457.18.08.36.15.52.26l.28-.17c-.16-.11-.36-.18-.54-.25-.4-.16-.82-.3-1.23-.44-.34-.13-.17-.06-.52-.19zm4.245.81l-.24.15c.23.204.12.1.34.31l.17.166c.2.197.38.41.61.58l.28-.172c-.24-.15-.43-.362-.63-.558-.05-.056-.11-.11-.17-.166-.22-.21-.11-.107-.34-.31zm2.9.204l-.25.11c-.17.21-.33.414-.44.67-.06.15-.09.218-.12.37-.03.132-.03.265-.03.4l.29-.15c0-.128-.01-.257.02-.384.03-.14.07-.224.12-.36.1-.25.26-.452.43-.656zm3.26.406c-.31.12-.16.06-.47.186-.54.224-1.06.486-1.53.826-.24.177-.49.352-.67.592l.3-.13c.01-.013.02-.03.03-.042.17-.212.4-.37.62-.527.19-.126.22-.15.41-.264.01-.006-.04.027-.02.022.08-.034.15-.075.22-.11.19-.09.24-.108.44-.19.31-.127.16-.064.47-.187l.23-.176zm-12.44.067l-.2.14c.6-.02.3-.02.91.01.16.01.31.02.46.04.69.09 1.36.27 1.98.57.31.15.26.11.53.27.15.08.3.18.41.31l.28-.17c-.12-.13-.28-.22-.44-.3-.28-.15-.22-.12-.54-.27-.63-.3-1.31-.48-2-.57-.15-.02-.31-.03-.46-.05-.6-.03-.3-.03-.9-.02zm12.77 1.59c-.26.09-.13.04-.4.16-.21.12-.46.25-.67.39-.33.21-.64.46-.92.75l-.11.11c-.16.11-.34.22-.5.33-.22.15-.45.31-.66.49-.05.04-.1.1-.15.15-.04.04-.08.09-.12.14-.14.18-.2.41-.19.64v.54l.29-.15v-.54c-.01-.23.06-.44.2-.62.04-.05.08-.09.12-.14.05-.05.1-.1.15-.14.21-.18.43-.33.65-.49l.09-.06c-.08.1-.18.22-.24.29-.07.09-.13.16-.19.26-.01.02-.02.05-.04.07l.3-.14c.16-.28.38-.537.61-.77l.05-.03.3-.2-.21.08.18-.18c.22-.2.46-.38.71-.54.29-.187.288-.185.19-.107.26-.12.128-.07.39-.16l.23-.18zm-9.81 1.53l-.21.14c.33.08.45.1.77.2.38.11.74.26 1.1.4.33.13.67.26.97.45l.06.04.28-.18c-.34-.2-.71-.34-1.07-.47-.37-.14-.74-.28-1.12-.4-.33-.1-.43-.13-.76-.21zm9.86 1.08c-.06.02-.13.04-.2.07-.42.16-.81.4-1.2.63-.51.31-1.02.63-1.46 1.04-.17.17-.36.33-.48.54l.3-.14.02-.03.09-.12c.11-.14.23-.25.35-.38.44-.41.95-.73 1.45-1.04l.26-.15c.01 0 .01.01.02 0 .08-.04.15-.08.23-.12.2-.09.22-.1.42-.17l.23-.18zm-9.9 1.88l-.23.16c.37.07.74.17 1.09.29.7.22-.16-.06.46.15.12.03.24.08.36.1h.04l.27-.2c-.04 0-.06 0-.11-.01-.07-.01-.22-.06-.29-.08l-.46-.15c-.36-.13-.72-.22-1.09-.3zm8.35 1.61l-.26.11c-.18.17-.36.34-.5.55-.18.27-.37.55-.46.87l.3-.14c.07-.32.26-.59.43-.85.14-.21.32-.38.51-.55zm-7.06.83l-.26.16.1.1c.3.32.57.66.82 1.02.18.26.35.52.56.76l.28-.17c-.23-.22-.4-.49-.58-.74-.25-.36-.52-.71-.81-1.04l-.1-.11zm6.13 2.17l-.26.11c-.06.05-.13.1-.19.15-.13.12-.18.15-.3.28-.17.19-.3.41-.43.63-.13.25-.25.51-.36.77l.29-.14c.1-.26.21-.52.35-.76.13-.22.27-.44.44-.63.12-.13.17-.16.3-.28l.19-.16zm-4.94 1.31l-.25.16c.17.12.35.23.5.37.2.18.4.37.51.62l.29-.16-.04-.06c-.06-.09-.07-.12-.14-.2-.1-.13-.23-.24-.35-.35-.15-.14-.33-.26-.5-.38z" fill="#b4b3b7"/>
  </g>
</svg>
