<svg xmlns="http://www.w3.org/2000/svg" viewBox="0 0 1000 1000" data-name="pubic hair">
  <g data-name="Strip blue">
    <path fill="#9497a2" d="M486.78 432.21h-2.08a1.27 1.27 0 0 1-1.22-1.06 61.41 61.41 0 0 1 0-17.09 1.27 1.27 0 0 1 1.22-1.06h2.08a.9.9 0 0 1 .91 1.06 61.41 61.41 0 0 0 0 17.09.9.9 0 0 1-.91 1.06z"/>
    <path d="M485.52 425.9l-.436.223c.01.353.028.706.057 1.06.09.75.15 1.502.2 2.256.04.63.03 1.26.04 1.89l-.27-.94c-.04-.16-.06-.32-.05-.49v-.5c0-.16 0-.32.01-.48l-.44.22c.01.15.01.31.01.46v.42l-.1.05.03.783c.01.32.06.627.13.93.07.25.13.5.21.75.06.196.13.39.19.584.07.2.34.79.34.79s.066-.363.09-.67c.15.266.47.657.47.657s-.08-.8-.145-1.025c-.054-.187-.1-.38-.142-.57-.014-.044-.03-.09-.04-.134l.107-.056c0-.965 0-1.927-.04-2.89-.04-.76-.115-1.515-.17-2.273-.02-.36-.03-.72-.01-1.08zm-1.192.93l-.435.22c.006.18.008.362.01.544.003.335.003.672.003 1.008-.003.38.006.76.035 1.14.03.326.05.653.06.98.01.252.01.503.01.755 0 .172 0 .347-.03.517-.01.048-.06.245-.07.29-.06.27-.11.542-.15.816-.03.185.28.976.28.976l.15-1.185c.04-.27.09-.54.15-.8.02-.06.06-.23.07-.29.04-.17.04-.35.04-.52 0-.25 0-.5-.01-.75-.01-.32-.03-.65-.06-.98-.03-.37-.03-.75-.03-1.13 0-.34 0-.67.01-1.01 0-.18 0-.37.01-.55zm1.92.795l-.435.223c.016.372.02.745.025 1.117 0 .11.002.22.004.332.002.122.002.245.01.367.016.262.052.527.1.785.05.28.103.48.17.75.126.51.7 1.95.7 1.95s-.2-1.64-.334-2.15c-.096-.38-.187-.76-.232-1.14-.036-.31-.035-.46-.035-.76l.01-.34c.01-.38.01-.77.03-1.15z" fill="#525767"/>
    <path d="M484.31 412.25s-.033.356-.03.44c.008.144.012.287.03.43.018.137.045.274.075.41.013.077.024.156.023.236l.154-.08c-.007-.077-.02-.155-.035-.233-.032-.135-.057-.27-.076-.408-.01-.142-.02-.284-.02-.426 0-.09-.11-.37-.11-.37zm1.358.078s-.026.23-.025.305c0 .09.002.18.007.27.007.154.007.307.008.46 0 .183 0 .365-.004.547 0 .074-.003.147-.006.22h.002l.155-.08c-.003-.07-.005-.142-.006-.214-.01-.18-.01-.362-.01-.543v-.463l-.01-.273c0-.075-.13-.23-.13-.23zm1.113.227s-.17.45-.21.59l-.02.09c-.05.15-.11.29-.18.427l-.09.193-.04.112-.02.054-.04.1c-.01.04-.03.08-.05.13v.03l.16-.07.01-.02.03-.07.06-.14c.04-.12.1-.24.15-.35.09-.16.15-.34.21-.52.04-.14.07-.52.07-.52zm-1.67.09s-.08.39-.08.533l-.02.338c0 .052-.01.103-.01.156l.16-.078.02-.153c.01-.11.01-.22.01-.33 0-.14-.05-.46-.05-.46zm-.16 1.46s.08.466.12.575c.05.135.09.272.13.412.04.17.08.342.08.517.01.09.03.19.06.28l.16-.08c-.04-.09-.05-.19-.06-.28-.01-.18-.05-.35-.09-.52-.03-.14-.07-.28-.12-.42-.04-.11-.26-.5-.26-.5z" fill="#b4b3b7"/>
  </g>
</svg>
