<svg xmlns="http://www.w3.org/2000/svg" id="Layer_1" viewBox="0 0 1000 1000"><style id="style2">.st0{fill:#010101;} .st1{fill:#F6E0E8;}</style><g id="layer2" stroke-width=".1" stroke-linecap="round"><path d="M495.4 468.64l-1.5 1.78-.37-2.72-2.7 1.5-1.6-3.65-4.5-1.97-2.25-3.18 5.53 2.25-5.5-4.4 2.2-.38-3.9-3-3.2-4.3 5.4 3-4.9-6.47 4.4 1.78-3.8-7.86 2.6 2.34L477 437l5.06 2-2.2-3.9-3.5-3.2 4.2 1.1-3.86-8.6-.63-5.4 4.2 10.3-.32-9.9 3 10.2 2.64-10.5.8 6.2.2 5.5 7.1-10.2-3 6.95 6.3-3.4-5.5 5.1-2.9 3 11.2-4-4.7 4.1 8.2-1.9-10.7 5 8.4 1.02-6.5 3.72 5.6-.1-5.3 3.1 3.7 1.4-4.4 1.7 6.4-1.4 2.1-2.1-4.8 5.2 4.3-1.2-7 5.9 5.4-2-4.2 4.2-2.9 3.7 6-2.1-3.3 5 5.5-.8-5 2.3 3.2 1.8-3.8.3 2.5 3.6z" id="path4488" fill="#9497a2"/><path d="M485.05 423.03zm0 0l-.16.97v1.05c-.1.42 0 .83.1 1.24.1.4.1.3.1.8 0 .4.1.9.1 1.3-.1-.4-.1-.7-.1-1.1l-.9.4c0 .3.1.7.1 1l.3 1.4c.1.3.1.7.2 1.1l.4-.3v.2-.3l.3-.2c0-.4-.1-.8-.2-1.1 0-.1 0-.2-.1-.3 0-.3-.1-.6-.1-.8 0-.9-.1-1.8-.2-2.6 0-.2 0-.3-.1-.4-.1-.6-.3-1.1-.2-1.7v-1zm-8.48.45l-.12.98c.1.33.27.65.4.97.2.44.35.88.5 1.33.16.46.2.94.3 1.4.12.46.2.92.3 1.37.04.24.13.47.24.7l.1-.96c-.1-.18-.2-.38-.2-.58 0 0 .1.1.1.2l.6 1.3.5 1.2v.1c.1.3-.1-.1.1.3l.2.4.1.2-1.2-.6c-.6-.2-1.1-.4-1.7-.6-.3-.1-.6-.1-.8-.1v1c.2-.1.5 0 .8 0l1.2.3v.4c.2-.1.5 0 .7.1l.3.1-.2.1 1 1c.4.3.9.7 1.4 1.1.2.1.1 0 .2.2l.4-.2c.1.1.3.3.4.5.2.3.5.5.7.8l.5.6.4.6c.2.3.5.6.7.9l.7.8.8-.5-.7-.9c-.2-.3-.5-.6-.7-1l-.5-.7-.6-.6-.7-.8-.7-.7c-.2-.1-.4-.2-.6-.2l-.2.1-.6-.5.1-.4c.6.2 1.3.5 1.9.7.3.1.6.3.8.4l.3.2c.2.3.3.5.5.8l.8-.4c-.2-.4-.4-.7-.5-1.1-.1-.4-.3-.7-.6-.9l.4-.2c-.2-.4-.4-.7-.6-1-.5-.7-.9-1.3-1.4-1.9l-.4-.4.3-.9.7-2.3c.2-.4.4-.9.5-1.4l-.1-.9c-.1.5-.3 1-.5 1.5-.2.8-.5 1.5-.7 2.3-.1.2-.1.4-.2.6v-.3c-.1-.3-.2-.6-.4-.8l-.5-.9-.6-.9c-.2-.3-.4-.6-.4-.9l-.1-.2c.1-.2.1-.4.2-.6l-.1-1c-.2.2-.2.5-.3.7-.1.5-.1 1 0 1.5v.4c.2.3.4.8.5 1.2l.6 1.6c.1.1.1.3.2.5l-.7.4c.4.3.7.7 1.1 1l.1.1v.7c-.4-.3-.8-.6-1.1-1l-.9.5c.4.4.9.7 1.4 1.1.6.4 1.2.8 1.8 1.3-.8-.3-1.6-.6-2.5-1l-.8-.3v-.7c-.1-.2-.2-.4-.4-.7l-.3-.9-.6-1.2-.7-1.3c-.2-.3-.3-.6-.4-.9l-.1.4v-.2c-.1-.5-.1-1-.3-1.4-.1-.5-.3-.9-.5-1.4-.1-.3-.3-.6-.4-1zm13.57 1.1l-.15.95c0-.2 0-.42-.1-.64l-.1.2-.2.9c-.2.7-.5 1.5-.7 2.2-.3.2-.5.5-.7.8-.1.1-.2.3-.3.5-.1.1-.2.1-.2.2-.5.4-.9.9-1.2 1.5-.2.3-.3.7-.4 1.1v.1l.9-.4v-.1c0-.4.2-.8.4-1.1.1-.3.3-.6.6-.9v.5-.2l.1.7c0-.1.1-.3.1-.4l.6-1.6v-.1l.1-.2c.4-.3.8-.6 1.3-.9.5-.3 1-.6 1.7-.6h.8v-1h-.8c-.7 0-1.2.3-1.8.6l-1 .6.3-1c.1-.4.2-.7.2-1v-1.5zm-8.2 4.34l.22.4c.12.18.2.4.25.6l-.2-.4-.2-.6zm2.34.4l-.87.45.2.84.2.5.9-.4-.1-.4c0-.3-.1-.5-.1-.8zm11.02 1.14c-.43.1-.85.23-1.27.37-.53.2-1.05.42-1.55.68l-.42.2-1.28.6-.6.3-.23.2-.1.1c-.23.2-.46.3-.7.5l.53-.2-.1.2-.06.2v.1c-.4.2-.8.4-1.2.7l.9-.3c-1.5.9-.42.2-.05.1l.2-.1-.2.2c-.17.2-.32.4-.44.6l.9-.4v.2l.08-.2.2-.2.8-.4.9-.5v.1l.2-.1-.2.2-.2.2c-.2.2-.5.5-.8.7 0 .1 0 .1-.1.1v-.2l-.3.5-.1.6c0 .3-.1.5-.2.8l-.1.3.1 1 .2-.3c.1-.2.2-.4.2-.7.1-.2.2-.3.2-.6.1-.1.2-.3.3-.4v-.6l.2-.1h.1v.1l.9-.4s.1-.1.1-.2c1.1-.6 1.2-.7 2.2-1.2.7-.4 1.4-.7 2.1-1 .5-.1.8-.3 1.2-.6v-.1h-.1c.1 0 0 0 0 0h-.1l.1-.1-.5.2-.9.3v-.6h.1-.1zm-.53 1.22c-.14.06-.3.12-.42.2l-.33.18.3-.23.45-.15zm-12.28.03l.9 1.3-1-.6v-.3l-.1-.1v-.1zm10.8.7l-1.7 1 .4-.4.4-.3h.1l.6-.2zm.9 3.7h-.7c-.3.1-.7.1-1 .1-.5 0-.9.1-1.3.2-.3.1-.5.1-.8.2l-.1.1-.8.6c.2-.1.4-.2.7-.2.4-.1.8-.1 1.2-.2h1.6zm-.5.6l-.6.2c-.3.1-.6.1-.8.2-.1 0-.1.1-.1.1s-.1 0-.1.1h-.5c-.3 0-.5 0-.7.1l-.6.3c-.2.1-.4.2-.4.5l.1.1-.5.3.5-.2-.3.2.4-.2h.1l-.1.1.2-.1-.1.1-.3.3-.1.1.9-.4v-.1h.1l-.8.4c0 .1-.2.4-.2.5l.1.1.1.1c.1.1.3 0 .4 0l-.1.1c-.4.3-.7.6-1.1 1l-.7 1v.1c0 .2.3.1.5-.1l-.2.4.9-.4c.1-.2.1-.4.3-.6l.2-.3v.7c0 .1.1.1.1 0v-.1l.1-.1c.1-.2.3-.3.4-.5v.1l.2-.2c.3-.3.8-.6 1.2-.9.5-.3 1-.6 1.6-.8.1-.1.4-.2.5-.2h.2v-.2h1.2l.8-.5h-.9l.3-.2-.1-.1h-.2v.1l.1-.1-1.2.1h-.6v-.2c-.3.1-.7.1-1.1.1zm-16.2 1v1h.8c.4 0 .8.1 1.1.3l-.4.3c.2 0 .5 0 .8.1.3.1.6.4.8.6l.4.5-.2.2.4.5-.4.3c.2 0 .3 0 .5.1l.9 1.3.9 1.5.2.5.8-.4-.3-.5c-.3-.4-.5-.8-.8-1.2l1.4 1 .6.6.8-.5-.6-.5c-.5-.3-1.1-.6-1.6-1-.5-.3-1-.7-1.5-.9-.1 0-.2-.1-.3-.1v-.1l-.3-.4.7.5c.3.2.6.3.9.5l.4.3c.4.3.8.5 1.2.8l.8.6.1-.9-.9-.6-1.3-.8c-.4-.2-.9-.4-1.3-.7-.4-.2-.7-.4-1-.6v.5l-.2-.2c-.3-.2-.6-.5-.9-.6l-.2-.1v-.2c-.2-.2-.5-.3-.7-.4-.2-.1-.4-.2-.5-.2-.3-.1-.6-.2-.9-.2h-.8zm15.9.1l-.1.1-.3.1h-.3c.2 0 .4-.1.6-.1zm-3.1.2h-.1zm1.2 0zm-.1.2c0 .1-.1.1-.1.2l-.1.1c0 .1-.1.1-.1.1l.1-.3zm5.3 2.6c-.6.2-1.2.4-1.7.7h-.1c.1-.1.3-.2.2-.4l-.1-.1h-.1l-.6.2c-.2 0-.4.1-.5.2-.4.3-.9.5-1.3.8-.2.2-.4.5-.6.7-.1.2-.2.4-.4.6l.7-.3c-.2.2-.3.4-.4.6l-.1.1-.8.6.2-.1c.1-.1.2-.2.4-.2l-.1.2h-.1l-.2.3c-.1.1-.3.4-.4.5l-.3.5c0 .1-.1.2-.1.3-.1.2-.3.7-.3 1v.1l.1.1c.4-.3.8-.4 1.1-.7.1-.1.1-.2.2-.3.1-.1.1-.3.2-.4l.2-.5.4-.6c.2-.4.5-.7.7-1.1v-.1l.2-.1.8-.4c.6-.3 1.2-.5 1.7-.9v-.1h-.1c-.2 0-.3.1-.5.1h-.3c-.4.1-.8.6-1.1.6h-.1l.4-.4 1.6-.6zm-2.4.8l-.1.1-.3.3-.7.4-.5.3.2-.3.3-.4s.1 0 .1-.1l.2-.1c.2 0 .4-.2.7-.2zm.5.7l-.6.3-.6.3.2-.1.4-.3.2-.1h.4zm-15.9.3l-.1 1 .6.3 1 .7c.1.1.2.1.3.2l-.3.2c.2.2.5.3.9.4.1.1.3.1.5.2l.5.5c.1.2.2.3.3.5l.1-.9c.2.1.5.2.7.4l.2.2v.1c.2.4.3.7.4 1.1-.3-.1-.6-.2-.9-.4l-.8.6c.3.1.7.3 1 .4.4.2.9.5 1.3.7.2.4.3.7.6 1l.6.5.8-.5h-.1l.3-.2c-.1 0-.1-.1-.2-.1-.3-.3-.7-.7-1.1-.9-.1 0-.1 0-.2-.1l-.2-.3-.2-.3c-.2-.3-.2-.4-.3-.7l.1.1.6.5.8-.5-.7-.5c-.3-.2-.5-.3-.8-.4l-.6-.3v-.1l-.1-.1-.2-.3-.3-.6-.7.5c-.1 0-.2-.1-.3-.1-.2-.1-.5-.2-.7-.2l-.2.1-.5-.3c-.4-.3-.8-.5-1.2-.8l-1-.7-.6-.3zm17 1.5c-.3.1-.6.1-.9.2l-.3.1h-.4c-.2 0-.4 0-.6.1-.2.1-.3.2-.4.2l-.3.3-.1.2c-.7.4-1.3.8-2 1.3l.9-.3c.3-.2.6-.4.8-.5h.1l.2-.1v.2c0 .1 0 .2-.1.3v.1l-1 .7c-.4.3-.8.6-1.1 1-.2.3-.4.6-.5.8l.1 1c.1-.3.2-.6.4-.8.3-.4.7-.7 1.1-1 .4-.3.8-.5 1.2-.7v-.2l.2-.6c0-.1 0-.2.1-.2s.2-.1.4-.2.3-.1.5-.1h2.2v-1h-.8l.3-.2h-.2zm2.3 2.3c-.3.2-.7.2-1 .3l.1-.1c-.4.1-.7.1-1.1.1-.5 0-.9.1-1.3.3-.5.3-1 .5-1.3.9l-.2.2-.2.1c-.5.3-.8.8-1.2 1.3-.3.4-.5.8-.8 1.2l.8-.4.5-.8v.1l.9-.4v-.2c.1-.3.2-.5.4-.8h.3-.1l.1.9.2-.3c.1-.1.1-.2.2-.3.1-.2.4-.2.5-.3.5-.2 1-.3 1.5-.4.5-.1.9-.1 1.3-.2zm-3.3.9c-.1 0-.1 0-.1.1h-.4c0-.1 0-.1.1-.1.1-.1.2-.1.3-.1zm2.7 1h-.1l-.3.1-.7.2c-.4.1-.8.2-1.1.4l-.7.2-.7.4-.4.2-.4.2-.1-.9c-.3.1-.5.3-.7.5-.4.4-.6.8-.9 1.3l-.2.5-.1.1c-.1.1-.2.2-.3.4l.1-.1-.1.1v.4c-.1.1 0 .1-.1.2l.1-.1v.3l.2-.5.5-.2.1-.1.6-.6c.1-.1.2-.3.4-.4l.2-.1.2-.1 1.5-.6 1.8-.6c.4 0 .7-.1 1.1-.1v-1c-.4 0-.8.2-1.1.2l-.3.1zm-16.6.3l-.8.5c.3 0 .5.2.7.3l.9.6.8.6-.6.4h.4l-.2.2.6.4.8.5c0 .3.1.5.3.7.3.6-.1-.1.3.6.3.6.7 1.2 1.1 1.8l-.3-.2-.6-.2c-.4-.1-.7-.3-1-.5l-1.3-.8c-.3-.2-.6-.3-.9-.5l-.4.3v-.9l-.2-.1c-.4-.2-.8-.4-1.3-.5l-.7-.3-.1 1 .7.3c.5.1.8.3 1.2.5l.2.1-.4.3c.3.1.6.3.9.5l1.3.8c.3.2.6.4.9.5.2.1.3.2.5.3l.2.3.8-.5.1.1c.2.5.5.9.8 1.3l.2.3.8-.5-.2-.2c-.3-.4-.6-.8-.9-1.3l-1-1.7.6.3c.4.2.7.5 1 .8.3.4.5.8.7 1.2l.3.9.8-.4-.3-.9c0-.2-.1-.3-.2-.5v-.1l.4-.2c-.2-.2-.5-.4-.7-.7-.1-.1-.2-.2-.3-.2l-.7-.6c-.3-.2-.5-.5-.8-.7v-.1l-.2-.1-.4-.3-1.1-.6c-.3-.2-.5-.3-.8-.5l-1.1-.8c-.3-.2-.6-.5-.9-.6l-.8-.3zm11.3 2.6v.3c-.1.1-.2.1-.4.2l-.2.1v-.1l.2-.3.2-.3zm3.8 1.2l-.9.4c-.3.2-.6.4-.8.6-.3.2-.5.4-.7.6l-.8.4c-.4.3-.7.6-1 .9-.2.2-.3.5-.4.7l.6-.2v.1c-.2.3-.3.7-.4 1.1l-.6.4c-.5.4-1 .8-1.5 1.3l.9-.3c.4-.4.8-.7 1.3-1.1v.5c-.2.3-.4.7-.5 1.1l.8-.4c.1-.4.3-.8.5-1.1v.1c0 .3-.1.6-.1.8v.1l.8-.4c0-.3.1-.6.1-.8.1-.3.1-.6.2-.9l.2-.2c.4-.1.7-.2 1.1-.2l.8-.6c-.5.1-1 .2-1.4.3.3-.2.6-.5.9-.7.6-.3.6-.3.9-.5l-.9.4c-.1 0-.1.1-.1.1l.7-.4-.1.1c-.1 0-.1.1-.2.1l-1.1.6c-.1.1-.1.1-.2.1-.2.1-.3.3-.5.4l-.2.2.1-.4 1.3-.9c.4-.2.8-.4 1.3-.6.3-.1.5-.1.8-.2v-1l-.8.3c-.4.1-.7.3-1.1.5l-.5.2.5-.4.9-.7zm-11 .5zm8.3 1.5l-.2.2c-.2.1-.4.3-.6.5 0-.1 0-.1.1-.1.2-.3.4-.5.6-.6zm-.6 1.7c0 .1-.1.2-.1.2l-.3.2v-.1l.3-.3zm-.1.4c0 .1 0 .1-.1.1-.3.2-.5.4-.6.7l-.2.2c0-.2.1-.4.2-.6v-.1c.1 0 .3-.1.4-.2zm-8 1.4l-.7.1v1.3h.7c.3 0 .6.1.8.1v-.2l1.1.6c.4.3.7.7.9 1.1l.8-.5c-.3-.5-.6-.9-1-1.2-.4-.3-.9-.6-1.3-.8-.3-.2-.5-.3-.8-.3l-.2.1-.5-.1h-.1zm12 0l-1.4 1-.8.5.1-.1.2-.2c.2-.2.2-.2-.1 0l.7-.6c-.6.2-1.2.6-1.7 1-.3.2-.6.6-.8.9-.2.1-.4.3-.5.5v.3l-.2.5v.1l.3-.2v.1l.1-.1.6-.2v-.1l.1-.4c.2-.1.3-.2.6-.4.5-.3 1-.6 1.5-1 .5-.3.9-.6 1.4-.9zm-1.1 2.8l-.9.6-.3.3-.6.7c-.5.6-.9 1.2-1.2 1.8-.1.2-.3.4-.4.6l.8-.4.1-.1v.3l-.5.3v.1s.2-.1.3-.1v-.1l.1-.1.9-.6.1-.1c.1-.1.3-.2.4-.2.4-.2.9-.3 1.3-.3v-.3l.5-.4-.2.1.7-.6-.9.5v-.3c-.5.1-1 .2-1.5.4-.4.1-.7.2-1 .4.3-.5.6-1 1-1.5l.6-.7c.3-.2.9-.6-.5.2zm-10.6 1.4c-.2 0-.4 0-.5.1l-.8.6h1.3c.3.1.6.1.9.2l1 .4.5.2h-.5c-.3 0-.6-.1-.9-.1l-.8.6.9.2.6.1-.3.2h.5c.1 0 .3.1.4.1l.2-.1c.4.1.8.2 1.2.5l.2.2h.1l-.1.5v1.6l.1-.9v-.5c.1-.2.1-.4.2-.5v-.4l.4-.3-.2-.1-.3-.1v-.1.1c-.4-.2-.7-.3-1-.4l-.6-.1.6-.3c-.1-.1-.2-.1-.2-.2l-.7-.3-1.1-.4c-.3-.1-.6-.2-.9-.2h-.8z" id="path4490" fill="#b4b3b7"/><path d="M484.52 430.5l-.12.97c.3.55.57 1.1.84 1.66.1.18.17.37.26.56l.15.4c.5 1.4 1.03 2.9 1.5 4.3v1.1l-.3-.9c-.1-.2-.18-.4-.26-.6l-.5-1-.5-.8-.1-.2-.1.3-.5-.9c-.4-.7-.8-1.4-1.2-2l-.5-.6c-.2-.3-.5-.5-.7-.7l-.1.9c.4.3.8.8 1.1 1.2.4.6.8 1.3 1.1 1.9v.1l-.1-.1-.1.9c.5.6.9 1.3 1.4 2l.9 1.4.6 1.9v.9l-.1-.1c0-.1 0-.1-.1-.1v-.5c-.1-.3-.1-.7-.2-1l-.2 1c-.7-1.2-1.5-2.3-2.2-3.4-.5-.7-1-1.4-1.4-2.1l-.1.9 1.3 1.9c.6.8 1.1 1.7 1.7 2.5l.7 1.2v.7l-.7-1.1-.9-1.8c-.2-.4-.3-.6-.6-1l-.3-.5-1.1-1.7-.1.9c.4.5.8 1.1 1.2 1.6l.3.4.6 1 .9 1.6-.3-.2c-.2-.1-.4-.3-.6-.3v.8l-1.1-1.7-.1 1 1.2 1.8c.6.9 1.3 1.8 1.9 2.7l.5.9-.1.6.1.2-.1.4c-.5-.8-1-1.5-1.4-2.3-.4-.7-.8-1.4-.9-2.2l-.2.9c.1.7.6 1.4.9 2.1l1.5 2.5.3.4c-.3-.4-.6-.7-1-1l-.2-.3c-.3-.6-.7-1.1-1-1.7l-.1.7-.1-.2c-.3-.6-.7-1.1-1-1.7l-.1.9 1 1.5v.1l-.3-.3c-.3-.2-.6-.4-.9-.7l-.1 1 .9.6c.2.2.5.3.7.5.3.3.6.6.9 1 .6.7 1.1 1.5 1.6 2.3v.3l-.3-.5c-.3-.4-.6-.7-1-1l-.5-.4c-.1 0-.1 0-.2-.1v1l.1.1c.2.1.3.1.4.3.3.2.5.4.7.7v.6l.3.2v.2l-.1-.1v1l.3.3-.8-.5-1-.9v.2l-1.1-.6c-.6-.2-1.1-.5-1.7-.5v1c.6-.1 1.1.1 1.7.3.5.2 1 .5 1.5.8l.6.4 1 .72v.4c-.3-.3-.6-.6-.8-.95l-.1 1c.3.3.6.6.8 1v.1-.18l.3.3c.5.7.9 1.4 1.4 2.1l-.3-.3c-.6-.4-1.2-.7-1.8-1.1-.3-.2-.7-.4-1.1-.4v1c.4 0 .7.2 1.1.3l1.1.7v.3l.9 1.2.2.35-2.1-.7c-.4-.2-.8-.4-1.1-.6l-.1 1h.1c.1.1 0 0 .3.1l.8.3 2.2.7c-.1.13-.1.3-.2.4l.1 1c.1-.2.2-.4.2-.66 0-.2.1-.4.1-.6v-.1.5-.5l.1.1-.1.4v.4h.2l.1.6v-1.2l.2.35v.1l.1.9c0-.2.1-.3.2-.5v-.2l.1.3-.1.2.1 1 .1-.1.1.5.1-.2.6-1 .3-.32.1.1.1.4v.1-.4l.4.2c.04.1.1.2.1.3l.1.3v.3-.8l.2.9c0-.5 0-.9-.1-1.4l.2.1.6.2.22.1v-1l-.2-.1c-.3-.35-.66-.6-1-.9.1-.05.14-.1.24-.1v-.2c.1 0 .1-.03.2-.04.3 0 .6 0 .8.1v-.9h-.9c-.4.1-.8.2-1.2.4v.3l-.55-.5-.3-1v-.6l.1-.1c0 .1.1.2.1.3l.05-.4.5-.5c.4-.2.7-.4 1.1-.7l-.1-1c-.3.3-.7.5-1 .7l-.7.5-.7-1.1c.1-.3.2-.6.32-.9.2-.4.4-.9.72-1.2l.6-.7-.1-1c-.2.3-.4.52-.6.8-.2.2-.4.5-.56.7l-.24.53c-.1.4-.3.9-.4 1.4l.03-.4.3-1.5c.1-.3.2-.5.4-.6l-.1-1-.3.4-.2.2c-.2.5-.3 1-.4 1.5l-.1.8s-.1 0-.1-.1l-.2-.8-.1-.3.1-.4.1-.8.2-1.6v.3-1.4c.06-.2.1-.3.2-.4l.26-.5c.2-.4.5-.6.8-.9.3-.2.6-.5 1-.6l-.08-1c-.4.2-.7.4-1 .7l-.1.1.1-.2.1-.1V449l-.2 1c0-1.3.1-1-.16-.6l-.5.8c-.2.3-.4.7-.5 1V448c.04-.03.1-.1.1-.2l-.1-.8v-.93l-.1.92v.1c-.2.4-.3.8-.5 1.2-.3.9-.46 1.8-.5 2.7l-.26-.9v-.4c0-.6 0-1.1-.1-1.6 0-.3.1-.6.1-.9 0-.1.08-.3.1-.4.1-.5.3-1 .48-1.6l.3-.9.1-.3v-1.1l-.1.9v-.8.3l-.3.9c-.1.5-.34 1-.5 1.6 0 .1 0 .2-.1.3 0 .3-.1.7-.1 1l-.4-1.7.2-.5.1.8.2-.8c0-.2.1-.7.2-.9l.3-1.4c.3-.5.6-.9.9-1.4.3-.4.6-.9 1-1.4l-.1-1-.5.9-.1-.7-.3.6-.04-.4-.2.6v-.8l-.18 1v-.9l-.1.2-.1.3-.4 1.1c-.3.8-.6 1.6-.8 2.5 0 .2-.1.5-.1.7v-2c.1-.1.1-.2.1-.3.03-.1.1-.4.1-.5v-1l-.1.9v-.8l-.07.2s0 .1-.1.1v-.6l-.2 1v.2c-.1.2-.1.4-.2.6-.1.3-.2.6-.2.9l-.2-1c-.1-.2-.1-.4-.1-.6v-.1c.4-1.2.9-2.4 1.5-3.5l.34-.7.3-.5v-.6l.3-.5-.1-1-.6 1.4c-.3.6-.6 1.1-.9 1.7l-.5.9c-.3.6-.5 1.3-.8 1.9l-.1-.4v-.6l.1-.6-.1-.3c0-1.1-.1-2.1-.1-3.2v-4.2l-.1 1v4.1c0 .6.1 1.2.1 1.8l-.6-1.6c0-.3 0-.7.1-1.1.1-.4.1-.7.2-1.1l.2-.5c0-.1.1-.1.1-.2l-.2-.9c-.04.4-.2.8-.23 1.1-.1.4-.1.4-.1.8-.1.6-.1 1.1-.1 1.6-.1-.4-.3-.7-.43-1.1l-1-2.6c-.2-.6-.4-1.3-.5-2l-.1.7-.43-1zm3 7.97c.12.33.25.66.36 1 .1.27.1.32.12.4v.13c-.16-.52-.3-1.04-.48-1.55zm-.22.4c.25.8.5 1.6.72 2.4v.1l-.25-.48-.1-.3c-.07-.3-.17-.5-.26-.7 0-.3-.1-.6-.1-.9v-.2zm2.24.33c-.26.66-.52 1.34-.76 2.02 0 .04-.03.1-.04.13 0-.1-.03-.2-.04-.3l.46-1.13.38-.72zm-.87 1.93l-.1.72c-.03-.05-.06-.18-.08-.22 0-.17.1-.33.1-.5zm2.43 1.03l-.05.16-.1.17.15-.4zm-2.46.56l.15.84.1.86v.2l-.2-.48c0-.1 0-.2-.1-.32l-.2-.93v-.2zm2.14.2l-.12.36-.3.93-.12.3c.13-.4.28-.9.46-1.3l.08-.2zm-1.25.55v2.26l-.26-1.3.2-.75.06-.2zm-1.52.03l.1.13v.3-.13l.1-.3zm.2.7c.1.16.1.32.1.48 0-.1-.1-.18-.1-.27l.1-.1v-.1zm.4.36l.1.3v.18-.48zm-.8.1l.1.1v.26l.1-.22v.6-.74zm1.4.47l.3 1.42v.02-.38c0-.4-.1-.6-.2-1v-.2zm-1.1 0l.6.96c0 .1.1.3.1.4-.1-.1-.2-.2-.3-.4l-.2-.4v-.7l.1-.2zm-2 .07c.2.07.3.15.5.25.3.14.5.34.7.54.3.2.4.5.6.8l.5.9c.2.4.3.8.4 1.2l.1.1c-.1-.4-.3-.7-.6-1.1l-1.8-2.7-.1-.1zm3 1.7l.2.34v.02l-.1-.15v-.2zm-.5.4l.3.32.1.53V448l-.2-.7zm1.2.38c.2.75.4 1.5.5 2.26v.16l-.1-.7c-.1-.45-.1-.72-.2-1.16v-.53zm-.7.23l.1.4-.1.3v-.6zm.3 1v1.4c0 .2.1.3 0 .4v-.3 1.1c-.1-.1-.1-.3-.2-.5v-.6c0 .1 0 .1.1.2l.1-.9.2-.4zm.1.5c0 .1.1.1.1.2v.6l.2 1v-.5l.1.7.1 1.6-.3-1v-2.3zm2.3.2v.8l.1 2.2v1.3l-.3.9c-.3.6-.4 1.3-.5 2l-.1-.7v-.1c0-.5 0-1 .1-1.4.1.3.2.7.2 1v.4l.2-.9v-.4c0-.4-.1-.8-.2-1.2.1-.9.2-1.7.5-2.6.1-.3.3-.6.4-.9zm-1.9.7l.1.7.2.8v1.9-.2c0-1-.1-2-.2-3zm-1.1.8l.2.4v.2c0-.1-.1-.2-.1-.3 0-.1.1-.1.1-.2zm1.6 1.4l.2.7.1-.5.2.9v1.7c-.2-.8-.3-1.6-.4-2.4v-.3zm-1 1.7zm.7.2zm-.5.1c0 .1 0 .1.1.2v.1l-.1-.1zm0 1.6l.4.7.2.5v.2c-.2-.3-.4-.7-.6-1v-.3zm2.3.1l-.1 1.3-.1.9-.2-.4v-.4c.1-.4.1-.9.2-1.3v.5l.2 1v-.1c0-.3.1-.7.1-1l.1-.4zm-1.6 1.3l.2.4-.1-.3v-.1zm.8 1l.1.1.1.6-.1-.3-.1-.2.1-.2zm-1.4 1.6l.3.2.7.7.1.1v.1c0 .1.1.1.1.2l.3.7.1.3v.1l.1.2.2.6-.7-1.2-.5-.8-.2-.4-.2-.2v-.5zm2.6 3.2l.3.5.1.3v.2l-.4-.8.1-.1zm-.5.2l.1.2.2.4v.1l-.3-.4v-.3zm1.2 1.2c.1.1.1.2.1.4l-.1-.3.1-.1zm-.6.2l.3 1.3.1.2-.6-.2v-.9c0 .1.1.1.1.2v-.3l.1.4.1-.7zm-.9.2c.1.1.2.2.3.4l.1.1.1.2c-.1-.2-.3-.4-.4-.6zm.5.5l.1.1.1.2v.2l-.1-.2v-.2zm1.3.8l.1.1v.1-.1zm.4.3l.1.3h-.1v-.2zm-.2.1l.1.2h-.1v-.1zm-.1 1.2v.1z" id="path4653" fill="#525767"/></g></svg>