<?xml version="1.0" encoding="UTF-8" standalone="no"?>
<!-- Generator: Adobe Illustrator 19.0.0, SVG Export Plug-In . SVG Version: 6.00 Build 0)  -->

<svg
   xmlns:dc="http://purl.org/dc/elements/1.1/"
   xmlns:cc="http://creativecommons.org/ns#"
   xmlns:rdf="http://www.w3.org/1999/02/22-rdf-syntax-ns#"
   xmlns:svg="http://www.w3.org/2000/svg"
   xmlns="http://www.w3.org/2000/svg"
   xmlns:sodipodi="http://sodipodi.sourceforge.net/DTD/sodipodi-0.dtd"
   xmlns:inkscape="http://www.inkscape.org/namespaces/inkscape"
   version="1.1"
   id="Layer_1"
   x="0px"
   y="0px"
   viewBox="0 0 1000 1000"
   style="enable-background:new 0 0 1000 1000;"
   xml:space="preserve"
   sodipodi:docname="strip front.svg"
   inkscape:version="0.92.2 (5c3e80d, 2017-08-06)"><metadata
     id="metadata10"><rdf:RDF><cc:Work
         rdf:about=""><dc:format>image/svg+xml</dc:format><dc:type
           rdf:resource="http://purl.org/dc/dcmitype/StillImage" /><dc:title></dc:title></cc:Work></rdf:RDF></metadata><defs
     id="defs8" /><sodipodi:namedview
     pagecolor="#ffffff"
     bordercolor="#666666"
     borderopacity="1"
     objecttolerance="10"
     gridtolerance="10"
     guidetolerance="10"
     inkscape:pageopacity="0"
     inkscape:pageshadow="2"
     inkscape:window-width="1329"
     inkscape:window-height="1287"
     id="namedview6"
     showgrid="false"
     inkscape:zoom="5.3400704"
     inkscape:cx="472.39965"
     inkscape:cy="897.24274"
     inkscape:window-x="0"
     inkscape:window-y="0"
     inkscape:window-maximized="0"
     inkscape:current-layer="Layer_1" /><style
     type="text/css"
     id="style2">
	.st0{fill:#5FBA46;}
</style><path
     sodipodi:nodetypes="ccccccccsccscccccccccccccccccccssccc"
     id="path34"
     d="m 547.25199,135.97397 c 0,0 -0.42493,-1.8967 -1.98505,-8.31398 -1.55988,-6.41778 -1.4188,-8.02229 -2.55301,-11.5235 -1.13446,-3.5002 -2.41096,-5.97975 -2.41096,-5.97975 0,0 -6.94976,1.16698 -9.36096,0.29218 l -2.41047,-0.87555 c 0,0 3.54517,0.80188 5.38964,0.21851 1.84275,-0.58337 3.89968,-2.55273 3.89968,-2.55273 0,0 -3.89968,1.45967 -5.81481,1.45967 h -1.91463 c 0,0 4.89257,-0.87605 6.23998,-2.11571 1.3479,-1.24015 2.19898,-3.57337 1.84422,-3.93822 -0.35476,-0.36486 -2.5535,0.36485 -6.38203,2.62489 -3.82976,2.26156 -3.19188,3.06419 -11.27584,4.95988 -8.08445,1.89669 -13.33252,2.77174 -17.58722,4.15774 -4.25493,1.38549 -5.53168,1.89569 -5.53168,1.89569 0,0 2.19825,-1.53184 3.54566,-4.59426 1.34716,-3.06268 1.5606,-4.8867 1.20584,-5.17839 -0.35451,-0.29218 -1.48921,-0.94797 -4.18378,1.60451 -2.69458,2.55273 -5.38939,5.3969 -7.80084,6.34512 -2.41072,0.94797 -2.75586,1.33154 -3.47476,1.53184 -1.49615,0.47236 -4.10487,-0.72828 -4.64048,-1.61952 -0.73372,-4.07064 -1.01685,-4.89384 -3.61817,-10.36549 -0.74828,-6.795819 -1.49437,-6.368302 -0.46393,-13.248606 1.56036,-5.68908 6.73704,-11.304485 13.33155,-16.482365 6.59523,-5.178382 18.93364,-12.251952 25.67068,-11.231312 6.73705,1.021143 9.92697,1.822517 14.53642,4.010896 4.61018,2.188378 11.41764,7.0009 14.75034,11.522492 3.33271,4.522096 5.10505,10.138003 5.17619,11.231815 0.0704,1.094315 2.76524,3.210024 3.82854,8.679084 1.06429,5.470566 -0.56723,16.409696 -0.77969,19.472616 -0.21296,3.06368 -1.06355,3.86556 -1.56036,3.64705 -0.49682,-0.21851 -3.19163,0 -3.89993,0.72871 -0.70928,0.72971 -1.277,1.45866 -0.77994,4.08457 0.49583,2.6254 1.13494,3.20851 0.85059,4.66768 -0.28361,1.45842 -1.84079,4.88444 -1.84079,4.88444 z"
     inkscape:connector-curvature="0"
     style="clip-rule:evenodd;fill:#9497a2;fill-opacity:1;fill-rule:evenodd;stroke-width:0.24794832" /><path
     sodipodi:nodetypes="cccccccssccc"
     id="path34-3"
     d="m 547.25199,135.97397 c 0,0 -0.42493,-1.8967 -1.98505,-8.31398 -1.55988,-6.41778 -1.4188,-8.02229 -2.55301,-11.5235 -1.13446,-3.5002 -2.41096,-5.97975 -2.41096,-5.97975 5.39286,-3.68131 4.33763,-10.191706 11.1306,-20.346918 0.0704,1.09432 2.76524,3.21003 3.82854,8.679088 1.06429,5.47056 -0.56723,16.40969 -0.77969,19.47261 -0.21296,3.06368 -1.06355,3.86556 -1.56036,3.64705 -0.49682,-0.21851 -3.19163,0 -3.89993,0.72871 -0.70928,0.72971 -1.277,1.45866 -0.77994,4.08457 0.49583,2.6254 1.13494,3.20851 0.85059,4.66768 -0.28361,1.45842 -1.84079,4.88444 -1.84079,4.88444 z"
     inkscape:connector-curvature="0"
     style="clip-rule:evenodd;fill:#e1e0e2;fill-opacity:1;fill-rule:evenodd;stroke-width:0.24794832" /></svg>