<?xml version="1.0" encoding="UTF-8" standalone="no"?>
<svg
   xmlns:dc="http://purl.org/dc/elements/1.1/"
   xmlns:cc="http://creativecommons.org/ns#"
   xmlns:rdf="http://www.w3.org/1999/02/22-rdf-syntax-ns#"
   xmlns:svg="http://www.w3.org/2000/svg"
   xmlns="http://www.w3.org/2000/svg"
   xmlns:sodipodi="http://sodipodi.sourceforge.net/DTD/sodipodi-0.dtd"
   xmlns:inkscape="http://www.inkscape.org/namespaces/inkscape"
   xml:space="preserve"
   style="enable-background:new 0 0 1000 1000;"
   viewBox="0 0 1000 1000"
   y="0px"
   x="0px"
   id="Layer_1"
   version="1.1"
   sodipodi:docname="trimmed back.svg"
   inkscape:version="0.92.2 (5c3e80d, 2017-08-06)"><sodipodi:namedview
     pagecolor="#ffffff"
     bordercolor="#666666"
     borderopacity="1"
     objecttolerance="10"
     gridtolerance="10"
     guidetolerance="10"
     inkscape:pageopacity="0"
     inkscape:pageshadow="2"
     inkscape:window-width="1621"
     inkscape:window-height="1259"
     id="namedview11"
     showgrid="false"
     inkscape:zoom="5.3400704"
     inkscape:cx="508.28742"
     inkscape:cy="864.70806"
     inkscape:window-x="0"
     inkscape:window-y="0"
     inkscape:window-maximized="0"
     inkscape:current-layer="Layer_1" /><metadata
     id="metadata12"><rdf:RDF><cc:Work
         rdf:about=""><dc:format>image/svg+xml</dc:format><dc:type
           rdf:resource="http://purl.org/dc/dcmitype/StillImage" /><dc:title /></cc:Work></rdf:RDF></metadata><defs
     id="defs10" /><style
     id="style2"
     type="text/css">
	.st0{fill:#010101;}
	.st1{fill:#F6E0E8;}
</style><style
     type="text/css"
     id="style4546">
	.st0{fill:#F6E0E8;}
</style><g
     id="g4566"
     transform="matrix(1.0199917,0,0,0.73573,-9.3747709,16.943636)"><g
       transform="matrix(0.77472067,0,0,0.77472067,111.20814,27.648761)"
       id="layer2"
       style="stroke-linecap:round"><path
         d="m 516.8,47.07 -8.72,1.46 -8.32,4.78 -8.1,6.7 -7.3,7.5 c 0,0 -6.44,8.1 -6.44,9 0,0.9 -6.86,11.7 -6.86,11.7 l -4.16,11 -2.5,6.9 -0.83,6.9 -1.45,14.6 c 0,0 1.24,10.8 1.24,11.9 0,1.1 -0.4,10.8 0,11.7 0.42,0.8 1.87,7.7 2.08,8.5 0.2,0.9 1.46,13.7 1.46,13.7 l 5.2,8.5 5.4,4.8 7.08,5.4 7.48,7.3 2.8,3.6 0.96,4.7 1.36,4.2 0.75,3.6 -0.34,4.2 -0.9,2.6 -1.2,3.2 -2.8,6.4 -3.7,7.9 3.9,-5.5 -0.9,5.1 -0.8,7 3.7,-5.2 2.7,-5.9 0.1,8.4 4.5,-7 1.4,-5.9 v 5.9 l 0.9,7 1,-5.9 1.5,-5.8 2.6,-4.6 0.1,6.9 -0.3,6 2.8,-6.1 2.1,-8.1 0.2,8.5 -0.1,4.1 2.6,-6.3 1.5,10 1.3,-4.2 0.9,4.3 2,6.2 1.8,-9.3 2.7,-8.3 0.2,4.5 1.7,4.6 3.3,-7.5 1.9,7.8 4,-6.8 v 6.2 l 0.5,3.7 3.2,-4.6 1.3,5.1 1.4,5.1 1.7,-9 2.3,-7.8 0.2,5.3 2.3,-7.1 2.2,6.1 1.5,-5.5 1.4,-6.2 0.3,5.7 2.1,-7.8 1.7,-6.2 0.1,5 2,-3.6 2.3,-6.2 2,-5.4 7,-18 4.6,-11.3 -1,8.7 5.7,-13.4 6.2,-13.6 2,-15.3 2.4,-28.8 -3.2,-13.5 -6.5,-16.5 -4.4,-8.8 -7.6,-8 -9.4,-11.2 -18.7,-7.5 -11.8,-2.1 h -8.5 z"
         id="path5214"
         style="opacity:0.98999999;fill:#474e62;stroke-width:0.1"
         inkscape:connector-curvature="0" /><path
         d="m 576.35821,72.174527 1.66,11.46 0.2,16.22 v 20.800003 l -0.4,7.9 -1.88,5.4 -10.4,29.96 -2.5,11.85 -4.57,7.6 c 0,0 -6.03,3.7 -6.03,5 0,1.2 -4.16,7 -4.16,7 l -8.1,8.1 -3.96,5 -2.7,-7.7 -6.87,2.7 -3.9,-7.9 1.3,6.2 -5.4,-12.9 -5.4,7 -5.2,-6.5 -5.8,-7.1 -4.8,-4.8 -7.7,-18.7 -5.6,-11.9 -7.5,-25.2 0.2,-18.5 -3.9,-13.900003 -0.6,-4 -1.7,2.7 -4.2,11.1 -2.5,6.900003 -0.8,6.8 -1.4,14.5 c 0,0 1.2,10.8 1.2,11.8 0,1 -0.4,10.8 0,11.6 0.5,0.9 1.9,7.7 2.1,8.6 0.2,0.8 1.5,13.7 1.5,13.7 l 5.2,8.5 5.4,4.8 7.1,5.4 3.3908,7.54172 3.44526,3.38701 1.30335,4.46857 0.14967,4.08753 0.15571,3.57345 0.40879,4.23458 -0.58549,2.65071 -0.14794,3.24979 -1.11059,6.38241 -2.40956,7.92423 4,-5.5 -0.8,5.1 -0.8,6.9 3.8,-5.2 2.7,-5.9 0.1,8.4 4.5,-7 1.5,-5.9 v 6 l 0.9,6.9 1.1,-6 1.6,-5.8 2.6,-4.7 0.1,6.9 -0.3,6 2.8,-6.1 2.1,-8.1 0.2,8.5 -0.1,4 2.6,-6.4 1.6,10 1.3,-4.2 0.9,4.4 1.9,6.23 1.9,-9.35 2.7,-8.3 0.2,4.6 1.7,4.6 3.3,-7.5 2,7.8 4,-6.8 v 6.1 l 0.5,3.8 3.2,-4.6 1.4,5.1 1.4,5.1 1.7,-9 2.3,-7.8 0.2,5.3 2.3,-7 2.2,6 1.6,-5.5 1.4,-6.2 0.3,5.7 2.2,-7.86 1.7,-6.2 0.1,5 2.1,-3.6 2.4,-6.2 2,-5.4 7,-18 4.6,-11.3 -1.1,8.66 5.7,-13.4 6.2,-13.6 2,-15.3 2.4,-28.8 -3.31,-13.37 -6.4,-16.500003 -4.4,-8.8 z"
         id="path5216"
         style="opacity:0.98999999;fill:#595f6d;stroke-width:0.1"
         inkscape:connector-curvature="0" /></g></g></svg>