<?xml version="1.0" encoding="UTF-8" standalone="no"?>
<svg
   xmlns:dc="http://purl.org/dc/elements/1.1/"
   xmlns:cc="http://creativecommons.org/ns#"
   xmlns:rdf="http://www.w3.org/1999/02/22-rdf-syntax-ns#"
   xmlns:svg="http://www.w3.org/2000/svg"
   xmlns="http://www.w3.org/2000/svg"
   xmlns:sodipodi="http://sodipodi.sourceforge.net/DTD/sodipodi-0.dtd"
   xmlns:inkscape="http://www.inkscape.org/namespaces/inkscape"
   id="Layer_1"
   viewBox="0 0 1000 1000"
   version="1.1"
   sodipodi:docname="underarm bushy.svg"
   inkscape:version="0.92.2 (5c3e80d, 2017-08-06)">
  <metadata
     id="metadata4148">
    <rdf:RDF>
      <cc:Work
         rdf:about="">
        <dc:format>image/svg+xml</dc:format>
        <dc:type
           rdf:resource="http://purl.org/dc/dcmitype/StillImage" />
        <dc:title></dc:title>
      </cc:Work>
    </rdf:RDF>
  </metadata>
  <defs
     id="defs4146" />
  <sodipodi:namedview
     pagecolor="#ffffff"
     bordercolor="#666666"
     borderopacity="1"
     objecttolerance="10"
     gridtolerance="10"
     guidetolerance="10"
     inkscape:pageopacity="0"
     inkscape:pageshadow="2"
     inkscape:window-width="1159"
     inkscape:window-height="928"
     id="namedview4144"
     showgrid="false"
     inkscape:zoom="0.788"
     inkscape:cx="500"
     inkscape:cy="630.24332"
     inkscape:window-x="10"
     inkscape:window-y="30"
     inkscape:window-maximized="0"
     inkscape:current-layer="layer13"
     inkscape:snap-global="false" />
  <style
     id="style2">.st0{fill:#010101;} .st1{fill:#F6E0E8;}</style>
  <style
     id="style4208"
     type="text/css">
	.st0{fill:#010101;}
	.st1{fill:#F6E0E8;}
</style>
  <g
     inkscape:groupmode="layer"
     id="layer14"
     inkscape:label="Layer 3">
    <g
       transform="matrix(0.32825958,0.34029125,-0.21729162,0.51740458,407.60151,-162.98551)"
       style="stroke-width:0.1;stroke-linecap:round"
       id="layer2-4-3"
       inkscape:transform-center-x="5.1605772"
       inkscape:transform-center-y="-2.3165394">
      <path
         style="fill:#9497a2"
         inkscape:connector-curvature="0"
         d="m 495.4,468.64 -1.5,1.78 -0.37,-2.72 -2.7,1.5 -1.6,-3.65 -4.5,-1.97 -2.25,-3.18 5.53,2.25 -5.5,-4.4 2.2,-0.38 -3.9,-3 -3.2,-4.3 5.4,3 -4.9,-6.47 4.4,1.78 -3.8,-7.86 2.6,2.34 -4.31,-6.36 5.06,2 -2.2,-3.9 -3.5,-3.2 4.2,1.1 -3.86,-8.6 -0.63,-5.4 4.2,10.3 -0.32,-9.9 3,10.2 2.64,-10.5 0.8,6.2 0.2,5.5 7.1,-10.2 -3,6.95 6.3,-3.4 -5.5,5.1 -2.9,3 11.2,-4 -4.7,4.1 8.2,-1.9 -10.7,5 8.4,1.02 -6.5,3.72 5.6,-0.1 -5.3,3.1 3.7,1.4 -4.4,1.7 6.4,-1.4 2.1,-2.1 -4.8,5.2 4.3,-1.2 -7,5.9 5.4,-2 -4.2,4.2 -2.9,3.7 6,-2.1 -3.3,5 5.5,-0.8 -5,2.3 3.2,1.8 -3.8,0.3 2.5,3.6 z"
         id="path4488-3-1" />
      <path
         style="fill:#b4b3b7"
         inkscape:connector-curvature="0"
         d="m 485.05,423.03 z m 0,0 -0.16,0.97 v 1.05 c -0.1,0.42 0,0.83 0.1,1.24 0.1,0.4 0.1,0.3 0.1,0.8 0,0.4 0.1,0.9 0.1,1.3 -0.1,-0.4 -0.1,-0.7 -0.1,-1.1 l -0.9,0.4 c 0,0.3 0.1,0.7 0.1,1 l 0.3,1.4 c 0.1,0.3 0.1,0.7 0.2,1.1 l 0.4,-0.3 v 0.2 -0.3 l 0.3,-0.2 c 0,-0.4 -0.1,-0.8 -0.2,-1.1 0,-0.1 0,-0.2 -0.1,-0.3 0,-0.3 -0.1,-0.6 -0.1,-0.8 0,-0.9 -0.1,-1.8 -0.2,-2.6 0,-0.2 0,-0.3 -0.1,-0.4 -0.1,-0.6 -0.3,-1.1 -0.2,-1.7 v -1 z m -8.48,0.45 -0.12,0.98 c 0.1,0.33 0.27,0.65 0.4,0.97 0.2,0.44 0.35,0.88 0.5,1.33 0.16,0.46 0.2,0.94 0.3,1.4 0.12,0.46 0.2,0.92 0.3,1.37 0.04,0.24 0.13,0.47 0.24,0.7 l 0.1,-0.96 c -0.1,-0.18 -0.2,-0.38 -0.2,-0.58 0,0 0.1,0.1 0.1,0.2 l 0.6,1.3 0.5,1.2 v 0.1 c 0.1,0.3 -0.1,-0.1 0.1,0.3 l 0.2,0.4 0.1,0.2 -1.2,-0.6 c -0.6,-0.2 -1.1,-0.4 -1.7,-0.6 -0.3,-0.1 -0.6,-0.1 -0.8,-0.1 v 1 c 0.2,-0.1 0.5,0 0.8,0 l 1.2,0.3 v 0.4 c 0.2,-0.1 0.5,0 0.7,0.1 l 0.3,0.1 -0.2,0.1 1,1 c 0.4,0.3 0.9,0.7 1.4,1.1 0.2,0.1 0.1,0 0.2,0.2 l 0.4,-0.2 c 0.1,0.1 0.3,0.3 0.4,0.5 0.2,0.3 0.5,0.5 0.7,0.8 l 0.5,0.6 0.4,0.6 c 0.2,0.3 0.5,0.6 0.7,0.9 l 0.7,0.8 0.8,-0.5 -0.7,-0.9 c -0.2,-0.3 -0.5,-0.6 -0.7,-1 l -0.5,-0.7 -0.6,-0.6 -0.7,-0.8 -0.7,-0.7 c -0.2,-0.1 -0.4,-0.2 -0.6,-0.2 l -0.2,0.1 -0.6,-0.5 0.1,-0.4 c 0.6,0.2 1.3,0.5 1.9,0.7 0.3,0.1 0.6,0.3 0.8,0.4 l 0.3,0.2 c 0.2,0.3 0.3,0.5 0.5,0.8 l 0.8,-0.4 c -0.2,-0.4 -0.4,-0.7 -0.5,-1.1 -0.1,-0.4 -0.3,-0.7 -0.6,-0.9 l 0.4,-0.2 c -0.2,-0.4 -0.4,-0.7 -0.6,-1 -0.5,-0.7 -0.9,-1.3 -1.4,-1.9 l -0.4,-0.4 0.3,-0.9 0.7,-2.3 c 0.2,-0.4 0.4,-0.9 0.5,-1.4 l -0.1,-0.9 c -0.1,0.5 -0.3,1 -0.5,1.5 -0.2,0.8 -0.5,1.5 -0.7,2.3 -0.1,0.2 -0.1,0.4 -0.2,0.6 v -0.3 c -0.1,-0.3 -0.2,-0.6 -0.4,-0.8 l -0.5,-0.9 -0.6,-0.9 c -0.2,-0.3 -0.4,-0.6 -0.4,-0.9 l -0.1,-0.2 c 0.1,-0.2 0.1,-0.4 0.2,-0.6 l -0.1,-1 c -0.2,0.2 -0.2,0.5 -0.3,0.7 -0.1,0.5 -0.1,1 0,1.5 v 0.4 c 0.2,0.3 0.4,0.8 0.5,1.2 l 0.6,1.6 c 0.1,0.1 0.1,0.3 0.2,0.5 l -0.7,0.4 c 0.4,0.3 0.7,0.7 1.1,1 l 0.1,0.1 v 0.7 c -0.4,-0.3 -0.8,-0.6 -1.1,-1 l -0.9,0.5 c 0.4,0.4 0.9,0.7 1.4,1.1 0.6,0.4 1.2,0.8 1.8,1.3 -0.8,-0.3 -1.6,-0.6 -2.5,-1 l -0.8,-0.3 v -0.7 c -0.1,-0.2 -0.2,-0.4 -0.4,-0.7 l -0.3,-0.9 -0.6,-1.2 -0.7,-1.3 c -0.2,-0.3 -0.3,-0.6 -0.4,-0.9 l -0.1,0.4 v -0.2 c -0.1,-0.5 -0.1,-1 -0.3,-1.4 -0.1,-0.5 -0.3,-0.9 -0.5,-1.4 -0.1,-0.3 -0.3,-0.6 -0.4,-1 z m 13.57,1.1 -0.15,0.95 c 0,-0.2 0,-0.42 -0.1,-0.64 l -0.1,0.2 -0.2,0.9 c -0.2,0.7 -0.5,1.5 -0.7,2.2 -0.3,0.2 -0.5,0.5 -0.7,0.8 -0.1,0.1 -0.2,0.3 -0.3,0.5 -0.1,0.1 -0.2,0.1 -0.2,0.2 -0.5,0.4 -0.9,0.9 -1.2,1.5 -0.2,0.3 -0.3,0.7 -0.4,1.1 v 0.1 l 0.9,-0.4 v -0.1 c 0,-0.4 0.2,-0.8 0.4,-1.1 0.1,-0.3 0.3,-0.6 0.6,-0.9 v 0.5 -0.2 l 0.1,0.7 c 0,-0.1 0.1,-0.3 0.1,-0.4 l 0.6,-1.6 v -0.1 l 0.1,-0.2 c 0.4,-0.3 0.8,-0.6 1.3,-0.9 0.5,-0.3 1,-0.6 1.7,-0.6 h 0.8 v -1 h -0.8 c -0.7,0 -1.2,0.3 -1.8,0.6 l -1,0.6 0.3,-1 c 0.1,-0.4 0.2,-0.7 0.2,-1 v -1.5 z m -8.2,4.34 0.22,0.4 c 0.12,0.18 0.2,0.4 0.25,0.6 l -0.2,-0.4 -0.2,-0.6 z m 2.34,0.4 -0.87,0.45 0.2,0.84 0.2,0.5 0.9,-0.4 -0.1,-0.4 c 0,-0.3 -0.1,-0.5 -0.1,-0.8 z m 11.02,1.14 c -0.43,0.1 -0.85,0.23 -1.27,0.37 -0.53,0.2 -1.05,0.42 -1.55,0.68 l -0.42,0.2 -1.28,0.6 -0.6,0.3 -0.23,0.2 -0.1,0.1 c -0.23,0.2 -0.46,0.3 -0.7,0.5 l 0.53,-0.2 -0.1,0.2 -0.06,0.2 v 0.1 c -0.4,0.2 -0.8,0.4 -1.2,0.7 l 0.9,-0.3 c -1.5,0.9 -0.42,0.2 -0.05,0.1 l 0.2,-0.1 -0.2,0.2 c -0.17,0.2 -0.32,0.4 -0.44,0.6 l 0.9,-0.4 v 0.2 l 0.08,-0.2 0.2,-0.2 0.8,-0.4 0.9,-0.5 v 0.1 l 0.2,-0.1 -0.2,0.2 -0.2,0.2 c -0.2,0.2 -0.5,0.5 -0.8,0.7 0,0.1 0,0.1 -0.1,0.1 v -0.2 l -0.3,0.5 -0.1,0.6 c 0,0.3 -0.1,0.5 -0.2,0.8 l -0.1,0.3 0.1,1 0.2,-0.3 c 0.1,-0.2 0.2,-0.4 0.2,-0.7 0.1,-0.2 0.2,-0.3 0.2,-0.6 0.1,-0.1 0.2,-0.3 0.3,-0.4 v -0.6 l 0.2,-0.1 h 0.1 v 0.1 l 0.9,-0.4 c 0,0 0.1,-0.1 0.1,-0.2 1.1,-0.6 1.2,-0.7 2.2,-1.2 0.7,-0.4 1.4,-0.7 2.1,-1 0.5,-0.1 0.8,-0.3 1.2,-0.6 v -0.1 h -0.1 c 0.1,0 0,0 0,0 h -0.1 l 0.1,-0.1 -0.5,0.2 -0.9,0.3 v -0.6 h 0.1 -0.1 z m -0.53,1.22 c -0.14,0.06 -0.3,0.12 -0.42,0.2 l -0.33,0.18 0.3,-0.23 z m -12.28,0.03 0.9,1.3 -1,-0.6 v -0.3 l -0.1,-0.1 v -0.1 z m 10.8,0.7 -1.7,1 0.4,-0.4 0.4,-0.3 h 0.1 l 0.6,-0.2 z m 0.9,3.7 h -0.7 c -0.3,0.1 -0.7,0.1 -1,0.1 -0.5,0 -0.9,0.1 -1.3,0.2 -0.3,0.1 -0.5,0.1 -0.8,0.2 l -0.1,0.1 -0.8,0.6 c 0.2,-0.1 0.4,-0.2 0.7,-0.2 0.4,-0.1 0.8,-0.1 1.2,-0.2 h 1.6 z m -0.5,0.6 -0.6,0.2 c -0.3,0.1 -0.6,0.1 -0.8,0.2 -0.1,0 -0.1,0.1 -0.1,0.1 0,0 -0.1,0 -0.1,0.1 h -0.5 c -0.3,0 -0.5,0 -0.7,0.1 l -0.6,0.3 c -0.2,0.1 -0.4,0.2 -0.4,0.5 l 0.1,0.1 -0.5,0.3 0.5,-0.2 -0.3,0.2 0.4,-0.2 h 0.1 l -0.1,0.1 0.2,-0.1 -0.1,0.1 -0.3,0.3 -0.1,0.1 0.9,-0.4 v -0.1 h 0.1 l -0.8,0.4 c 0,0.1 -0.2,0.4 -0.2,0.5 l 0.1,0.1 0.1,0.1 c 0.1,0.1 0.3,0 0.4,0 l -0.1,0.1 c -0.4,0.3 -0.7,0.6 -1.1,1 l -0.7,1 v 0.1 c 0,0.2 0.3,0.1 0.5,-0.1 l -0.2,0.4 0.9,-0.4 c 0.1,-0.2 0.1,-0.4 0.3,-0.6 l 0.2,-0.3 v 0.7 c 0,0.1 0.1,0.1 0.1,0 v -0.1 l 0.1,-0.1 c 0.1,-0.2 0.3,-0.3 0.4,-0.5 v 0.1 l 0.2,-0.2 c 0.3,-0.3 0.8,-0.6 1.2,-0.9 0.5,-0.3 1,-0.6 1.6,-0.8 0.1,-0.1 0.4,-0.2 0.5,-0.2 h 0.2 v -0.2 h 1.2 l 0.8,-0.5 h -0.9 l 0.3,-0.2 -0.1,-0.1 h -0.2 v 0.1 l 0.1,-0.1 -1.2,0.1 h -0.6 v -0.2 c -0.3,0.1 -0.7,0.1 -1.1,0.1 z m -16.2,1 v 1 h 0.8 c 0.4,0 0.8,0.1 1.1,0.3 l -0.4,0.3 c 0.2,0 0.5,0 0.8,0.1 0.3,0.1 0.6,0.4 0.8,0.6 l 0.4,0.5 -0.2,0.2 0.4,0.5 -0.4,0.3 c 0.2,0 0.3,0 0.5,0.1 l 0.9,1.3 0.9,1.5 0.2,0.5 0.8,-0.4 -0.3,-0.5 c -0.3,-0.4 -0.5,-0.8 -0.8,-1.2 l 1.4,1 0.6,0.6 0.8,-0.5 -0.6,-0.5 c -0.5,-0.3 -1.1,-0.6 -1.6,-1 -0.5,-0.3 -1,-0.7 -1.5,-0.9 -0.1,0 -0.2,-0.1 -0.3,-0.1 v -0.1 l -0.3,-0.4 0.7,0.5 c 0.3,0.2 0.6,0.3 0.9,0.5 l 0.4,0.3 c 0.4,0.3 0.8,0.5 1.2,0.8 l 0.8,0.6 0.1,-0.9 -0.9,-0.6 -1.3,-0.8 c -0.4,-0.2 -0.9,-0.4 -1.3,-0.7 -0.4,-0.2 -0.7,-0.4 -1,-0.6 v 0.5 l -0.2,-0.2 c -0.3,-0.2 -0.6,-0.5 -0.9,-0.6 l -0.2,-0.1 v -0.2 c -0.2,-0.2 -0.5,-0.3 -0.7,-0.4 -0.2,-0.1 -0.4,-0.2 -0.5,-0.2 -0.3,-0.1 -0.6,-0.2 -0.9,-0.2 h -0.8 z m 15.9,0.1 -0.1,0.1 -0.3,0.1 h -0.3 c 0.2,0 0.4,-0.1 0.6,-0.1 z m -3.1,0.2 h -0.1 z m 1.2,0 z m -0.1,0.2 c 0,0.1 -0.1,0.1 -0.1,0.2 l -0.1,0.1 c 0,0.1 -0.1,0.1 -0.1,0.1 l 0.1,-0.3 z m 5.3,2.6 c -0.6,0.2 -1.2,0.4 -1.7,0.7 h -0.1 c 0.1,-0.1 0.3,-0.2 0.2,-0.4 l -0.1,-0.1 h -0.1 l -0.6,0.2 c -0.2,0 -0.4,0.1 -0.5,0.2 -0.4,0.3 -0.9,0.5 -1.3,0.8 -0.2,0.2 -0.4,0.5 -0.6,0.7 -0.1,0.2 -0.2,0.4 -0.4,0.6 l 0.7,-0.3 c -0.2,0.2 -0.3,0.4 -0.4,0.6 l -0.1,0.1 -0.8,0.6 0.2,-0.1 c 0.1,-0.1 0.2,-0.2 0.4,-0.2 l -0.1,0.2 h -0.1 l -0.2,0.3 c -0.1,0.1 -0.3,0.4 -0.4,0.5 l -0.3,0.5 c 0,0.1 -0.1,0.2 -0.1,0.3 -0.1,0.2 -0.3,0.7 -0.3,1 v 0.1 l 0.1,0.1 c 0.4,-0.3 0.8,-0.4 1.1,-0.7 0.1,-0.1 0.1,-0.2 0.2,-0.3 0.1,-0.1 0.1,-0.3 0.2,-0.4 l 0.2,-0.5 0.4,-0.6 c 0.2,-0.4 0.5,-0.7 0.7,-1.1 v -0.1 l 0.2,-0.1 0.8,-0.4 c 0.6,-0.3 1.2,-0.5 1.7,-0.9 v -0.1 h -0.1 c -0.2,0 -0.3,0.1 -0.5,0.1 h -0.3 c -0.4,0.1 -0.8,0.6 -1.1,0.6 h -0.1 l 0.4,-0.4 1.6,-0.6 z m -2.4,0.8 -0.1,0.1 -0.3,0.3 -0.7,0.4 -0.5,0.3 0.2,-0.3 0.3,-0.4 c 0,0 0.1,0 0.1,-0.1 l 0.2,-0.1 c 0.2,0 0.4,-0.2 0.7,-0.2 z m 0.5,0.7 -0.6,0.3 -0.6,0.3 0.2,-0.1 0.4,-0.3 0.2,-0.1 h 0.4 z m -15.9,0.3 -0.1,1 0.6,0.3 1,0.7 c 0.1,0.1 0.2,0.1 0.3,0.2 l -0.3,0.2 c 0.2,0.2 0.5,0.3 0.9,0.4 0.1,0.1 0.3,0.1 0.5,0.2 l 0.5,0.5 c 0.1,0.2 0.2,0.3 0.3,0.5 l 0.1,-0.9 c 0.2,0.1 0.5,0.2 0.7,0.4 l 0.2,0.2 v 0.1 c 0.2,0.4 0.3,0.7 0.4,1.1 -0.3,-0.1 -0.6,-0.2 -0.9,-0.4 l -0.8,0.6 c 0.3,0.1 0.7,0.3 1,0.4 0.4,0.2 0.9,0.5 1.3,0.7 0.2,0.4 0.3,0.7 0.6,1 l 0.6,0.5 0.8,-0.5 h -0.1 l 0.3,-0.2 c -0.1,0 -0.1,-0.1 -0.2,-0.1 -0.3,-0.3 -0.7,-0.7 -1.1,-0.9 -0.1,0 -0.1,0 -0.2,-0.1 l -0.2,-0.3 -0.2,-0.3 c -0.2,-0.3 -0.2,-0.4 -0.3,-0.7 l 0.1,0.1 0.6,0.5 0.8,-0.5 -0.7,-0.5 c -0.3,-0.2 -0.5,-0.3 -0.8,-0.4 l -0.6,-0.3 v -0.1 l -0.1,-0.1 -0.2,-0.3 -0.3,-0.6 -0.7,0.5 c -0.1,0 -0.2,-0.1 -0.3,-0.1 -0.2,-0.1 -0.5,-0.2 -0.7,-0.2 l -0.2,0.1 -0.5,-0.3 c -0.4,-0.3 -0.8,-0.5 -1.2,-0.8 l -1,-0.7 -0.6,-0.3 z m 17,1.5 c -0.3,0.1 -0.6,0.1 -0.9,0.2 l -0.3,0.1 h -0.4 c -0.2,0 -0.4,0 -0.6,0.1 -0.2,0.1 -0.3,0.2 -0.4,0.2 l -0.3,0.3 -0.1,0.2 c -0.7,0.4 -1.3,0.8 -2,1.3 l 0.9,-0.3 c 0.3,-0.2 0.6,-0.4 0.8,-0.5 h 0.1 l 0.2,-0.1 v 0.2 c 0,0.1 0,0.2 -0.1,0.3 v 0.1 l -1,0.7 c -0.4,0.3 -0.8,0.6 -1.1,1 -0.2,0.3 -0.4,0.6 -0.5,0.8 l 0.1,1 c 0.1,-0.3 0.2,-0.6 0.4,-0.8 0.3,-0.4 0.7,-0.7 1.1,-1 0.4,-0.3 0.8,-0.5 1.2,-0.7 v -0.2 l 0.2,-0.6 c 0,-0.1 0,-0.2 0.1,-0.2 0.1,0 0.2,-0.1 0.4,-0.2 0.2,-0.1 0.3,-0.1 0.5,-0.1 h 2.2 v -1 h -0.8 l 0.3,-0.2 h -0.2 z m 2.3,2.3 c -0.3,0.2 -0.7,0.2 -1,0.3 l 0.1,-0.1 c -0.4,0.1 -0.7,0.1 -1.1,0.1 -0.5,0 -0.9,0.1 -1.3,0.3 -0.5,0.3 -1,0.5 -1.3,0.9 l -0.2,0.2 -0.2,0.1 c -0.5,0.3 -0.8,0.8 -1.2,1.3 -0.3,0.4 -0.5,0.8 -0.8,1.2 l 0.8,-0.4 0.5,-0.8 v 0.1 l 0.9,-0.4 v -0.2 c 0.1,-0.3 0.2,-0.5 0.4,-0.8 h 0.3 -0.1 l 0.1,0.9 0.2,-0.3 c 0.1,-0.1 0.1,-0.2 0.2,-0.3 0.1,-0.2 0.4,-0.2 0.5,-0.3 0.5,-0.2 1,-0.3 1.5,-0.4 0.5,-0.1 0.9,-0.1 1.3,-0.2 z m -3.3,0.9 c -0.1,0 -0.1,0 -0.1,0.1 h -0.4 c 0,-0.1 0,-0.1 0.1,-0.1 0.1,-0.1 0.2,-0.1 0.3,-0.1 z m 2.7,1 h -0.1 l -0.3,0.1 -0.7,0.2 c -0.4,0.1 -0.8,0.2 -1.1,0.4 l -0.7,0.2 -0.7,0.4 -0.4,0.2 -0.4,0.2 -0.1,-0.9 c -0.3,0.1 -0.5,0.3 -0.7,0.5 -0.4,0.4 -0.6,0.8 -0.9,1.3 l -0.2,0.5 -0.1,0.1 c -0.1,0.1 -0.2,0.2 -0.3,0.4 l 0.1,-0.1 -0.1,0.1 v 0.4 c -0.1,0.1 0,0.1 -0.1,0.2 l 0.1,-0.1 v 0.3 l 0.2,-0.5 0.5,-0.2 0.1,-0.1 0.6,-0.6 c 0.1,-0.1 0.2,-0.3 0.4,-0.4 l 0.2,-0.1 0.2,-0.1 1.5,-0.6 1.8,-0.6 c 0.4,0 0.7,-0.1 1.1,-0.1 v -1 c -0.4,0 -0.8,0.2 -1.1,0.2 l -0.3,0.1 z m -16.6,0.3 -0.8,0.5 c 0.3,0 0.5,0.2 0.7,0.3 l 0.9,0.6 0.8,0.6 -0.6,0.4 h 0.4 l -0.2,0.2 0.6,0.4 0.8,0.5 c 0,0.3 0.1,0.5 0.3,0.7 0.3,0.6 -0.1,-0.1 0.3,0.6 0.3,0.6 0.7,1.2 1.1,1.8 l -0.3,-0.2 -0.6,-0.2 c -0.4,-0.1 -0.7,-0.3 -1,-0.5 l -1.3,-0.8 c -0.3,-0.2 -0.6,-0.3 -0.9,-0.5 l -0.4,0.3 v -0.9 l -0.2,-0.1 c -0.4,-0.2 -0.8,-0.4 -1.3,-0.5 l -0.7,-0.3 -0.1,1 0.7,0.3 c 0.5,0.1 0.8,0.3 1.2,0.5 l 0.2,0.1 -0.4,0.3 c 0.3,0.1 0.6,0.3 0.9,0.5 l 1.3,0.8 c 0.3,0.2 0.6,0.4 0.9,0.5 0.2,0.1 0.3,0.2 0.5,0.3 l 0.2,0.3 0.8,-0.5 0.1,0.1 c 0.2,0.5 0.5,0.9 0.8,1.3 l 0.2,0.3 0.8,-0.5 -0.2,-0.2 c -0.3,-0.4 -0.6,-0.8 -0.9,-1.3 l -1,-1.7 0.6,0.3 c 0.4,0.2 0.7,0.5 1,0.8 0.3,0.4 0.5,0.8 0.7,1.2 l 0.3,0.9 0.8,-0.4 -0.3,-0.9 c 0,-0.2 -0.1,-0.3 -0.2,-0.5 v -0.1 l 0.4,-0.2 c -0.2,-0.2 -0.5,-0.4 -0.7,-0.7 -0.1,-0.1 -0.2,-0.2 -0.3,-0.2 l -0.7,-0.6 c -0.3,-0.2 -0.5,-0.5 -0.8,-0.7 v -0.1 l -0.2,-0.1 -0.4,-0.3 -1.1,-0.6 c -0.3,-0.2 -0.5,-0.3 -0.8,-0.5 l -1.1,-0.8 c -0.3,-0.2 -0.6,-0.5 -0.9,-0.6 l -0.8,-0.3 z m 11.3,2.6 v 0.3 c -0.1,0.1 -0.2,0.1 -0.4,0.2 l -0.2,0.1 v -0.1 l 0.2,-0.3 0.2,-0.3 z m 3.8,1.2 -0.9,0.4 c -0.3,0.2 -0.6,0.4 -0.8,0.6 -0.3,0.2 -0.5,0.4 -0.7,0.6 l -0.8,0.4 c -0.4,0.3 -0.7,0.6 -1,0.9 -0.2,0.2 -0.3,0.5 -0.4,0.7 l 0.6,-0.2 v 0.1 c -0.2,0.3 -0.3,0.7 -0.4,1.1 l -0.6,0.4 c -0.5,0.4 -1,0.8 -1.5,1.3 l 0.9,-0.3 c 0.4,-0.4 0.8,-0.7 1.3,-1.1 v 0.5 c -0.2,0.3 -0.4,0.7 -0.5,1.1 l 0.8,-0.4 c 0.1,-0.4 0.3,-0.8 0.5,-1.1 v 0.1 c 0,0.3 -0.1,0.6 -0.1,0.8 v 0.1 l 0.8,-0.4 c 0,-0.3 0.1,-0.6 0.1,-0.8 0.1,-0.3 0.1,-0.6 0.2,-0.9 l 0.2,-0.2 c 0.4,-0.1 0.7,-0.2 1.1,-0.2 l 0.8,-0.6 c -0.5,0.1 -1,0.2 -1.4,0.3 0.3,-0.2 0.6,-0.5 0.9,-0.7 0.6,-0.3 0.6,-0.3 0.9,-0.5 l -0.9,0.4 c -0.1,0 -0.1,0.1 -0.1,0.1 l 0.7,-0.4 -0.1,0.1 c -0.1,0 -0.1,0.1 -0.2,0.1 l -1.1,0.6 c -0.1,0.1 -0.1,0.1 -0.2,0.1 -0.2,0.1 -0.3,0.3 -0.5,0.4 l -0.2,0.2 0.1,-0.4 1.3,-0.9 c 0.4,-0.2 0.8,-0.4 1.3,-0.6 0.3,-0.1 0.5,-0.1 0.8,-0.2 v -1 l -0.8,0.3 c -0.4,0.1 -0.7,0.3 -1.1,0.5 l -0.5,0.2 0.5,-0.4 0.9,-0.7 z m -11,0.5 z m 8.3,1.5 -0.2,0.2 c -0.2,0.1 -0.4,0.3 -0.6,0.5 0,-0.1 0,-0.1 0.1,-0.1 0.2,-0.3 0.4,-0.5 0.6,-0.6 z m -0.6,1.7 c 0,0.1 -0.1,0.2 -0.1,0.2 l -0.3,0.2 v -0.1 l 0.3,-0.3 z m -0.1,0.4 c 0,0.1 0,0.1 -0.1,0.1 -0.3,0.2 -0.5,0.4 -0.6,0.7 l -0.2,0.2 c 0,-0.2 0.1,-0.4 0.2,-0.6 v -0.1 c 0.1,0 0.3,-0.1 0.4,-0.2 z m -8,1.4 -0.7,0.1 v 1.3 h 0.7 c 0.3,0 0.6,0.1 0.8,0.1 v -0.2 l 1.1,0.6 c 0.4,0.3 0.7,0.7 0.9,1.1 l 0.8,-0.5 c -0.3,-0.5 -0.6,-0.9 -1,-1.2 -0.4,-0.3 -0.9,-0.6 -1.3,-0.8 -0.3,-0.2 -0.5,-0.3 -0.8,-0.3 l -0.2,0.1 -0.5,-0.1 h -0.1 z m 12,0 -1.4,1 -0.8,0.5 0.1,-0.1 0.2,-0.2 c 0.2,-0.2 0.2,-0.2 -0.1,0 l 0.7,-0.6 c -0.6,0.2 -1.2,0.6 -1.7,1 -0.3,0.2 -0.6,0.6 -0.8,0.9 -0.2,0.1 -0.4,0.3 -0.5,0.5 v 0.3 l -0.2,0.5 v 0.1 l 0.3,-0.2 v 0.1 l 0.1,-0.1 0.6,-0.2 v -0.1 l 0.1,-0.4 c 0.2,-0.1 0.3,-0.2 0.6,-0.4 0.5,-0.3 1,-0.6 1.5,-1 0.5,-0.3 0.9,-0.6 1.4,-0.9 z m -1.1,2.8 -0.9,0.6 -0.3,0.3 -0.6,0.7 c -0.5,0.6 -0.9,1.2 -1.2,1.8 -0.1,0.2 -0.3,0.4 -0.4,0.6 l 0.8,-0.4 0.1,-0.1 v 0.3 l -0.5,0.3 v 0.1 c 0,0 0.2,-0.1 0.3,-0.1 v -0.1 l 0.1,-0.1 0.9,-0.6 0.1,-0.1 c 0.1,-0.1 0.3,-0.2 0.4,-0.2 0.4,-0.2 0.9,-0.3 1.3,-0.3 v -0.3 l 0.5,-0.4 -0.2,0.1 0.7,-0.6 -0.9,0.5 v -0.3 c -0.5,0.1 -1,0.2 -1.5,0.4 -0.4,0.1 -0.7,0.2 -1,0.4 0.3,-0.5 0.6,-1 1,-1.5 l 0.6,-0.7 c 0.3,-0.2 0.9,-0.6 -0.5,0.2 z m -10.6,1.4 c -0.2,0 -0.4,0 -0.5,0.1 l -0.8,0.6 h 1.3 c 0.3,0.1 0.6,0.1 0.9,0.2 l 1,0.4 0.5,0.2 h -0.5 c -0.3,0 -0.6,-0.1 -0.9,-0.1 l -0.8,0.6 0.9,0.2 0.6,0.1 -0.3,0.2 h 0.5 c 0.1,0 0.3,0.1 0.4,0.1 l 0.2,-0.1 c 0.4,0.1 0.8,0.2 1.2,0.5 l 0.2,0.2 h 0.1 l -0.1,0.5 v 1.6 l 0.1,-0.9 v -0.5 c 0.1,-0.2 0.1,-0.4 0.2,-0.5 v -0.4 l 0.4,-0.3 -0.2,-0.1 -0.3,-0.1 v -0.1 0.1 c -0.4,-0.2 -0.7,-0.3 -1,-0.4 l -0.6,-0.1 0.6,-0.3 c -0.1,-0.1 -0.2,-0.1 -0.2,-0.2 l -0.7,-0.3 -1.1,-0.4 c -0.3,-0.1 -0.6,-0.2 -0.9,-0.2 h -0.8 z"
         id="path4490-5-3" />
      <path
         style="fill:#525767"
         inkscape:connector-curvature="0"
         d="m 484.52,430.5 -0.12,0.97 c 0.3,0.55 0.57,1.1 0.84,1.66 0.1,0.18 0.17,0.37 0.26,0.56 l 0.15,0.4 c 0.5,1.4 1.03,2.9 1.5,4.3 v 1.1 l -0.3,-0.9 c -0.1,-0.2 -0.18,-0.4 -0.26,-0.6 l -0.5,-1 -0.5,-0.8 -0.1,-0.2 -0.1,0.3 -0.5,-0.9 c -0.4,-0.7 -0.8,-1.4 -1.2,-2 l -0.5,-0.6 c -0.2,-0.3 -0.5,-0.5 -0.7,-0.7 l -0.1,0.9 c 0.4,0.3 0.8,0.8 1.1,1.2 0.4,0.6 0.8,1.3 1.1,1.9 v 0.1 l -0.1,-0.1 -0.1,0.9 c 0.5,0.6 0.9,1.3 1.4,2 l 0.9,1.4 0.6,1.9 v 0.9 l -0.1,-0.1 c 0,-0.1 0,-0.1 -0.1,-0.1 v -0.5 c -0.1,-0.3 -0.1,-0.7 -0.2,-1 l -0.2,1 c -0.7,-1.2 -1.5,-2.3 -2.2,-3.4 -0.5,-0.7 -1,-1.4 -1.4,-2.1 l -0.1,0.9 1.3,1.9 c 0.6,0.8 1.1,1.7 1.7,2.5 l 0.7,1.2 v 0.7 l -0.7,-1.1 -0.9,-1.8 c -0.2,-0.4 -0.3,-0.6 -0.6,-1 l -0.3,-0.5 -1.1,-1.7 -0.1,0.9 c 0.4,0.5 0.8,1.1 1.2,1.6 l 0.3,0.4 0.6,1 0.9,1.6 -0.3,-0.2 c -0.2,-0.1 -0.4,-0.3 -0.6,-0.3 v 0.8 l -1.1,-1.7 -0.1,1 1.2,1.8 c 0.6,0.9 1.3,1.8 1.9,2.7 l 0.5,0.9 -0.1,0.6 0.1,0.2 -0.1,0.4 c -0.5,-0.8 -1,-1.5 -1.4,-2.3 -0.4,-0.7 -0.8,-1.4 -0.9,-2.2 l -0.2,0.9 c 0.1,0.7 0.6,1.4 0.9,2.1 l 1.5,2.5 0.3,0.4 c -0.3,-0.4 -0.6,-0.7 -1,-1 l -0.2,-0.3 c -0.3,-0.6 -0.7,-1.1 -1,-1.7 l -0.1,0.7 -0.1,-0.2 c -0.3,-0.6 -0.7,-1.1 -1,-1.7 l -0.1,0.9 1,1.5 v 0.1 l -0.3,-0.3 c -0.3,-0.2 -0.6,-0.4 -0.9,-0.7 l -0.1,1 0.9,0.6 c 0.2,0.2 0.5,0.3 0.7,0.5 0.3,0.3 0.6,0.6 0.9,1 0.6,0.7 1.1,1.5 1.6,2.3 v 0.3 l -0.3,-0.5 c -0.3,-0.4 -0.6,-0.7 -1,-1 l -0.5,-0.4 c -0.1,0 -0.1,0 -0.2,-0.1 v 1 l 0.1,0.1 c 0.2,0.1 0.3,0.1 0.4,0.3 0.3,0.2 0.5,0.4 0.7,0.7 v 0.6 l 0.3,0.2 v 0.2 l -0.1,-0.1 v 1 l 0.3,0.3 -0.8,-0.5 -1,-0.9 v 0.2 l -1.1,-0.6 c -0.6,-0.2 -1.1,-0.5 -1.7,-0.5 v 1 c 0.6,-0.1 1.1,0.1 1.7,0.3 0.5,0.2 1,0.5 1.5,0.8 l 0.6,0.4 1,0.72 v 0.4 c -0.3,-0.3 -0.6,-0.6 -0.8,-0.95 l -0.1,1 c 0.3,0.3 0.6,0.6 0.8,1 v 0.1 -0.18 l 0.3,0.3 c 0.5,0.7 0.9,1.4 1.4,2.1 l -0.3,-0.3 c -0.6,-0.4 -1.2,-0.7 -1.8,-1.1 -0.3,-0.2 -0.7,-0.4 -1.1,-0.4 v 1 c 0.4,0 0.7,0.2 1.1,0.3 l 1.1,0.7 v 0.3 l 0.9,1.2 0.2,0.35 -2.1,-0.7 c -0.4,-0.2 -0.8,-0.4 -1.1,-0.6 l -0.1,1 h 0.1 c 0.1,0.1 0,0 0.3,0.1 l 0.8,0.3 2.2,0.7 c -0.1,0.13 -0.1,0.3 -0.2,0.4 l 0.1,1 c 0.1,-0.2 0.2,-0.4 0.2,-0.66 0,-0.2 0.1,-0.4 0.1,-0.6 v -0.1 0.5 -0.5 l 0.1,0.1 -0.1,0.4 v 0.4 h 0.2 l 0.1,0.6 v -1.2 l 0.2,0.35 v 0.1 l 0.1,0.9 c 0,-0.2 0.1,-0.3 0.2,-0.5 v -0.2 l 0.1,0.3 -0.1,0.2 0.1,1 0.1,-0.1 0.1,0.5 0.1,-0.2 0.6,-1 0.3,-0.32 0.1,0.1 0.1,0.4 v 0.1 -0.4 l 0.4,0.2 c 0.04,0.1 0.1,0.2 0.1,0.3 l 0.1,0.3 v 0.3 -0.8 l 0.2,0.9 c 0,-0.5 0,-0.9 -0.1,-1.4 l 0.2,0.1 0.6,0.2 0.22,0.1 v -1 l -0.2,-0.1 c -0.3,-0.35 -0.66,-0.6 -1,-0.9 0.1,-0.05 0.14,-0.1 0.24,-0.1 v -0.2 c 0.1,0 0.1,-0.03 0.2,-0.04 0.3,0 0.6,0 0.8,0.1 v -0.9 h -0.9 c -0.4,0.1 -0.8,0.2 -1.2,0.4 v 0.3 l -0.55,-0.5 -0.3,-1 v -0.6 l 0.1,-0.1 c 0,0.1 0.1,0.2 0.1,0.3 l 0.05,-0.4 0.5,-0.5 c 0.4,-0.2 0.7,-0.4 1.1,-0.7 l -0.1,-1 c -0.3,0.3 -0.7,0.5 -1,0.7 l -0.7,0.5 -0.7,-1.1 c 0.1,-0.3 0.2,-0.6 0.32,-0.9 0.2,-0.4 0.4,-0.9 0.72,-1.2 l 0.6,-0.7 -0.1,-1 c -0.2,0.3 -0.4,0.52 -0.6,0.8 -0.2,0.2 -0.4,0.5 -0.56,0.7 l -0.24,0.53 c -0.1,0.4 -0.3,0.9 -0.4,1.4 l 0.03,-0.4 0.3,-1.5 c 0.1,-0.3 0.2,-0.5 0.4,-0.6 l -0.1,-1 -0.3,0.4 -0.2,0.2 c -0.2,0.5 -0.3,1 -0.4,1.5 l -0.1,0.8 c 0,0 -0.1,0 -0.1,-0.1 l -0.2,-0.8 -0.1,-0.3 0.1,-0.4 0.1,-0.8 0.2,-1.6 v 0.3 -1.4 c 0.06,-0.2 0.1,-0.3 0.2,-0.4 l 0.26,-0.5 c 0.2,-0.4 0.5,-0.6 0.8,-0.9 0.3,-0.2 0.6,-0.5 1,-0.6 l -0.08,-1 c -0.4,0.2 -0.7,0.4 -1,0.7 l -0.1,0.1 0.1,-0.2 0.1,-0.1 V 449 l -0.2,1 c 0,-1.3 0.1,-1 -0.16,-0.6 l -0.5,0.8 c -0.2,0.3 -0.4,0.7 -0.5,1 V 448 c 0.04,-0.03 0.1,-0.1 0.1,-0.2 l -0.1,-0.8 v -0.93 l -0.1,0.92 v 0.1 c -0.2,0.4 -0.3,0.8 -0.5,1.2 -0.3,0.9 -0.46,1.8 -0.5,2.7 l -0.26,-0.9 v -0.4 c 0,-0.6 0,-1.1 -0.1,-1.6 0,-0.3 0.1,-0.6 0.1,-0.9 0,-0.1 0.08,-0.3 0.1,-0.4 0.1,-0.5 0.3,-1 0.48,-1.6 l 0.3,-0.9 0.1,-0.3 v -1.1 l -0.1,0.9 v -0.8 0.3 l -0.3,0.9 c -0.1,0.5 -0.34,1 -0.5,1.6 0,0.1 0,0.2 -0.1,0.3 0,0.3 -0.1,0.7 -0.1,1 l -0.4,-1.7 0.2,-0.5 0.1,0.8 0.2,-0.8 c 0,-0.2 0.1,-0.7 0.2,-0.9 l 0.3,-1.4 c 0.3,-0.5 0.6,-0.9 0.9,-1.4 0.3,-0.4 0.6,-0.9 1,-1.4 l -0.1,-1 -0.5,0.9 -0.1,-0.7 -0.3,0.6 -0.04,-0.4 -0.2,0.6 v -0.8 l -0.18,1 v -0.9 l -0.1,0.2 -0.1,0.3 -0.4,1.1 c -0.3,0.8 -0.6,1.6 -0.8,2.5 0,0.2 -0.1,0.5 -0.1,0.7 v -2 c 0.1,-0.1 0.1,-0.2 0.1,-0.3 0.03,-0.1 0.1,-0.4 0.1,-0.5 v -1 l -0.1,0.9 v -0.8 l -0.07,0.2 c 0,0 0,0.1 -0.1,0.1 v -0.6 l -0.2,1 v 0.2 c -0.1,0.2 -0.1,0.4 -0.2,0.6 -0.1,0.3 -0.2,0.6 -0.2,0.9 l -0.2,-1 c -0.1,-0.2 -0.1,-0.4 -0.1,-0.6 v -0.1 c 0.4,-1.2 0.9,-2.4 1.5,-3.5 l 0.34,-0.7 0.3,-0.5 v -0.6 l 0.3,-0.5 -0.1,-1 -0.6,1.4 c -0.3,0.6 -0.6,1.1 -0.9,1.7 l -0.5,0.9 c -0.3,0.6 -0.5,1.3 -0.8,1.9 l -0.1,-0.4 v -0.6 l 0.1,-0.6 -0.1,-0.3 c 0,-1.1 -0.1,-2.1 -0.1,-3.2 v -4.2 l -0.1,1 v 4.1 c 0,0.6 0.1,1.2 0.1,1.8 l -0.6,-1.6 c 0,-0.3 0,-0.7 0.1,-1.1 0.1,-0.4 0.1,-0.7 0.2,-1.1 l 0.2,-0.5 c 0,-0.1 0.1,-0.1 0.1,-0.2 l -0.2,-0.9 c -0.04,0.4 -0.2,0.8 -0.23,1.1 -0.1,0.4 -0.1,0.4 -0.1,0.8 -0.1,0.6 -0.1,1.1 -0.1,1.6 -0.1,-0.4 -0.3,-0.7 -0.43,-1.1 l -1,-2.6 c -0.2,-0.6 -0.4,-1.3 -0.5,-2 l -0.1,0.7 -0.43,-1 z m 3,7.97 c 0.12,0.33 0.25,0.66 0.36,1 0.1,0.27 0.1,0.32 0.12,0.4 V 440 c -0.16,-0.52 -0.3,-1.04 -0.48,-1.55 z m -0.22,0.4 c 0.25,0.8 0.5,1.6 0.72,2.4 v 0.1 l -0.25,-0.48 -0.1,-0.3 c -0.07,-0.3 -0.17,-0.5 -0.26,-0.7 0,-0.3 -0.1,-0.6 -0.1,-0.9 v -0.2 z m 2.24,0.33 c -0.26,0.66 -0.52,1.34 -0.76,2.02 0,0.04 -0.03,0.1 -0.04,0.13 0,-0.1 -0.03,-0.2 -0.04,-0.3 l 0.46,-1.13 z m -0.87,1.93 -0.1,0.72 c -0.03,-0.05 -0.06,-0.18 -0.08,-0.22 0,-0.17 0.1,-0.33 0.1,-0.5 z m 2.43,1.03 -0.05,0.16 -0.1,0.17 0.15,-0.4 z m -2.46,0.56 0.15,0.84 0.1,0.86 v 0.2 l -0.2,-0.48 c 0,-0.1 0,-0.2 -0.1,-0.32 l -0.2,-0.93 v -0.2 z m 2.14,0.2 -0.12,0.36 -0.3,0.93 -0.12,0.3 c 0.13,-0.4 0.28,-0.9 0.46,-1.3 l 0.08,-0.2 z m -1.25,0.55 v 2.26 l -0.26,-1.3 0.2,-0.75 0.06,-0.2 z m -1.52,0.03 0.1,0.13 v 0.3 -0.13 l 0.1,-0.3 z m 0.2,0.7 c 0.1,0.16 0.1,0.32 0.1,0.48 0,-0.1 -0.1,-0.18 -0.1,-0.27 l 0.1,-0.1 v -0.1 z m 0.4,0.36 0.1,0.3 v 0.18 -0.48 z m -0.8,0.1 0.1,0.1 v 0.26 l 0.1,-0.22 v 0.6 -0.74 z m 1.4,0.47 0.3,1.42 v 0.02 -0.38 c 0,-0.4 -0.1,-0.6 -0.2,-1 v -0.2 z m -1.1,0 0.6,0.96 c 0,0.1 0.1,0.3 0.1,0.4 -0.1,-0.1 -0.2,-0.2 -0.3,-0.4 l -0.2,-0.4 v -0.7 l 0.1,-0.2 z m -2,0.07 c 0.2,0.07 0.3,0.15 0.5,0.25 0.3,0.14 0.5,0.34 0.7,0.54 0.3,0.2 0.4,0.5 0.6,0.8 l 0.5,0.9 c 0.2,0.4 0.3,0.8 0.4,1.2 l 0.1,0.1 c -0.1,-0.4 -0.3,-0.7 -0.6,-1.1 l -1.8,-2.7 -0.1,-0.1 z m 3,1.7 0.2,0.34 v 0.02 l -0.1,-0.15 v -0.2 z m -0.5,0.4 0.3,0.32 0.1,0.53 V 448 l -0.2,-0.7 z m 1.2,0.38 c 0.2,0.75 0.4,1.5 0.5,2.26 v 0.16 l -0.1,-0.7 c -0.1,-0.45 -0.1,-0.72 -0.2,-1.16 v -0.53 z m -0.7,0.23 0.1,0.4 -0.1,0.3 v -0.6 z m 0.3,1 v 1.4 c 0,0.2 0.1,0.3 0,0.4 v -0.3 1.1 c -0.1,-0.1 -0.1,-0.3 -0.2,-0.5 v -0.6 c 0,0.1 0,0.1 0.1,0.2 l 0.1,-0.9 0.2,-0.4 z m 0.1,0.5 c 0,0.1 0.1,0.1 0.1,0.2 v 0.6 l 0.2,1 v -0.5 l 0.1,0.7 0.1,1.6 -0.3,-1 v -2.3 z m 2.3,0.2 v 0.8 l 0.1,2.2 v 1.3 l -0.3,0.9 c -0.3,0.6 -0.4,1.3 -0.5,2 l -0.1,-0.7 v -0.1 c 0,-0.5 0,-1 0.1,-1.4 0.1,0.3 0.2,0.7 0.2,1 v 0.4 l 0.2,-0.9 v -0.4 c 0,-0.4 -0.1,-0.8 -0.2,-1.2 0.1,-0.9 0.2,-1.7 0.5,-2.6 0.1,-0.3 0.3,-0.6 0.4,-0.9 z m -1.9,0.7 0.1,0.7 0.2,0.8 v 1.9 -0.2 c 0,-1 -0.1,-2 -0.2,-3 z m -1.1,0.8 0.2,0.4 v 0.2 c 0,-0.1 -0.1,-0.2 -0.1,-0.3 0,-0.1 0.1,-0.1 0.1,-0.2 z m 1.6,1.4 0.2,0.7 0.1,-0.5 0.2,0.9 v 1.7 c -0.2,-0.8 -0.3,-1.6 -0.4,-2.4 v -0.3 z m -0.8,2 c 0,0.1 0,0.1 0.1,0.2 v 0.1 l -0.1,-0.1 z m 0,1.6 0.4,0.7 0.2,0.5 v 0.2 c -0.2,-0.3 -0.4,-0.7 -0.6,-1 v -0.3 z m 2.3,0.1 -0.1,1.3 -0.1,0.9 -0.2,-0.4 v -0.4 c 0.1,-0.4 0.1,-0.9 0.2,-1.3 v 0.5 l 0.2,1 v -0.1 c 0,-0.3 0.1,-0.7 0.1,-1 l 0.1,-0.4 z m -1.6,1.3 0.2,0.4 -0.1,-0.3 v -0.1 z m 0.8,1 0.1,0.1 0.1,0.6 -0.1,-0.3 -0.1,-0.2 0.1,-0.2 z m 39.15278,1.79231 -40.25278,0.008 0.7,0.7 0.1,0.1 v 0.1 c 0,0.1 0.1,0.1 0.1,0.2 l 0.3,0.7 0.1,0.3 v 0.1 l 0.1,0.2 0.2,0.6 -0.7,-1.2 -0.5,-0.8 -0.2,-0.4 -0.2,-0.2 v -0.5 z M 492.31,463.31 l 0.3,0.5 0.1,0.3 v 0.2 l -0.4,-0.8 0.1,-0.1 z m -0.5,0.2 0.1,0.2 0.2,0.4 v 0.1 l -0.3,-0.4 z m 1.2,1.2 c 0.1,0.1 0.1,0.2 0.1,0.4 l -0.1,-0.3 0.1,-0.1 z m -0.6,0.2 0.3,1.3 0.1,0.2 -0.6,-0.2 v -0.9 c 0,0.1 0.1,0.1 0.1,0.2 v -0.3 l 0.1,0.4 0.1,-0.7 z m -0.9,0.2 c 0.1,0.1 0.2,0.2 0.3,0.4 l 0.1,0.1 0.1,0.2 c -0.1,-0.2 -0.3,-0.4 -0.4,-0.6 z m 0.5,0.5 0.1,0.1 0.1,0.2 v 0.2 l -0.1,-0.2 v -0.2 z m 1.3,0.8 0.1,0.1 v 0.1 -0.1 z m 0.4,0.3 0.1,0.3 h -0.1 v -0.2 z m -0.2,0.1 0.1,0.2 h -0.1 v -0.1 z m -0.1,1.2 v 0.1 z"
         id="path4653-3-1"
         sodipodi:nodetypes="ccccccccccccccccccccccccccccccccccccccccscccccccccccccscccccccccccccccsccccccccsccccccccccccccccccccccccccccccccccccsccccccccccccccccssccccccccccccccccccccccccccccccccccccccccccccccccccccccccccccccccccccccccccccccccccccccccscccccccccccccccccscsscccccccccccccccccccccccccccccccccccscccccccccccscccccccccccccccsccsccscccccccccccccccccccccccccscccccccccccccccccccccccccccccccccccccccccccccccccccccccccccccccccccsccccccsccccccccccccccccccccccccccccccccccccccccsccccccccccscccccccccccccccscsccscsccccccscccccsccccccccccccccccccccccccccccccscccccccccccccccccccsccccccccccccccccccccccccccccccccccccccccccccccccccccccccccccccccccccccc" />
    </g>
  </g>
  <g
     inkscape:groupmode="layer"
     id="layer12"
     inkscape:label="Layer 1" />
  <g
     inkscape:groupmode="layer"
     id="layer13"
     inkscape:label="Layer 2">
    <g
       transform="matrix(-1.3230272,0,0,0.60512313,1228.2585,-15.297203)"
       style="stroke-width:0.1;stroke-linecap:round"
       id="layer2-4">
      <path
         style="fill:#9497a2"
         inkscape:connector-curvature="0"
         d="m 495.4,468.64 -1.5,1.78 -0.37,-2.72 -2.7,1.5 -1.6,-3.65 -4.5,-1.97 -2.25,-3.18 5.53,2.25 -5.5,-4.4 2.2,-0.38 -3.9,-3 -3.2,-4.3 5.4,3 -4.9,-6.47 4.4,1.78 -3.8,-7.86 2.6,2.34 -4.31,-6.36 5.06,2 -2.2,-3.9 -3.5,-3.2 4.2,1.1 -3.86,-8.6 -0.63,-5.4 4.2,10.3 -0.32,-9.9 3,10.2 2.64,-10.5 0.8,6.2 0.2,5.5 7.1,-10.2 -3,6.95 6.3,-3.4 -5.5,5.1 -2.9,3 11.2,-4 -4.7,4.1 8.2,-1.9 -10.7,5 8.4,1.02 -6.5,3.72 5.6,-0.1 -5.3,3.1 3.7,1.4 -4.4,1.7 6.4,-1.4 2.1,-2.1 -4.8,5.2 4.3,-1.2 -7,5.9 5.4,-2 -4.2,4.2 -2.9,3.7 6,-2.1 -3.3,5 5.5,-0.8 -5,2.3 3.2,1.8 -3.8,0.3 2.5,3.6 z"
         id="path4488-3" />
      <path
         style="fill:#b4b3b7"
         inkscape:connector-curvature="0"
         d="m 485.05,423.03 z m 0,0 -0.16,0.97 v 1.05 c -0.1,0.42 0,0.83 0.1,1.24 0.1,0.4 0.1,0.3 0.1,0.8 0,0.4 0.1,0.9 0.1,1.3 -0.1,-0.4 -0.1,-0.7 -0.1,-1.1 l -0.9,0.4 c 0,0.3 0.1,0.7 0.1,1 l 0.3,1.4 c 0.1,0.3 0.1,0.7 0.2,1.1 l 0.4,-0.3 v 0.2 -0.3 l 0.3,-0.2 c 0,-0.4 -0.1,-0.8 -0.2,-1.1 0,-0.1 0,-0.2 -0.1,-0.3 0,-0.3 -0.1,-0.6 -0.1,-0.8 0,-0.9 -0.1,-1.8 -0.2,-2.6 0,-0.2 0,-0.3 -0.1,-0.4 -0.1,-0.6 -0.3,-1.1 -0.2,-1.7 v -1 z m -8.48,0.45 -0.12,0.98 c 0.1,0.33 0.27,0.65 0.4,0.97 0.2,0.44 0.35,0.88 0.5,1.33 0.16,0.46 0.2,0.94 0.3,1.4 0.12,0.46 0.2,0.92 0.3,1.37 0.04,0.24 0.13,0.47 0.24,0.7 l 0.1,-0.96 c -0.1,-0.18 -0.2,-0.38 -0.2,-0.58 0,0 0.1,0.1 0.1,0.2 l 0.6,1.3 0.5,1.2 v 0.1 c 0.1,0.3 -0.1,-0.1 0.1,0.3 l 0.2,0.4 0.1,0.2 -1.2,-0.6 c -0.6,-0.2 -1.1,-0.4 -1.7,-0.6 -0.3,-0.1 -0.6,-0.1 -0.8,-0.1 v 1 c 0.2,-0.1 0.5,0 0.8,0 l 1.2,0.3 v 0.4 c 0.2,-0.1 0.5,0 0.7,0.1 l 0.3,0.1 -0.2,0.1 1,1 c 0.4,0.3 0.9,0.7 1.4,1.1 0.2,0.1 0.1,0 0.2,0.2 l 0.4,-0.2 c 0.1,0.1 0.3,0.3 0.4,0.5 0.2,0.3 0.5,0.5 0.7,0.8 l 0.5,0.6 0.4,0.6 c 0.2,0.3 0.5,0.6 0.7,0.9 l 0.7,0.8 0.8,-0.5 -0.7,-0.9 c -0.2,-0.3 -0.5,-0.6 -0.7,-1 l -0.5,-0.7 -0.6,-0.6 -0.7,-0.8 -0.7,-0.7 c -0.2,-0.1 -0.4,-0.2 -0.6,-0.2 l -0.2,0.1 -0.6,-0.5 0.1,-0.4 c 0.6,0.2 1.3,0.5 1.9,0.7 0.3,0.1 0.6,0.3 0.8,0.4 l 0.3,0.2 c 0.2,0.3 0.3,0.5 0.5,0.8 l 0.8,-0.4 c -0.2,-0.4 -0.4,-0.7 -0.5,-1.1 -0.1,-0.4 -0.3,-0.7 -0.6,-0.9 l 0.4,-0.2 c -0.2,-0.4 -0.4,-0.7 -0.6,-1 -0.5,-0.7 -0.9,-1.3 -1.4,-1.9 l -0.4,-0.4 0.3,-0.9 0.7,-2.3 c 0.2,-0.4 0.4,-0.9 0.5,-1.4 l -0.1,-0.9 c -0.1,0.5 -0.3,1 -0.5,1.5 -0.2,0.8 -0.5,1.5 -0.7,2.3 -0.1,0.2 -0.1,0.4 -0.2,0.6 v -0.3 c -0.1,-0.3 -0.2,-0.6 -0.4,-0.8 l -0.5,-0.9 -0.6,-0.9 c -0.2,-0.3 -0.4,-0.6 -0.4,-0.9 l -0.1,-0.2 c 0.1,-0.2 0.1,-0.4 0.2,-0.6 l -0.1,-1 c -0.2,0.2 -0.2,0.5 -0.3,0.7 -0.1,0.5 -0.1,1 0,1.5 v 0.4 c 0.2,0.3 0.4,0.8 0.5,1.2 l 0.6,1.6 c 0.1,0.1 0.1,0.3 0.2,0.5 l -0.7,0.4 c 0.4,0.3 0.7,0.7 1.1,1 l 0.1,0.1 v 0.7 c -0.4,-0.3 -0.8,-0.6 -1.1,-1 l -0.9,0.5 c 0.4,0.4 0.9,0.7 1.4,1.1 0.6,0.4 1.2,0.8 1.8,1.3 -0.8,-0.3 -1.6,-0.6 -2.5,-1 l -0.8,-0.3 v -0.7 c -0.1,-0.2 -0.2,-0.4 -0.4,-0.7 l -0.3,-0.9 -0.6,-1.2 -0.7,-1.3 c -0.2,-0.3 -0.3,-0.6 -0.4,-0.9 l -0.1,0.4 v -0.2 c -0.1,-0.5 -0.1,-1 -0.3,-1.4 -0.1,-0.5 -0.3,-0.9 -0.5,-1.4 -0.1,-0.3 -0.3,-0.6 -0.4,-1 z m 13.57,1.1 -0.15,0.95 c 0,-0.2 0,-0.42 -0.1,-0.64 l -0.1,0.2 -0.2,0.9 c -0.2,0.7 -0.5,1.5 -0.7,2.2 -0.3,0.2 -0.5,0.5 -0.7,0.8 -0.1,0.1 -0.2,0.3 -0.3,0.5 -0.1,0.1 -0.2,0.1 -0.2,0.2 -0.5,0.4 -0.9,0.9 -1.2,1.5 -0.2,0.3 -0.3,0.7 -0.4,1.1 v 0.1 l 0.9,-0.4 v -0.1 c 0,-0.4 0.2,-0.8 0.4,-1.1 0.1,-0.3 0.3,-0.6 0.6,-0.9 v 0.5 -0.2 l 0.1,0.7 c 0,-0.1 0.1,-0.3 0.1,-0.4 l 0.6,-1.6 v -0.1 l 0.1,-0.2 c 0.4,-0.3 0.8,-0.6 1.3,-0.9 0.5,-0.3 1,-0.6 1.7,-0.6 h 0.8 v -1 h -0.8 c -0.7,0 -1.2,0.3 -1.8,0.6 l -1,0.6 0.3,-1 c 0.1,-0.4 0.2,-0.7 0.2,-1 v -1.5 z m -8.2,4.34 0.22,0.4 c 0.12,0.18 0.2,0.4 0.25,0.6 l -0.2,-0.4 -0.2,-0.6 z m 2.34,0.4 -0.87,0.45 0.2,0.84 0.2,0.5 0.9,-0.4 -0.1,-0.4 c 0,-0.3 -0.1,-0.5 -0.1,-0.8 z m 11.02,1.14 c -0.43,0.1 -0.85,0.23 -1.27,0.37 -0.53,0.2 -1.05,0.42 -1.55,0.68 l -0.42,0.2 -1.28,0.6 -0.6,0.3 -0.23,0.2 -0.1,0.1 c -0.23,0.2 -0.46,0.3 -0.7,0.5 l 0.53,-0.2 -0.1,0.2 -0.06,0.2 v 0.1 c -0.4,0.2 -0.8,0.4 -1.2,0.7 l 0.9,-0.3 c -1.5,0.9 -0.42,0.2 -0.05,0.1 l 0.2,-0.1 -0.2,0.2 c -0.17,0.2 -0.32,0.4 -0.44,0.6 l 0.9,-0.4 v 0.2 l 0.08,-0.2 0.2,-0.2 0.8,-0.4 0.9,-0.5 v 0.1 l 0.2,-0.1 -0.2,0.2 -0.2,0.2 c -0.2,0.2 -0.5,0.5 -0.8,0.7 0,0.1 0,0.1 -0.1,0.1 v -0.2 l -0.3,0.5 -0.1,0.6 c 0,0.3 -0.1,0.5 -0.2,0.8 l -0.1,0.3 0.1,1 0.2,-0.3 c 0.1,-0.2 0.2,-0.4 0.2,-0.7 0.1,-0.2 0.2,-0.3 0.2,-0.6 0.1,-0.1 0.2,-0.3 0.3,-0.4 v -0.6 l 0.2,-0.1 h 0.1 v 0.1 l 0.9,-0.4 c 0,0 0.1,-0.1 0.1,-0.2 1.1,-0.6 1.2,-0.7 2.2,-1.2 0.7,-0.4 1.4,-0.7 2.1,-1 0.5,-0.1 0.8,-0.3 1.2,-0.6 v -0.1 h -0.1 c 0.1,0 0,0 0,0 h -0.1 l 0.1,-0.1 -0.5,0.2 -0.9,0.3 v -0.6 h 0.1 -0.1 z m -0.53,1.22 c -0.14,0.06 -0.3,0.12 -0.42,0.2 l -0.33,0.18 0.3,-0.23 z m -12.28,0.03 0.9,1.3 -1,-0.6 v -0.3 l -0.1,-0.1 v -0.1 z m 10.8,0.7 -1.7,1 0.4,-0.4 0.4,-0.3 h 0.1 l 0.6,-0.2 z m 0.9,3.7 h -0.7 c -0.3,0.1 -0.7,0.1 -1,0.1 -0.5,0 -0.9,0.1 -1.3,0.2 -0.3,0.1 -0.5,0.1 -0.8,0.2 l -0.1,0.1 -0.8,0.6 c 0.2,-0.1 0.4,-0.2 0.7,-0.2 0.4,-0.1 0.8,-0.1 1.2,-0.2 h 1.6 z m -0.5,0.6 -0.6,0.2 c -0.3,0.1 -0.6,0.1 -0.8,0.2 -0.1,0 -0.1,0.1 -0.1,0.1 0,0 -0.1,0 -0.1,0.1 h -0.5 c -0.3,0 -0.5,0 -0.7,0.1 l -0.6,0.3 c -0.2,0.1 -0.4,0.2 -0.4,0.5 l 0.1,0.1 -0.5,0.3 0.5,-0.2 -0.3,0.2 0.4,-0.2 h 0.1 l -0.1,0.1 0.2,-0.1 -0.1,0.1 -0.3,0.3 -0.1,0.1 0.9,-0.4 v -0.1 h 0.1 l -0.8,0.4 c 0,0.1 -0.2,0.4 -0.2,0.5 l 0.1,0.1 0.1,0.1 c 0.1,0.1 0.3,0 0.4,0 l -0.1,0.1 c -0.4,0.3 -0.7,0.6 -1.1,1 l -0.7,1 v 0.1 c 0,0.2 0.3,0.1 0.5,-0.1 l -0.2,0.4 0.9,-0.4 c 0.1,-0.2 0.1,-0.4 0.3,-0.6 l 0.2,-0.3 v 0.7 c 0,0.1 0.1,0.1 0.1,0 v -0.1 l 0.1,-0.1 c 0.1,-0.2 0.3,-0.3 0.4,-0.5 v 0.1 l 0.2,-0.2 c 0.3,-0.3 0.8,-0.6 1.2,-0.9 0.5,-0.3 1,-0.6 1.6,-0.8 0.1,-0.1 0.4,-0.2 0.5,-0.2 h 0.2 v -0.2 h 1.2 l 0.8,-0.5 h -0.9 l 0.3,-0.2 -0.1,-0.1 h -0.2 v 0.1 l 0.1,-0.1 -1.2,0.1 h -0.6 v -0.2 c -0.3,0.1 -0.7,0.1 -1.1,0.1 z m -16.2,1 v 1 h 0.8 c 0.4,0 0.8,0.1 1.1,0.3 l -0.4,0.3 c 0.2,0 0.5,0 0.8,0.1 0.3,0.1 0.6,0.4 0.8,0.6 l 0.4,0.5 -0.2,0.2 0.4,0.5 -0.4,0.3 c 0.2,0 0.3,0 0.5,0.1 l 0.9,1.3 0.9,1.5 0.2,0.5 0.8,-0.4 -0.3,-0.5 c -0.3,-0.4 -0.5,-0.8 -0.8,-1.2 l 1.4,1 0.6,0.6 0.8,-0.5 -0.6,-0.5 c -0.5,-0.3 -1.1,-0.6 -1.6,-1 -0.5,-0.3 -1,-0.7 -1.5,-0.9 -0.1,0 -0.2,-0.1 -0.3,-0.1 v -0.1 l -0.3,-0.4 0.7,0.5 c 0.3,0.2 0.6,0.3 0.9,0.5 l 0.4,0.3 c 0.4,0.3 0.8,0.5 1.2,0.8 l 0.8,0.6 0.1,-0.9 -0.9,-0.6 -1.3,-0.8 c -0.4,-0.2 -0.9,-0.4 -1.3,-0.7 -0.4,-0.2 -0.7,-0.4 -1,-0.6 v 0.5 l -0.2,-0.2 c -0.3,-0.2 -0.6,-0.5 -0.9,-0.6 l -0.2,-0.1 v -0.2 c -0.2,-0.2 -0.5,-0.3 -0.7,-0.4 -0.2,-0.1 -0.4,-0.2 -0.5,-0.2 -0.3,-0.1 -0.6,-0.2 -0.9,-0.2 h -0.8 z m 15.9,0.1 -0.1,0.1 -0.3,0.1 h -0.3 c 0.2,0 0.4,-0.1 0.6,-0.1 z m -3.1,0.2 h -0.1 z m 1.2,0 z m -0.1,0.2 c 0,0.1 -0.1,0.1 -0.1,0.2 l -0.1,0.1 c 0,0.1 -0.1,0.1 -0.1,0.1 l 0.1,-0.3 z m 5.3,2.6 c -0.6,0.2 -1.2,0.4 -1.7,0.7 h -0.1 c 0.1,-0.1 0.3,-0.2 0.2,-0.4 l -0.1,-0.1 h -0.1 l -0.6,0.2 c -0.2,0 -0.4,0.1 -0.5,0.2 -0.4,0.3 -0.9,0.5 -1.3,0.8 -0.2,0.2 -0.4,0.5 -0.6,0.7 -0.1,0.2 -0.2,0.4 -0.4,0.6 l 0.7,-0.3 c -0.2,0.2 -0.3,0.4 -0.4,0.6 l -0.1,0.1 -0.8,0.6 0.2,-0.1 c 0.1,-0.1 0.2,-0.2 0.4,-0.2 l -0.1,0.2 h -0.1 l -0.2,0.3 c -0.1,0.1 -0.3,0.4 -0.4,0.5 l -0.3,0.5 c 0,0.1 -0.1,0.2 -0.1,0.3 -0.1,0.2 -0.3,0.7 -0.3,1 v 0.1 l 0.1,0.1 c 0.4,-0.3 0.8,-0.4 1.1,-0.7 0.1,-0.1 0.1,-0.2 0.2,-0.3 0.1,-0.1 0.1,-0.3 0.2,-0.4 l 0.2,-0.5 0.4,-0.6 c 0.2,-0.4 0.5,-0.7 0.7,-1.1 v -0.1 l 0.2,-0.1 0.8,-0.4 c 0.6,-0.3 1.2,-0.5 1.7,-0.9 v -0.1 h -0.1 c -0.2,0 -0.3,0.1 -0.5,0.1 h -0.3 c -0.4,0.1 -0.8,0.6 -1.1,0.6 h -0.1 l 0.4,-0.4 1.6,-0.6 z m -2.4,0.8 -0.1,0.1 -0.3,0.3 -0.7,0.4 -0.5,0.3 0.2,-0.3 0.3,-0.4 c 0,0 0.1,0 0.1,-0.1 l 0.2,-0.1 c 0.2,0 0.4,-0.2 0.7,-0.2 z m 0.5,0.7 -0.6,0.3 -0.6,0.3 0.2,-0.1 0.4,-0.3 0.2,-0.1 h 0.4 z m -15.9,0.3 -0.1,1 0.6,0.3 1,0.7 c 0.1,0.1 0.2,0.1 0.3,0.2 l -0.3,0.2 c 0.2,0.2 0.5,0.3 0.9,0.4 0.1,0.1 0.3,0.1 0.5,0.2 l 0.5,0.5 c 0.1,0.2 0.2,0.3 0.3,0.5 l 0.1,-0.9 c 0.2,0.1 0.5,0.2 0.7,0.4 l 0.2,0.2 v 0.1 c 0.2,0.4 0.3,0.7 0.4,1.1 -0.3,-0.1 -0.6,-0.2 -0.9,-0.4 l -0.8,0.6 c 0.3,0.1 0.7,0.3 1,0.4 0.4,0.2 0.9,0.5 1.3,0.7 0.2,0.4 0.3,0.7 0.6,1 l 0.6,0.5 0.8,-0.5 h -0.1 l 0.3,-0.2 c -0.1,0 -0.1,-0.1 -0.2,-0.1 -0.3,-0.3 -0.7,-0.7 -1.1,-0.9 -0.1,0 -0.1,0 -0.2,-0.1 l -0.2,-0.3 -0.2,-0.3 c -0.2,-0.3 -0.2,-0.4 -0.3,-0.7 l 0.1,0.1 0.6,0.5 0.8,-0.5 -0.7,-0.5 c -0.3,-0.2 -0.5,-0.3 -0.8,-0.4 l -0.6,-0.3 v -0.1 l -0.1,-0.1 -0.2,-0.3 -0.3,-0.6 -0.7,0.5 c -0.1,0 -0.2,-0.1 -0.3,-0.1 -0.2,-0.1 -0.5,-0.2 -0.7,-0.2 l -0.2,0.1 -0.5,-0.3 c -0.4,-0.3 -0.8,-0.5 -1.2,-0.8 l -1,-0.7 -0.6,-0.3 z m 17,1.5 c -0.3,0.1 -0.6,0.1 -0.9,0.2 l -0.3,0.1 h -0.4 c -0.2,0 -0.4,0 -0.6,0.1 -0.2,0.1 -0.3,0.2 -0.4,0.2 l -0.3,0.3 -0.1,0.2 c -0.7,0.4 -1.3,0.8 -2,1.3 l 0.9,-0.3 c 0.3,-0.2 0.6,-0.4 0.8,-0.5 h 0.1 l 0.2,-0.1 v 0.2 c 0,0.1 0,0.2 -0.1,0.3 v 0.1 l -1,0.7 c -0.4,0.3 -0.8,0.6 -1.1,1 -0.2,0.3 -0.4,0.6 -0.5,0.8 l 0.1,1 c 0.1,-0.3 0.2,-0.6 0.4,-0.8 0.3,-0.4 0.7,-0.7 1.1,-1 0.4,-0.3 0.8,-0.5 1.2,-0.7 v -0.2 l 0.2,-0.6 c 0,-0.1 0,-0.2 0.1,-0.2 0.1,0 0.2,-0.1 0.4,-0.2 0.2,-0.1 0.3,-0.1 0.5,-0.1 h 2.2 v -1 h -0.8 l 0.3,-0.2 h -0.2 z m 2.3,2.3 c -0.3,0.2 -0.7,0.2 -1,0.3 l 0.1,-0.1 c -0.4,0.1 -0.7,0.1 -1.1,0.1 -0.5,0 -0.9,0.1 -1.3,0.3 -0.5,0.3 -1,0.5 -1.3,0.9 l -0.2,0.2 -0.2,0.1 c -0.5,0.3 -0.8,0.8 -1.2,1.3 -0.3,0.4 -0.5,0.8 -0.8,1.2 l 0.8,-0.4 0.5,-0.8 v 0.1 l 0.9,-0.4 v -0.2 c 0.1,-0.3 0.2,-0.5 0.4,-0.8 h 0.3 -0.1 l 0.1,0.9 0.2,-0.3 c 0.1,-0.1 0.1,-0.2 0.2,-0.3 0.1,-0.2 0.4,-0.2 0.5,-0.3 0.5,-0.2 1,-0.3 1.5,-0.4 0.5,-0.1 0.9,-0.1 1.3,-0.2 z m -3.3,0.9 c -0.1,0 -0.1,0 -0.1,0.1 h -0.4 c 0,-0.1 0,-0.1 0.1,-0.1 0.1,-0.1 0.2,-0.1 0.3,-0.1 z m 2.7,1 h -0.1 l -0.3,0.1 -0.7,0.2 c -0.4,0.1 -0.8,0.2 -1.1,0.4 l -0.7,0.2 -0.7,0.4 -0.4,0.2 -0.4,0.2 -0.1,-0.9 c -0.3,0.1 -0.5,0.3 -0.7,0.5 -0.4,0.4 -0.6,0.8 -0.9,1.3 l -0.2,0.5 -0.1,0.1 c -0.1,0.1 -0.2,0.2 -0.3,0.4 l 0.1,-0.1 -0.1,0.1 v 0.4 c -0.1,0.1 0,0.1 -0.1,0.2 l 0.1,-0.1 v 0.3 l 0.2,-0.5 0.5,-0.2 0.1,-0.1 0.6,-0.6 c 0.1,-0.1 0.2,-0.3 0.4,-0.4 l 0.2,-0.1 0.2,-0.1 1.5,-0.6 1.8,-0.6 c 0.4,0 0.7,-0.1 1.1,-0.1 v -1 c -0.4,0 -0.8,0.2 -1.1,0.2 l -0.3,0.1 z m -16.6,0.3 -0.8,0.5 c 0.3,0 0.5,0.2 0.7,0.3 l 0.9,0.6 0.8,0.6 -0.6,0.4 h 0.4 l -0.2,0.2 0.6,0.4 0.8,0.5 c 0,0.3 0.1,0.5 0.3,0.7 0.3,0.6 -0.1,-0.1 0.3,0.6 0.3,0.6 0.7,1.2 1.1,1.8 l -0.3,-0.2 -0.6,-0.2 c -0.4,-0.1 -0.7,-0.3 -1,-0.5 l -1.3,-0.8 c -0.3,-0.2 -0.6,-0.3 -0.9,-0.5 l -0.4,0.3 v -0.9 l -0.2,-0.1 c -0.4,-0.2 -0.8,-0.4 -1.3,-0.5 l -0.7,-0.3 -0.1,1 0.7,0.3 c 0.5,0.1 0.8,0.3 1.2,0.5 l 0.2,0.1 -0.4,0.3 c 0.3,0.1 0.6,0.3 0.9,0.5 l 1.3,0.8 c 0.3,0.2 0.6,0.4 0.9,0.5 0.2,0.1 0.3,0.2 0.5,0.3 l 0.2,0.3 0.8,-0.5 0.1,0.1 c 0.2,0.5 0.5,0.9 0.8,1.3 l 0.2,0.3 0.8,-0.5 -0.2,-0.2 c -0.3,-0.4 -0.6,-0.8 -0.9,-1.3 l -1,-1.7 0.6,0.3 c 0.4,0.2 0.7,0.5 1,0.8 0.3,0.4 0.5,0.8 0.7,1.2 l 0.3,0.9 0.8,-0.4 -0.3,-0.9 c 0,-0.2 -0.1,-0.3 -0.2,-0.5 v -0.1 l 0.4,-0.2 c -0.2,-0.2 -0.5,-0.4 -0.7,-0.7 -0.1,-0.1 -0.2,-0.2 -0.3,-0.2 l -0.7,-0.6 c -0.3,-0.2 -0.5,-0.5 -0.8,-0.7 v -0.1 l -0.2,-0.1 -0.4,-0.3 -1.1,-0.6 c -0.3,-0.2 -0.5,-0.3 -0.8,-0.5 l -1.1,-0.8 c -0.3,-0.2 -0.6,-0.5 -0.9,-0.6 l -0.8,-0.3 z m 11.3,2.6 v 0.3 c -0.1,0.1 -0.2,0.1 -0.4,0.2 l -0.2,0.1 v -0.1 l 0.2,-0.3 0.2,-0.3 z m 3.8,1.2 -0.9,0.4 c -0.3,0.2 -0.6,0.4 -0.8,0.6 -0.3,0.2 -0.5,0.4 -0.7,0.6 l -0.8,0.4 c -0.4,0.3 -0.7,0.6 -1,0.9 -0.2,0.2 -0.3,0.5 -0.4,0.7 l 0.6,-0.2 v 0.1 c -0.2,0.3 -0.3,0.7 -0.4,1.1 l -0.6,0.4 c -0.5,0.4 -1,0.8 -1.5,1.3 l 0.9,-0.3 c 0.4,-0.4 0.8,-0.7 1.3,-1.1 v 0.5 c -0.2,0.3 -0.4,0.7 -0.5,1.1 l 0.8,-0.4 c 0.1,-0.4 0.3,-0.8 0.5,-1.1 v 0.1 c 0,0.3 -0.1,0.6 -0.1,0.8 v 0.1 l 0.8,-0.4 c 0,-0.3 0.1,-0.6 0.1,-0.8 0.1,-0.3 0.1,-0.6 0.2,-0.9 l 0.2,-0.2 c 0.4,-0.1 0.7,-0.2 1.1,-0.2 l 0.8,-0.6 c -0.5,0.1 -1,0.2 -1.4,0.3 0.3,-0.2 0.6,-0.5 0.9,-0.7 0.6,-0.3 0.6,-0.3 0.9,-0.5 l -0.9,0.4 c -0.1,0 -0.1,0.1 -0.1,0.1 l 0.7,-0.4 -0.1,0.1 c -0.1,0 -0.1,0.1 -0.2,0.1 l -1.1,0.6 c -0.1,0.1 -0.1,0.1 -0.2,0.1 -0.2,0.1 -0.3,0.3 -0.5,0.4 l -0.2,0.2 0.1,-0.4 1.3,-0.9 c 0.4,-0.2 0.8,-0.4 1.3,-0.6 0.3,-0.1 0.5,-0.1 0.8,-0.2 v -1 l -0.8,0.3 c -0.4,0.1 -0.7,0.3 -1.1,0.5 l -0.5,0.2 0.5,-0.4 0.9,-0.7 z m -11,0.5 z m 8.3,1.5 -0.2,0.2 c -0.2,0.1 -0.4,0.3 -0.6,0.5 0,-0.1 0,-0.1 0.1,-0.1 0.2,-0.3 0.4,-0.5 0.6,-0.6 z m -0.6,1.7 c 0,0.1 -0.1,0.2 -0.1,0.2 l -0.3,0.2 v -0.1 l 0.3,-0.3 z m -0.1,0.4 c 0,0.1 0,0.1 -0.1,0.1 -0.3,0.2 -0.5,0.4 -0.6,0.7 l -0.2,0.2 c 0,-0.2 0.1,-0.4 0.2,-0.6 v -0.1 c 0.1,0 0.3,-0.1 0.4,-0.2 z m -8,1.4 -0.7,0.1 v 1.3 h 0.7 c 0.3,0 0.6,0.1 0.8,0.1 v -0.2 l 1.1,0.6 c 0.4,0.3 0.7,0.7 0.9,1.1 l 0.8,-0.5 c -0.3,-0.5 -0.6,-0.9 -1,-1.2 -0.4,-0.3 -0.9,-0.6 -1.3,-0.8 -0.3,-0.2 -0.5,-0.3 -0.8,-0.3 l -0.2,0.1 -0.5,-0.1 h -0.1 z m 12,0 -1.4,1 -0.8,0.5 0.1,-0.1 0.2,-0.2 c 0.2,-0.2 0.2,-0.2 -0.1,0 l 0.7,-0.6 c -0.6,0.2 -1.2,0.6 -1.7,1 -0.3,0.2 -0.6,0.6 -0.8,0.9 -0.2,0.1 -0.4,0.3 -0.5,0.5 v 0.3 l -0.2,0.5 v 0.1 l 0.3,-0.2 v 0.1 l 0.1,-0.1 0.6,-0.2 v -0.1 l 0.1,-0.4 c 0.2,-0.1 0.3,-0.2 0.6,-0.4 0.5,-0.3 1,-0.6 1.5,-1 0.5,-0.3 0.9,-0.6 1.4,-0.9 z m -1.1,2.8 -0.9,0.6 -0.3,0.3 -0.6,0.7 c -0.5,0.6 -0.9,1.2 -1.2,1.8 -0.1,0.2 -0.3,0.4 -0.4,0.6 l 0.8,-0.4 0.1,-0.1 v 0.3 l -0.5,0.3 v 0.1 c 0,0 0.2,-0.1 0.3,-0.1 v -0.1 l 0.1,-0.1 0.9,-0.6 0.1,-0.1 c 0.1,-0.1 0.3,-0.2 0.4,-0.2 0.4,-0.2 0.9,-0.3 1.3,-0.3 v -0.3 l 0.5,-0.4 -0.2,0.1 0.7,-0.6 -0.9,0.5 v -0.3 c -0.5,0.1 -1,0.2 -1.5,0.4 -0.4,0.1 -0.7,0.2 -1,0.4 0.3,-0.5 0.6,-1 1,-1.5 l 0.6,-0.7 c 0.3,-0.2 0.9,-0.6 -0.5,0.2 z m -10.6,1.4 c -0.2,0 -0.4,0 -0.5,0.1 l -0.8,0.6 h 1.3 c 0.3,0.1 0.6,0.1 0.9,0.2 l 1,0.4 0.5,0.2 h -0.5 c -0.3,0 -0.6,-0.1 -0.9,-0.1 l -0.8,0.6 0.9,0.2 0.6,0.1 -0.3,0.2 h 0.5 c 0.1,0 0.3,0.1 0.4,0.1 l 0.2,-0.1 c 0.4,0.1 0.8,0.2 1.2,0.5 l 0.2,0.2 h 0.1 l -0.1,0.5 v 1.6 l 0.1,-0.9 v -0.5 c 0.1,-0.2 0.1,-0.4 0.2,-0.5 v -0.4 l 0.4,-0.3 -0.2,-0.1 -0.3,-0.1 v -0.1 0.1 c -0.4,-0.2 -0.7,-0.3 -1,-0.4 l -0.6,-0.1 0.6,-0.3 c -0.1,-0.1 -0.2,-0.1 -0.2,-0.2 l -0.7,-0.3 -1.1,-0.4 c -0.3,-0.1 -0.6,-0.2 -0.9,-0.2 h -0.8 z"
         id="path4490-5" />
      <path
         style="fill:#525767"
         inkscape:connector-curvature="0"
         d="m 484.52,430.5 -0.12,0.97 c 0.3,0.55 0.57,1.1 0.84,1.66 0.1,0.18 0.17,0.37 0.26,0.56 l 0.15,0.4 c 0.5,1.4 1.03,2.9 1.5,4.3 v 1.1 l -0.3,-0.9 c -0.1,-0.2 -0.18,-0.4 -0.26,-0.6 l -0.5,-1 -0.5,-0.8 -0.1,-0.2 -0.1,0.3 -0.5,-0.9 c -0.4,-0.7 -0.8,-1.4 -1.2,-2 l -0.5,-0.6 c -0.2,-0.3 -0.5,-0.5 -0.7,-0.7 l -0.1,0.9 c 0.4,0.3 0.8,0.8 1.1,1.2 0.4,0.6 0.8,1.3 1.1,1.9 v 0.1 l -0.1,-0.1 -0.1,0.9 c 0.5,0.6 0.9,1.3 1.4,2 l 0.9,1.4 0.6,1.9 v 0.9 l -0.1,-0.1 c 0,-0.1 0,-0.1 -0.1,-0.1 v -0.5 c -0.1,-0.3 -0.1,-0.7 -0.2,-1 l -0.2,1 c -0.7,-1.2 -1.5,-2.3 -2.2,-3.4 -0.5,-0.7 -1,-1.4 -1.4,-2.1 l -0.1,0.9 1.3,1.9 c 0.6,0.8 1.1,1.7 1.7,2.5 l 0.7,1.2 v 0.7 l -0.7,-1.1 -0.9,-1.8 c -0.2,-0.4 -0.3,-0.6 -0.6,-1 l -0.3,-0.5 -1.1,-1.7 -0.1,0.9 c 0.4,0.5 0.8,1.1 1.2,1.6 l 0.3,0.4 0.6,1 0.9,1.6 -0.3,-0.2 c -0.2,-0.1 -0.4,-0.3 -0.6,-0.3 v 0.8 l -1.1,-1.7 -0.1,1 1.2,1.8 c 0.6,0.9 1.3,1.8 1.9,2.7 l 0.5,0.9 -0.1,0.6 0.1,0.2 -0.1,0.4 c -0.5,-0.8 -1,-1.5 -1.4,-2.3 -0.4,-0.7 -0.8,-1.4 -0.9,-2.2 l -0.2,0.9 c 0.1,0.7 0.6,1.4 0.9,2.1 l 1.5,2.5 0.3,0.4 c -0.3,-0.4 -0.6,-0.7 -1,-1 l -0.2,-0.3 c -0.3,-0.6 -0.7,-1.1 -1,-1.7 l -0.1,0.7 -0.1,-0.2 c -0.3,-0.6 -0.7,-1.1 -1,-1.7 l -0.1,0.9 1,1.5 v 0.1 l -0.3,-0.3 c -0.3,-0.2 -0.6,-0.4 -0.9,-0.7 l -0.1,1 0.9,0.6 c 0.2,0.2 0.5,0.3 0.7,0.5 0.3,0.3 0.6,0.6 0.9,1 0.6,0.7 1.1,1.5 1.6,2.3 v 0.3 l -0.3,-0.5 c -0.3,-0.4 -0.6,-0.7 -1,-1 l -0.5,-0.4 c -0.1,0 -0.1,0 -0.2,-0.1 v 1 l 0.1,0.1 c 0.2,0.1 0.3,0.1 0.4,0.3 0.3,0.2 0.5,0.4 0.7,0.7 v 0.6 l 0.3,0.2 v 0.2 l -0.1,-0.1 v 1 l 0.3,0.3 -0.8,-0.5 -1,-0.9 v 0.2 l -1.1,-0.6 c -0.6,-0.2 -1.1,-0.5 -1.7,-0.5 v 1 c 0.6,-0.1 1.1,0.1 1.7,0.3 0.5,0.2 1,0.5 1.5,0.8 l 0.6,0.4 1,0.72 v 0.4 c -0.3,-0.3 -0.6,-0.6 -0.8,-0.95 l -0.1,1 c 0.3,0.3 0.6,0.6 0.8,1 v 0.1 -0.18 l 0.3,0.3 c 0.5,0.7 0.9,1.4 1.4,2.1 l -0.3,-0.3 c -0.6,-0.4 -1.2,-0.7 -1.8,-1.1 -0.3,-0.2 -0.7,-0.4 -1.1,-0.4 v 1 c 0.4,0 0.7,0.2 1.1,0.3 l 1.1,0.7 v 0.3 l 0.9,1.2 0.2,0.35 -2.1,-0.7 c -0.4,-0.2 -0.8,-0.4 -1.1,-0.6 l -0.1,1 h 0.1 c 0.1,0.1 0,0 0.3,0.1 l 0.8,0.3 2.2,0.7 c -0.1,0.13 -0.1,0.3 -0.2,0.4 l 0.1,1 c 0.1,-0.2 0.2,-0.4 0.2,-0.66 0,-0.2 0.1,-0.4 0.1,-0.6 v -0.1 0.5 -0.5 l 0.1,0.1 -0.1,0.4 v 0.4 h 0.2 l 0.1,0.6 v -1.2 l 0.2,0.35 v 0.1 l 0.1,0.9 c 0,-0.2 0.1,-0.3 0.2,-0.5 v -0.2 l 0.1,0.3 -0.1,0.2 0.1,1 0.1,-0.1 0.1,0.5 0.1,-0.2 0.6,-1 0.3,-0.32 0.1,0.1 0.1,0.4 v 0.1 -0.4 l 0.4,0.2 c 0.04,0.1 0.1,0.2 0.1,0.3 l 0.1,0.3 v 0.3 -0.8 l 0.2,0.9 c 0,-0.5 0,-0.9 -0.1,-1.4 l 0.2,0.1 0.6,0.2 0.22,0.1 v -1 l -0.2,-0.1 c -0.3,-0.35 -0.66,-0.6 -1,-0.9 0.1,-0.05 0.14,-0.1 0.24,-0.1 v -0.2 c 0.1,0 0.1,-0.03 0.2,-0.04 0.3,0 0.6,0 0.8,0.1 v -0.9 h -0.9 c -0.4,0.1 -0.8,0.2 -1.2,0.4 v 0.3 l -0.55,-0.5 -0.3,-1 v -0.6 l 0.1,-0.1 c 0,0.1 0.1,0.2 0.1,0.3 l 0.05,-0.4 0.5,-0.5 c 0.4,-0.2 0.7,-0.4 1.1,-0.7 l -0.1,-1 c -0.3,0.3 -0.7,0.5 -1,0.7 l -0.7,0.5 -0.7,-1.1 c 0.1,-0.3 0.2,-0.6 0.32,-0.9 0.2,-0.4 0.4,-0.9 0.72,-1.2 l 0.6,-0.7 -0.1,-1 c -0.2,0.3 -0.4,0.52 -0.6,0.8 -0.2,0.2 -0.4,0.5 -0.56,0.7 l -0.24,0.53 c -0.1,0.4 -0.3,0.9 -0.4,1.4 l 0.03,-0.4 0.3,-1.5 c 0.1,-0.3 0.2,-0.5 0.4,-0.6 l -0.1,-1 -0.3,0.4 -0.2,0.2 c -0.2,0.5 -0.3,1 -0.4,1.5 l -0.1,0.8 c 0,0 -0.1,0 -0.1,-0.1 l -0.2,-0.8 -0.1,-0.3 0.1,-0.4 0.1,-0.8 0.2,-1.6 v 0.3 -1.4 c 0.06,-0.2 0.1,-0.3 0.2,-0.4 l 0.26,-0.5 c 0.2,-0.4 0.5,-0.6 0.8,-0.9 0.3,-0.2 0.6,-0.5 1,-0.6 l -0.08,-1 c -0.4,0.2 -0.7,0.4 -1,0.7 l -0.1,0.1 0.1,-0.2 0.1,-0.1 V 449 l -0.2,1 c 0,-1.3 0.1,-1 -0.16,-0.6 l -0.5,0.8 c -0.2,0.3 -0.4,0.7 -0.5,1 V 448 c 0.04,-0.03 0.1,-0.1 0.1,-0.2 l -0.1,-0.8 v -0.93 l -0.1,0.92 v 0.1 c -0.2,0.4 -0.3,0.8 -0.5,1.2 -0.3,0.9 -0.46,1.8 -0.5,2.7 l -0.26,-0.9 v -0.4 c 0,-0.6 0,-1.1 -0.1,-1.6 0,-0.3 0.1,-0.6 0.1,-0.9 0,-0.1 0.08,-0.3 0.1,-0.4 0.1,-0.5 0.3,-1 0.48,-1.6 l 0.3,-0.9 0.1,-0.3 v -1.1 l -0.1,0.9 v -0.8 0.3 l -0.3,0.9 c -0.1,0.5 -0.34,1 -0.5,1.6 0,0.1 0,0.2 -0.1,0.3 0,0.3 -0.1,0.7 -0.1,1 l -0.4,-1.7 0.2,-0.5 0.1,0.8 0.2,-0.8 c 0,-0.2 0.1,-0.7 0.2,-0.9 l 0.3,-1.4 c 0.3,-0.5 0.6,-0.9 0.9,-1.4 0.3,-0.4 0.6,-0.9 1,-1.4 l -0.1,-1 -0.5,0.9 -0.1,-0.7 -0.3,0.6 -0.04,-0.4 -0.2,0.6 v -0.8 l -0.18,1 v -0.9 l -0.1,0.2 -0.1,0.3 -0.4,1.1 c -0.3,0.8 -0.6,1.6 -0.8,2.5 0,0.2 -0.1,0.5 -0.1,0.7 v -2 c 0.1,-0.1 0.1,-0.2 0.1,-0.3 0.03,-0.1 0.1,-0.4 0.1,-0.5 v -1 l -0.1,0.9 v -0.8 l -0.07,0.2 c 0,0 0,0.1 -0.1,0.1 v -0.6 l -0.2,1 v 0.2 c -0.1,0.2 -0.1,0.4 -0.2,0.6 -0.1,0.3 -0.2,0.6 -0.2,0.9 l -0.2,-1 c -0.1,-0.2 -0.1,-0.4 -0.1,-0.6 v -0.1 c 0.4,-1.2 0.9,-2.4 1.5,-3.5 l 0.34,-0.7 0.3,-0.5 v -0.6 l 0.3,-0.5 -0.1,-1 -0.6,1.4 c -0.3,0.6 -0.6,1.1 -0.9,1.7 l -0.5,0.9 c -0.3,0.6 -0.5,1.3 -0.8,1.9 l -0.1,-0.4 v -0.6 l 0.1,-0.6 -0.1,-0.3 c 0,-1.1 -0.1,-2.1 -0.1,-3.2 v -4.2 l -0.1,1 v 4.1 c 0,0.6 0.1,1.2 0.1,1.8 l -0.6,-1.6 c 0,-0.3 0,-0.7 0.1,-1.1 0.1,-0.4 0.1,-0.7 0.2,-1.1 l 0.2,-0.5 c 0,-0.1 0.1,-0.1 0.1,-0.2 l -0.2,-0.9 c -0.04,0.4 -0.2,0.8 -0.23,1.1 -0.1,0.4 -0.1,0.4 -0.1,0.8 -0.1,0.6 -0.1,1.1 -0.1,1.6 -0.1,-0.4 -0.3,-0.7 -0.43,-1.1 l -1,-2.6 c -0.2,-0.6 -0.4,-1.3 -0.5,-2 l -0.1,0.7 -0.43,-1 z m 3,7.97 c 0.12,0.33 0.25,0.66 0.36,1 0.1,0.27 0.1,0.32 0.12,0.4 V 440 c -0.16,-0.52 -0.3,-1.04 -0.48,-1.55 z m -0.22,0.4 c 0.25,0.8 0.5,1.6 0.72,2.4 v 0.1 l -0.25,-0.48 -0.1,-0.3 c -0.07,-0.3 -0.17,-0.5 -0.26,-0.7 0,-0.3 -0.1,-0.6 -0.1,-0.9 v -0.2 z m 2.24,0.33 c -0.26,0.66 -0.52,1.34 -0.76,2.02 0,0.04 -0.03,0.1 -0.04,0.13 0,-0.1 -0.03,-0.2 -0.04,-0.3 l 0.46,-1.13 z m -0.87,1.93 -0.1,0.72 c -0.03,-0.05 -0.06,-0.18 -0.08,-0.22 0,-0.17 0.1,-0.33 0.1,-0.5 z m 2.43,1.03 -0.05,0.16 -0.1,0.17 0.15,-0.4 z m -2.46,0.56 0.15,0.84 0.1,0.86 v 0.2 l -0.2,-0.48 c 0,-0.1 0,-0.2 -0.1,-0.32 l -0.2,-0.93 v -0.2 z m 2.14,0.2 -0.12,0.36 -0.3,0.93 -0.12,0.3 c 0.13,-0.4 0.28,-0.9 0.46,-1.3 l 0.08,-0.2 z m -1.25,0.55 v 2.26 l -0.26,-1.3 0.2,-0.75 0.06,-0.2 z m -1.52,0.03 0.1,0.13 v 0.3 -0.13 l 0.1,-0.3 z m 0.2,0.7 c 0.1,0.16 0.1,0.32 0.1,0.48 0,-0.1 -0.1,-0.18 -0.1,-0.27 l 0.1,-0.1 v -0.1 z m 0.4,0.36 0.1,0.3 v 0.18 -0.48 z m -0.8,0.1 0.1,0.1 v 0.26 l 0.1,-0.22 v 0.6 -0.74 z m 1.4,0.47 0.3,1.42 v 0.02 -0.38 c 0,-0.4 -0.1,-0.6 -0.2,-1 v -0.2 z m -1.1,0 0.6,0.96 c 0,0.1 0.1,0.3 0.1,0.4 -0.1,-0.1 -0.2,-0.2 -0.3,-0.4 l -0.2,-0.4 v -0.7 l 0.1,-0.2 z m -2,0.07 c 0.2,0.07 0.3,0.15 0.5,0.25 0.3,0.14 0.5,0.34 0.7,0.54 0.3,0.2 0.4,0.5 0.6,0.8 l 0.5,0.9 c 0.2,0.4 0.3,0.8 0.4,1.2 l 0.1,0.1 c -0.1,-0.4 -0.3,-0.7 -0.6,-1.1 l -1.8,-2.7 -0.1,-0.1 z m 3,1.7 0.2,0.34 v 0.02 l -0.1,-0.15 v -0.2 z m -0.5,0.4 0.3,0.32 0.1,0.53 V 448 l -0.2,-0.7 z m 1.2,0.38 c 0.2,0.75 0.4,1.5 0.5,2.26 v 0.16 l -0.1,-0.7 c -0.1,-0.45 -0.1,-0.72 -0.2,-1.16 v -0.53 z m -0.7,0.23 0.1,0.4 -0.1,0.3 v -0.6 z m 0.3,1 v 1.4 c 0,0.2 0.1,0.3 0,0.4 v -0.3 1.1 c -0.1,-0.1 -0.1,-0.3 -0.2,-0.5 v -0.6 c 0,0.1 0,0.1 0.1,0.2 l 0.1,-0.9 0.2,-0.4 z m 0.1,0.5 c 0,0.1 0.1,0.1 0.1,0.2 v 0.6 l 0.2,1 v -0.5 l 0.1,0.7 0.1,1.6 -0.3,-1 v -2.3 z m 2.3,0.2 v 0.8 l 0.1,2.2 v 1.3 l -0.3,0.9 c -0.3,0.6 -0.4,1.3 -0.5,2 l -0.1,-0.7 v -0.1 c 0,-0.5 0,-1 0.1,-1.4 0.1,0.3 0.2,0.7 0.2,1 v 0.4 l 0.2,-0.9 v -0.4 c 0,-0.4 -0.1,-0.8 -0.2,-1.2 0.1,-0.9 0.2,-1.7 0.5,-2.6 0.1,-0.3 0.3,-0.6 0.4,-0.9 z m -1.9,0.7 0.1,0.7 0.2,0.8 v 1.9 -0.2 c 0,-1 -0.1,-2 -0.2,-3 z m -1.1,0.8 0.2,0.4 v 0.2 c 0,-0.1 -0.1,-0.2 -0.1,-0.3 0,-0.1 0.1,-0.1 0.1,-0.2 z m 1.6,1.4 0.2,0.7 0.1,-0.5 0.2,0.9 v 1.7 c -0.2,-0.8 -0.3,-1.6 -0.4,-2.4 v -0.3 z m -1,1.7 z m 0.7,0.2 z m -0.5,0.1 c 0,0.1 0,0.1 0.1,0.2 v 0.1 l -0.1,-0.1 z m 0,1.6 0.4,0.7 0.2,0.5 v 0.2 c -0.2,-0.3 -0.4,-0.7 -0.6,-1 v -0.3 z m 2.3,0.1 -0.1,1.3 -0.1,0.9 -0.2,-0.4 v -0.4 c 0.1,-0.4 0.1,-0.9 0.2,-1.3 v 0.5 l 0.2,1 v -0.1 c 0,-0.3 0.1,-0.7 0.1,-1 l 0.1,-0.4 z m -1.6,1.3 0.2,0.4 -0.1,-0.3 v -0.1 z m 0.8,1 0.1,0.1 0.1,0.6 -0.1,-0.3 -0.1,-0.2 0.1,-0.2 z m -1.4,1.6 0.3,0.2 0.7,0.7 0.1,0.1 v 0.1 c 0,0.1 0.1,0.1 0.1,0.2 l 0.3,0.7 0.1,0.3 v 0.1 l 0.1,0.2 0.2,0.6 -0.7,-1.2 -0.5,-0.8 -0.2,-0.4 -0.2,-0.2 v -0.5 z m 2.6,3.2 0.3,0.5 0.1,0.3 v 0.2 l -0.4,-0.8 0.1,-0.1 z m -0.5,0.2 0.1,0.2 0.2,0.4 v 0.1 l -0.3,-0.4 z m 1.2,1.2 c 0.1,0.1 0.1,0.2 0.1,0.4 l -0.1,-0.3 0.1,-0.1 z m -0.6,0.2 0.3,1.3 0.1,0.2 -0.6,-0.2 v -0.9 c 0,0.1 0.1,0.1 0.1,0.2 v -0.3 l 0.1,0.4 0.1,-0.7 z m -0.9,0.2 c 0.1,0.1 0.2,0.2 0.3,0.4 l 0.1,0.1 0.1,0.2 c -0.1,-0.2 -0.3,-0.4 -0.4,-0.6 z m 0.5,0.5 0.1,0.1 0.1,0.2 v 0.2 l -0.1,-0.2 v -0.2 z m 1.3,0.8 0.1,0.1 v 0.1 -0.1 z m 0.4,0.3 0.1,0.3 h -0.1 v -0.2 z m -0.2,0.1 0.1,0.2 h -0.1 v -0.1 z m -0.1,1.2 v 0.1 z"
         id="path4653-3" />
    </g>
  </g>
</svg>
