<?xml version="1.0" encoding="utf-8"?>
<!-- Generator: Adobe Illustrator 19.0.0, SVG Export Plug-In . SVG Version: 6.00 Build 0)  -->
<svg version="1.1" id="Layer_1" xmlns="http://www.w3.org/2000/svg" xmlns:xlink="http://www.w3.org/1999/xlink" x="0px" y="0px"
	 viewBox="0 0 1000 1000" style="enable-background:new 0 0 1000 1000;" xml:space="preserve">
<style type="text/css">
	.st0{fill:#787878;}
</style>
<g id="Areola_piercing_1_">
	<circle id="XMLID_52_" class="st0" cx="534.5" cy="375.3" r="2.8"/>
	<circle id="XMLID_51_" class="st0" cx="535.1" cy="383.4" r="2.8"/>
	<circle id="XMLID_50_" class="st0" cx="521.5" cy="361.5" r="2.8"/>
	<circle id="XMLID_49_" class="st0" cx="513.5" cy="362.5" r="2.8"/>
	<circle id="XMLID_48_" class="st0" cx="524.4" cy="400.3" r="2.8"/>
	<circle id="XMLID_47_" class="st0" cx="516.3" cy="400.3" r="2.8"/>
	<circle id="XMLID_46_" class="st0" cx="504" cy="386.2" r="2.8"/>
	<circle id="XMLID_45_" class="st0" cx="504" cy="379" r="2.8"/>
	<ellipse id="XMLID_44_" class="st0" cx="352.7" cy="360.5" rx="1.5" ry="1.9"/>
	<ellipse id="XMLID_43_" class="st0" cx="355.6" cy="359.3" rx="1.5" ry="1.9"/>
	<ellipse id="XMLID_42_" class="st0" cx="350.2" cy="377" rx="1.5" ry="1.9"/>
	
		<ellipse id="XMLID_41_" transform="matrix(-0.9989 -4.745027e-002 4.745027e-002 -0.9989 679.8478 760.7689)" class="st0" cx="349" cy="372.3" rx="1.5" ry="1.9"/>
	<ellipse id="XMLID_40_" class="st0" cx="365.2" cy="368.4" rx="1.5" ry="1.9"/>
	<ellipse id="XMLID_39_" class="st0" cx="367.1" cy="373.4" rx="1.5" ry="1.9"/>
	
		<ellipse id="XMLID_38_" transform="matrix(-0.9413 0.3376 -0.3376 -0.9413 831.1002 629.0543)" class="st0" cx="360.9" cy="386.8" rx="1.5" ry="1.9"/>
	
		<ellipse id="XMLID_37_" transform="matrix(-0.9425 0.3341 -0.3341 -0.9425 835.9724 627.3287)" class="st0" cx="364" cy="385.6" rx="1.5" ry="1.9"/>
</g>
</svg>
