<?xml version="1.0" encoding="utf-8"?>
<!-- Generator: Adobe Illustrator 19.0.0, SVG Export Plug-In . SVG Version: 6.00 Build 0)  -->
<svg version="1.1" id="Layer_1" xmlns="http://www.w3.org/2000/svg" xmlns:xlink="http://www.w3.org/1999/xlink" x="0px" y="0px"
	 viewBox="0 0 1000 1000" style="enable-background:new 0 0 1000 1000;" xml:space="preserve">
<style type="text/css">
	.st0{fill:#787878;}
</style>
<g id="Boob_hvy_piercing_6_">
	<path id="XMLID_393_" class="st0" d="M511.9,433.8c0.2,0-2,2.5-1.8,6c0,2.9,2,7.1,5.7,8.2c4.9,1.5,10.2-2.9,11.4-6.9
		c1.3-3.7-0.9-7.1-0.5-7.4c0.5-0.2,3.7,4,3.3,8.4c-0.5,4.9-6,10.7-12.4,9.9c-4.9-0.5-9.7-4.7-9.9-9.7
		C507.5,437.3,511.7,433.6,511.9,433.8z"/>
	<path id="XMLID_392_" class="st0" d="M302.3,423.7c0,0-1.5,2.5-1.5,5.7c-0.2,2.9,0.9,7.1,3.3,8.4c3.3,1.8,6.9-2.5,8-6.4
		c0.9-3.7-0.2-7.1,0-7.4s2.2,4,1.8,8.4c-0.7,4.9-4.7,10.4-8.9,9.4c-3.3-0.7-6.2-4.9-6-10.2C299.4,427.1,302.3,423.7,302.3,423.7z"/>
	<path id="XMLID_391_" class="st0" d="M306.1,442.2c0.2-0.2,38.9,55.9,98.3,61c63.4,4.9,113.8-51.7,114.2-51.3
		c0.5,0.5-46.3,59.2-112.5,54.5C342.7,501.7,305.8,442.6,306.1,442.2z"/>
	<circle id="XMLID_390_" class="st0" cx="511.1" cy="433.6" r="3.5"/>
	<circle id="XMLID_389_" class="st0" cx="526.6" cy="433.6" r="3.5"/>
	<circle id="XMLID_388_" class="st0" cx="518.8" cy="424.2" r="3.5"/>
	<circle id="XMLID_387_" class="st0" cx="519.8" cy="441.3" r="3.5"/>
	
		<ellipse id="XMLID_386_" transform="matrix(-0.981 0.1941 -0.1941 -0.981 700.4802 778.1339)" class="st0" cx="312.1" cy="423.4" rx="2.2" ry="2.7"/>
	
		<ellipse id="XMLID_385_" transform="matrix(-0.971 -0.2392 0.2392 -0.971 494.4378 907.0223)" class="st0" cx="302.3" cy="423.5" rx="2.2" ry="2.7"/>
	
		<ellipse id="XMLID_384_" transform="matrix(-0.2055 -0.9787 0.9787 -0.2055 -41.1507 800.4734)" class="st0" cx="304.4" cy="416.9" rx="2.2" ry="2"/>
	
		<ellipse id="XMLID_383_" transform="matrix(8.246086e-002 0.9966 -0.9966 8.246086e-002 711.6222 88.2673)" class="st0" cx="307.9" cy="430.6" rx="2.2" ry="2"/>
</g>
</svg>
