<?xml version="1.0" encoding="utf-8"?>
<!-- Generator: Adobe Illustrator 19.0.0, SVG Export Plug-In . SVG Version: 6.00 Build 0)  -->
<svg version="1.1" id="Layer_1" xmlns="http://www.w3.org/2000/svg" xmlns:xlink="http://www.w3.org/1999/xlink" x="0px" y="0px"
	 viewBox="0 0 1000 1000" style="enable-background:new 0 0 1000 1000;" xml:space="preserve">
<style type="text/css">
	.st0{fill:#787878;}
</style>
<g id="Areola_piercing_3_">
	<circle id="XMLID_242_" class="st0" cx="536.5" cy="276.7" r="1.1"/>
	<circle id="XMLID_241_" class="st0" cx="536.7" cy="279.7" r="1.1"/>
	<circle id="XMLID_240_" class="st0" cx="531.5" cy="271.4" r="1.1"/>
	<circle id="XMLID_239_" class="st0" cx="528.5" cy="271.8" r="1.1"/>
	<circle id="XMLID_238_" class="st0" cx="532.6" cy="286.2" r="1.1"/>
	<circle id="XMLID_237_" class="st0" cx="529.5" cy="286.2" r="1.1"/>
	<circle id="XMLID_236_" class="st0" cx="524.8" cy="280.8" r="1.1"/>
	<circle id="XMLID_235_" class="st0" cx="524.8" cy="278.1" r="1.1"/>
	<ellipse id="XMLID_234_" class="st0" cx="467.2" cy="271" rx="0.5" ry="0.7"/>
	<ellipse id="XMLID_233_" class="st0" cx="468.3" cy="270.5" rx="0.5" ry="0.7"/>
	<ellipse id="XMLID_232_" class="st0" cx="466.3" cy="277.3" rx="0.5" ry="0.7"/>
	
		<ellipse id="XMLID_231_" transform="matrix(-0.9989 -4.745027e-002 4.745027e-002 -0.9989 918.0208 572.7028)" class="st0" cx="465.8" cy="275.5" rx="0.5" ry="0.7"/>
	<ellipse id="XMLID_230_" class="st0" cx="472" cy="274" rx="0.5" ry="0.7"/>
	<ellipse id="XMLID_229_" class="st0" cx="472.8" cy="276" rx="0.5" ry="0.7"/>
	
		<ellipse id="XMLID_228_" transform="matrix(-0.9413 0.3376 -0.3376 -0.9413 1007.9313 386.819)" class="st0" cx="470.3" cy="281.1" rx="0.5" ry="0.7"/>
	
		<ellipse id="XMLID_227_" transform="matrix(-0.9425 0.3341 -0.3341 -0.9425 1009.6696 387.3601)" class="st0" cx="471.5" cy="280.5" rx="0.5" ry="0.7"/>
</g>
</svg>
