<?xml version="1.0" encoding="utf-8"?>
<!-- Generator: Adobe Illustrator 19.0.0, SVG Export Plug-In . SVG Version: 6.00 Build 0)  -->
<svg version="1.1" id="Layer_1" xmlns="http://www.w3.org/2000/svg" xmlns:xlink="http://www.w3.org/1999/xlink" x="0px" y="0px"
	 viewBox="0 0 1000 1000" style="enable-background:new 0 0 1000 1000;" xml:space="preserve">
<style type="text/css">
	.st0{fill:#787878;}
</style>
<g id="Areola_piercing_6_">
	<circle id="XMLID_409_" class="st0" cx="540.6" cy="426.4" r="3.7"/>
	<circle id="XMLID_408_" class="st0" cx="541.4" cy="437.1" r="3.7"/>
	<circle id="XMLID_407_" class="st0" cx="523.5" cy="408.3" r="3.7"/>
	<circle id="XMLID_406_" class="st0" cx="512.9" cy="409.6" r="3.7"/>
	<circle id="XMLID_405_" class="st0" cx="527.3" cy="459.3" r="3.7"/>
	<circle id="XMLID_404_" class="st0" cx="516.6" cy="459.3" r="3.7"/>
	<circle id="XMLID_403_" class="st0" cx="500.5" cy="440.8" r="3.7"/>
	<circle id="XMLID_402_" class="st0" cx="500.5" cy="431.3" r="3.7"/>
	<ellipse id="XMLID_401_" class="st0" cx="301.1" cy="406.9" rx="2" ry="2.5"/>
	<ellipse id="XMLID_400_" class="st0" cx="305" cy="405.3" rx="2" ry="2.5"/>
	<ellipse id="XMLID_399_" class="st0" cx="297.9" cy="428.6" rx="2" ry="2.5"/>
	
		<ellipse id="XMLID_398_" transform="matrix(-0.9989 -4.745027e-002 4.745027e-002 -0.9989 572.0126 858.504)" class="st0" cx="296.2" cy="422.5" rx="2" ry="2.5"/>
	<ellipse id="XMLID_397_" class="st0" cx="317.7" cy="417.3" rx="2" ry="2.5"/>
	<ellipse id="XMLID_396_" class="st0" cx="320.1" cy="424" rx="2" ry="2.5"/>
	
		<ellipse id="XMLID_395_" transform="matrix(-0.9413 0.3376 -0.3376 -0.9413 754.4891 751.8561)" class="st0" cx="311.9" cy="441.5" rx="2" ry="2.5"/>
	
		<ellipse id="XMLID_394_" transform="matrix(-0.9425 0.3341 -0.3341 -0.9425 760.9403 748.9292)" class="st0" cx="316.1" cy="439.9" rx="2" ry="2.5"/>
</g>
</svg>
