<?xml version="1.0" encoding="utf-8"?>
<!-- Generator: Adobe Illustrator 19.0.0, SVG Export Plug-In . SVG Version: 6.00 Build 0)  -->
<svg version="1.1" id="Layer_1" xmlns="http://www.w3.org/2000/svg" xmlns:xlink="http://www.w3.org/1999/xlink" x="0px" y="0px"
	 viewBox="0 0 1000 1000" style="enable-background:new 0 0 1000 1000;" xml:space="preserve">
<style type="text/css">
	.st0{fill:#787878;}
</style>
<g id="Boob_hvy_piercing_7_">
	<path id="XMLID_435_" class="st0" d="M514.1,481.6c0.3,0-2.4,3-2.1,7.3c0,3.6,2.4,8.7,7,10c6,1.9,12.4-3.6,13.8-8.4
		c1.6-4.6-1.1-8.7-0.6-9c0.6-0.3,4.6,4.8,4,10.3c-0.6,6-7.3,13-15.1,12.1c-6-0.6-11.8-5.7-12.1-11.8
		C508.7,485.9,513.8,481.3,514.1,481.6z"/>
	<path id="XMLID_434_" class="st0" d="M258.9,469.3c0,0-1.9,3-1.9,7c-0.3,3.6,1.1,8.7,4,10.3c4,2.1,8.4-3,9.7-7.8
		c1.1-4.6-0.3-8.7,0-9s2.7,4.8,2.1,10.3c-0.9,6-5.7,12.7-10.8,11.4c-4-0.9-7.6-6-7.3-12.4C255.3,473.5,258.9,469.3,258.9,469.3z"/>
	<path id="XMLID_433_" class="st0" d="M263.4,491.9c0.3-0.3,47.3,68.1,119.7,74.3c77.3,6,138.5-63,139.1-62.4
		c0.6,0.6-56.4,72.1-137,66.4C308,564.3,263.1,492.3,263.4,491.9z"/>
	<circle id="XMLID_432_" class="st0" cx="513.1" cy="481.3" r="4.3"/>
	<circle id="XMLID_431_" class="st0" cx="532" cy="481.3" r="4.3"/>
	<circle id="XMLID_430_" class="st0" cx="522.5" cy="469.9" r="4.3"/>
	<circle id="XMLID_429_" class="st0" cx="523.7" cy="490.7" r="4.3"/>
	
		<ellipse id="XMLID_428_" transform="matrix(-0.981 0.1941 -0.1941 -0.981 627.4544 876.3939)" class="st0" cx="270.8" cy="468.9" rx="2.7" ry="3.3"/>
	
		<ellipse id="XMLID_427_" transform="matrix(-0.971 -0.2392 0.2392 -0.971 397.8483 986.4601)" class="st0" cx="258.8" cy="469.1" rx="2.7" ry="3.3"/>
	
		<ellipse id="XMLID_426_" transform="matrix(-0.2055 -0.9787 0.9787 -0.2055 -136.2163 811.5947)" class="st0" cx="261.3" cy="461.1" rx="2.7" ry="2.4"/>
	
		<ellipse id="XMLID_425_" transform="matrix(8.246086e-002 0.9966 -0.9966 8.246086e-002 719.8191 173.6128)" class="st0" cx="265.6" cy="477.7" rx="2.7" ry="2.4"/>
</g>
</svg>
