<?xml version="1.0" encoding="utf-8"?>
<!-- Generator: Adobe Illustrator 19.0.0, SVG Export Plug-In . SVG Version: 6.00 Build 0)  -->
<svg version="1.1" id="Layer_1" xmlns="http://www.w3.org/2000/svg" xmlns:xlink="http://www.w3.org/1999/xlink" x="0px" y="0px"
	 viewBox="0 0 1000 1000" style="enable-background:new 0 0 1000 1000;" xml:space="preserve">
<style type="text/css">
	.st0{fill:#787878;}
</style>
<g id="Boob_hvy_piercing_2_">
	<path id="XMLID_188_" class="st0" d="M512.7,279.1c0.1,0-0.5,0.7-0.5,1.7c0,0.9,0.5,2,1.7,2.4c1.4,0.4,2.9-0.9,3.3-2
		c0.4-1.1-0.3-2-0.2-2.1c0.2-0.1,1.1,1.2,0.9,2.4c-0.2,1.4-1.7,3.1-3.6,2.8c-1.4-0.2-2.8-1.3-2.8-2.8
		C511.3,280.1,512.6,279,512.7,279.1z"/>
	<path id="XMLID_187_" class="st0" d="M452.1,276.1c0,0-0.4,0.7-0.4,1.7c-0.1,0.9,0.3,2,0.9,2.4c0.9,0.5,2-0.7,2.3-1.9
		c0.3-1.1-0.1-2,0-2.1c0.1-0.1,0.6,1.2,0.5,2.4c-0.2,1.4-1.3,3-2.6,2.8c-0.9-0.2-1.8-1.4-1.7-2.9
		C451.2,277.1,452.1,276.1,452.1,276.1z"/>
	<path id="XMLID_186_" class="st0" d="M453.1,281.5c0.1-0.1,11.3,16.2,28.4,17.6c18.3,1.4,32.9-14.9,33.1-14.8
		c0.2,0.2-13.4,17.1-32.5,15.7C463.7,298.7,453,281.6,453.1,281.5z"/>
	<circle id="XMLID_185_" class="st0" cx="512.4" cy="279" r="1"/>
	<circle id="XMLID_184_" class="st0" cx="516.8" cy="279" r="1"/>
	<circle id="XMLID_183_" class="st0" cx="514.6" cy="276.2" r="1"/>
	<circle id="XMLID_182_" class="st0" cx="515" cy="281.2" r="1"/>
	
		<ellipse id="XMLID_181_" transform="matrix(-0.981 0.1941 -0.1941 -0.981 954.8359 458.3842)" class="st0" cx="455" cy="276" rx="0.6" ry="0.8"/>
	
		<ellipse id="XMLID_180_" transform="matrix(-0.971 -0.2392 0.2392 -0.971 825.0893 652.1412)" class="st0" cx="452.1" cy="276" rx="0.6" ry="0.8"/>
	
		<ellipse id="XMLID_179_" transform="matrix(-0.2055 -0.9787 0.9787 -0.2055 277.3305 773.6921)" class="st0" cx="452.7" cy="274.3" rx="0.6" ry="0.5"/>
	
		<ellipse id="XMLID_178_" transform="matrix(8.246086e-002 0.9966 -0.9966 8.246086e-002 693.3712 -196.8819)" class="st0" cx="453.6" cy="278.1" rx="0.6" ry="0.5"/>
</g>
</svg>
