<?xml version="1.0" encoding="utf-8"?>
<!-- Generator: Adobe Illustrator 19.0.0, SVG Export Plug-In . SVG Version: 6.00 Build 0)  -->
<svg version="1.1" id="Layer_1" xmlns="http://www.w3.org/2000/svg" xmlns:xlink="http://www.w3.org/1999/xlink" x="0px" y="0px"
	 viewBox="0 0 1000 1000" style="enable-background:new 0 0 1000 1000;" xml:space="preserve">
<style type="text/css">
	.st0{fill:#787878;}
</style>
<g id="Boob_hvy_piercing_3_">
	<path id="XMLID_226_" class="st0" d="M528.1,278.8c0.1,0-0.5,0.7-0.5,1.7c0,0.9,0.5,2,1.7,2.4c1.4,0.4,2.9-0.9,3.3-2
		c0.4-1.1-0.3-2-0.2-2.1c0.2-0.1,1.1,1.2,0.9,2.4c-0.2,1.4-1.7,3.1-3.6,2.8c-1.4-0.2-2.8-1.3-2.8-2.8
		C526.8,279.8,528.1,278.7,528.1,278.8z"/>
	<path id="XMLID_225_" class="st0" d="M467.6,275.9c0,0-0.4,0.7-0.4,1.7c-0.1,0.9,0.3,2,0.9,2.4c0.9,0.5,2-0.7,2.3-1.9
		c0.3-1.1-0.1-2,0-2.1s0.6,1.2,0.5,2.4c-0.2,1.4-1.3,3-2.6,2.8c-0.9-0.2-1.8-1.4-1.7-2.9C466.7,276.9,467.6,275.9,467.6,275.9z"/>
	<path id="XMLID_224_" class="st0" d="M468.7,281.2c0.1-0.1,11.3,16.2,28.4,17.6c18.3,1.4,32.9-14.9,33.1-14.8
		c0.2,0.2-13.4,17.1-32.5,15.7C479.2,298.4,468.6,281.3,468.7,281.2z"/>
	<circle id="XMLID_223_" class="st0" cx="527.9" cy="278.7" r="1"/>
	<circle id="XMLID_222_" class="st0" cx="532.4" cy="278.7" r="1"/>
	<circle id="XMLID_221_" class="st0" cx="530.2" cy="276" r="1"/>
	<circle id="XMLID_220_" class="st0" cx="530.4" cy="280.9" r="1"/>
	
		<ellipse id="XMLID_219_" transform="matrix(-0.981 0.1941 -0.1941 -0.981 985.4068 454.8795)" class="st0" cx="470.4" cy="275.7" rx="0.6" ry="0.8"/>
	
		<ellipse id="XMLID_218_" transform="matrix(-0.971 -0.2392 0.2392 -0.971 855.6479 655.2993)" class="st0" cx="467.6" cy="275.7" rx="0.6" ry="0.8"/>
	
		<ellipse id="XMLID_217_" transform="matrix(-0.2055 -0.9787 0.9787 -0.2055 296.3026 788.395)" class="st0" cx="468.2" cy="273.9" rx="0.6" ry="0.5"/>
	
		<ellipse id="XMLID_216_" transform="matrix(8.246086e-002 0.9966 -0.9966 8.246086e-002 707.4532 -212.5916)" class="st0" cx="469.2" cy="277.9" rx="0.6" ry="0.5"/>
</g>
</svg>
