<?xml version="1.0" encoding="utf-8"?>
<!-- Generator: Adobe Illustrator 19.0.0, SVG Export Plug-In . SVG Version: 6.00 Build 0)  -->
<svg version="1.1" id="Layer_1" xmlns="http://www.w3.org/2000/svg" xmlns:xlink="http://www.w3.org/1999/xlink" x="0px" y="0px"
	 viewBox="0 0 1000 1000" style="enable-background:new 0 0 1000 1000;" xml:space="preserve">
<style type="text/css">
	.st0{fill:#787878;}
</style>
<g id="Areola_piercing">
	<circle id="XMLID_166_" class="st0" cx="522.2" cy="291.4" r="1.3"/>
	<circle id="XMLID_165_" class="st0" cx="522.4" cy="295.3" r="1.3"/>
	<circle id="XMLID_164_" class="st0" cx="516" cy="284.9" r="1.3"/>
	<circle id="XMLID_163_" class="st0" cx="512.2" cy="285.4" r="1.3"/>
	<circle id="XMLID_162_" class="st0" cx="517.4" cy="303.2" r="1.3"/>
	<circle id="XMLID_161_" class="st0" cx="513.5" cy="303.2" r="1.3"/>
	<circle id="XMLID_160_" class="st0" cx="507.8" cy="296.6" r="1.3"/>
	<circle id="XMLID_159_" class="st0" cx="507.8" cy="293.2" r="1.3"/>
	<ellipse id="XMLID_158_" class="st0" cx="436.2" cy="284.4" rx="0.7" ry="0.9"/>
	<ellipse id="XMLID_157_" class="st0" cx="437.7" cy="283.9" rx="0.7" ry="0.9"/>
	<ellipse id="XMLID_156_" class="st0" cx="435.1" cy="292.2" rx="0.7" ry="0.9"/>
	
		<ellipse id="XMLID_155_" transform="matrix(-0.9989 -4.745027e-002 4.745027e-002 -0.9989 854.8103 600.1753)" class="st0" cx="434.5" cy="289.9" rx="0.7" ry="0.9"/>
	<ellipse id="XMLID_154_" class="st0" cx="442.2" cy="288.1" rx="0.7" ry="0.9"/>
	<ellipse id="XMLID_153_" class="st0" cx="443.1" cy="290.5" rx="0.7" ry="0.9"/>
	
		<ellipse id="XMLID_152_" transform="matrix(-0.9413 0.3376 -0.3376 -0.9413 954.6022 427.724)" class="st0" cx="440.1" cy="296.9" rx="0.7" ry="0.9"/>
	
		<ellipse id="XMLID_151_" transform="matrix(-0.9425 0.3341 -0.3341 -0.9425 956.7655 427.9553)" class="st0" cx="441.6" cy="296.3" rx="0.7" ry="0.9"/>
</g>
</svg>
