<?xml version="1.0" encoding="utf-8"?>
<!-- Generator: Adobe Illustrator 19.0.0, SVG Export Plug-In . SVG Version: 6.00 Build 0)  -->
<svg version="1.1" id="Layer_1" xmlns="http://www.w3.org/2000/svg" xmlns:xlink="http://www.w3.org/1999/xlink" x="0px" y="0px"
	 viewBox="0 0 1000 1000" style="enable-background:new 0 0 1000 1000;" xml:space="preserve">
<style type="text/css">
	.st0{fill:#787878;}
</style>
<g id="Boob_hvy_piercing">
	<path id="XMLID_150_" class="st0" d="M511.9,294.1c0.1,0-0.7,0.9-0.6,2.1c0,1.1,0.7,2.6,2,2.9c1.8,0.5,3.6-1.1,4.1-2.5
		c0.4-1.3-0.4-2.6-0.2-2.7s1.3,1.4,1.2,3c-0.2,1.8-2.1,3.8-4.4,3.6c-1.8-0.2-3.5-1.7-3.6-3.5C510.3,295.3,511.8,294,511.9,294.1z"/>
	<path id="XMLID_149_" class="st0" d="M436.7,290.5c0,0-0.5,0.9-0.5,2c-0.1,1.1,0.4,2.6,1.2,3c1.2,0.6,2.5-0.9,2.8-2.3
		c0.4-1.3-0.1-2.6,0-2.7c0.1-0.1,0.8,1.4,0.6,3c-0.3,1.8-1.7,3.7-3.2,3.4c-1.2-0.3-2.2-1.8-2.1-3.6
		C435.6,291.7,436.7,290.5,436.7,290.5z"/>
	<path id="XMLID_148_" class="st0" d="M438,297.1c0.1-0.1,14,20.1,35.3,21.9c22.7,1.8,40.8-18.6,41-18.4
		c0.2,0.2-16.6,21.2-40.3,19.5C451.2,318.4,437.9,297.2,438,297.1z"/>
	<circle id="XMLID_147_" class="st0" cx="511.6" cy="294" r="1.2"/>
	<circle id="XMLID_146_" class="st0" cx="517.1" cy="294" r="1.2"/>
	<circle id="XMLID_145_" class="st0" cx="514.3" cy="290.6" r="1.2"/>
	<circle id="XMLID_144_" class="st0" cx="514.7" cy="296.8" r="1.2"/>
	
		<ellipse id="XMLID_143_" transform="matrix(-0.981 0.1941 -0.1941 -0.981 928.3824 489.6277)" class="st0" cx="440.2" cy="290.3" rx="0.8" ry="1"/>
	
		<ellipse id="XMLID_142_" transform="matrix(-0.971 -0.2392 0.2392 -0.971 791.3661 676.6553)" class="st0" cx="436.7" cy="290.3" rx="0.8" ry="1"/>
	
		<ellipse id="XMLID_141_" transform="matrix(-0.2055 -0.9787 0.9787 -0.2055 245.4174 775.3432)" class="st0" cx="437.4" cy="288.1" rx="0.8" ry="0.7"/>
	
		<ellipse id="XMLID_140_" transform="matrix(8.246086e-002 0.9966 -0.9966 8.246086e-002 694.4183 -168.4039)" class="st0" cx="438.7" cy="292.9" rx="0.8" ry="0.7"/>
</g>
</svg>
