<?xml version="1.0" encoding="utf-8"?>
<!-- Generator: Adobe Illustrator 19.0.0, SVG Export Plug-In . SVG Version: 6.00 Build 0)  -->
<svg version="1.1" id="Layer_1" xmlns="http://www.w3.org/2000/svg" xmlns:xlink="http://www.w3.org/1999/xlink" x="0px" y="0px"
	 viewBox="0 0 1000 1000" style="enable-background:new 0 0 1000 1000;" xml:space="preserve">
<style type="text/css">
	.st0{fill:#787878;}
</style>
<g id="Areola_piercing_7_">
	<circle id="XMLID_452_" class="st0" cx="549.1" cy="472.6" r="4.6"/>
	<circle id="XMLID_450_" class="st0" cx="550.1" cy="485.6" r="4.6"/>
	<circle id="XMLID_449_" class="st0" cx="528.2" cy="450.5" r="4.6"/>
	<circle id="XMLID_448_" class="st0" cx="515.3" cy="452.1" r="4.6"/>
	<circle id="XMLID_447_" class="st0" cx="532.8" cy="512.7" r="4.6"/>
	<circle id="XMLID_446_" class="st0" cx="519.8" cy="512.7" r="4.6"/>
	<circle id="XMLID_445_" class="st0" cx="500.2" cy="490.2" r="4.6"/>
	<circle id="XMLID_444_" class="st0" cx="500.2" cy="478.6" r="4.6"/>
	<ellipse id="XMLID_443_" class="st0" cx="257.4" cy="448.8" rx="2.4" ry="3"/>
	<ellipse id="XMLID_442_" class="st0" cx="262.1" cy="447" rx="2.4" ry="3"/>
	<ellipse id="XMLID_441_" class="st0" cx="253.4" cy="475.3" rx="2.4" ry="3"/>
	
		<ellipse id="XMLID_440_" transform="matrix(-0.9989 -4.745027e-002 4.745027e-002 -0.9989 480.3226 947.0313)" class="st0" cx="251.4" cy="467.8" rx="2.4" ry="3"/>
	<ellipse id="XMLID_439_" class="st0" cx="277.5" cy="461.5" rx="2.4" ry="3"/>
	<ellipse id="XMLID_438_" class="st0" cx="280.5" cy="469.6" rx="2.4" ry="3"/>
	
		<ellipse id="XMLID_437_" transform="matrix(-0.9413 0.3376 -0.3376 -0.9413 690.8691 861.9293)" class="st0" cx="270.5" cy="491" rx="2.4" ry="3"/>
	
		<ellipse id="XMLID_436_" transform="matrix(-0.9425 0.3341 -0.3341 -0.9425 698.752 857.9261)" class="st0" cx="275.6" cy="489.1" rx="2.4" ry="3"/>
</g>
</svg>
