<?xml version="1.0" encoding="utf-8"?>
<!-- Generator: Adobe Illustrator 19.0.0, SVG Export Plug-In . SVG Version: 6.00 Build 0)  -->
<svg version="1.1" id="Layer_1" xmlns="http://www.w3.org/2000/svg" xmlns:xlink="http://www.w3.org/1999/xlink" x="0px" y="0px"
	 viewBox="0 0 1000 1000" style="enable-background:new 0 0 1000 1000;" xml:space="preserve">
<style type="text/css">
	.st0{fill:#787878;}
</style>
<g id="Boob_hvy_piercing_4_">
	<path id="XMLID_112_" class="st0" d="M514.6,307.2c0.1,0-0.9,1.1-0.7,2.6c0,1.2,0.9,3.1,2.5,3.6c2.1,0.6,4.4-1.2,4.9-3
		c0.5-1.6-0.4-3.1-0.2-3.2c0.2-0.1,1.6,1.7,1.4,3.6c-0.2,2.1-2.6,4.6-5.3,4.3c-2.1-0.2-4.2-2-4.3-4.2
		C512.8,308.7,514.5,307.1,514.6,307.2z"/>
	<path id="XMLID_111_" class="st0" d="M424,302.7c0,0-0.6,1.1-0.6,2.5c-0.1,1.2,0.4,3.1,1.4,3.6c1.4,0.7,3-1.1,3.5-2.8
		c0.4-1.6-0.1-3.1,0-3.2s1,1.7,0.7,3.6c-0.4,2.1-2,4.5-3.8,4.1c-1.4-0.4-2.7-2.1-2.6-4.4C422.6,304.2,424,302.7,424,302.7z"/>
	<path id="XMLID_110_" class="st0" d="M425.6,310.8c0.1-0.1,16.8,24.3,42.6,26.4c27.5,2.1,49.2-22.4,49.4-22.2
		c0.2,0.2-20.1,25.6-48.7,23.5C441.4,336.5,425.5,310.9,425.6,310.8z"/>
	<circle id="XMLID_109_" class="st0" cx="514.3" cy="307.1" r="1.5"/>
	<circle id="XMLID_108_" class="st0" cx="520.9" cy="307.1" r="1.5"/>
	<circle id="XMLID_107_" class="st0" cx="517.6" cy="303" r="1.5"/>
	<circle id="XMLID_106_" class="st0" cx="518.1" cy="310.4" r="1.5"/>
	
		<ellipse id="XMLID_105_" transform="matrix(-0.981 0.1941 -0.1941 -0.981 907.0026 516.2271)" class="st0" cx="428.2" cy="302.5" rx="1" ry="1.2"/>
	
		<ellipse id="XMLID_104_" transform="matrix(-0.971 -0.2392 0.2392 -0.971 763.2371 697.7639)" class="st0" cx="424" cy="302.6" rx="1" ry="1.2"/>
	
		<ellipse id="XMLID_103_" transform="matrix(-0.2055 -0.9787 0.9787 -0.2055 218.8256 777.2117)" class="st0" cx="424.9" cy="299.8" rx="1" ry="0.9"/>
	
		<ellipse id="XMLID_102_" transform="matrix(8.246086e-002 0.9966 -0.9966 8.246086e-002 695.8627 -144.3055)" class="st0" cx="426.3" cy="305.8" rx="1" ry="0.9"/>
</g>
</svg>
