<?xml version="1.0" encoding="utf-8"?>
<!-- Generator: Adobe Illustrator 19.0.0, SVG Export Plug-In . SVG Version: 6.00 Build 0)  -->
<svg version="1.1" id="Layer_1" xmlns="http://www.w3.org/2000/svg" xmlns:xlink="http://www.w3.org/1999/xlink" x="0px" y="0px"
	 viewBox="0 0 1000 1000" style="enable-background:new 0 0 1000 1000;" xml:space="preserve">
<style type="text/css">
	.st0{fill:#787878;}
</style>
<g id="Boob_hvy_piercing_5_">
	<path id="XMLID_74_" class="st0" d="M512.6,338.1c0.2,0-1.2,1.4-1,3.4c0,1.7,1.2,4.1,3.2,4.6c2.8,0.8,5.8-1.7,6.4-3.9
		c0.7-2.1-0.5-4.1-0.3-4.2c0.3-0.1,2.1,2.2,1.8,4.8c-0.3,2.8-3.4,6-7,5.6c-2.8-0.3-5.4-2.7-5.6-5.4
		C510.1,340,512.4,337.9,512.6,338.1z"/>
	<path id="XMLID_73_" class="st0" d="M394.2,332.3c0,0-0.8,1.4-0.8,3.2c-0.2,1.7,0.5,4.1,1.8,4.8c1.8,1,3.9-1.4,4.4-3.6
		c0.5-2.1-0.2-4.1,0-4.2c0.2-0.2,1.2,2.2,1,4.8c-0.4,2.8-2.7,5.9-5.1,5.3c-1.8-0.4-3.5-2.8-3.4-5.8
		C392.5,334.3,394.2,332.3,394.2,332.3z"/>
	<path id="XMLID_72_" class="st0" d="M396.3,342.8c0.2-0.2,21.9,31.6,55.5,34.4c35.8,2.8,64.2-29.2,64.5-29
		c0.3,0.3-26.1,33.4-63.5,30.7C417,376.4,396.2,343,396.3,342.8z"/>
	<circle id="XMLID_71_" class="st0" cx="512.1" cy="337.9" r="2"/>
	<circle id="XMLID_70_" class="st0" cx="520.8" cy="337.9" r="2"/>
	<circle id="XMLID_69_" class="st0" cx="516.5" cy="332.6" r="2"/>
	<circle id="XMLID_68_" class="st0" cx="517" cy="342.3" r="2"/>
	
		<ellipse id="XMLID_67_" transform="matrix(-0.981 0.1941 -0.1941 -0.981 856.431 580.3391)" class="st0" cx="399.8" cy="332.1" rx="1.2" ry="1.5"/>
	
		<ellipse id="XMLID_66_" transform="matrix(-0.971 -0.2392 0.2392 -0.971 697.4272 749.1066)" class="st0" cx="394.2" cy="332.2" rx="1.2" ry="1.5"/>
	
		<ellipse id="XMLID_65_" transform="matrix(-0.2055 -0.9787 0.9787 -0.2055 155.0886 783.064)" class="st0" cx="395.4" cy="328.6" rx="1.2" ry="1.2"/>
	
		<ellipse id="XMLID_64_" transform="matrix(8.246086e-002 0.9966 -0.9966 8.246086e-002 699.5681 -87.4572)" class="st0" cx="397.3" cy="336.2" rx="1.2" ry="1.2"/>
</g>
</svg>
