<?xml version="1.0" encoding="utf-8"?>
<!-- Generator: Adobe Illustrator 19.0.0, SVG Export Plug-In . SVG Version: 6.00 Build 0)  -->
<svg version="1.1" id="Layer_1" xmlns="http://www.w3.org/2000/svg" xmlns:xlink="http://www.w3.org/1999/xlink" x="0px" y="0px"
	 viewBox="0 0 1000 1000" style="enable-background:new 0 0 1000 1000;" xml:space="preserve">
<style type="text/css">
	.st0{fill:#787878;}
</style>
<g id="Boob_hvy_piercing_1_">
	<path id="XMLID_36_" class="st0" d="M512.7,380.9c0.2,0-1.5,1.9-1.3,4.5c0,2.2,1.5,5.4,4.4,6.2c3.7,1.2,7.7-2.2,8.6-5.2
		c1-2.8-0.7-5.4-0.4-5.6s2.8,3,2.5,6.4c-0.4,3.7-4.5,8.1-9.4,7.6c-3.7-0.4-7.4-3.6-7.6-7.4C509.4,383.6,512.6,380.7,512.7,380.9z"/>
	<path id="XMLID_35_" class="st0" d="M353.6,373.3c0,0-1.2,1.9-1.2,4.4c-0.2,2.2,0.7,5.4,2.5,6.4c2.5,1.3,5.2-1.9,6-4.9
		c0.7-2.8-0.2-5.4,0-5.6c0.2-0.2,1.7,3,1.3,6.4c-0.5,3.7-3.6,7.9-6.8,7.1c-2.5-0.5-4.7-3.7-4.5-7.7
		C351.4,375.8,353.6,373.3,353.6,373.3z"/>
	<path id="XMLID_34_" class="st0" d="M356.4,387.3c0.2-0.2,29.5,42.5,74.6,46.3c48.2,3.7,86.4-39.3,86.7-38.9
		c0.4,0.4-35.2,45-85.4,41.4C384.3,432.4,356.3,387.6,356.4,387.3z"/>
	<circle id="XMLID_33_" class="st0" cx="512.1" cy="380.7" r="2.7"/>
	<circle id="XMLID_32_" class="st0" cx="523.9" cy="380.7" r="2.7"/>
	<circle id="XMLID_31_" class="st0" cx="518" cy="373.6" r="2.7"/>
	<circle id="XMLID_30_" class="st0" cx="518.7" cy="386.6" r="2.7"/>
	
		<ellipse id="XMLID_29_" transform="matrix(-0.981 0.1941 -0.1941 -0.981 787.6197 668.8575)" class="st0" cx="361" cy="373" rx="1.7" ry="2"/>
	
		<ellipse id="XMLID_28_" transform="matrix(-0.971 -0.2392 0.2392 -0.971 607.6005 819.9565)" class="st0" cx="353.6" cy="373.1" rx="1.7" ry="2"/>
	
		<ellipse id="XMLID_27_" transform="matrix(-0.2055 -0.9787 0.9787 -0.2055 67.8569 791.334)" class="st0" cx="355.1" cy="368.1" rx="1.7" ry="1.5"/>
	
		<ellipse id="XMLID_26_" transform="matrix(8.246086e-002 0.9966 -0.9966 8.246086e-002 705.519 -9.3184)" class="st0" cx="357.8" cy="378.5" rx="1.7" ry="1.5"/>
</g>
</svg>
