<?xml version="1.0" encoding="utf-8"?>
<!-- Generator: Adobe Illustrator 19.0.0, SVG Export Plug-In . SVG Version: 6.00 Build 0)  -->
<svg version="1.1" id="Layer_1" xmlns="http://www.w3.org/2000/svg" xmlns:xlink="http://www.w3.org/1999/xlink" x="0px" y="0px"
	 viewBox="0 0 1000 1000" style="enable-background:new 0 0 1000 1000;" xml:space="preserve">
<style type="text/css">
	.st0{fill:#787878;}
</style>
<g id="Areola_piercing_5_">
	<circle id="XMLID_90_" class="st0" cx="528.8" cy="333.9" r="2.1"/>
	<circle id="XMLID_89_" class="st0" cx="529.2" cy="339.9" r="2.1"/>
	<circle id="XMLID_88_" class="st0" cx="519.1" cy="323.7" r="2.1"/>
	<circle id="XMLID_87_" class="st0" cx="513.1" cy="324.4" r="2.1"/>
	<circle id="XMLID_86_" class="st0" cx="521.3" cy="352.5" r="2.1"/>
	<circle id="XMLID_85_" class="st0" cx="515.2" cy="352.5" r="2.1"/>
	<circle id="XMLID_84_" class="st0" cx="506.2" cy="342" r="2.1"/>
	<circle id="XMLID_83_" class="st0" cx="506.2" cy="336.7" r="2.1"/>
	<ellipse id="XMLID_82_" class="st0" cx="393.5" cy="322.8" rx="1.2" ry="1.4"/>
	<ellipse id="XMLID_81_" class="st0" cx="395.7" cy="322" rx="1.2" ry="1.4"/>
	<ellipse id="XMLID_80_" class="st0" cx="391.7" cy="335.1" rx="1.2" ry="1.4"/>
	
		<ellipse id="XMLID_79_" transform="matrix(-0.9989 -4.745027e-002 4.745027e-002 -0.9989 765.4359 681.4077)" class="st0" cx="390.8" cy="331.6" rx="1.2" ry="1.4"/>
	<ellipse id="XMLID_78_" class="st0" cx="402.9" cy="328.7" rx="1.2" ry="1.4"/>
	<ellipse id="XMLID_77_" class="st0" cx="404.3" cy="332.5" rx="1.2" ry="1.4"/>
	
		<ellipse id="XMLID_76_" transform="matrix(-0.9413 0.3376 -0.3376 -0.9413 891.3522 529.8864)" class="st0" cx="399.6" cy="342.4" rx="1.2" ry="1.4"/>
	
		<ellipse id="XMLID_75_" transform="matrix(-0.9425 0.3341 -0.3341 -0.9425 894.9265 529.0276)" class="st0" cx="402" cy="341.5" rx="1.2" ry="1.4"/>
</g>
</svg>
