<?xml version="1.0" encoding="utf-8"?>
<!-- Generator: Adobe Illustrator 19.0.0, SVG Export Plug-In . SVG Version: 6.00 Build 0)  -->
<svg version="1.1" id="Layer_1" xmlns="http://www.w3.org/2000/svg" xmlns:xlink="http://www.w3.org/1999/xlink" x="0px" y="0px"
	 viewBox="0 0 1000 1000" style="enable-background:new 0 0 1000 1000;" xml:space="preserve">
<style type="text/css">
	.st0{fill:#787878;}
</style>
<g id="Areola_piercing_4_">
	<circle id="XMLID_128_" class="st0" cx="527.1" cy="304" r="1.6"/>
	<circle id="XMLID_127_" class="st0" cx="527.4" cy="308.5" r="1.6"/>
	<circle id="XMLID_126_" class="st0" cx="519.7" cy="296.1" r="1.6"/>
	<circle id="XMLID_125_" class="st0" cx="515.1" cy="296.7" r="1.6"/>
	<circle id="XMLID_124_" class="st0" cx="521.3" cy="318.2" r="1.6"/>
	<circle id="XMLID_123_" class="st0" cx="516.7" cy="318.2" r="1.6"/>
	<circle id="XMLID_122_" class="st0" cx="509.7" cy="310.2" r="1.6"/>
	<circle id="XMLID_121_" class="st0" cx="509.7" cy="306.1" r="1.6"/>
	<ellipse id="XMLID_120_" class="st0" cx="423.4" cy="295.4" rx="0.9" ry="1.1"/>
	<ellipse id="XMLID_119_" class="st0" cx="425.1" cy="294.8" rx="0.9" ry="1.1"/>
	<ellipse id="XMLID_118_" class="st0" cx="422" cy="304.8" rx="0.9" ry="1.1"/>
	
		<ellipse id="XMLID_117_" transform="matrix(-0.9989 -4.745027e-002 4.745027e-002 -0.9989 827.7614 624.0518)" class="st0" cx="421.3" cy="302.2" rx="0.9" ry="1.1"/>
	<ellipse id="XMLID_116_" class="st0" cx="430.6" cy="300" rx="0.9" ry="1.1"/>
	<ellipse id="XMLID_115_" class="st0" cx="431.7" cy="302.8" rx="0.9" ry="1.1"/>
	
		<ellipse id="XMLID_114_" transform="matrix(-0.9413 0.3376 -0.3376 -0.9413 935.8943 458.1015)" class="st0" cx="428.1" cy="310.4" rx="0.9" ry="1.1"/>
	
		<ellipse id="XMLID_113_" transform="matrix(-0.9425 0.3341 -0.3341 -0.9425 938.5138 458.1071)" class="st0" cx="429.9" cy="309.8" rx="0.9" ry="1.1"/>
</g>
</svg>
