<?xml version="1.0" encoding="utf-8"?>
<!-- Generator: Adobe Illustrator 19.0.0, SVG Export Plug-In . SVG Version: 6.00 Build 0)  -->
<svg version="1.1" id="Layer_1" xmlns="http://www.w3.org/2000/svg" xmlns:xlink="http://www.w3.org/1999/xlink" x="0px" y="0px"
	 viewBox="0 0 1000 1000" style="enable-background:new 0 0 1000 1000;" xml:space="preserve">
<style type="text/css">
	.st0{fill:#787878;}
</style>
<g id="Areola_piercing_2_">
	<circle id="XMLID_204_" class="st0" cx="520.9" cy="276.9" r="1.1"/>
	<circle id="XMLID_203_" class="st0" cx="521.2" cy="280" r="1.1"/>
	<circle id="XMLID_202_" class="st0" cx="516" cy="271.7" r="1.1"/>
	<circle id="XMLID_201_" class="st0" cx="512.9" cy="272.1" r="1.1"/>
	<circle id="XMLID_200_" class="st0" cx="517.1" cy="286.5" r="1.1"/>
	<circle id="XMLID_199_" class="st0" cx="514" cy="286.5" r="1.1"/>
	<circle id="XMLID_198_" class="st0" cx="509.4" cy="281" r="1.1"/>
	<circle id="XMLID_197_" class="st0" cx="509.4" cy="278.4" r="1.1"/>
	<ellipse id="XMLID_196_" class="st0" cx="451.7" cy="271.3" rx="0.5" ry="0.7"/>
	<ellipse id="XMLID_195_" class="st0" cx="452.9" cy="270.8" rx="0.5" ry="0.7"/>
	<ellipse id="XMLID_194_" class="st0" cx="450.8" cy="277.6" rx="0.5" ry="0.7"/>
	
		<ellipse id="XMLID_193_" transform="matrix(-0.9989 -4.745027e-002 4.745027e-002 -0.9989 887.0982 572.5067)" class="st0" cx="450.3" cy="275.7" rx="0.5" ry="0.7"/>
	<ellipse id="XMLID_192_" class="st0" cx="456.5" cy="274.3" rx="0.5" ry="0.7"/>
	<ellipse id="XMLID_191_" class="st0" cx="457.2" cy="276.2" rx="0.5" ry="0.7"/>
	
		<ellipse id="XMLID_190_" transform="matrix(-0.9413 0.3376 -0.3376 -0.9413 978.0084 392.5092)" class="st0" cx="454.9" cy="281.3" rx="0.5" ry="0.7"/>
	
		<ellipse id="XMLID_189_" transform="matrix(-0.9425 0.3341 -0.3341 -0.9425 979.7283 392.9969)" class="st0" cx="456.1" cy="280.8" rx="0.5" ry="0.7"/>
</g>
</svg>
