<?xml version="1.0" encoding="utf-8"?>
<!-- Generator: Adobe Illustrator 19.0.0, SVG Export Plug-In . SVG Version: 6.00 Build 0)  -->
<svg version="1.1" id="Layer_1" xmlns="http://www.w3.org/2000/svg" xmlns:xlink="http://www.w3.org/1999/xlink" x="0px" y="0px"
	 viewBox="0 0 1000 1000" style="enable-background:new 0 0 1000 1000;" xml:space="preserve">
<style type="text/css">
	.st0{fill:#787878;}
</style>
<g id="Pussy_Piercing">
	<path id="XMLID_263_" class="st0" d="M489.6,443.9c0.1-0.1,1.3,0.5,1.4,1.7c0.1,0.9-0.6,2-1.7,2c-1,0.1-1.8-0.7-2-1.5
		c-0.2-1.1,0.6-2,0.7-2s-0.6,1.1-0.2,1.9c0.3,0.4,0.8,0.8,1.3,0.7c0.7-0.1,1.2-0.7,1.2-1.2C490.4,444.6,489.5,443.9,489.6,443.9z"/>
	<path id="XMLID_262_" class="st0" d="M486.6,445c0.1,0,0.7,1.2,0,2.2c-0.5,0.7-1.7,1.1-2.6,0.4c-0.8-0.6-0.9-1.7-0.5-2.5
		c0.5-0.9,1.8-1.1,1.8-1s-1.2,0.4-1.3,1.3c-0.1,0.4,0.1,1.1,0.6,1.4c0.5,0.4,1.3,0.2,1.7-0.2C486.9,446.1,486.5,445,486.6,445z"/>
	<path id="XMLID_261_" class="st0" d="M487.5,451.5c0.1,0,0.8,1.2,0.3,2.2c-0.4,0.8-1.6,1.2-2.6,0.7c-0.9-0.5-1.1-1.6-0.7-2.4
		c0.4-1,1.7-1.2,1.7-1.2c0.1,0.1-1.2,0.5-1.2,1.4c-0.1,0.4,0.2,1.1,0.7,1.3c0.6,0.3,1.3,0.1,1.7-0.4
		C487.9,452.6,487.4,451.5,487.5,451.5z"/>
	<path id="XMLID_260_" class="st0" d="M490.7,450.6c0.1-0.1,1.4,0.4,1.7,1.4c0.2,0.9-0.4,2-1.4,2.2c-1,0.3-1.9-0.4-2.1-1.2
		c-0.4-1,0.4-2,0.4-2c0.1,0-0.4,1.2,0.1,1.9c0.3,0.4,0.9,0.7,1.4,0.5c0.6-0.2,1-0.9,1-1.4C491.8,451.1,490.6,450.6,490.7,450.6z"/>
	<path id="XMLID_259_" class="st0" d="M492.8,457.1c0.1-0.1,1.4,0.4,1.7,1.5c0.2,0.9-0.4,2-1.4,2.2c-1,0.2-1.9-0.5-2.1-1.2
		c-0.4-1,0.4-2,0.4-2c0.1,0-0.4,1.2,0.1,1.9c0.3,0.4,0.9,0.7,1.4,0.5c0.6-0.2,1-0.9,1-1.3C493.8,457.7,492.8,457.2,492.8,457.1z"/>
	<path id="XMLID_258_" class="st0" d="M490.1,458.5c0.1,0,0.8,1.2,0.3,2.2c-0.4,0.8-1.6,1.2-2.6,0.7c-0.9-0.5-1.1-1.6-0.7-2.4
		c0.4-1,1.7-1.2,1.7-1.2c0.1,0.1-1.2,0.5-1.2,1.4c-0.1,0.4,0.2,1.1,0.7,1.3c0.6,0.3,1.3,0.1,1.7-0.4
		C490.4,459.6,490,458.5,490.1,458.5z"/>
</g>
</svg>
