<?xml version="1.0" encoding="utf-8"?>
<!-- Generator: Adobe Illustrator 19.0.0, SVG Export Plug-In . SVG Version: 6.00 Build 0)  -->
<svg version="1.1" id="Layer_1" xmlns="http://www.w3.org/2000/svg" xmlns:xlink="http://www.w3.org/1999/xlink" x="0px" y="0px"
	 viewBox="0 0 1000 1000" style="enable-background:new 0 0 1000 1000;" xml:space="preserve">
<style type="text/css">
	.st0{fill:#787878;}
</style>
<g id="Pussy_Hvy_Piercing">
	<path id="XMLID_275_" class="st0" d="M491.3,459.9c0.2,0,2,2.8,0.8,5.2c-1,2-3.6,3.1-6,2c-2.1-1.1-2.8-3.7-2-5.6
		c0.9-2.4,3.7-3.1,3.9-2.9c0.1,0.2-2.6,1.4-2.7,3.6c-0.1,1.2,0.5,2.6,1.9,3.1c1.4,0.6,3.1,0,3.9-1
		C492.4,462.6,491.2,460,491.3,459.9z"/>
	
		<ellipse id="XMLID_274_" transform="matrix(-0.9904 0.1385 -0.1385 -0.9904 1031.9863 859.9408)" class="st0" cx="486.1" cy="465.9" rx="1.8" ry="2"/>
	
		<ellipse id="XMLID_273_" transform="matrix(-0.9904 0.1385 -0.1385 -0.9904 1037.9608 861.3239)" class="st0" cx="489" cy="466.8" rx="1.7" ry="1.8"/>
	<path id="XMLID_272_" class="st0" d="M488,449.7c0.2,0,1.7,3,0.1,5.2c-1.2,1.8-4.1,2.6-6.1,1.2c-2-1.4-2.2-4.1-1.2-5.8
		c1.2-2.2,4.2-2.6,4.3-2.4c0.1,0.2-2.8,1.1-3.1,3.1c-0.2,1.2,0.2,2.6,1.4,3.4c1.3,0.9,3.1,0.4,4-0.4
		C488.7,452.5,487.9,449.7,488,449.7z"/>
	<ellipse id="XMLID_271_" class="st0" cx="480.6" cy="453.1" rx="1.8" ry="2"/>
	<ellipse id="XMLID_270_" class="st0" cx="482.6" cy="455.4" rx="1.7" ry="1.8"/>
	<path id="XMLID_269_" class="st0" d="M491.3,459.3c-0.2,0-1.4,3.2,0.4,5.2c1.4,1.7,4.3,2.2,6.2,0.6c1.9-1.5,1.9-4.3,0.8-5.9
		c-1.3-2.1-4.4-2.2-4.4-2s2.8,0.8,3.4,2.8c0.3,1.1,0,2.6-1.1,3.5c-1.2,1-3,0.7-4-0.2C490.9,462.1,491.5,459.3,491.3,459.3z"/>
	
		<ellipse id="XMLID_268_" transform="matrix(0.9965 -8.364829e-002 8.364829e-002 0.9965 -37.0735 43.2815)" class="st0" cx="498" cy="464.1" rx="1.8" ry="2"/>
	
		<ellipse id="XMLID_267_" transform="matrix(0.9965 -8.364948e-002 8.364948e-002 0.9965 -37.2023 43.0654)" class="st0" cx="495.3" cy="465.5" rx="1.7" ry="1.8"/>
	<path id="XMLID_266_" class="st0" d="M488.5,449.9c-0.2,0-0.8,3.4,1.3,5.1c1.7,1.3,4.6,1.4,6.2-0.5c1.5-1.9,1-4.5-0.4-6
		c-1.8-1.8-4.7-1.3-4.7-1.2c-0.1,0.3,2.9,0.3,3.9,2.1c0.5,1.1,0.5,2.6-0.4,3.6c-1.1,1.2-2.8,1.2-4,0.6
		C488.7,452.7,488.7,449.8,488.5,449.9z"/>
	
		<ellipse id="XMLID_265_" transform="matrix(0.9627 -0.2707 0.2707 0.9627 -104.7882 150.3477)" class="st0" cx="492.7" cy="455.1" rx="1.8" ry="2"/>
	
		<ellipse id="XMLID_264_" transform="matrix(0.9627 -0.2707 0.2707 0.9627 -104.396 151.0398)" class="st0" cx="495.4" cy="454" rx="1.7" ry="1.8"/>
</g>
</svg>
