<?xml version="1.0" encoding="utf-8"?>
<!-- Generator: Adobe Illustrator 19.0.0, SVG Export Plug-In . SVG Version: 6.00 Build 0)  -->
<svg version="1.1" id="Layer_1" xmlns="http://www.w3.org/2000/svg" xmlns:xlink="http://www.w3.org/1999/xlink" x="0px" y="0px"
	 viewBox="0 0 1000 1000" style="enable-background:new 0 0 1000 1000;" xml:space="preserve">
<style type="text/css">
	.st0{fill:#010101;}
	.st1{fill:#F6E0E8;}
</style>
<g id="Ball_0">
	<path id="XMLID_15_" class="st0" d="M472.8,446.8c0.7,2,1.6,2.3,2.3,2.5c1.4,0.4,2.2-0.1,4.6,0.6c1.1,0.4,1.8,1.2,3.6,1.2
		c0.4,0,2.9,0.4,5-1.5c1.3-1.2,1.2-3,1.2-5.7c0-2-0.4-3.3-0.7-4.1c-0.5-1.3-0.8-2.1-1.5-2.6c-1.7-1.1-4.2,0.1-5.5,0.7
		c-1.4,0.7-3.1-0.2-4.7,1.3C474.5,441.3,471.9,444.4,472.8,446.8z"/>
	<path id="XMLID_14_" class="st1" d="M472.9,444.7c-0.1,1.2,0.4,2.7,1.5,3.5c1.2,0.9,2,0.1,4.5,0.7c2,0.5,1.9,1.2,3.5,1.3
		c0.4,0.1,3.3,0.4,5.1-1.3c1.3-1.3,1.2-3.2,1.2-5.9c0-2-0.4-3.4-0.7-4.2c-0.5-1.4-0.8-2.2-1.6-2.7c-1.7-1.2-4.4,0.1-5.6,0.7
		c-1.4,0.7-2.3,1.4-3.9,2.9C474.2,442,473,443.2,472.9,444.7z"/>
</g>
</svg>
