<?xml version="1.0" encoding="utf-8"?>
<!-- Generator: Adobe Illustrator 19.0.0, SVG Export Plug-In . SVG Version: 6.00 Build 0)  -->
<svg version="1.1" id="Layer_1" xmlns="http://www.w3.org/2000/svg" xmlns:xlink="http://www.w3.org/1999/xlink" x="0px" y="0px"
	 viewBox="0 0 1000 1000" style="enable-background:new 0 0 1000 1000;" xml:space="preserve">
<style type="text/css">
	.st0{fill:#010101;}
	.st1{fill:#F6E0E8;}
</style>
<g id="Ball_3_1_">
	<path id="XMLID_468_" class="st0" d="M449.9,468.6c2.5,6.8,5.7,8,8,8.7c5.1,1.5,7.8-0.5,16.1,2.1c3.8,1.2,6.4,4.3,12.7,4.3
		c1.2,0,10.2,1.7,17.4-5.3c4.5-4.4,4.3-10.8,4.2-20.2c-0.1-7-1.5-11.6-2.5-14.3c-1.7-4.8-2.8-7.5-5.4-9.3
		c-5.9-3.8-14.8,0.3-19.4,2.5c-4.9,2.3-8.9-1-14.6,4.2C458.1,449,446.9,460.3,449.9,468.6z"/>
	<path id="XMLID_467_" class="st1" d="M449.9,462.5c-0.2,4.4,1.5,9.9,5.4,12.6c4.3,3.1,7.5,0.3,16.7,2.7c7.2,1.9,7,4.1,12.6,5
		c1.3,0.2,12.1,1.7,18.5-5c4.8-4.9,4.6-11.6,4.5-21.7c-0.1-7.4-1.6-12.5-2.7-15.3c-1.9-5.1-3-8-5.9-10c-6.4-4.2-16,0.5-20.7,2.7
		c-5.3,2.5-8.3,5.3-14.5,10.8C454.9,452.8,450.3,457,449.9,462.5z"/>
</g>
</svg>
