<?xml version="1.0" encoding="utf-8"?>
<!-- Generator: Adobe Illustrator 19.0.0, SVG Export Plug-In . SVG Version: 6.00 Build 0)  -->
<svg version="1.1" id="Layer_1" xmlns="http://www.w3.org/2000/svg" xmlns:xlink="http://www.w3.org/1999/xlink" x="0px" y="0px"
	 viewBox="0 0 1000 1000" style="enable-background:new 0 0 1000 1000;" xml:space="preserve">
<style type="text/css">
	.st0{fill:#010101;}
	.st1{fill:#F6E0E8;}
</style>
<g id="Ball_1">
	<path id="XMLID_17_" class="st0" d="M463.7,452.6c1.2,3.4,2.8,3.9,3.9,4.3c2.5,0.7,3.8-0.3,7.9,1.1c1.9,0.5,3.1,2.1,6.3,2.1
		c0.6,0,5,0.8,8.5-2.7c2.2-2.2,2.1-5.3,2-9.9c-0.1-3.4-0.8-5.7-1.2-7c-0.9-2.3-1.3-3.6-2.7-4.5c-2.9-1.9-7.3,0.2-9.5,1.2
		c-2.4,1.2-4.7-0.7-7.5,1.8C467.4,442.8,462.3,448.6,463.7,452.6z"/>
	<path id="XMLID_16_" class="st1" d="M463.7,449.5c-0.2,2.1,0.7,4.7,2.6,6.1c2.1,1.5,3.6,0.2,8.1,1.3c3.5,0.9,3.4,2,6.1,2.4
		c0.6,0.1,5.8,0.8,8.9-2.4c2.3-2.4,2.2-5.6,2.1-10.5c-0.1-3.6-0.8-6-1.3-7.4c-0.9-2.5-1.4-3.9-2.8-4.8c-3.1-2-7.7,0.2-10,1.3
		c-2.6,1.2-4,2.6-6.9,5.2C466.1,444.7,463.9,446.8,463.7,449.5z"/>
</g>
</svg>
