<?xml version="1.0" encoding="utf-8"?>
<!-- Generator: Adobe Illustrator 19.0.0, SVG Export Plug-In . SVG Version: 6.00 Build 0)  -->
<svg version="1.1" id="Layer_1" xmlns="http://www.w3.org/2000/svg" xmlns:xlink="http://www.w3.org/1999/xlink" x="0px" y="0px"
	 viewBox="0 0 1000 1000" style="enable-background:new 0 0 1000 1000;" xml:space="preserve">
<style type="text/css">
	.st0{fill:#010101;}
	.st1{fill:#F6E0E8;}
</style>
<g id="Ball_2_1_">
	<path id="XMLID_19_" class="st0" d="M456.7,459.4c2,5.2,4.4,6.1,6.1,6.7c3.9,1.2,6-0.4,12.4,1.6c2.9,0.9,4.9,3.3,9.8,3.3
		c0.9,0,7.8,1.3,13.3-4.1c3.5-3.4,3.3-8.3,3.2-15.5c-0.1-5.3-1.2-8.9-2-10.9c-1.3-3.6-2.1-5.8-4.2-7.1c-4.5-2.9-11.4,0.3-14.8,2
		c-3.7,1.8-6.8-0.8-11.2,3.2C463,444.4,454.4,453.1,456.7,459.4z"/>
	<path id="XMLID_18_" class="st1" d="M456.7,454.8c-0.2,3.4,1.2,7.6,4.2,9.7c3.3,2.4,5.8,0.3,12.8,2c5.5,1.4,5.3,3.1,9.7,3.8
		c1,0.2,9.2,1.3,14.2-3.8c3.6-3.7,3.6-8.9,3.5-16.6c-0.1-5.7-1.2-9.6-2-11.7c-1.4-3.9-2.3-6.1-4.5-7.6c-4.9-3.2-12.3,0.4-15.9,2
		c-4.1,2-6.4,4.1-11.1,8.3C460.5,447.3,456.9,450.5,456.7,454.8z"/>
</g>
</svg>
