<?xml version="1.0" encoding="utf-8"?>
<!-- Generator: Adobe Illustrator 19.0.0, SVG Export Plug-In . SVG Version: 6.00 Build 0)  -->
<svg version="1.1" id="Layer_1" xmlns="http://www.w3.org/2000/svg" xmlns:xlink="http://www.w3.org/1999/xlink" x="0px" y="0px"
	 viewBox="0 0 1000 1000" style="enable-background:new 0 0 1000 1000;" xml:space="preserve">
<style type="text/css">
	.st0{fill:#010101;}
	.st1{fill:#F6E0E8;}
</style>
<g id="Boob_Large_2_">
	<path id="XMLID_211_" class="st0" d="M509.6,219.8c-14.6-0.1-43.6,23.3-51.2,31.2c-13.2,14-7.7,23.4-3.4,36.3
		c9.4,5.8,33.8,8.7,40.3-8.7c5.5,25.7,44.3,23.5,50.4,7.6c7.6-19,1.2-31.9-6.9-37.9C526.1,238.9,523.8,219.9,509.6,219.8"/>
	<path id="XMLID_210_" class="st1" d="M511.2,215.6c-14.6-0.1-40.4,25.2-48.5,31.9c-13.9,11.6-17.9,27.2-7.6,39.7
		c6.5,7.9,33.4,6.1,40.3-8.7c8.5,26.1,38.4,23.5,50.4,7.6c8.7-11.5,6.5-31.8-3.1-39.1C530,237.4,525.5,215.6,511.2,215.6"/>
	<path id="XMLID_209_" class="st0" d="M497.1,261.4c0.5-4,4.2-9.7,14.1-20.8C504.5,250.6,498.7,255.3,497.1,261.4z"/>
	<path id="XMLID_208_" class="st0" d="M495.2,264c1.2-3.4,0.7-9.4-2.6-22.2C493.9,252.5,496.5,258.5,495.2,264z"/>
	<path id="XMLID_207_" class="st0" d="M552.2,244.3c1.6,3.7,1.4,10.5-1.5,25.1C551.4,257.3,554,250.5,552.2,244.3z"/>
</g>
</svg>
