<?xml version="1.0" encoding="utf-8"?>
<!-- Generator: Adobe Illustrator 19.0.0, SVG Export Plug-In . SVG Version: 6.00 Build 0)  -->
<svg version="1.1" id="Layer_1" xmlns="http://www.w3.org/2000/svg" xmlns:xlink="http://www.w3.org/1999/xlink" x="0px" y="0px"
	 viewBox="0 0 1000 1000" style="enable-background:new 0 0 1000 1000;" xml:space="preserve">
<style type="text/css">
	.st0{fill:#010101;}
	.st1{fill:#F6E0E8;}
</style>
<g id="Boob_Large_6_">
	<path id="XMLID_418_" class="st0" d="M501.2,228.8c-50.3-0.2-151.1,80.6-177,108c-45.5,48.1-26.6,80.6-11.5,125.5
		c32.7,20,116.8,30.1,139.2-30.1c19.1,89,153.1,81,174.4,26.5c26-65.9-16.6-122.9-24-130.9C564.8,287.9,550.2,229.1,501.2,228.8"/>
	<path id="XMLID_417_" class="st1" d="M507.1,214.2c-50.3-0.2-140,87.2-168,110.5c-48.1,40.4-62.2,94.2-26.5,137.5
		C335,489.5,428.1,483.3,452,432c29.5,90.5,132.7,81,174.4,26.5c30.2-39.7-1.6-85.7-10.7-135.3C605.8,269,556.2,214.4,507.1,214.2"
		/>
	<path id="XMLID_416_" class="st0" d="M458.1,372.8c2-13.9,14.4-33.5,48.8-71.9C483.6,335.6,463.8,351.5,458.1,372.8z"/>
	<path id="XMLID_415_" class="st0" d="M451.7,381.7c4.2-11.6,2.5-32.4-8.9-76.8C447,341.8,456.1,362.6,451.7,381.7z"/>
	<path id="XMLID_413_" class="st0" d="M549.6,221.4c12.6,6,27.9,23.5,54.1,68C577.7,256.7,568.5,233.1,549.6,221.4z"/>
</g>
</svg>
