<?xml version="1.0" encoding="utf-8"?>
<!-- Generator: Adobe Illustrator 19.0.0, SVG Export Plug-In . SVG Version: 6.00 Build 0)  -->
<svg version="1.1" id="Layer_1" xmlns="http://www.w3.org/2000/svg" xmlns:xlink="http://www.w3.org/1999/xlink" x="0px" y="0px"
	 viewBox="0 0 1000 1000" style="enable-background:new 0 0 1000 1000;" xml:space="preserve">
<style type="text/css">
	.st0{fill:#010101;}
	.st1{fill:#F6E0E8;}
</style>
<g id="Boob_Large">
	<path id="XMLID_173_" class="st0" d="M508,220.6c-18-0.1-54.2,28.9-63.4,38.7c-16.4,17.2-9.6,29-4.2,45.1
		c11.7,7.2,41.9,10.8,49.9-10.8c6.8,31.9,54.9,29.1,62.6,9.5c9.3-23.6,1.4-39.5-8.6-46.9C528.6,244.3,525.6,220.7,508,220.6"/>
	<path id="XMLID_172_" class="st1" d="M510.2,215.4c-18-0.1-50.2,31.3-60.2,39.6c-17.2,14.5-22.3,33.8-9.5,49.3
		c8,9.8,41.4,7.6,49.9-10.8c10.6,32.4,47.6,29.1,62.6,9.5c10.8-14.2,8-39.5-3.8-48.5C533.4,242.5,527.8,215.5,510.2,215.4"/>
	<path id="XMLID_171_" class="st0" d="M492.6,272.2c0.7-5,5.2-12,17.5-25.8C501.7,258.9,494.6,264.6,492.6,272.2z"/>
	<path id="XMLID_170_" class="st0" d="M490.3,275.4c1.5-4.2,0.9-11.6-3.2-27.5C488.6,261.1,491.9,268.6,490.3,275.4z"/>
	<path id="XMLID_169_" class="st0" d="M560.9,251c2,4.6,1.8,13-1.9,31.1C559.9,267.2,563.1,258.6,560.9,251z"/>
</g>
</svg>
