<?xml version="1.0" encoding="utf-8"?>
<!-- Generator: Adobe Illustrator 19.0.0, SVG Export Plug-In . SVG Version: 6.00 Build 0)  -->
<svg version="1.1" id="Layer_1" xmlns="http://www.w3.org/2000/svg" xmlns:xlink="http://www.w3.org/1999/xlink" x="0px" y="0px"
	 viewBox="0 0 1000 1000" style="enable-background:new 0 0 1000 1000;" xml:space="preserve">
<style type="text/css">
	.st0{fill:#010101;}
	.st1{fill:#F6E0E8;}
</style>
<g id="Boob_Large_4_">
	<path id="XMLID_135_" class="st0" d="M510,218.5c-21.8-0.1-65.4,34.8-76.6,46.7c-19.7,20.8-11.6,34.9-5,54.4
		c14.1,8.7,50.6,13,60.2-13.1c8.3,38.5,66.2,35,75.4,11.5c11.3-28.5,1.7-47.7-10.4-56.6C534.8,247.1,531.2,218.6,510,218.5"/>
	<path id="XMLID_134_" class="st1" d="M512.6,212.2c-21.8-0.1-60.6,37.8-72.7,47.8c-20.8,17.5-26.9,40.7-11.5,59.4
		c9.7,11.8,49.9,9.2,60.2-13.1c12.8,39.1,57.5,35,75.4,11.5c13.1-17.1,9.7-47.6-4.6-58.6C540.6,244.8,533.8,212.3,512.6,212.2"/>
	<path id="XMLID_133_" class="st0" d="M491.3,280.8c0.9-6,6.2-14.5,21.1-31.1C502.4,264.7,493.8,271.5,491.3,280.8z"/>
	<path id="XMLID_132_" class="st0" d="M488.6,284.6c1.9-5.1,1.1-14-3.8-33.2C486.5,267.3,490.4,276.3,488.6,284.6z"/>
	<path id="XMLID_131_" class="st0" d="M573.8,255.1c2.4,5.6,2.1,15.6-2.2,37.5C572.6,274.6,576.5,264.3,573.8,255.1z"/>
</g>
</svg>
