<?xml version="1.0" encoding="utf-8"?>
<!-- Generator: Adobe Illustrator 19.0.0, SVG Export Plug-In . SVG Version: 6.00 Build 0)  -->
<svg version="1.1" id="Layer_1" xmlns="http://www.w3.org/2000/svg" xmlns:xlink="http://www.w3.org/1999/xlink" x="0px" y="0px"
	 viewBox="0 0 1000 1000" style="enable-background:new 0 0 1000 1000;" xml:space="preserve">
<style type="text/css">
	.st0{fill:#010101;}
	.st1{fill:#F6E0E8;}
</style>
<g id="Boob_Large_5_">
	<path id="XMLID_97_" class="st0" d="M506.5,222.3c-28.4-0.2-85.3,45.5-100,61c-25.7,27.2-15,45.6-6.5,70.9
		c18.5,11.4,66,16.9,78.6-17.1c10.8,50.2,86.5,45.8,98.5,14.9c14.7-37.2,2.2-62.3-13.6-73.8C538.9,259.7,534.3,222.5,506.5,222.3"/>
	<path id="XMLID_96_" class="st1" d="M509.9,214c-28.4-0.2-79.1,49.2-94.8,62.4c-27.1,22.8-35.1,53.1-14.9,77.7
		c12.6,15.4,65.2,11.9,78.6-17.1c16.6,51.1,75,45.8,98.5,14.9c17.1-22.4,12.6-62.1-6-76.4C546.4,256.7,537.5,214.2,509.9,214"/>
	<path id="XMLID_95_" class="st0" d="M482.2,303.6c1.2-7.8,8.1-18.9,27.5-40.6C496.6,282.6,485.4,291.5,482.2,303.6z"/>
	<path id="XMLID_94_" class="st0" d="M478.5,308.7c2.4-6.6,1.4-18.3-5.1-43.4C475.9,286.1,481,297.8,478.5,308.7z"/>
	<path id="XMLID_93_" class="st0" d="M566.6,240.2c5.3,5.8,9.6,18.2,14,47C573.9,264.7,574,250.4,566.6,240.2z"/>
</g>
</svg>
