<?xml version="1.0" encoding="utf-8"?>
<!-- Generator: Adobe Illustrator 19.0.0, SVG Export Plug-In . SVG Version: 6.00 Build 0)  -->
<svg version="1.1" id="Layer_1" xmlns="http://www.w3.org/2000/svg" xmlns:xlink="http://www.w3.org/1999/xlink" x="0px" y="0px"
	 viewBox="0 0 1000 1000" style="enable-background:new 0 0 1000 1000;" xml:space="preserve">
<style type="text/css">
	.st0{fill:#010101;}
	.st1{fill:#F6E0E8;}
</style>
<g id="Boob_Large_1_">
	<path id="XMLID_59_" class="st0" d="M504.6,225.3c-38.2-0.2-114.7,61.2-134.4,82c-34.6,36.5-20.2,61.2-8.7,95.3
		c24.8,15.2,88.7,22.8,105.7-22.8c14.5,67.5,116.2,61.5,132.4,20.1c19.7-50-12.6-93.3-18.2-99.3
		C552.9,270.2,541.8,225.5,504.6,225.3"/>
	<path id="XMLID_58_" class="st1" d="M509.1,214.2c-38.2-0.2-106.3,66.2-127.5,83.9c-36.5,30.7-47.2,71.5-20.1,104.4
		c16.9,20.7,87.6,16,105.7-22.9c22.4,68.7,100.8,61.5,132.4,20.1c22.9-30.1-1.2-65-8.1-102.7C584,255.8,546.3,214.4,509.1,214.2"/>
	<path id="XMLID_57_" class="st0" d="M471.9,334.6c1.5-10.6,10.9-25.4,37.1-54.6C491.2,306.4,476.2,318.4,471.9,334.6z"/>
	<path id="XMLID_56_" class="st0" d="M467,341.4c3.2-8.8,1.9-24.6-6.8-58.3C463.4,311.1,470.4,326.9,467,341.4z"/>
	<path id="XMLID_55_" class="st0" d="M541.4,219.6c9.6,4.5,21.1,17.9,41.1,51.6C562.7,246.5,555.7,228.5,541.4,219.6z"/>
</g>
</svg>
