<?xml version="1.0" encoding="utf-8"?>
<!-- Generator: Adobe Illustrator 19.0.0, SVG Export Plug-In . SVG Version: 6.00 Build 0)  -->
<svg version="1.1" id="Layer_1" xmlns="http://www.w3.org/2000/svg" xmlns:xlink="http://www.w3.org/1999/xlink" x="0px" y="0px"
	 viewBox="0 0 1000 1000" style="enable-background:new 0 0 1000 1000;" xml:space="preserve">
<style type="text/css">
	.st0{fill:#010101;}
	.st1{fill:#F6E0E8;}
</style>
<g id="Boob_Large_7_">
	<path id="XMLID_460_" class="st0" d="M501,232c-61.3-0.3-184,98.2-215.5,131.6c-55.4,58.6-32.4,98.2-14,152.8
		c39.8,24.4,142.2,36.6,169.5-36.6c23.2,108.3,186.4,98.6,212.4,32.2c31.6-80.2-20.2-149.7-29.2-159.4
		C578.6,304,560.7,232.3,501,232"/>
	<path id="XMLID_459_" class="st1" d="M508.3,214.2c-61.3-0.3-170.5,106.2-204.5,134.6c-58.6,49.2-75.7,114.7-32.2,167.5
		c27.1,33.2,140.5,25.7,169.6-36.8c35.9,110.2,161.6,98.6,212.4,32.2c36.8-48.3-2-104.3-13-164.8C628.4,280.9,568,214.5,508.3,214.2
		"/>
	<path id="XMLID_458_" class="st0" d="M448.6,407.3c2.4-17,17.5-40.8,59.4-87.5C479.6,362,455.6,381.4,448.6,407.3z"/>
	<path id="XMLID_457_" class="st0" d="M440.7,418.2c5.1-14.1,3-39.5-10.8-93.5C435,369.6,446.1,394.9,440.7,418.2z"/>
	<path id="XMLID_456_" class="st0" d="M560,222.9c15.4,7.3,33.9,28.6,65.9,82.8C594.2,266,583,237.2,560,222.9z"/>
</g>
</svg>
