<?xml version="1.0" encoding="utf-8"?>
<!-- Generator: Adobe Illustrator 19.0.0, SVG Export Plug-In . SVG Version: 6.00 Build 0)  -->
<svg version="1.1" id="Layer_1" xmlns="http://www.w3.org/2000/svg" xmlns:xlink="http://www.w3.org/1999/xlink" x="0px" y="0px"
	 viewBox="0 0 1000 1000" style="enable-background:new 0 0 1000 1000;" xml:space="preserve">
<style type="text/css">
	.st0{fill:#F6E0E8;}
</style>
<path id="Butt_3" class="st0" d="M548.6,389.8c2.1-0.5,7.6,3.1,18.7,10.3c5,3.3,11.1,9,25.3,19.2c10.5,7.5,18.5,13.2,24.8,21.8
	c0,0,16.4,22.6,7.9,55.2c-0.7,3-1.8,6-1.8,6c-1.5,4-3.5,7.3-7,14.5c-5.2,10.6-5.7,12.9-7.7,16.7c-5.3,10.1-10.2,12.7-18.8,22.6
	c-5,5.7-8.3,10.6-10.8,14.7c-6.6,11-7.2,12.9-8.4,13C558.8,584.5,526.7,395.3,548.6,389.8z"/>
</svg>
