<?xml version="1.0" encoding="utf-8"?>
<!-- Generator: Adobe Illustrator 19.0.0, SVG Export Plug-In . SVG Version: 6.00 Build 0)  -->
<svg version="1.1" id="Layer_1" xmlns="http://www.w3.org/2000/svg" xmlns:xlink="http://www.w3.org/1999/xlink" x="0px" y="0px"
	 viewBox="0 0 1000 1000" style="enable-background:new 0 0 1000 1000;" xml:space="preserve">
<style type="text/css">
	.st0{fill:#F6E0E8;}
</style>
<g id="Feet">
	<path id="XMLID_281_" class="st0" d="M488.6,863.6c0.7,1.8,1.5,1.7,2.9,4.2c0,0,2,3.6,2.2,8.1c0.2,5.3-3.9,7.6-9.2,15.1
		c-8.1,11.6-6.2,17.3-12.7,20.7c-2.1,1.2-5,1.6-10.8,2.7c-0.5,0.1-3.3,0.3-9,0.6c-2.4,0.2-4.6,0.3-6.3-1.3c-0.4-0.4-1.3-1.2-1.2-2.2
		c0.2-1.6,3.1-1.9,5.7-3.1c3.6-1.8,5.5-4.9,7.3-7.6c2.8-4.4,1.8-6,5.5-16.4c1.7-4.6,1.9-4.4,3-8.1c1.6-5,1.6-6.8,3.1-12.3
		c1.9-7,3.6-12.8,5.2-14.4c4.8-4.9,10.8-2.8,12.4,1.2C488.2,853.7,486.8,859,488.6,863.6z"/>
	<path id="XMLID_280_" class="st0" d="M531.5,880.7c0.4-6.6,5.7-12.8,8.5-30.2c0.6-4.1,2.8-4.8,5.2-6c3.7-1.7,10.6-2.7,11,6
		c0.4,6.1-0.6,16.4,0,27.2c0.4,6.5,0.2,11.4,2,21.2c1.9,10,2.8,15.1,6,20.7c3.9,6.9,8.1,9.2,7.3,12.1c-0.6,2.4-4.1,2.9-9.2,3.7
		c-4.8,0.7-9.6,1.4-15.1-1.3c-1.4-0.7-4-2-6.2-4.7c-5.2-6.1-2.2-13.2-4.7-24.4C532.8,889.2,530.9,890.1,531.5,880.7z"/>
</g>
</svg>
