<?xml version="1.0" encoding="utf-8"?>
<!-- Generator: Adobe Illustrator 19.2.1, SVG Export Plug-In . SVG Version: 6.00 Build 0)  -->
<svg version="1.1" id="Flaccid_white" xmlns="http://www.w3.org/2000/svg" xmlns:xlink="http://www.w3.org/1999/xlink" x="0px"
	 y="0px" viewBox="0 0 1000 1000" style="enable-background:new 0 0 1000 1000;" xml:space="preserve">
<style type="text/css">
	.st0{fill:#F6E0E8;}
</style>
<g id="Flaccid_4">
	<path d="M455.5,477.5c0.1,0.3,0.7,0.5,1.4,0.7c5.2,0.5,5.2,8.1,4.1,12.9c-0.1,0.4-0.2,0.9-0.3,1.3c-1.6,5.7-4.1,8.1-4.1,8.1
		c-0.5,0.5-2.3,2.3-4.5,3.1c-0.6,0.2-1.1,0.4-1.8,0.4c-7.4-0.3-10.7-7.2-11.7-13.5c-0.2-0.7-0.3-1.3-0.4-2c-0.5-2.8-0.4-5.7,1-7.3
		c0.3-0.4,0.7-0.6,1-0.9c0.3-0.3,0.6-0.6,0.8-1.1"/>
	<path d="M439.6,469.5c0-0.9,0-2.3,0.1-3.9c0-0.8,0.2-3.9,0.9-8.4c0.4-2.6,0.8-4.7,0.9-5.2c2.8-13.8,12.7-20.7,12.7-20.8
		c1.1-0.9,3.7-2.4,4.8-3.3c2.2-1.4,9.1-4.6,18.7-1.7c1.4,0.4,10.9,4.4,12.4,7c1.9,3.2-1.2-2.1-1.9-1.4c-0.3,0.3-0.8,0.7-1.5,1.5
		c-0.8,1.1-1.1,2-1.3,2.4c-0.8,1.7-2.7,2.2-5.5,3.4c-3.6,1.4-5.9,2.4-8.1,4c-1.6,1.2-2.8,2.6-5,5.3c-2,2.4-3.1,3.8-4.1,6
		c-0.3,0.7-0.9,2.2-2,5.2c-0.7,1.8-0.9,2.6-1.2,3.5c-0.5,1.6-0.8,3-0.9,4c-0.6,2.4-2.1,7-6.2,10.7c-2,1.8-4.6,4.3-7.1,3.6
		C440.7,480.4,439.7,470.2,439.6,469.5z"/>
	<path class="st0" d="M472,425.9c5-0.3,16,3.1,18,7.4c1.6,3.5,0.7-1.2-1.7,2c-1.5,0.7-3.9,1.7-6.8,2.9c-6.6,2.7-7.9,2.9-10.3,4.7
		c-2.6,1.9-4.4,4.2-5.4,5.4c-0.8,1-1.9,2.4-3,4.2c-0.3,0.5-0.6,1-0.9,1.5c-0.3,0.5-0.5,0.9-0.7,1.3c-2,6.1-4.7,12.2-3.6,18
		c0,0.6,0,1.1,0,1.7c0,0.6-0.1,1.1-0.1,1.7c-1.6,3.1,2.5,2.4,3.1,5.1c0.7,3.4,0,6.1-0.3,9.4c-0.1,0.5-0.3,1-0.4,1.5
		c-1.5,4.7-3.7,6.7-3.7,6.7c-0.4,0.4-1.4,1.4-2.8,2.2c-0.4,0.3-0.9,0.5-1.4,0.7c-7.7,2.4-11.1-6.4-12.8-12c-0.2-0.6-0.3-1.2-0.4-1.9
		c-0.4-2.5-0.4-5.2,1-6.7c0.3-0.3,0.7-0.6,1-0.8s0.6-0.5,0.7-1c-2.6-8.3-0.6-15.8,0.4-23.6c0.1-0.6,0.2-1.1,0.3-1.7
		c0.6-3.8,0.5-4.8,2.1-8.4c0.6-1.3,2.4-6.8,7.4-11.8C460.3,425.7,466.7,426.2,472,425.9z"/>
</g>
</svg>
