<?xml version="1.0" encoding="utf-8"?>
<!-- Generator: Adobe Illustrator 19.2.1, SVG Export Plug-In . SVG Version: 6.00 Build 0)  -->
<svg version="1.1" id="Layer_1" xmlns="http://www.w3.org/2000/svg" xmlns:xlink="http://www.w3.org/1999/xlink" x="0px" y="0px"
	 viewBox="0 0 1000 1000" style="enable-background:new 0 0 1000 1000;" xml:space="preserve">
<style type="text/css">
	.st0{fill:#F6E0E8;}
</style>
<g id="Flaccid_white">
	<g id="Flaccid_5">
		<path d="M445.9,491.2c0.1,0.4,1,0.7,1.8,0.9c6.7,0.6,6.7,10.6,5.3,16.7c-0.1,0.6-0.3,1.1-0.4,1.7c-2.1,7.4-5.3,10.5-5.3,10.5
			c-0.6,0.6-2.9,3-5.9,4.1c-0.7,0.3-1.5,0.5-2.3,0.6c-9.6-0.4-13.9-9.4-15.2-17.5c-0.2-0.8-0.4-1.7-0.6-2.6
			c-0.6-3.6-0.5-7.4,1.3-9.4c0.4-0.5,0.9-0.8,1.3-1.1c0.4-0.4,0.8-0.7,1-1.4"/>
		<path d="M425.2,480.8c0-1.2,0-2.9,0.1-5.1c0.1-1.1,0.3-5,1.1-10.9c0.5-3.4,1-6.1,1.1-6.7c3.6-17.9,16.5-26.9,16.5-27
			c1.4-1.2,4.8-3.2,6.2-4.3c2.9-1.8,11.9-6,24.2-2.2c1.8,0.5,14.1,5.8,16.1,9.1c2.5,4.2-1.6-2.7-2.5-1.8c-0.4,0.4-1.1,0.9-1.9,2
			c-1.1,1.4-1.5,2.6-1.7,3.1c-1,2.2-3.5,2.9-7.2,4.4c-4.7,1.9-7.7,3.1-10.6,5.3c-2.1,1.6-3.6,3.4-6.5,6.9c-2.6,3.1-4,4.9-5.3,7.8
			c-0.4,0.9-1.1,2.8-2.6,6.7c-0.9,2.4-1.2,3.4-1.6,4.6c-0.6,2.1-1,3.9-1.2,5.2c-0.8,3.1-2.8,9.1-8,14c-2.6,2.4-6,5.5-9.3,4.6
			C426.7,495,425.3,481.8,425.2,480.8z"/>
		<path class="st0" d="M467.4,424.1c6.5-0.4,20.8,4.1,23.4,9.6c2.1,4.6,1-1.5-2.3,2.6c-1.9,0.8-5,2.2-8.9,3.7
			c-8.6,3.5-10.3,3.8-13.4,6.1c-3.3,2.5-5.7,5.5-7,7c-1.1,1.3-2.5,3.2-3.9,5.5c-0.4,0.7-0.8,1.4-1.1,2c-0.3,0.6-0.6,1.2-0.9,1.7
			c-2.6,7.9-6.1,15.8-4.7,23.3c0,0.7,0,1.5,0,2.2s-0.1,1.4-0.2,2.2c-2.1,4,3.2,3.1,4.1,6.6c0.9,4.4,0,7.9-0.3,12.3
			c-0.2,0.7-0.4,1.3-0.6,1.9c-2,6.1-4.8,8.7-4.8,8.7c-0.6,0.5-1.9,1.8-3.6,2.9c-0.6,0.3-1.2,0.7-1.8,0.9c-10,3.1-14.4-8.3-16.6-15.6
			c-0.2-0.8-0.4-1.6-0.5-2.4c-0.6-3.3-0.5-6.8,1.3-8.7c0.4-0.4,0.9-0.7,1.3-1.1c0.4-0.3,0.7-0.7,0.9-1.3
			c-3.4-10.8-0.7-20.5,0.5-30.7c0.1-0.8,0.2-1.5,0.3-2.2c0.8-4.9,0.7-6.3,2.8-10.9c0.8-1.8,3.1-8.8,9.7-15.3
			C452.2,423.9,460.4,424.5,467.4,424.1z"/>
	</g>
</g>
</svg>
