<?xml version="1.0" encoding="utf-8"?>
<!-- Generator: Adobe Illustrator 19.2.1, SVG Export Plug-In . SVG Version: 6.00 Build 0)  -->
<svg version="1.1" id="Flaccid_white" xmlns="http://www.w3.org/2000/svg" xmlns:xlink="http://www.w3.org/1999/xlink" x="0px"
	 y="0px" viewBox="0 0 1000 1000" style="enable-background:new 0 0 1000 1000;" xml:space="preserve">
<style type="text/css">
	.st0{fill:#F6E0E8;}
</style>
<g id="Flaccid_0">
	<path d="M481.5,440.9c0,0.1,0.2,0.1,0.3,0.1c1.1,0.1,1.1,1.7,0.8,2.7c0,0.1,0,0.2-0.1,0.3c-0.3,1.2-0.8,1.7-0.8,1.7
		c-0.1,0.1-0.5,0.5-0.9,0.6c-0.1,0-0.2,0.1-0.4,0.1c-1.5-0.1-2.2-1.5-2.4-2.8c0-0.1-0.1-0.3-0.1-0.4c-0.1-0.6-0.1-1.2,0.2-1.5
		c0.1-0.1,0.1-0.1,0.2-0.2s0.1-0.1,0.2-0.2"/>
	<path d="M478.2,439.2c0-0.2,0-0.5,0-0.8c0-0.2,0-0.8,0.2-1.7c0.1-0.5,0.2-1,0.2-1.1c0.6-2.8,2.6-4.3,2.6-4.3c0.2-0.2,0.8-0.5,1-0.7
		c0.5-0.3,1.9-1,3.9-0.3c0.3,0.1,2.2,0.9,2.6,1.4c0.4,0.7-0.3-0.4-0.4-0.3c-0.1,0.1-0.2,0.1-0.3,0.3c-0.2,0.2-0.2,0.4-0.3,0.5
		c-0.2,0.4-0.6,0.5-1.1,0.7c-0.7,0.3-1.2,0.5-1.7,0.8c-0.3,0.3-0.6,0.5-1,1.1c-0.4,0.5-0.6,0.8-0.8,1.2c-0.1,0.1-0.2,0.5-0.4,1.1
		c-0.1,0.4-0.2,0.5-0.2,0.7c-0.1,0.3-0.2,0.6-0.2,0.8c-0.1,0.5-0.4,1.4-1.3,2.2c-0.4,0.4-0.9,0.9-1.5,0.7
		C478.5,441.5,478.2,439.4,478.2,439.2z"/>
	<path class="st0" d="M484.9,430.2c1-0.1,3.3,0.7,3.7,1.5c0.3,0.7,0.2-0.2-0.4,0.4c-0.3,0.1-0.8,0.3-1.4,0.6c-1.4,0.6-1.6,0.6-2.1,1
		c-0.5,0.4-0.9,0.9-1.1,1.1c-0.2,0.2-0.4,0.5-0.6,0.9c-0.1,0.1-0.1,0.2-0.2,0.3c-0.1,0.1-0.1,0.2-0.1,0.3c-0.4,1.3-1,2.5-0.8,3.7
		c0,0.1,0,0.2,0,0.3s0,0.2,0,0.3c-0.3,0.6,0.5,0.5,0.7,1c0.1,0.7,0,1.3-0.1,1.9c0,0.1-0.1,0.2-0.1,0.3c-0.3,1-0.8,1.4-0.8,1.4
		c-0.1,0.1-0.3,0.3-0.6,0.5c-0.1,0.1-0.2,0.1-0.3,0.1c-1.6,0.5-2.3-1.3-2.6-2.5c0-0.1-0.1-0.3-0.1-0.4c-0.1-0.5-0.1-1.1,0.2-1.4
		c0.1-0.1,0.1-0.1,0.2-0.2s0.1-0.1,0.1-0.2c-0.5-1.7-0.1-3.3,0.1-4.9c0-0.1,0-0.2,0.1-0.3c0.1-0.8,0.1-1,0.4-1.7
		c0.1-0.3,0.5-1.4,1.5-2.4C482.5,430.2,483.8,430.3,484.9,430.2z"/>
</g>
</svg>
