<?xml version="1.0" encoding="utf-8"?>
<!-- Generator: Adobe Illustrator 19.2.1, SVG Export Plug-In . SVG Version: 6.00 Build 0)  -->
<svg version="1.1" id="Layer_1" xmlns="http://www.w3.org/2000/svg" xmlns:xlink="http://www.w3.org/1999/xlink" x="0px" y="0px"
	 viewBox="0 0 1000 1000" style="enable-background:new 0 0 1000 1000;" xml:space="preserve">
<style type="text/css">
	.st0{fill:#F6E0E8;}
</style>
<g id="Flaccid_white">
	<g id="Flaccid_6">
		<path d="M434.2,504.1c0.2,0.4,1.2,0.8,2.3,1.2c8.3,0.8,8.3,13,6.5,20.7c-0.2,0.7-0.3,1.4-0.5,2c-2.5,9.1-6.6,13-6.6,13
			c-0.8,0.8-3.6,3.6-7.2,5c-0.9,0.3-1.8,0.6-2.8,0.7c-11.9-0.4-17.2-11.6-18.7-21.6c-0.3-1-0.5-2.1-0.7-3.2
			c-0.8-4.4-0.7-9.1,1.7-11.7c0.5-0.6,1.1-1,1.7-1.4c0.5-0.4,1-0.9,1.2-1.7"/>
		<path d="M408.7,491.3c0-1.5,0-3.6,0.2-6.2c0.1-1.3,0.3-6.2,1.4-13.5c0.6-4.2,1.2-7.5,1.4-8.3C416,441.2,432,430,432,430
			c1.8-1.4,5.9-3.9,7.7-5.3c3.6-2.3,14.6-7.4,29.9-2.7c2.2,0.7,17.4,7.1,19.9,11.2c3.1,5.2-1.9-3.3-3.1-2.2
			c-0.5,0.4-1.3,1.1-2.4,2.4c-1.3,1.7-1.8,3.2-2.1,3.9c-1.2,2.7-4.3,3.6-8.9,5.4c-5.8,2.3-9.4,3.8-13,6.5c-2.6,2-4.4,4.2-8,8.6
			c-3.1,3.9-4.9,6-6.6,9.6c-0.5,1.1-1.4,3.5-3.2,8.3c-1.1,3-1.5,4.2-1.9,5.7c-0.8,2.6-1.2,4.8-1.5,6.4c-1,3.9-3.4,11.2-9.9,17.2
			c-3.2,2.9-7.3,6.8-11.4,5.7C410.4,508.8,408.8,492.5,408.7,491.3z"/>
		<path class="st0" d="M460.7,421.3c8-0.5,25.7,5,28.8,11.9c2.6,5.6,1.2-1.9-2.8,3.3c-2.4,1-6.2,2.7-10.9,4.6
			c-10.6,4.3-12.7,4.7-16.5,7.5c-4.1,3.1-7.1,6.7-8.7,8.7c-1.3,1.6-3,3.9-4.8,6.8c-0.5,0.9-1,1.7-1.4,2.4c-0.4,0.8-0.8,1.5-1.1,2.1
			c-3.2,9.8-7.5,19.5-5.8,28.8c0,0.9,0,1.8,0,2.7c0,0.9-0.1,1.8-0.2,2.7c-2.5,4.9,4,3.8,5,8.2c1.1,5.4,0,9.8-0.4,15.1
			c-0.2,0.8-0.4,1.6-0.7,2.4c-2.4,7.5-5.9,10.8-5.9,10.8c-0.7,0.7-2.3,2.3-4.4,3.6c-0.7,0.4-1.5,0.8-2.3,1.1
			c-12.3,3.9-17.8-10.2-20.5-19.3c-0.2-1-0.5-2-0.7-3c-0.7-4.1-0.6-8.3,1.6-10.7c0.5-0.6,1.1-0.9,1.6-1.3s0.9-0.8,1.1-1.6
			c-4.2-13.4-0.9-25.3,0.7-37.9c0.1-0.9,0.3-1.8,0.4-2.7c1-6.1,0.9-7.7,3.4-13.5c1-2.2,3.9-10.8,11.9-18.9
			C442,421.1,452.1,421.8,460.7,421.3z"/>
	</g>
</g>
</svg>
