<?xml version="1.0" encoding="utf-8"?>
<!-- Generator: Adobe Illustrator 19.2.1, SVG Export Plug-In . SVG Version: 6.00 Build 0)  -->
<svg version="1.1" id="Flaccid_white" xmlns="http://www.w3.org/2000/svg" xmlns:xlink="http://www.w3.org/1999/xlink" x="0px"
	 y="0px" viewBox="0 0 1000 1000" style="enable-background:new 0 0 1000 1000;" xml:space="preserve">
<style type="text/css">
	.st0{fill:#F6E0E8;}
</style>
<g id="Flaccid_2">
	<path d="M470.7,456.5c0.1,0.1,0.4,0.3,0.8,0.4c2.8,0.3,2.8,4.4,2.2,7c-0.1,0.2-0.1,0.5-0.2,0.7c-0.9,3.1-2.2,4.4-2.2,4.4
		c-0.3,0.3-1.2,1.2-2.4,1.7c-0.3,0.1-0.6,0.2-1,0.2c-4-0.1-5.8-3.9-6.3-7.3c-0.1-0.4-0.2-0.7-0.2-1.1c-0.3-1.5-0.2-3.1,0.6-3.9
		c0.2-0.2,0.4-0.3,0.6-0.5c0.2-0.1,0.3-0.3,0.4-0.6"/>
	<path d="M462,452.1c0-0.5,0-1.2,0.1-2.1c0-0.4,0.1-2.1,0.5-4.5c0.2-1.4,0.4-2.5,0.5-2.8c1.5-7.5,6.9-11.2,6.9-11.2
		c0.6-0.5,2-1.3,2.6-1.8c1.2-0.8,4.9-2.5,10.1-0.9c0.7,0.2,5.9,2.4,6.7,3.8c1,1.8-0.7-1.1-1-0.8c-0.2,0.1-0.5,0.4-0.8,0.8
		c-0.4,0.6-0.6,1.1-0.7,1.3c-0.4,0.9-1.5,1.2-3,1.8c-2,0.8-3.2,1.3-4.4,2.2c-0.9,0.7-1.5,1.4-2.7,2.9c-1.1,1.3-1.7,2-2.2,3.2
		c-0.2,0.4-0.5,1.2-1.1,2.8c-0.4,1-0.5,1.4-0.7,1.9c-0.3,0.9-0.4,1.6-0.5,2.2c-0.3,1.3-1.2,3.8-3.4,5.8c-1.1,1-2.5,2.3-3.9,1.9
		C462.6,458,462.1,452.5,462,452.1z"/>
	<path class="st0" d="M479.6,428.5c2.7-0.2,8.7,1.7,9.7,4c0.9,1.9,0.4-0.6-0.9,1.1c-0.8,0.4-2.1,0.9-3.7,1.6
		c-3.6,1.4-4.3,1.6-5.6,2.5c-1.4,1-2.4,2.3-2.9,2.9c-0.4,0.5-1,1.3-1.6,2.3c-0.2,0.3-0.3,0.6-0.5,0.8s-0.3,0.5-0.4,0.7
		c-1.1,3.3-2.5,6.6-2,9.7c0,0.3,0,0.6,0,0.9c0,0.3,0,0.6-0.1,0.9c-0.9,1.7,1.3,1.3,1.7,2.8c0.4,1.8,0,3.3-0.1,5.1
		c-0.1,0.3-0.1,0.6-0.2,0.8c-0.8,2.6-2,3.6-2,3.6c-0.2,0.2-0.8,0.8-1.5,1.2c-0.2,0.1-0.5,0.3-0.8,0.4c-4.2,1.3-6-3.5-6.9-6.5
		c-0.1-0.3-0.2-0.7-0.2-1c-0.2-1.4-0.2-2.8,0.5-3.6c0.2-0.2,0.4-0.3,0.5-0.4c0.2-0.1,0.3-0.3,0.4-0.5c-1.4-4.5-0.3-8.6,0.2-12.8
		c0-0.3,0.1-0.6,0.1-0.9c0.3-2.1,0.3-2.6,1.2-4.6c0.3-0.7,1.3-3.7,4-6.4C473.3,428.4,476.7,428.7,479.6,428.5z"/>
</g>
</svg>
