<?xml version="1.0" encoding="utf-8"?>
<!-- Generator: Adobe Illustrator 19.2.1, SVG Export Plug-In . SVG Version: 6.00 Build 0)  -->
<svg version="1.1" xmlns="http://www.w3.org/2000/svg" xmlns:xlink="http://www.w3.org/1999/xlink" x="0px" y="0px"
	 viewBox="0 0 1000 1000" style="enable-background:new 0 0 1000 1000;" xml:space="preserve">
<style type="text/css">
	.st0{fill:#F6E0E8;}
</style>
<g id="Flaccid_white">
	<g id="Flaccid_3">
		<path d="M463.1,468.2c0.1,0.2,0.6,0.4,1.1,0.6c4,0.4,4,6.4,3.2,10.1c-0.1,0.3-0.2,0.7-0.2,1c-1.2,4.5-3.2,6.3-3.2,6.3
			c-0.4,0.4-1.8,1.8-3.5,2.5c-0.4,0.2-0.9,0.3-1.4,0.3c-5.8-0.2-8.4-5.7-9.2-10.6c-0.1-0.5-0.2-1-0.3-1.6c-0.4-2.2-0.3-4.4,0.8-5.7
			c0.3-0.3,0.6-0.5,0.8-0.7c0.3-0.2,0.5-0.4,0.6-0.8"/>
		<path d="M450.6,461.9c0-0.7,0-1.8,0.1-3c0-0.6,0.2-3,0.7-6.6c0.3-2.1,0.6-3.7,0.7-4.1c2.2-10.8,10-16.3,10-16.3
			c0.9-0.7,2.9-1.9,3.8-2.6c1.8-1.1,7.2-3.6,14.6-1.3c1.1,0.3,8.5,3.5,9.7,5.5c1.5,2.5-1-1.6-1.5-1.1c-0.2,0.2-0.7,0.5-1.2,1.2
			c-0.6,0.8-0.9,1.6-1,1.9c-0.6,1.3-2.1,1.7-4.3,2.6c-2.8,1.1-4.6,1.9-6.4,3.2c-1.3,1-2.2,2-3.9,4.2c-1.5,1.9-2.4,2.9-3.2,4.7
			c-0.3,0.5-0.7,1.7-1.5,4.1c-0.5,1.4-0.7,2.1-0.9,2.8c-0.4,1.3-0.6,2.4-0.7,3.1c-0.5,1.9-1.7,5.5-4.9,8.4c-1.6,1.4-3.6,3.3-5.6,2.8
			C451.5,470.5,450.7,462.5,450.6,461.9z"/>
		<path class="st0" d="M476.1,427.7c3.9-0.2,12.6,2.5,14.1,5.8c1.3,2.8,0.6-0.9-1.4,1.6c-1.2,0.5-3,1.3-5.4,2.3
			c-5.2,2.1-6.2,2.3-8.1,3.7c-2,1.5-3.5,3.3-4.2,4.2c-0.6,0.8-1.5,1.9-2.3,3.3c-0.3,0.4-0.5,0.8-0.7,1.2c-0.2,0.4-0.4,0.7-0.5,1
			c-1.5,4.8-3.7,9.6-2.9,14.1c0,0.4,0,0.9,0,1.3c0,0.4,0,0.9-0.1,1.3c-1.2,2.4,1.9,1.9,2.5,4c0.5,2.7,0,4.8-0.2,7.4
			c-0.1,0.4-0.2,0.8-0.3,1.2c-1.2,3.7-2.9,5.3-2.9,5.3c-0.3,0.3-1.1,1.1-2.2,1.7c-0.3,0.2-0.7,0.4-1.1,0.6c-6,1.9-8.7-5-10-9.4
			c-0.1-0.5-0.2-1-0.3-1.5c-0.3-2-0.3-4.1,0.8-5.2c0.3-0.3,0.5-0.4,0.8-0.6c0.2-0.2,0.4-0.4,0.6-0.8c-2-6.5-0.4-12.4,0.3-18.5
			c0.1-0.5,0.1-0.9,0.2-1.3c0.5-3,0.4-3.8,1.7-6.6c0.5-1.1,1.9-5.3,5.8-9.3C466.9,427.6,471.9,427.9,476.1,427.7z"/>
	</g>
</g>
<g id="Chastity_male">
</g>
</svg>
