<?xml version="1.0" encoding="utf-8"?>
<!-- Generator: Adobe Illustrator 19.2.1, SVG Export Plug-In . SVG Version: 6.00 Build 0)  -->
<svg version="1.1" id="Flaccid_white" xmlns="http://www.w3.org/2000/svg" xmlns:xlink="http://www.w3.org/1999/xlink" x="0px"
	 y="0px" viewBox="0 0 1000 1000" style="enable-background:new 0 0 1000 1000;" xml:space="preserve">
<style type="text/css">
	.st0{fill:#F6E0E8;}
</style>
<g id="Flaccid_1">
	<path d="M477.5,449.9c0,0.1,0.3,0.2,0.5,0.3c1.9,0.2,1.9,3.1,1.5,4.9c0,0.2-0.1,0.3-0.1,0.5c-0.6,2.2-1.6,3.1-1.6,3.1
		c-0.2,0.2-0.9,0.9-1.7,1.2c-0.2,0.1-0.4,0.1-0.7,0.2c-2.8-0.1-4-2.7-4.4-5.1c-0.1-0.2-0.1-0.5-0.2-0.8c-0.2-1-0.2-2.1,0.4-2.7
		c0.1-0.1,0.3-0.2,0.4-0.3c0.1-0.1,0.2-0.2,0.3-0.4"/>
	<path d="M471.5,446.8c0-0.3,0-0.9,0-1.5c0-0.3,0.1-1.5,0.3-3.2c0.1-1,0.3-1.8,0.3-2c1-5.2,4.8-7.8,4.8-7.8c0.4-0.3,1.4-0.9,1.8-1.3
		c0.8-0.5,3.4-1.7,7-0.6c0.5,0.2,4.1,1.7,4.7,2.6c0.7,1.2-0.5-0.8-0.7-0.5c-0.1,0.1-0.3,0.3-0.6,0.6c-0.3,0.4-0.4,0.8-0.5,0.9
		c-0.3,0.6-1,0.8-2.1,1.3c-1.4,0.5-2.2,0.9-3.1,1.5c-0.6,0.5-1,1-1.9,2c-0.7,0.9-1.2,1.4-1.6,2.3c-0.1,0.3-0.3,0.8-0.7,2
		c-0.3,0.7-0.4,1-0.5,1.3c-0.2,0.6-0.3,1.1-0.4,1.5c-0.2,0.9-0.8,2.6-2.3,4.1c-0.7,0.7-1.7,1.6-2.7,1.4
		C471.9,450.9,471.5,447.1,471.5,446.8z"/>
	<path class="st0" d="M483.7,430.4c1.9-0.1,6.1,1.2,6.8,2.8c0.6,1.3,0.3-0.4-0.7,0.8c-0.6,0.2-1.5,0.6-2.6,1.1c-2.5,1-3,1.1-3.9,1.8
		c-1,0.7-1.7,1.6-2,2c-0.3,0.4-0.7,0.9-1.1,1.6c-0.1,0.2-0.2,0.4-0.3,0.6s-0.2,0.3-0.3,0.5c-0.7,2.3-1.8,4.6-1.4,6.8
		c0,0.2,0,0.4,0,0.6c0,0.2,0,0.4,0,0.6c-0.6,1.2,0.9,0.9,1.2,1.9c0.3,1.3,0,2.3-0.1,3.6c-0.1,0.2-0.1,0.4-0.2,0.6
		c-0.6,1.8-1.4,2.5-1.4,2.5c-0.2,0.2-0.5,0.5-1,0.8c-0.2,0.1-0.3,0.2-0.5,0.3c-2.9,0.9-4.2-2.4-4.8-4.5c-0.1-0.2-0.1-0.5-0.2-0.7
		c-0.2-1-0.2-2,0.4-2.5c0.1-0.1,0.3-0.2,0.4-0.3c0.1-0.1,0.2-0.2,0.3-0.4c-1-3.1-0.2-6,0.2-8.9c0-0.2,0.1-0.4,0.1-0.6
		c0.2-1.4,0.2-1.8,0.8-3.2c0.2-0.5,0.9-2.6,2.8-4.5C479.3,430.3,481.7,430.5,483.7,430.4z"/>
</g>
</svg>
