<?xml version="1.0" encoding="utf-8"?>
<!-- Generator: Adobe Illustrator 19.0.0, SVG Export Plug-In . SVG Version: 6.00 Build 0)  -->
<svg version="1.1" id="Layer_1" xmlns="http://www.w3.org/2000/svg" xmlns:xlink="http://www.w3.org/1999/xlink" x="0px" y="0px"
	 viewBox="0 0 1000 1000" style="enable-background:new 0 0 1000 1000;" xml:space="preserve">
<style type="text/css">
	.st0{fill:#F6E0E8;}
	.st1{fill:#010101;}
</style>
<g id="Leg_Normal">
	<path id="XMLID_306_" class="st0" d="M446,413.2c0,0-17.1,47.4-18.7,71.7c-3.8,60.3,16.3,123.8,38.4,179.8
		c7.5,61.7,6.2,123.3,8.8,185.4l11.5-0.3c2.2-51.3,34-103.9,16.3-161.5c12.8-54.2,10-72.4,5-160.3c-5.4,94.3,16.6,109.1,26.4,153.5
		c-15.6,58,5.6,110.9,6.4,169h16.3c0.2-58.5,15.6-94.7,7.8-169c23.8-69.9,25.5-131.2,20.7-194.7c-2-26-14.5-75.6-14.5-75.6
		L446,413.2"/>
	<path id="XMLID_305_" class="st1" d="M513.9,619.8c-9.8-40.3-22.5-96.7-18.5-142.8C494.6,521.7,504.8,579.1,513.9,619.8z"/>
</g>
</svg>
