<?xml version="1.0" encoding="utf-8"?>
<!-- Generator: Adobe Illustrator 19.0.0, SVG Export Plug-In . SVG Version: 6.00 Build 0)  -->
<svg version="1.1" id="Layer_1" xmlns="http://www.w3.org/2000/svg" xmlns:xlink="http://www.w3.org/1999/xlink" x="0px" y="0px"
	 viewBox="0 0 1000 1000" style="enable-background:new 0 0 1000 1000;" xml:space="preserve">
<style type="text/css">
	.st0{fill:#010101;}
	.st1{fill:#F6E0E8;}
</style>
<g id="Penis_6">
	<path id="XMLID_13_" class="st0" d="M377.7,353.4c1.4,0.9,1.4,3.5,1.4,3.9c0,7.5,14.3,33.3,27.4,46c39.3,38.2,78.2,48,74.4,30.6
		c-0.5-2.6,3.3-4.1,3.8-5.6c5.1-16.4-19.5-41.2-46.7-63.9c-22.8-19-23.3-18.1-28.6-21.5c-0.8-0.5-2-1.3-2.4-3.8
		c-0.4-2,1.3-4.2,1.4-5.8c0.9-5.9-7.2-10.4-14.7-14.2c-5.8-2.9-17.3-6.4-23.6-1.4c-13.5,10.8-2.9,39.9,3,36.6
		C374.4,353.7,376.2,352.4,377.7,353.4z"/>
	<path id="XMLID_12_" class="st1" d="M377.4,353.4c1.6,1,1.6,3.7,1.6,4.1c0.1,5.1,13,31.1,38.3,53.1c19,16.5,55.9,40.1,68.5,29.6
		c2.2-2,3-4.5,3.5-6.2c5.6-18.5-21.9-42.4-30.2-49.6c-26.6-23.1-42.1-36.5-48-40.4c-0.8-0.5-3.5-2.2-4.1-5.1c-0.4-2.2,0.8-3.4,1-5.1
		c0.7-5.1-8-11-14.3-13.8c-4.9-2.1-15.7-6.8-23-1.6c-11.4,8.3-4.1,33.7,1.6,34.8C373.7,353.7,375.7,352.2,377.4,353.4z"/>
</g>
</svg>
