<?xml version="1.0" encoding="utf-8"?>
<!-- Generator: Adobe Illustrator 19.0.0, SVG Export Plug-In . SVG Version: 6.00 Build 0)  -->
<svg version="1.1" id="Layer_1" xmlns="http://www.w3.org/2000/svg" xmlns:xlink="http://www.w3.org/1999/xlink" x="0px" y="0px"
	 viewBox="0 0 1000 1000" style="enable-background:new 0 0 1000 1000;" xml:space="preserve">
<style type="text/css">
	.st0{fill:#010101;}
	.st1{fill:#F6E0E8;}
</style>
<g id="Penis_2">
	<path id="XMLID_9_" class="st0" d="M446.2,405.6c0.5,0.4,0.5,1.3,0.5,1.5c0,2.8,5.5,12.7,10.5,17.6c15,14.6,29.9,18.3,28.4,11.7
		c-0.2-1,1.2-1.5,1.4-2.1c2-6.3-7.5-15.7-17.9-24.4c-8.7-7.3-9-6.9-10.9-8.3c-0.3-0.2-0.7-0.5-0.9-1.5c-0.2-0.7,0.4-1.6,0.5-2.2
		c0.4-2.3-2.8-4-5.6-5.4c-2.2-1.2-6.7-2.5-9.1-0.5c-5.2,4.1-1.2,15.3,1.2,14C444.9,405.8,445.6,405.3,446.2,405.6z"/>
	<path id="XMLID_8_" class="st1" d="M446.5,406.1c0.6,0.4,0.5,1.3,0.5,1.5c0,1.9,4.9,11.6,14.3,19.9c7.1,6.2,21,15,25.6,11.1
		c0.9-0.7,1.2-1.7,1.3-2.3c2.1-6.9-8.2-15.9-11.3-18.6c-10-8.6-15.7-13.7-17.9-15.1c-0.3-0.2-1.3-0.8-1.5-2c-0.2-0.8,0.3-1.2,0.4-2
		c0.3-2-3-4.2-5.3-5.2c-1.8-0.8-5.9-2.6-8.6-0.5c-4.3,3.1-1.5,12.6,0.5,13C445,406.2,445.8,405.7,446.5,406.1z"/>
</g>
</svg>
