<?xml version="1.0" encoding="utf-8"?>
<!-- Generator: Adobe Illustrator 19.0.0, SVG Export Plug-In . SVG Version: 6.00 Build 0)  -->
<svg version="1.1" id="Layer_1" xmlns="http://www.w3.org/2000/svg" xmlns:xlink="http://www.w3.org/1999/xlink" x="0px" y="0px"
	 viewBox="0 0 1000 1000" style="enable-background:new 0 0 1000 1000;" xml:space="preserve">
<style type="text/css">
	.st0{fill:#010101;}
	.st1{fill:#F6E0E8;}
</style>
<g id="Penis_4">
	<path id="XMLID_13_" class="st0" d="M413.3,379.4c1,0.6,1,2.4,1,2.7c0,5.1,9.7,22.6,18.6,31.2c26.7,25.9,53,32.5,50.4,20.7
		c-0.4-1.8,2.2-2.8,2.6-3.8c3.5-11.1-13.2-27.9-31.6-43.3c-15.5-12.9-15.8-12.3-19.4-14.6c-0.5-0.4-1.3-0.9-1.6-2.6
		c-0.3-1.3,0.9-2.8,1-3.9c0.6-4-4.9-7-10-9.6c-3.9-2-11.7-4.4-16-1c-9.2,7.3-2,27,2,24.8C411.1,379.6,412.3,378.7,413.3,379.4z"/>
	<path id="XMLID_12_" class="st1" d="M413.1,379.4c1.1,0.7,1.1,2.5,1.1,2.8c0.1,3.5,8.8,21.1,25.9,36c12.9,11.2,37.9,27.2,46.4,20.1
		c1.5-1.3,2-3,2.4-4.2c3.8-12.5-14.8-28.7-20.4-33.6c-18-15.6-28.5-24.7-32.5-27.4c-0.5-0.4-2.4-1.5-2.8-3.5
		c-0.3-1.5,0.5-2.3,0.7-3.5c0.4-3.5-5.4-7.5-9.7-9.3c-3.3-1.4-10.7-4.6-15.6-1.1c-7.7,5.6-2.8,22.8,1.1,23.5
		C410.6,379.6,412,378.6,413.1,379.4z"/>
</g>
</svg>
