<?xml version="1.0" encoding="utf-8"?>
<!-- Generator: Adobe Illustrator 19.0.0, SVG Export Plug-In . SVG Version: 6.00 Build 0)  -->
<svg version="1.1" id="Layer_1" xmlns="http://www.w3.org/2000/svg" xmlns:xlink="http://www.w3.org/1999/xlink" x="0px" y="0px"
	 viewBox="0 0 1000 1000" style="enable-background:new 0 0 1000 1000;" xml:space="preserve">
<style type="text/css">
	.st0{fill:#010101;}
	.st1{fill:#F6E0E8;}
</style>
<g id="Penis_5_1_">
	<path id="XMLID_464_" class="st0" d="M396.6,366.1c1.2,0.8,1.2,2.9,1.2,3.2c0,6.2,11.8,27.5,22.6,38c32.5,31.5,64.6,39.6,61.4,25.2
		c-0.4-2.2,2.7-3.4,3.1-4.7c4.2-13.5-16.1-34-38.6-52.7c-18.8-15.7-19.3-14.9-23.6-17.8c-0.6-0.4-1.6-1.1-1.9-3.1
		c-0.3-1.6,1.1-3.5,1.2-4.8c0.8-4.9-6-8.6-12.1-11.7c-4.8-2.4-14.3-5.3-19.5-1.2c-11.2,8.9-2.4,32.9,2.5,30.2
		C393.9,366.4,395.5,365.3,396.6,366.1z"/>
	<path id="XMLID_463_" class="st1" d="M396.4,366.1c1.3,0.9,1.3,3,1.3,3.4c0.1,4.2,10.7,25.7,31.6,43.9
		c15.7,13.6,46.1,33.1,56.5,24.5c1.8-1.6,2.5-3.7,2.9-5.1c4.7-15.3-18.1-35-24.9-40.9c-22-19.1-34.8-30.1-39.6-33.4
		c-0.6-0.4-2.9-1.8-3.4-4.2c-0.3-1.8,0.6-2.8,0.9-4.2c0.5-4.2-6.6-9.1-11.8-11.4c-4-1.7-13-5.6-19-1.3c-9.4,6.8-3.4,27.8,1.3,28.7
		C393.4,366.4,395,365.2,396.4,366.1z"/>
</g>
</svg>
