<?xml version="1.0" encoding="utf-8"?>
<!-- Generator: Adobe Illustrator 19.0.0, SVG Export Plug-In . SVG Version: 6.00 Build 0)  -->
<svg version="1.1" id="Layer_1" xmlns="http://www.w3.org/2000/svg" xmlns:xlink="http://www.w3.org/1999/xlink" x="0px" y="0px"
	 viewBox="0 0 1000 1000" style="enable-background:new 0 0 1000 1000;" xml:space="preserve">
<style type="text/css">
	.st0{fill:#010101;}
	.st1{fill:#F6E0E8;}
</style>
<g id="Penis_0">
	<path id="XMLID_5_" class="st0" d="M472.9,426.4c0.2,0.1,0.2,0.4,0.2,0.5c0,1,1.5,4.4,3.3,6c4.8,4.2,10.2,6.1,9.7,3.9
		c-0.1-0.4,0.4-0.5,0.4-0.7c0.6-2.1-2.1-5.3-5.6-8.3c-2.9-2.5-3.4-2.2-4-2.7c-0.1-0.1-0.3-0.2-0.3-0.5c-0.1-0.3,0.2-0.5,0.2-0.7
		c0.1-0.8-0.9-1.3-1.9-1.8c-0.7-0.4-2.2-0.8-3-0.2c-1.7,1.3-0.7,5.3,0.4,4.7C472.5,426.5,472.7,426.3,472.9,426.4z"/>
	<path id="XMLID_4_" class="st1" d="M473,426.5c0.2,0.2,0.2,0.4,0.2,0.5c0,0.6,1.6,3.9,4.8,6.6c2.4,2,6.9,5,8.5,3.6
		c0.3-0.3,0.4-0.5,0.4-0.8c0.7-2.3-2.8-5.2-3.7-6.1c-3.3-2.8-5.2-4.5-6-5c-0.1-0.1-0.4-0.3-0.5-0.6c-0.1-0.3,0.1-0.4,0.1-0.6
		c0.1-0.6-1-1.3-1.8-1.7c-0.6-0.3-2-0.8-2.8-0.2c-1.4,1.1-0.5,4.2,0.2,4.4C472.6,426.6,472.8,426.4,473,426.5z"/>
</g>
</svg>
