<?xml version="1.0" encoding="utf-8"?>
<!-- Generator: Adobe Illustrator 19.0.0, SVG Export Plug-In . SVG Version: 6.00 Build 0)  -->
<svg version="1.1" id="Layer_1" xmlns="http://www.w3.org/2000/svg" xmlns:xlink="http://www.w3.org/1999/xlink" x="0px" y="0px"
	 viewBox="0 0 1000 1000" style="enable-background:new 0 0 1000 1000;" xml:space="preserve">
<style type="text/css">
	.st0{fill:#010101;}
	.st1{fill:#F6E0E8;}
</style>
<g id="Penis_1">
	<path id="XMLID_7_" class="st0" d="M462.5,418.4c0.4,0.3,0.4,0.8,0.4,1c0,1.8,2.4,7.6,6.3,11.2c9.7,8.8,18.8,11.3,17.9,7.1
		c-0.2-0.6,0.8-1,0.9-1.3c0.8-3-4.1-10-10.7-15.3c-5.5-4.4-6-4.3-7.3-5.1c-0.2-0.1-0.4-0.3-0.5-0.9c-0.1-0.4,0.3-1,0.4-1.3
		c0.2-1.4-1.8-2.5-3.6-3.4c-1.4-0.7-4.2-1.5-5.6-0.4c-3.2,2.6-1.1,9.7,0.7,8.7C461.7,418.5,462.1,418.1,462.5,418.4z"/>
	<path id="XMLID_6_" class="st1" d="M462.5,418.6c0.4,0.3,0.4,0.9,0.4,1c0,1.2,3,7.3,9,12.4c4.4,3.9,13.1,9.3,16,6.9
		c0.5-0.4,0.7-1.1,0.8-1.4c1.3-4.3-5.1-9.9-7-11.6c-6.2-5.4-9.9-8.5-11.2-9.4c-0.2-0.1-0.8-0.5-1-1.2c-0.1-0.5,0.2-0.8,0.3-1.2
		c0.2-1.2-1.9-2.6-3.4-3.2c-1.2-0.4-3.6-1.6-5.3-0.4c-2.7,2-1,7.9,0.4,8.1C461.7,418.7,462.2,418.3,462.5,418.6z"/>
</g>
</svg>
