<?xml version="1.0" encoding="utf-8"?>
<!-- Generator: Adobe Illustrator 19.0.0, SVG Export Plug-In . SVG Version: 6.00 Build 0)  -->
<svg version="1.1" id="Layer_1" xmlns="http://www.w3.org/2000/svg" xmlns:xlink="http://www.w3.org/1999/xlink" x="0px" y="0px"
	 viewBox="0 0 1000 1000" style="enable-background:new 0 0 1000 1000;" xml:space="preserve">
<style type="text/css">
	.st0{fill:#010101;}
	.st1{fill:#F6E0E8;}
</style>
<g id="Penis_3">
	<path id="XMLID_11_" class="st0" d="M430.3,392.5c0.7,0.5,0.8,1.9,0.8,2.1c0,4,7.6,17.9,14.7,24.6c21.1,20.4,41.9,25.7,39.8,16.4
		c-0.3-1.4,1.8-2.1,2-3c2.7-8.8-10.5-22-25-34.2c-12.3-10.2-12.5-9.7-15.4-11.6c-0.4-0.3-1-0.7-1.2-2c-0.2-1.1,0.7-2.2,0.8-3.1
		c0.4-3.2-3.9-5.5-7.9-7.6c-3.1-1.6-9.2-3.5-12.6-0.8c-7.2,5.8-1.6,21.3,1.6,19.6C428.5,392.6,429.5,391.9,430.3,392.5z"/>
	<path id="XMLID_10_" class="st1" d="M430.2,392.5c0.8,0.6,0.8,2,0.8,2.1c0.1,2.7,6.8,16.4,20.3,28.1c10.1,8.8,29.6,21.2,36.2,15.6
		c1.2-1,1.6-2.3,1.9-3.2c3-9.8-11.6-22.4-15.9-26.2c-14-12.2-22.2-19.3-25.4-21.3c-0.4-0.3-1.9-1.2-2.1-2.7
		c-0.2-1.2,0.4-1.8,0.5-2.7c0.4-2.8-4.3-5.9-7.6-7.3c-2.6-1.1-8.3-3.6-12.2-0.8c-6,4.4-2.1,17.9,0.8,18.4
		C428.3,392.6,429.4,391.8,430.2,392.5z"/>
</g>
</svg>
