<?xml version="1.0" encoding="UTF-8" standalone="no"?>
<!-- Generator: Adobe Illustrator 19.0.0, SVG Export Plug-In . SVG Version: 6.00 Build 0)  -->

<svg
   xmlns:dc="http://purl.org/dc/elements/1.1/"
   xmlns:cc="http://creativecommons.org/ns#"
   xmlns:rdf="http://www.w3.org/1999/02/22-rdf-syntax-ns#"
   xmlns:svg="http://www.w3.org/2000/svg"
   xmlns="http://www.w3.org/2000/svg"
   xmlns:sodipodi="http://sodipodi.sourceforge.net/DTD/sodipodi-0.dtd"
   xmlns:inkscape="http://www.inkscape.org/namespaces/inkscape"
   version="1.1"
   id="Layer_1"
   x="0px"
   y="0px"
   viewBox="0 0 1000 1000"
   style="enable-background:new 0 0 1000 1000;"
   xml:space="preserve"
   sodipodi:docname="preg belly 100.svg"
   inkscape:version="0.92.2 (5c3e80d, 2017-08-06)"><metadata
     id="metadata45"><rdf:RDF><cc:Work
         rdf:about=""><dc:format>image/svg+xml</dc:format><dc:type
           rdf:resource="http://purl.org/dc/dcmitype/StillImage" /><dc:title></dc:title></cc:Work></rdf:RDF></metadata><defs
     id="defs43" /><sodipodi:namedview
     pagecolor="#ffffff"
     bordercolor="#666666"
     borderopacity="1"
     objecttolerance="10"
     gridtolerance="10"
     guidetolerance="10"
     inkscape:pageopacity="0"
     inkscape:pageshadow="2"
     inkscape:window-width="1680"
     inkscape:window-height="987"
     id="namedview41"
     showgrid="false"
     inkscape:snap-global="false"
     inkscape:measure-start="0,0"
     inkscape:measure-end="0,0"
     inkscape:zoom="2"
     inkscape:cx="545.96361"
     inkscape:cy="600.87271"
     inkscape:window-x="-8"
     inkscape:window-y="-8"
     inkscape:window-maximized="1"
     inkscape:current-layer="Leg_Normal" /><style
     type="text/css"
     id="style34">
	.st0{fill:#010101;}
	.st1{fill:#F6E0E8;}
	.st2{fill:#D76B93;}
</style><style
     id="style59"
     type="text/css">
	.st0{fill:#010101;}
	.st1{fill:#F6E0E8;}
</style><g
     inkscape:groupmode="layer"
     id="layer1"
     inkscape:label="Layer 1"><g
       id="Leg_Normal"
       transform="translate(-39.648802,-11.229384)" /></g><g
     inkscape:groupmode="layer"
     id="layer3"
     inkscape:label="Layer 3" /><g
     inkscape:groupmode="layer"
     id="layer2"
     inkscape:label="Layer 2"><g
       id="Preg_Belly-1"
       transform="matrix(0.42363273,-0.00346638,0.00338687,0.40450922,249.32988,238.00252)"><path
         d="m 494.22473,431.94097 c 8.65119,-1.26911 13.12608,0.72344 21.53315,-2.31516 21.34938,-7.7407 29.9012,-15.4146 37.48963,-37.90478 3.62677,-23.97982 -5.77124,-58.05381 -19.25926,-75.96694 -8.11213,-10.77353 -10.00026,-13.1249 -33.11002,-11.17175 -17.36777,2.41057 -33.49073,5.07262 -43.71025,19.13363 -6.88573,11.58807 -12.34848,37.1166 -11.5462,64.5651 3.51979,31.82667 16.11551,40.14327 48.60295,43.6599 z"
         class="st0"
         id="XMLID_252_-4"
         inkscape:connector-curvature="0"
         style="fill:#010101"
         sodipodi:nodetypes="cccccccc" /><path
         d="m 494.81397,432.05206 c 8.81587,-0.65772 10.61717,0.0233 10.61717,0.0233 3.10959,-1.20696 3.98998,-0.81048 10.52995,-3.3228 5.42497,-2.12433 5.53012,-1.71289 8.79788,-3.24116 11.13609,-5.20814 24.94568,-12.22864 22.47898,-10.88102 14.46331,-13.05465 3.66243,-18.56552 10.22666,-23.26448 4.2539,-9.61017 10.82714,-38.48748 -13.02389,-56.08498 -6.15516,-13.76321 -7.45105,-16.85922 -12.5039,-24.39355 -1.50944,-1.52039 -3.0003,-4.05234 -6.27655,-6.82304 -2.15645,-2.24905 -5.3111,-2.95866 -6.82838,-3.74157 -6.37506,-3.28948 -13.90562,0.49207 -17.60425,-0.21084 -17.46891,3.26711 -18.27045,4.82805 -26.69869,7.24636 -8.15903,4.98466 -7.24946,-7.07732 -12.96677,8.62769 -5.61144,2.95192 -12.87468,34.92008 -15.32685,41.40491 -16.6494,22.05412 -12.19763,47.36429 3.1016,55.675 6.64051,6.09663 15.52422,11.46163 23.55923,14.33337 1.89991,1.29062 16.95902,2.88103 21.91781,4.65281 z"
         class="st1"
         id="XMLID_251_-6"
         inkscape:connector-curvature="0"
         style="fill:#f6e0e8"
         sodipodi:nodetypes="ccccccccccccccccc" /><ellipse
         ry="6.5197196"
         rx="6.0236797"
         cy="472.41959"
         cx="396.2402"
         class="st2"
         transform="matrix(0.98089865,-0.19451952,0.20438027,0.97889157,0,0)"
         id="XMLID_250_-9"
         style="fill:#d76b93;stroke-width:2.12708855" /></g></g><style
     id="style93"
     type="text/css">
	.st0{fill:#F6E0E8;}
	.st1{fill:#010101;}
</style><style
     id="style3832"
     type="text/css">
	.st0{fill:#010101;}
	.st1{fill:#F6E0E8;}
	.st2{fill:#D76B93;}
</style><style
     id="style3871"
     type="text/css">
	.st0{fill:#010101;}
	.st1{fill:#F6E0E8;}
	.st2{fill:#D76B93;}
</style><style
     id="style3910"
     type="text/css">
	.st0{fill:#010101;}
	.st1{fill:#F6E0E8;}
	.st2{fill:#D76B93;}
</style><style
     id="style4807"
     type="text/css">
	.st0{fill:#010101;}
	.st1{fill:#F6E0E8;}
	.st2{fill:#D76B93;}
</style></svg>