<?xml version="1.0" encoding="utf-8"?>
<!-- Generator: Adobe Illustrator 19.0.0, SVG Export Plug-In . SVG Version: 6.00 Build 0)  -->
<svg version="1.1" id="Layer_1" xmlns="http://www.w3.org/2000/svg" xmlns:xlink="http://www.w3.org/1999/xlink" x="0px" y="0px"
	 viewBox="0 0 1000 1000" style="enable-background:new 0 0 1000 1000;" xml:space="preserve">
<style type="text/css">
	.st0{fill:#010101;}
	.st1{fill:#F6E0E8;}
</style>
<g id="Torso_Normal">
	<path id="Body_Shadow" class="st0" d="M446,413.2c18.5,5,17.1,34.5,49.8,54.3c7.3-16.9,20.1-24.2,32.6-34.3
		c12.4-10,20-18,41.9-21.9c-6.1-10.8-8.3-20.4-9.1-26.3c-1.4-10.3-0.2-18.5,0.8-25.3c1.3-9.1,3.4-15.7,5.8-23
		c6-18.8,9.6-21.7,13.3-34.8c1.7-6.1,5.2-18.4,4-28.5c-4.3-37.3-74.4-71.5-103.8-51.8c-4.3,2.9-6.8,6.3-10,10.7
		c-13.9,19-13,41.2-12.3,57.7c0.3,6.4,1.1,15.9,3.7,27.3c-1.3,7.3-2.8,17.3-3.7,29.3c-1.3,18.3-0.1,25.7-2.7,38.7
		C454.7,392.5,451.9,402.2,446,413.2z"/>
	<path id="Body_Normal_1_" class="st1" d="M493,208.2c0,0-14,4.3-24.7,28.3c-10.7,24-10.5,59.4-4.4,81c-4.9,22.7-3,28.6-5.2,48.7
		c-1.1,10.1-5.1,26.4-12.7,46.9c17.9,5.5,31.8,50.5,49.8,54.3c8.9-18.2,32.8-45.5,74.6-56.2c-9.1-20.7-6.7-34.7-8-47.6
		c-1.6-15.9,10-41.9,12.8-47.9c8.9-21.9,18.3-62.5,10.5-86c-11.7-21.9-21.9-21-21.9-21c-32.6-3.4-34.9-14-30.6-50.1l-22.3,1
		C519.3,203.1,508.1,199.5,493,208.2"/>
</g>
</svg>
