<?xml version="1.0" encoding="utf-8"?>
<!-- Generator: Adobe Illustrator 19.0.0, SVG Export Plug-In . SVG Version: 6.00 Build 0)  -->
<svg version="1.1" id="Layer_1" xmlns="http://www.w3.org/2000/svg" xmlns:xlink="http://www.w3.org/1999/xlink" x="0px" y="0px"
	 viewBox="0 0 1000 1000" style="enable-background:new 0 0 1000 1000;" xml:space="preserve">
<style type="text/css">
	.st0{fill:#010101;}
	.st1{fill:#F6E0E8;}
</style>
<g id="Torso_Unnatural">
	<path id="Body_Shadow_1_" class="st0" d="M446,413.2c18.5,5,17.1,34.5,49.8,54.3c7.3-16.9,20.1-24.2,32.6-34.3
		c12.4-10,20-18,41.9-21.9c-6.3-11.5-13.2-19.1-18.7-24c-7.7-7-15.4-11.5-15.7-19.3c-0.1-4,1.7-7.9,2.8-10.2c2.7-5.8,6.5-9.3,8-10.8
		c6.4-6.1,16.1-16.1,28.6-29.4c6-7.3,12.7-40,12-57.3c-18.4-36.5-83-56.1-106.2-38.7c-1.9,1.5-4.9,4.6-7.4,7.9
		c-11.5,14.7-13.2,30.7-14.4,43.1c-0.5,5-1.6,16.6,0.7,30.3c0.5,3.1,1.3,6.8,2.7,15c1.2,7.2,2.1,13,2.7,17c2,7.7,2.9,14.4,3.3,19.3
		c0.7,8,1,12.7-1,18.3c-0.9,2.5-1.2,2.2-6,10.3c-0.7,1.2-4.7,8-8.7,15.7C451.1,402.1,448.7,407.1,446,413.2z"/>
	<path id="Body_Normal_2_" class="st1" d="M492.9,208.2c0,0-14,4.3-24.7,28.3s-10.5,59.4-4.4,81c2.2,23,7.6,30.9,5.5,51
		c-1.1,10.1-15.7,24.1-23.4,44.6c17.9,5.5,31.8,50.5,49.8,54.3c8.9-18.2,32.8-45.5,74.6-56.2c-9.1-20.7-34-29.7-35.4-42.7
		c-1.6-15.9,25.4-34.2,40.3-52.9c8.9-21.9,18.3-62.5,10.5-86c-11.7-22-21.9-21.1-21.9-21.1c-32.7-3.3-35-14-30.7-50l-22.3,1
		C519.2,203.1,508,199.5,492.9,208.2"/>
</g>
</svg>
